<svg xmlns="http://www.w3.org/2000/svg" width="229.288" height="146.72" viewBox="0 0 229.288 146.72">
  <g id="Grupo_199" data-name="Grupo 199" transform="translate(-994.89 -9047.951)">
    <path id="Trazado_253" data-name="Trazado 253" d="M3415.621,5876.512c-.032-.116-.08-.315-.14-.512-.1-.35-.23-.695-.32-1.049a.783.783,0,0,1,.244-.871,4.054,4.054,0,0,0,1.181-1.9,12.8,12.8,0,0,1,.748-1.77,1.82,1.82,0,0,1,.255-.4c.224-.244.447-.215.594.08a3.131,3.131,0,0,1,.2.583,73.112,73.112,0,0,0,5.13,13.664c.244.5.458,1,1.123,1.087a.634.634,0,0,1,.477.536.574.574,0,0,0,.4.438c1.95.636,3.908,1.187,5.969.493a3.477,3.477,0,0,0,1.4-.834,2.173,2.173,0,0,1,2.469-.373.473.473,0,0,1,.272.568,3.467,3.467,0,0,1-.352.892,12.452,12.452,0,0,1-1.69,2.329,6.207,6.207,0,0,1-3.023,1.81c-.861.237-1.726.455-2.588.687-.287.077-.568.178-.854.26-.348.1-.508.3-.364.663.215.543-.044.841-.5,1.095a12.739,12.739,0,0,1-2.051.956.624.624,0,0,1-.783-.193c-.537-.624-1.188-1.142-1.706-1.787a5.089,5.089,0,0,1-.884-1.617c-.3-.912-.634-1.814-.931-2.729a12.958,12.958,0,0,0-2.408-4.127,36.512,36.512,0,0,1-3.7-5.277,18.428,18.428,0,0,1-1.307-2.8c-.2-.556-.178-.58.315-.877a3.373,3.373,0,0,1,.363-.193c.413-.186.547-.151.8.226.128.188.232.394.345.593a3.1,3.1,0,0,0,.676.771c.121.108.274.215.435.139.186-.087.205-.287.206-.563" transform="translate(-2295.25 3262.536)" fill="#000302"/>
    <path id="Trazado_254" data-name="Trazado 254" d="M3376.065,5870.147a3.991,3.991,0,0,0,.57.635c.442.3.408.666.216,1.081a10.1,10.1,0,0,0-.463,1.07c-.1.317-.274.752.078.943s.607-.188.823-.446.419-.544.627-.817a1.287,1.287,0,0,1,1.446-.543,13.619,13.619,0,0,0,3.963.223c.289-.008.675-.16.826.117s-.222.457-.394.65a61.269,61.269,0,0,0-5.08,6.749,13.837,13.837,0,0,0-1.771,3.631,2.249,2.249,0,0,0,.007,1.925.544.544,0,0,1-.2.731.68.68,0,0,0-.255.666,10.166,10.166,0,0,0,1.612,5.181,1.781,1.781,0,0,0,.541.516c.406.26.8.538,1.193.813a2.129,2.129,0,0,1,.861,1.921c-.007.565-.231.8-.789.842a10.411,10.411,0,0,1-5.77-1.222,3.331,3.331,0,0,1-1.4-1.469,27.625,27.625,0,0,1-1.248-2.9c-.167-.451-.365-.785-.929-.666-.263.056-.426-.11-.547-.324a3.9,3.9,0,0,1-.54-3.346,3.839,3.839,0,0,0,.123-.742,3.312,3.312,0,0,1,1.086-2.233,4.3,4.3,0,0,0,1.412-2.448c.46-1.962,1-3.9,1.6-5.824a21.636,21.636,0,0,1,2.394-4.713" transform="translate(-2295.25 3262.536)" fill="#000302"/>
    <path id="Trazado_255" data-name="Trazado 255" d="M3430.485,5922.635q1.456-5.083,2.912-10.166c.12-.418.241-.836.356-1.256.168-.619.163-.618-.369-1.015a3.323,3.323,0,0,1-.808-.628,12.912,12.912,0,0,1,4-.1,1.329,1.329,0,0,1-.622.76,2.34,2.34,0,0,0-.829,1.294c-1.315,4.457-2.654,8.907-3.982,13.36-.131.438-.253.881-.356,1.326-.068.291-.212.441-.522.421-.182-.011-.366,0-.55,0-.893-.018-.8.146-1.114-.848q-2.021-6.419-4.016-12.847a.4.4,0,0,0-.187-.28c-.185.1-.178.3-.227.463-1.145,3.864-2.252,7.737-3.288,11.631-.135.509-.283,1.015-.4,1.527-.057.238-.171.357-.419.352s-.505,0-.757,0c-.7,0-.7,0-.9-.655-.419-1.357-.827-2.716-1.261-4.068-.8-2.506-1.627-5.007-2.438-7.512-.311-.959-.625-1.916-.909-2.883a2.558,2.558,0,0,0-1.012-1.5c-.179-.12-.4-.233-.456-.481a28.787,28.787,0,0,1,5.428-.044,1.706,1.706,0,0,1-.794.8.838.838,0,0,0-.334,1.106q1.587,5.439,3.143,10.885a1.011,1.011,0,0,0,.2.439c.165-.118.173-.3.222-.471,1.048-3.629,2.1-7.256,3.223-10.862.213-.684.208-.685-.364-1.135-.252-.2-.5-.4-.752-.6-.025-.021-.014-.084-.02-.127a27.828,27.828,0,0,1,5.653,0,6.359,6.359,0,0,1-.9.833.794.794,0,0,0-.244.908c1.168,3.783,2.313,7.574,3.464,11.362.076.1.152.127.227,0" transform="translate(-2295.25 3262.536)" fill="#000302"/>
    <path id="Trazado_256" data-name="Trazado 256" d="M3337.437,5926.159a25.472,25.472,0,0,1-5.224.023,3.044,3.044,0,0,1,.943-.774,1.063,1.063,0,0,0,.523-1.027c-.027-1.328,0-2.658-.013-3.986,0-.608-.025-.631-.613-.632q-2.956-.011-5.914,0c-.6,0-.618.022-.622.625-.009,1.374.006,2.749-.009,4.123a.866.866,0,0,0,.419.8c.356.241.687.516,1.1.83a4.172,4.172,0,0,1-1.745.155c-.573.028-1.147.017-1.719,0a8,8,0,0,1-1.76-.078,2.108,2.108,0,0,1,.862-.793,1.105,1.105,0,0,0,.521-1.025q-.03-4.844,0-9.689a1.113,1.113,0,0,0-.565-1.073,2.05,2.05,0,0,1-.771-.654,21.4,21.4,0,0,1,5.073-.027,1.832,1.832,0,0,1-.819.692,1.206,1.206,0,0,0-.6,1.194c.038,1.076,0,2.153.016,3.23.006.554.031.578.595.58q2.991.011,5.982,0c.535,0,.564-.027.569-.536.012-1.214,0-2.428.008-3.642a.745.745,0,0,0-.377-.676c-.354-.243-.7-.5-1.03-.743.019-.072.021-.1.03-.115s.026-.047.04-.049c1.485-.146,2.974-.03,4.459-.064a.934.934,0,0,1,.578.1,1.223,1.223,0,0,1-.669.615,1.432,1.432,0,0,0-.757,1.465c.036,3.092.027,6.185,0,9.277a1.177,1.177,0,0,0,.578,1.141,3.279,3.279,0,0,1,.908.726" transform="translate(-2295.25 3262.536)" fill="#000302"/>
    <path id="Trazado_257" data-name="Trazado 257" d="M3422.813,5828.532c.014.353-.121.573-.548.675a1.387,1.387,0,0,0-.849.711,4.306,4.306,0,0,1-2.648,2.127,1.287,1.287,0,0,0-.944.781c-1.617,3.08-3.27,6.143-4.9,9.215-1.452,2.728-2.891,5.463-4.342,8.191q-2.643,4.974-5.3,9.941l-4.845,9.09c-.247.465-.486.935-.741,1.4a1.518,1.518,0,0,1-.328.433.42.42,0,0,1-.709-.292,1.4,1.4,0,0,1,.23-.847q1.337-2.635,2.671-5.27,3.112-6.123,6.23-12.245,2.712-5.326,5.432-10.647,2.157-4.221,4.32-8.438c.094-.183.177-.373.277-.552.136-.245.116-.414-.165-.547a.845.845,0,0,1-.46-.856.42.42,0,0,1,.531-.462,2.174,2.174,0,0,1,.4.112,2.975,2.975,0,0,0,1.492.06,1.941,1.941,0,0,0,1.521-1.146c.3-.644.612-1.281.906-1.927.213-.472.354-.553.837-.386a6.6,6.6,0,0,1,.624.286,1.34,1.34,0,0,0,.861.171c.378-.079.42.16.452.427" transform="translate(-2295.25 3262.536)" fill="#000302"/>
    <path id="Trazado_258" data-name="Trazado 258" d="M3363.249,5915.771c0,.5.007.9,0,1.309-.044,2.358.066,4.713.088,7.071a1.27,1.27,0,0,0,.581,1.155,4.49,4.49,0,0,1,1.128.887,17.374,17.374,0,0,1-4.433.089c-.016-.28.223-.373.386-.509,1.115-.934,1.144-.932,1.146-2.335,0-2.863.042-5.725-.032-8.589a.909.909,0,0,0-.416-.805c-.468-.32-.924-.658-1.368-.979.075-.277.264-.23.408-.231.987,0,1.972,0,2.957,0a.777.777,0,0,1,.708.324c1.721,2.374,3.679,4.561,5.464,6.884.613.8,1.242,1.587,1.87,2.375.139.172.235.4.508.483a.715.715,0,0,0,.087-.509c-.012-2.5-.036-4.994-.035-7.49a.958.958,0,0,0-.446-.855,6.841,6.841,0,0,1-1.336-1.13,12.083,12.083,0,0,1,2.248-.077,17.852,17.852,0,0,1,2.225.042,2.195,2.195,0,0,1-.885.951,1.594,1.594,0,0,0-.668,1.413c-.006,1.4-.016,2.794-.018,4.191,0,.688.028,1.375.013,2.061-.033,1.4.075,2.79.133,4.182.028.7-.013.748-.7.764-.16,0-.322-.012-.481,0a.9.9,0,0,1-.856-.432q-3.783-4.8-7.6-9.577a2,2,0,0,0-.675-.662" transform="translate(-2295.25 3262.536)" fill="#000302"/>
    <path id="Trazado_259" data-name="Trazado 259" d="M3341.73,5912.957c.142-.171.338-.122.51-.124.917-.007,1.834,0,2.751,0a.833.833,0,0,1,.777.329c1.6,2.265,3.443,4.338,5.161,6.511.8,1.006,1.578,2.02,2.367,3.031.07.089.122.2.251.214.2-.035.162-.2.161-.324-.023-1.281.027-2.563-.056-3.846-.077-1.209-.048-2.428-.021-3.641a1.223,1.223,0,0,0-.559-1.156,5.05,5.05,0,0,1-1.231-1.063c1.545-.11,2.966-.033,4.4-.051.032.365-.2.464-.357.612-1.225,1.146-1.017.6-1.088,2.378-.056,1.441-.065,2.881-.081,4.322-.021,1.947.089,3.888.183,5.831.017.357-.115.451-.415.458-.092,0-.185,0-.276.006a1.542,1.542,0,0,1-1.557-.694c-2.453-3.167-4.976-6.281-7.478-9.41-.151-.19-.256-.433-.524-.53-.171.182-.111.4-.108.59.041,2.632.092,5.264.13,7.9a1.074,1.074,0,0,0,.488.923,8.833,8.833,0,0,1,1.245.98,17.352,17.352,0,0,1-4.417.071c-.054-.2.1-.279.221-.377.279-.238.553-.482.845-.7a.994.994,0,0,0,.392-.825c.135-2.333.095-4.669.073-7-.009-.867-.1-1.735-.079-2.6a.717.717,0,0,0-.367-.68c-.346-.223-.679-.47-1.007-.719-.136-.1-.324-.176-.336-.4" transform="translate(-2295.25 3262.536)" fill="#000302"/>
    <path id="Trazado_260" data-name="Trazado 260" d="M3300.308,5909.36a2.626,2.626,0,0,1-1.024.783,1.16,1.16,0,0,0-.621,1.173c.041,2.494-.013,4.991.078,7.483.056,1.534.046,3.065.07,4.6a10.482,10.482,0,0,1-2.363,6.662,4.931,4.931,0,0,1-4.213,2.073,2.557,2.557,0,0,1-1.588-.566,1.448,1.448,0,0,1-.431-1.559,1.36,1.36,0,0,1,1.192-.893,1.267,1.267,0,0,1,1.331,1.459c-.021.156-.136.3-.059.526a3.02,3.02,0,0,0,2.316-1.068,4.727,4.727,0,0,0,1.19-3.483c.006-2.241.1-4.484-.067-6.725-.05-.661-.007-1.328-.012-1.991-.014-2.175-.039-4.35-.037-6.524a.893.893,0,0,0-.489-.889c-.4-.222-.781-.478-1.169-.721a.417.417,0,0,1-.262-.337Z" transform="translate(-2295.25 3262.536)" fill="#000302"/>
    <path id="Trazado_261" data-name="Trazado 261" d="M3398.193,5917.335a14.577,14.577,0,0,1,.028,3.916,3.009,3.009,0,0,1-.7-.924.937.937,0,0,0-.9-.492c-1.032.021-2.064,0-3.1.013-.549.007-.593.05-.6.595q-.015,2.1,0,4.194c0,.5.051.554.559.558,1.49.013,2.98,0,4.471.009a.838.838,0,0,0,.734-.419c.316-.444.643-.882.954-1.306.238.074.2.234.2.359.006.665,0,1.329,0,1.994,0,.317-.141.462-.451.463-.138,0-.275.007-.413.007q-4.539,0-9.08,0a1.077,1.077,0,0,1-.751-.136,3.243,3.243,0,0,1,.906-.747,1.126,1.126,0,0,0,.542-1.019c.025-3.23.058-6.46,0-9.691a1.09,1.09,0,0,0-.536-1.021,3.139,3.139,0,0,1-.847-.662c.055-.208.212-.188.341-.188q4.712-.006,9.424,0c.539,0,.586.054.586.6a10.881,10.881,0,0,1-.063,1.992,4.069,4.069,0,0,1-.818-1.013,1.013,1.013,0,0,0-.911-.478c-1.49-.033-2.979-.008-4.469.042-.3.011-.471.108-.47.438q.008,1.925,0,3.85a.4.4,0,0,0,.46.461c1.169,0,2.338,0,3.508,0a.716.716,0,0,0,.606-.379,3.757,3.757,0,0,1,.784-1.021" transform="translate(-2295.25 3262.536)" fill="#000302"/>
    <path id="Trazado_262" data-name="Trazado 262" d="M3494.977,5921.369a3.141,3.141,0,0,1-.8-1.018.86.86,0,0,0-.836-.462c-1.053.024-2.109,0-3.163.011-.555,0-.6.045-.608.582q-.018,2.131,0,4.262c0,.473.043.482.522.516,1.535.1,3.068.028,4.6.005a.743.743,0,0,0,.678-.364c.314-.471.661-.923.975-1.355.174.023.215.1.216.2.006.732.006,1.466.011,2.2,0,.283-.126.425-.415.413-.115,0-.23,0-.344,0q-4.677,0-9.354,0a1.36,1.36,0,0,1-.668-.091,5.29,5.29,0,0,1,1.022-.834.953.953,0,0,0,.421-.8c.175-2.953.03-5.909.087-8.862a2.261,2.261,0,0,0-1.256-2.474.256.256,0,0,1-.16-.222c.131-.163.327-.1.5-.1q4.574-.007,9.147,0c.137,0,.275.01.411.02.181.014.319.1.321.291.009.722,0,1.444,0,2.293a3.207,3.207,0,0,1-.86-1.024,1,1,0,0,0-.9-.49c-1.42.021-2.84,0-4.26.011-.7.005-.745.053-.741.744.007,1.146-.054,2.291.04,3.435.043.526.053.537.567.546,1.078.018,2.155.014,3.232.041a.822.822,0,0,0,.783-.437,3.392,3.392,0,0,1,.78-1.027,16.162,16.162,0,0,1,.058,4" transform="translate(-2295.25 3262.536)" fill="#000302"/>
    <path id="Trazado_263" data-name="Trazado 263" d="M3404.09,5847.085c.012.243-.16.308-.287.384a14.042,14.042,0,0,0-4.419,4.9c-1.114,1.765-2.066,3.618-3.09,5.433a12.517,12.517,0,0,1-2.162,2.828,10.634,10.634,0,0,0-2.37,3,2.165,2.165,0,0,1-.964.95,1.951,1.951,0,0,0-1.124,1.61,1.267,1.267,0,0,1-.668.985c-.5.322-1.008.632-1.513.948a1.059,1.059,0,0,0-.612,1.117c.057.427-.286.65-.639.8a8.323,8.323,0,0,1-2.2.529,11.047,11.047,0,0,1-3.821-.188,4,4,0,0,1-1.974-1.056c-.147-.144-.312-.295-.229-.532a.542.542,0,0,1,.551-.333,4.485,4.485,0,0,1,1.024.095,11.933,11.933,0,0,0,4.3.046,6.147,6.147,0,0,0,1.7-.536c1.136-.583,1.261-1.148,1.163-1.951-.076-.627.018-.73.618-.972.467-.189.947-.346,1.4-.553a1.284,1.284,0,0,0,.83-1.166,1.423,1.423,0,0,1,.658-1.144c.389-.283.765-.587,1.173-.837a10.122,10.122,0,0,0,3.816-4.313c.806-1.644,1.568-3.31,2.477-4.9a11.3,11.3,0,0,1,5-4.839,1.979,1.979,0,0,1,1.347-.3" transform="translate(-2295.25 3262.536)" fill="#000302"/>
    <path id="Trazado_264" data-name="Trazado 264" d="M3465.053,5923.575q0,1.222,0,2.446c0,.228-.132.326-.351.329-.136,0-.274.008-.412.008q-4.4,0-8.8,0a.863.863,0,0,1-.636-.12,4.862,4.862,0,0,1,1.007-.8,1.049,1.049,0,0,0,.5-.978q-.016-4.845,0-9.688a.962.962,0,0,0-.482-.913c-.342-.214-.664-.46-1.038-.72a23.956,23.956,0,0,1,5.393-.034,4.142,4.142,0,0,1-1.065.739.886.886,0,0,0-.486.82c-.106,2.494-.083,4.988-.079,7.483,0,.846.135,1.69.09,2.538-.018.335.11.519.466.518q2.063,0,4.125,0a.787.787,0,0,0,.659-.424,6.8,6.8,0,0,1,.945-1.242l.164.043" transform="translate(-2295.25 3262.536)" fill="#000302"/>
    <path id="Trazado_265" data-name="Trazado 265" d="M3472.611,5919.208c1.587-1.482,3.23-2.9,4.748-4.461a3.2,3.2,0,0,1,.292-.289c.3-.235.253-.473.074-.769-.429-.71-.418-.719.443-.722q1.408,0,2.817,0c.2,0,.4.021.6.032.047.187-.07.24-.167.278a12.03,12.03,0,0,0-3.594,2.593c-.846.77-1.673,1.56-2.5,2.354-.373.36-.369.413-.028.782.962,1.041,1.926,2.081,2.9,3.108,1.215,1.277,2.444,2.538,3.666,3.808a.421.421,0,0,1,.183.432c-1.54,0-3.092.036-4.663-.03a1.31,1.31,0,0,1,.278-.762.589.589,0,0,0-.115-.793c-.847-.928-1.68-1.871-2.527-2.8-.8-.878-1.61-1.746-2.416-2.619-.047-.033-.062-.064-.047-.1s.032-.047.048-.047" transform="translate(-2295.25 3262.536)" fill="#000302"/>
    <path id="Trazado_266" data-name="Trazado 266" d="M3472.611,5919.208c0,.048,0,.1,0,.143-.215.172-.154.418-.155.638-.006,1.512.009,3.024-.011,4.535a.973.973,0,0,0,.474.911,4.946,4.946,0,0,1,1.045.784,28.459,28.459,0,0,1-5.383.048,3.236,3.236,0,0,1,.97-.757,1.1,1.1,0,0,0,.575-1.061q-.031-4.811,0-9.621a1.076,1.076,0,0,0-.56-1.071,2.279,2.279,0,0,1-.8-.631,23.1,23.1,0,0,1,5.075-.08c-.128.367-.468.5-.738.653a1.262,1.262,0,0,0-.664,1.3c.044,1.166.009,2.336.018,3.5,0,.24-.079.512.155.705" transform="translate(-2295.25 3262.536)" fill="#000302"/>
    <path id="Trazado_267" data-name="Trazado 267" d="M3384.584,5912.925a2.825,2.825,0,0,1-.925.762,1.028,1.028,0,0,0-.525.886c-.029.5-.072,1-.072,1.507q0,3.61,0,7.219c0,.16,0,.321,0,.481a1.783,1.783,0,0,0,1,1.9.952.952,0,0,1,.551.489,23.8,23.8,0,0,1-5.322-.02,4.443,4.443,0,0,1,1.084-.832.924.924,0,0,0,.447-.855q-.019-4.914,0-9.83a.956.956,0,0,0-.5-.9,4.622,4.622,0,0,1-1.006-.787,5.339,5.339,0,0,1,1.727-.116q.894-.029,1.788,0a6.582,6.582,0,0,1,1.746.092" transform="translate(-2295.25 3262.536)" fill="#000302"/>
    <path id="Trazado_268" data-name="Trazado 268" d="M3416.809,5866.368a3.969,3.969,0,0,1-.408,1.583,14.834,14.834,0,0,0-.821,2.107,5.837,5.837,0,0,1-2.164,3.093,13.861,13.861,0,0,1-1.283.917c-.174.1-.363.242-.568.09s-.174-.42-.136-.636a4.6,4.6,0,0,1,1.81-3.123,5.378,5.378,0,0,0,1.353-1.532,1.732,1.732,0,0,0,.228-1.631,1.772,1.772,0,0,1,.345-1.972,3.8,3.8,0,0,0,.74-1.458c.047-.152.087-.308.139-.459.03-.083.066-.178.179-.179.141,0,.2.106.222.217a18.519,18.519,0,0,1,.364,2.983" transform="translate(-2295.25 3262.536)" fill="#000302"/>
    <path id="Trazado_269" data-name="Trazado 269" d="M3387.75,5844.272a1.662,1.662,0,0,1-.187.273,13.172,13.172,0,0,0-3.452,4.455c-.243.482-.471.511-.9.111a2.962,2.962,0,0,1-.478-3.361,1.646,1.646,0,0,1,1.448-1.056c1.154-.1,2.3-.267,3.565-.422" transform="translate(-2295.25 3262.536)" fill="#000302"/>
    <path id="Trazado_270" data-name="Trazado 270" d="M3409.8,5808.44a.272.272,0,0,1-.265-.01,1.215,1.215,0,0,0-1.32-.2.46.46,0,0,1-.512-.117c-.325-.347-.68-.272-1.07-.137-.625.217-.711.153-.919-.491a4.785,4.785,0,0,1-.262-1.751c.013-.226-.031-.491.227-.6.235-.1.439.052.631.181.263.18.519.373.791.542a1.8,1.8,0,0,0,2.062.046.589.589,0,0,1,.06-.033c.241-.127.528-.352.758-.165.278.224-.031.494-.123.728a2.551,2.551,0,0,0-.086,1.416c.034.2.149.39.028.592" transform="translate(-2295.25 3262.536)" fill="#000302"/>
    <path id="Trazado_271" data-name="Trazado 271" d="M3418.973,5826.608a9.825,9.825,0,0,1,.479-1.3c.12-.421-.273-.836-.025-1.273.2-.118.335.053.488.123a.912.912,0,0,0,1.03-.109.817.817,0,0,0,.287-.979c-.056-.15-.132-.325.022-.442s.308,0,.452.058a1.619,1.619,0,0,1,1.053,1.409,1.683,1.683,0,0,1-.676,1.565c-.053.042-.122.065-.174.108-.178.149-.577.141-.493.464.071.269.431.189.659.27s.5.091.729.18c.339.128.427.329.3.567-.14.254-.305.276-.621.088-.394-.234-.792-.458-1.182-.7a1.711,1.711,0,0,0-1.817-.1.48.48,0,0,1-.507.076" transform="translate(-2295.25 3262.536)" fill="#000302"/>
    <path id="Trazado_272" data-name="Trazado 272" d="M3369.806,5895.186a4.467,4.467,0,0,0,.671-.893c.082-.111.17-.236.329-.185s.148.219.145.349a6.007,6.007,0,0,1-.087,1.621c-.411-.318-.116-.758-.306-1.127-.35.158-.4.592-.744.8-.334-.127-.363-.6-.737-.766a2.206,2.206,0,0,0-.1.812c-.017.119-.05.251-.186.242s-.164-.145-.165-.262c0-.458-.007-.915,0-1.372,0-.137.02-.284.194-.318s.251.084.329.2a4.528,4.528,0,0,0,.659.9" transform="translate(-2295.25 3262.536)" fill="#040805"/>
    <path id="Trazado_273" data-name="Trazado 273" d="M3366.54,5894.173a3.384,3.384,0,0,1,1.638-.058c-.034.085-.041.152-.065.158-.586.155-.579.154-.6.755a2.155,2.155,0,0,1-.111,1.021c-.248-.113-.19-.315-.2-.479s0-.321,0-.481c-.007-.676-.007-.676-.654-.916" transform="translate(-2295.25 3262.536)" fill="#040403"/>
    <path id="Trazado_274" data-name="Trazado 274" d="M3404.472,5803.253a.256.256,0,0,1-.067,0c-.2-.042-.533.1-.532-.236,0-.271.29-.375.541-.433a.374.374,0,0,1,.321.072c.137.113.344.219.318.41-.034.241-.278.161-.445.186a.9.9,0,0,1-.136,0" transform="translate(-2295.25 3262.536)" fill="#000302"/>
    <path id="Trazado_275" data-name="Trazado 275" d="M3430.485,5922.635c0,.065-.009.134-.079.145-.1.015-.146-.049-.148-.146h.227" transform="translate(-2295.25 3262.536)" fill="#000302"/>
    <path id="Trazado_276" data-name="Trazado 276" d="M3428.557,5814.256a3.727,3.727,0,0,0-.188-.515,12.259,12.259,0,0,0-1.524-2.6c-.663-.905-1.408-1.751-2.018-2.7a3.849,3.849,0,0,1-.782-1.949.655.655,0,0,0-.517-.658,1.681,1.681,0,0,1-1.106-.94,6.414,6.414,0,0,0-.631-.812,4.836,4.836,0,0,1-1.137-2.167c-.173-.825-.943-1.266-1.227-2.012a.253.253,0,0,0-.166-.114,1.585,1.585,0,0,1-.829-.682,8.589,8.589,0,0,0-1.917-1.657c-.221-.151-.466-.273-.572.132-.034.13-.117.213-.244.174a7.274,7.274,0,0,1-1.9-.581c-.548-.342-.578-.411-.239-.962a12.55,12.55,0,0,1,2.65-3.13,1.448,1.448,0,0,0,.472-2.054,7.736,7.736,0,0,0-2.685-3.326,13.094,13.094,0,0,0-4.676-2.1,7.136,7.136,0,0,0-2.184-.172c-.986.081-1.427.448-1.482,1.377a16.006,16.006,0,0,1-.445,2.982,1.015,1.015,0,0,0,.321,1.06c.169.154.336.311.5.466.143.132.258.3.177.483a.437.437,0,0,1-.536.2,6.228,6.228,0,0,1-.728-.2,16.1,16.1,0,0,0-2.511-.705,2.985,2.985,0,0,0-1.988.372.918.918,0,0,0-.1,1.665,3.462,3.462,0,0,0,.531.312c.121.064.255.1.374.173.473.271.483.5,0,.742a.978.978,0,0,0-.566.872,3.333,3.333,0,0,0,.093,1.158,3.307,3.307,0,0,1,.17.874c0,.314-.034.563-.391.711s-.351.435,0,.624a1.426,1.426,0,0,0,.87.117,1.459,1.459,0,0,1,1.513.591.838.838,0,0,0,.248.235.375.375,0,0,0,.451.02c.177-.138.075-.285-.008-.424-.071-.118-.157-.227-.222-.348a3,3,0,0,1-.413-1.911.881.881,0,0,1,.848-.761c.353,0,.575.243.662.746.054.315.08.635.121.953a1.971,1.971,0,0,0,.767,1.334c.11.086.24.171.378.1a.386.386,0,0,0,.2-.408c-.008-.113-.042-.224-.056-.338a2.6,2.6,0,0,1,.136-1.151c.18-.528.409-.62.949-.415a1.317,1.317,0,0,1,.886.89.891.891,0,0,0,.907.69c.343.022.686.034,1.029.051a.52.52,0,0,1,.57.549,6.869,6.869,0,0,1-.083,1.573.508.508,0,0,1-.494.475c-.161.015-.348.029-.422.187a8.89,8.89,0,0,0-1.067,2.213c-.153.911-.374,1.047-1.322.889a2.462,2.462,0,0,0-.285,0,1.859,1.859,0,0,0,1.673.7.768.768,0,0,0,.581-.433,12.2,12.2,0,0,1,1.9-2.6,4.646,4.646,0,0,0,1.209-2.772c.074-.916.188-.958,1.07-.707a3.307,3.307,0,0,0,3.034-.151.235.235,0,0,1,.313,0c.339.317.825.512.845,1.094a.653.653,0,0,0,.385.676c.8.283.921.981.952,1.667.026.6.006,1.209-.83,1.416-.553.136-.643.191-.765-.376-.033-.155-.033-.318-.053-.477s-.074-.3-.23-.295c-.3.009-.45-.184-.63-.358a.775.775,0,0,0-.494-.218c-.139-.011-.284-.011-.366.124-.068.114,0,.219.072.313a2.852,2.852,0,0,1,.494.9,3.3,3.3,0,0,0,2.033,2.176,5.3,5.3,0,0,1,1.823,1.2.764.764,0,0,0,.616.253c.16-.005.32,0,.481.006.272.008.524.092.575.384.055.31-.211.448-.442.533a1.87,1.87,0,0,1-1.769-.223c-.211-.141-.36-.532-.673-.344-.269.163-.1.5-.1.765,0,.024,0,.046,0,.07a2.4,2.4,0,0,0,1.565,2.552,2.289,2.289,0,0,1,1.024,1.079.412.412,0,0,1-.544.608,2,2,0,0,1-.484-.256,8.843,8.843,0,0,1-.977-.862,4.236,4.236,0,0,0-2.651-1.45,2.31,2.31,0,0,1-1.744-1.1,2.291,2.291,0,0,0-1.564-1.019,7.576,7.576,0,0,0-2.327-.039c-.243.02-.311.165-.262.379a1.745,1.745,0,0,0,.586.987,1.394,1.394,0,0,1,.5,1.349c-.033.25-.048.5-.1.747a2.2,2.2,0,0,0,.208,1.6,3.5,3.5,0,0,1,.382,2.267,34.868,34.868,0,0,1-2,7.621c-.107.263-.17.678-.519.622-.27-.044-.265-.445-.3-.711-.147-.973-.262-1.95-.426-2.92a37.973,37.973,0,0,0-3.562-11.071,23.679,23.679,0,0,0-4.756-6.349,1.122,1.122,0,0,0-.77-.453,4.358,4.358,0,0,1-1.285,3.037c-.35.331-.286.5.182.681a7.6,7.6,0,0,1,2,1.047,1.756,1.756,0,0,1,.394.375c.121.176.033.334-.177.316a5.068,5.068,0,0,1-.806-.164,17.37,17.37,0,0,0-4.267-.662,4.652,4.652,0,0,0-2.112.535c-.325.165-.717.35-.733.75-.013.366.4.472.666.619a5.784,5.784,0,0,1,2.276,2.321,13.489,13.489,0,0,1,1.209,3.276,21.735,21.735,0,0,0,2.594,6.035,6.67,6.67,0,0,0,1.861,2c.85.589,1.748,1.092,2.634,1.62.2.119.448.206.528.471a.8.8,0,0,1-.576.025,11.1,11.1,0,0,0-2.189-.064,24.849,24.849,0,0,1-3.087.155,4.1,4.1,0,0,1-1.863-.4,2.02,2.02,0,0,1-1.078-1.432c-.129-.721.3-.9.766-.654.383.206.787.369,1.178.559a5.19,5.19,0,0,0,1.5.486,1.666,1.666,0,0,0,.339.041c.4-.028.522-.256.332-.6a1.872,1.872,0,0,0-.238-.337c-.622-.7-1.22-1.429-1.879-2.1-1.37-1.383-2.786-2.722-4.158-4.1a12.288,12.288,0,0,1-2.42-3.229,3.634,3.634,0,0,1,.015-3.666,2.045,2.045,0,0,0,.36-.854.4.4,0,0,0-.47.093,3.894,3.894,0,0,0-1.548,2.43,6.178,6.178,0,0,0,.069,2.316,23.863,23.863,0,0,0,1.173,4.088,27.389,27.389,0,0,0,4.209,7.6,9.319,9.319,0,0,0,4.713,3.387,34.942,34.942,0,0,1,3.813,1.375c.131.057.3.078.355.24a.4.4,0,0,1-.358.08,39.923,39.923,0,0,1-4.81-.8,4.662,4.662,0,0,1-2.08-1.007c-.685-.585-.722-.554-.9.362a9.35,9.35,0,0,1-1.969,4.035c-.079.1-.213.273-.324.13-.425-.547-.764-.146-1.113.074a16.765,16.765,0,0,1-2.084,1.2,5.606,5.606,0,0,1-3.74.509,8.732,8.732,0,0,1-1.027-.39c-.12-.048-.268-.129-.388-.023-.149.132-.07.3-.012.447a2.815,2.815,0,0,0,1.7,1.6,7.77,7.77,0,0,0,1.464.338,1.113,1.113,0,0,1-.678.23,18.7,18.7,0,0,0-6.72,2.513,13.357,13.357,0,0,0-5.549,6.452,14.872,14.872,0,0,0-.983,4.683,6.386,6.386,0,0,0,.339,2.706,1.9,1.9,0,0,0,.362.657c.262.275.457.261.665-.046a2.027,2.027,0,0,0,.261-.705,7.971,7.971,0,0,1,1.136-2.56,15.981,15.981,0,0,1,3.4-3.565c.2-.165.471-.279.577-.546-.109-.09-.2-.047-.287-.033a11.43,11.43,0,0,0-2.624.8,1.923,1.923,0,0,1-.714.228c-.249,0-.346-.121-.236-.343a1.762,1.762,0,0,1,.629-.71,7.724,7.724,0,0,1,1.736-.818,33.715,33.715,0,0,1,4.668-1.153,27.607,27.607,0,0,0,8.379-2.779,12.826,12.826,0,0,0,3.876-3.027c.194-.235.548-.484.4-.807-.118-.261-.5-.091-.763-.126-.157-.021-.349.009-.391-.2-.038-.181.109-.285.24-.383a5.694,5.694,0,0,1,1.5-.818,15.492,15.492,0,0,1,7.3-.875.836.836,0,0,0,.8-.246,8.911,8.911,0,0,0,.916-1.111c.11-.162.19-.365.414-.445.22.157.278.414.4.626.217.376.413.766.649,1.129.157.243.322.571.67.5.31-.061.33-.408.4-.665a14.9,14.9,0,0,0,.366-1.955c.077-.5.185-.577.686-.462a10.82,10.82,0,0,1,1.612.592,6.523,6.523,0,0,0,1.576.471,2.751,2.751,0,0,0,.476.043.589.589,0,0,0,.526-.381c.121-.258-.062-.379-.218-.512a1.129,1.129,0,0,1-.434-.894,2.986,2.986,0,0,1,1.637-2.945c.388-.2.773-.4,1.154-.61.152-.084.344-.151.329-.4-.345-.212-.712-.038-1.062-.051a15.01,15.01,0,0,1-4.108-.774,10.719,10.719,0,0,0-5.21-.52,9.278,9.278,0,0,1-2.056.093,2.756,2.756,0,0,1-1.571-.415c-.16-.118-.376-.246-.327-.483s.286-.261.5-.28c.183-.017.365-.045.547-.051a19.433,19.433,0,0,1,6.39.735c.569.177.586.165.747-.417.471-1.7.952-3.4,1.39-5.1.339-1.33.615-2.677.928-4.014.128-.548.145-.547.7-.414.489.119.976.255,1.471.345a52.106,52.106,0,0,0,7.627.972,25.889,25.889,0,0,0,3.085-.053,4.284,4.284,0,0,0,2.249-.944,1.244,1.244,0,0,0,.442-1.408m-17.363-16.514c-.093.137-.243.113-.37.053a3.238,3.238,0,0,1-1.01-.814c-.227-.257-.438-.528-.665-.787a3.7,3.7,0,0,0-1.38-1,7.884,7.884,0,0,1-.858-.43c-.176-.1-.384-.227-.3-.477.069-.213.284-.2.467-.2h.356a2.971,2.971,0,0,1,2.3,1.309,13.213,13.213,0,0,0,1.4,2.033.243.243,0,0,1,.066.312m-6.238,16.742c-.253.154-.412-.275-.592-.462q-1.456-1.506-2.9-3.03a7.308,7.308,0,0,1-.543-.619c-.319-.42-.275-.631.173-.876a3.074,3.074,0,0,1,1.174-.325c.515,0,.706.228.476.683a.68.68,0,0,0,.157.859,12.708,12.708,0,0,1,1.945,2.985c.114.254.408.6.1.785" transform="translate(-2295.25 3262.536)" fill="#000302"/>
    <path id="Trazado_277" data-name="Trazado 277" d="M3512.974,5925.39c-.61-.777-1.084-1.645-1.666-2.436-.739-1.006-1.1-2.334-2.53-2.863a7.479,7.479,0,0,0,2.276-.721,3.056,3.056,0,0,0,1.21-4.451,3.8,3.8,0,0,0-1.8-1.441,6.732,6.732,0,0,0-2.543-.515c-1.947.011-3.894,0-5.843.006a1.267,1.267,0,0,0-.714.1,1.022,1.022,0,0,0,.559.541,1.582,1.582,0,0,1,.814,1.646c-.039,2.954-.017,5.908-.017,8.862a2.169,2.169,0,0,0,0,.343.923.923,0,0,1-.533,1.009,5.67,5.67,0,0,0-.676.471c-.111.088-.31.136-.245.37h5.238a1.723,1.723,0,0,0-.806-.7,1.236,1.236,0,0,1-.655-1.241c.042-.868,0-1.74.013-2.61.014-1.332-.176-1.2,1.272-1.245a1.5,1.5,0,0,1,1.494.863c.733,1.294,1.5,2.566,2.27,3.842.223.371.358.855.726,1.062s.853.066,1.287.07c.536.007,1.073-.008,1.73-.016a9.7,9.7,0,0,0-.868-.949m-7.579-5.848c-.268-.01-.328-.2-.328-.431,0-.412,0-.824,0-1.236,0-1.03,0-2.061,0-3.091,0-.772.006-.778.793-.837.273-.019.55,0,.824,0a3.436,3.436,0,0,1,2.3.5,2.625,2.625,0,0,1,1.154,2.425,2.559,2.559,0,0,1-1.559,2.327,6.842,6.842,0,0,1-3.179.343" transform="translate(-2295.25 3262.536)" fill="#000302"/>
    <path id="Trazado_278" data-name="Trazado 278" d="M3311.915,5912.276a7.288,7.288,0,1,0,7.259,7.316,7.424,7.424,0,0,0-7.259-7.316m3.057,12.074a4.17,4.17,0,0,1-6.433.05,6.112,6.112,0,0,1-1.492-3.262,8.408,8.408,0,0,1,.755-5.406,4.332,4.332,0,0,1,2.847-2.305,4.395,4.395,0,0,1,5.007,2.352,8.352,8.352,0,0,1,.856,4.01,7.093,7.093,0,0,1-1.54,4.561" transform="translate(-2295.25 3262.536)" fill="#000302"/>
    <path id="Trazado_279" data-name="Trazado 279" d="M3446.8,5925.37a4.475,4.475,0,0,0-1.088.937h5.792a3.7,3.7,0,0,0-.849-.867,2.967,2.967,0,0,1-.853-1.045c-1.49-3.642-3-7.274-4.51-10.909-.424-1.024-.285-.875-1.27-.87-1.1.006-.915-.208-1.35.931q-2.049,5.35-4.07,10.712a2.472,2.472,0,0,1-.827,1.14,3.789,3.789,0,0,0-.9.83,16.41,16.41,0,0,0,4.359-.019,10.224,10.224,0,0,0-1.293-1.025.483.483,0,0,1-.2-.641c.342-.9.667-1.8.985-2.709a.614.614,0,0,1,.647-.483q2.063.016,4.123,0a.623.623,0,0,1,.66.469c.307.814.641,1.617.961,2.424.265.668.258.661-.32,1.124m-1.8-4.988q-1.581.023-3.162,0c-.445-.007-.5-.084-.356-.5.567-1.595,1.152-3.184,1.731-4.774a.256.256,0,0,1,.226-.184,5.913,5.913,0,0,1,.472,1.1c.495,1.255.986,2.513,1.463,3.776.188.5.139.573-.374.58" transform="translate(-2295.25 3262.536)" fill="#000302"/>
    <path id="Trazado_280" data-name="Trazado 280" d="M3517.692,5922.842a1.788,1.788,0,0,0-.1,3.573,1.787,1.787,0,0,0,.1-3.573m-.043,3.359a1.575,1.575,0,0,1-1.543-1.591,1.553,1.553,0,0,1,3.106.009,1.588,1.588,0,0,1-1.563,1.582" transform="translate(-2295.25 3262.536)" fill="#000302"/>
    <path id="Trazado_281" data-name="Trazado 281" d="M3518.157,5923.734a1.682,1.682,0,0,0-.875-.119.31.31,0,0,0-.333.347c0,.412,0,.825,0,1.238,0,.115.025.245.153.279.186.049.2-.11.262-.234.16-.321.24-.333.471-.079.162.177.254.463.628.284a.731.731,0,0,1-.027-.977.516.516,0,0,0-.278-.739m-.438.824c-.207,0-.339-.051-.338-.259s.13-.267.307-.265.325.038.317.251a.276.276,0,0,1-.286.273" transform="translate(-2295.25 3262.536)" fill="#000302"/>
  </g>
</svg>
