<svg xmlns="http://www.w3.org/2000/svg" width="244.424" height="142.793" viewBox="0 0 244.424 142.793">
  <g id="Grupo_93" data-name="Grupo 93" transform="translate(-153.562 -51.544)">
    <path id="Trazado_157" data-name="Trazado 157" d="M258.454,168.784a36.329,36.329,0,0,0,4.826-5.022c.2-.256.321-.6.7-.722.827,1.786,2.337,2.386,4.188,2.487a8.656,8.656,0,0,0,5.735-1.906,36.732,36.732,0,0,0,3.678-3.135c.749-.721,1.505-1.434,2.307-2.2a5.32,5.32,0,0,0,3.811,2.482,8.9,8.9,0,0,0,5.529-1.05,16.414,16.414,0,0,0,3.257-2.565A15.267,15.267,0,0,1,294.97,155c.136.15.255.282.375.413a6.766,6.766,0,0,0,5.189,2.251,8.321,8.321,0,0,0,4.721-1.545,37.358,37.358,0,0,0,4.487-3.562,16.724,16.724,0,0,1,4.6-3.027,4.2,4.2,0,0,0,3.486,2.36,6.944,6.944,0,0,0,2.328-.254c2.576-.661,4.432-2.433,6.313-4.148a1.275,1.275,0,0,0,.173-1.654,1.609,1.609,0,0,0-2.471-.6c-.9.6-1.726,1.318-2.584,1.984a5.833,5.833,0,0,1-2.937,1.3c-.729.082-.987-.1-.956-.846a8.883,8.883,0,0,1,.291-1.995,70.889,70.889,0,0,1,3.155-9.229,14.787,14.787,0,0,1,7.271-7.8,11.7,11.7,0,0,0,1.248-.755,46.8,46.8,0,0,1,13.15-6.157,5.461,5.461,0,0,0,.952-.328,1.546,1.546,0,0,0,.825-1.69,1.409,1.409,0,0,0-1.368-1.255,5.489,5.489,0,0,0-2.323.3,50.536,50.536,0,0,0-10.588,4.807q-6.135,3.844-12.324,7.605a40.118,40.118,0,0,1-11.576,5.006c-1.964.464-3.838.552-5.55-.805a1.4,1.4,0,0,0-1.935.179,1.662,1.662,0,0,0-.226,2.152,4.932,4.932,0,0,0,1.944,1.483,15.959,15.959,0,0,0,2.17.679,4.426,4.426,0,0,1-1.034.742c-.341.232-.684.461-1.019.7a14.564,14.564,0,0,0-6.272,9.117,1.624,1.624,0,0,1-.552.937c-1.62,1.452-3.229,2.915-4.857,4.357a7.358,7.358,0,0,1-2.817,1.579,3.711,3.711,0,0,1-2.633-.085,1.162,1.162,0,0,1-.78-1.379,5.851,5.851,0,0,0,2.942-.575,15,15,0,0,0,6.335-6.346,10.074,10.074,0,0,0,.9-2.3,2.669,2.669,0,0,0-2.661-3.431,4.64,4.64,0,0,0-2.888.744,18.648,18.648,0,0,0-6.25,6.658,19.7,19.7,0,0,1-4.584,6.041c-.475.423-.9.9-1.358,1.347a29,29,0,0,1-3.666,3.145,5.224,5.224,0,0,1-3.471,1.042c-.675-.058-.9-.218-.93-.866-.033-.672.019-1.348.046-2.022a.8.8,0,0,1,.822-.874,2.828,2.828,0,0,0,1.692-.807,31.382,31.382,0,0,0,4.835-5.158,68.751,68.751,0,0,0,6.233-10.777,15.071,15.071,0,0,0,1.376-5.3,2.889,2.889,0,0,0-3.2-3.271,4.383,4.383,0,0,0-2.161.854,9.6,9.6,0,0,0-1.477,1.379,43.436,43.436,0,0,0-8.4,13.2,49.061,49.061,0,0,0-2.942,9.643c-.054.289-.08.571-.5.629a2.807,2.807,0,0,0-1.885,1.475,37.967,37.967,0,0,1-5.159,5.779,6.254,6.254,0,0,1-2.522,1.42,1.569,1.569,0,0,1-2.27-1.606,15.233,15.233,0,0,1,.046-1.911,6.852,6.852,0,0,1,2.357-4.7,18.7,18.7,0,0,0,1.512-1.508,75.579,75.579,0,0,0,7.136-9.668,5.341,5.341,0,0,0,1.057-3.367c-.021-.267.032-.454.247-.555.473-.222.456-.624.452-1.045-.006-.6.041-1.2.009-1.8a2.114,2.114,0,0,0-2.167-2.117,3.211,3.211,0,0,0-2.349.894,18.068,18.068,0,0,0-2.918,3.109,50.877,50.877,0,0,0-5.14,9.072,53.829,53.829,0,0,0-2.479,6.853,1.686,1.686,0,0,1-1.183,1.361c-.513.137-.773.568-1.063.956a22.158,22.158,0,0,1-5.1,4.71c-.208.148-.425.44-.819.233.058-.551.124-1.107.175-1.663a9.4,9.4,0,0,0-.505-4.97,3.106,3.106,0,0,0-4.862-1.327,12.575,12.575,0,0,0-5.049,8.1,3.993,3.993,0,0,0,2.8,4.658c.308.113.624.2,1.016.331a8.446,8.446,0,0,1-2.77,2.754c-1.172.742-2.14.181-2.218-1.226a7.351,7.351,0,0,1,.282-2.222c.165-.653.357-1.3.467-1.965a1.542,1.542,0,0,0-.789-1.712,1.6,1.6,0,0,0-1.967.276,4.838,4.838,0,0,0-.82,1.066q-1.634,2.556-3.268,5.111a70.375,70.375,0,0,1-6.817,9.343,24.492,24.492,0,0,1-5.806,4.926,5.4,5.4,0,0,1-3.2.859c-1.207-.092-1.675-.54-1.732-1.754a15.8,15.8,0,0,1,.339-4.022,38.646,38.646,0,0,1,3.86-10.139A45.274,45.274,0,0,1,222.957,158.1a5.98,5.98,0,0,1,1.42-.894c.442-.175.648,0,.55.477a6.763,6.763,0,0,1-.34,1.068,19.06,19.06,0,0,1-3.1,5.184,36.478,36.478,0,0,1-2.942,3.1,3.313,3.313,0,0,0-1.13,1.892,1.609,1.609,0,0,0,2.874,1.269c1.28-1.369,2.569-2.732,3.795-4.148a22.018,22.018,0,0,0,3.4-5.406,8.286,8.286,0,0,0,.806-4.145,2.732,2.732,0,0,0-2.727-2.724,5.91,5.91,0,0,0-4.27,1.379,47.665,47.665,0,0,0-17.234,24.094,22.754,22.754,0,0,0-1.184,8.071,4.6,4.6,0,0,0,3.742,4.567,7.588,7.588,0,0,0,5.338-.665,24.331,24.331,0,0,0,5.945-4.387,59.384,59.384,0,0,0,7.307-9.246,3.465,3.465,0,0,0,.819-2.684c-.017-.094.043-.143.245-.131.361.089.5.485.66.855a2.979,2.979,0,0,0,1.538,1.571,5.49,5.49,0,0,0,6.464-.807,19.8,19.8,0,0,0,3.7-4.212,2.582,2.582,0,0,1,1.265-1.062,25.38,25.38,0,0,0,7.74-5.1c.172-.162.3-.458.642-.376.019.3.026.592.06.885a4.789,4.789,0,0,0,4.94,4.4A7.943,7.943,0,0,0,258.454,168.784Zm40.505-20.813a15.58,15.58,0,0,1,5.965-5.333,3.082,3.082,0,0,1,2.062-.467,3.564,3.564,0,0,1-.908,1.408c-.616.754-1.261,1.486-1.853,2.258a1.424,1.424,0,0,0-.143,1.684,1.676,1.676,0,0,0,1.562.917,1.255,1.255,0,0,0,.911-.373,23.085,23.085,0,0,0,3.268-3.846,7.69,7.69,0,0,0,.758-1.624c.529-1.65.2-2.55-1.351-3.613a54.032,54.032,0,0,0,8.572-3.8.456.456,0,0,1,0,.5,72.569,72.569,0,0,0-3.031,9.15,1.893,1.893,0,0,1-1.343,1.466,16.308,16.308,0,0,0-5.25,3.175c-1.253,1.071-2.443,2.219-3.789,3.177a9.877,9.877,0,0,1-2.64,1.457,3.873,3.873,0,0,1-2.938-.184,1.663,1.663,0,0,1-1.049-1.577A7.149,7.149,0,0,1,298.959,147.971Zm-9.794-1.078c-.157,1.494-2.761,4.339-4.805,5.251C284.942,150.633,286.887,148.508,289.165,146.893Zm-10.451-9.749c-.026,3.014-6.641,14.08-10.052,16.817C269.137,149.8,275.962,138.261,278.714,137.144Zm-18.538,7.95a15.49,15.49,0,0,1-3.515,5.556A18.237,18.237,0,0,1,260.176,145.094Zm-22.843,22.428c-.435.826-.579.9-1.511.718a6.761,6.761,0,0,1-.856-.241.781.781,0,0,1-.577-.95,6.882,6.882,0,0,1,.284-1.307,10.729,10.729,0,0,1,3.363-4.539C238.289,163.526,238.355,165.581,237.333,167.522Z" fill="#fff"/>
    <path id="Trazado_158" data-name="Trazado 158" d="M223.382,105.209a5.474,5.474,0,0,0,3.492-1A29.1,29.1,0,0,0,232.7,98.95c.2-.241.313-.595.679-.644.272.675.5,1.354.812,1.987a3.171,3.171,0,0,0,2.669,1.783,5.319,5.319,0,0,0,4.429-1.453c1-.913,1.938-1.879,2.844-2.881a5.832,5.832,0,0,1,1.152-1.224,2.52,2.52,0,0,1,.277.506c.639,2.327,3.783,3.336,6.067,2.011a11.278,11.278,0,0,0,2.662-2.048c.638-.686,1.247-1.4,1.876-2.094.593-.655.634-.671,1.168.026a4.639,4.639,0,0,0,2.36,1.815,5.523,5.523,0,0,0,4.034-.386,10.172,10.172,0,0,0,2.94-2.229,34.649,34.649,0,0,0,5.039-6.872c1.757-3.051,3.324-6.2,4.931-9.331.2-.383.323-.825.851-.938a18.292,18.292,0,0,1-.013,2.061,20.549,20.549,0,0,0-.178,3.589,3.846,3.846,0,0,1-1.295,3.2,40.1,40.1,0,0,0-6.373,8.113,12.831,12.831,0,0,0-1.763,8.63,2.452,2.452,0,0,0,1.611,2.128,6.939,6.939,0,0,0,4.406.315,8.92,8.92,0,0,0,5.938-5.083,12.993,12.993,0,0,0,1.109-5.011,39.862,39.862,0,0,0-.553-6.15c-.246-2.034.171-3.805,2.057-4.975a6.4,6.4,0,0,0,.933-.806,95.541,95.541,0,0,1,12.874-10.157,195.342,195.342,0,0,1,27.98-15.406,10.3,10.3,0,0,0,2.069-1.116,1.172,1.172,0,0,0,.408-1.5,1.244,1.244,0,0,0-1.236-.949,4.013,4.013,0,0,0-1.911.572,198.825,198.825,0,0,0-20.789,10.775,117.739,117.739,0,0,0-18.61,13.121c-1.155,1.01-2.347,1.978-3.592,3.024A1.6,1.6,0,0,0,280,80.277a1.146,1.146,0,0,1-.367-1.224,41.284,41.284,0,0,1,1.257-6.268c1.57-4.862,4.46-8.954,7.485-12.972.1-.129.233-.178.425.007a8.97,8.97,0,0,1-1.026,1.53,79.128,79.128,0,0,0-4.861,7.687,5,5,0,0,0-.734,2.5c.257-.068.322-.244.4-.415a55.132,55.132,0,0,1,6.684-10.1,11.287,11.287,0,0,0,.909-1.28,1.4,1.4,0,0,0-.067-1.765,1.644,1.644,0,0,0-1.865-.325,3.594,3.594,0,0,0-1.212.979A83.587,83.587,0,0,0,273.978,76.58c-1.693,3.083-3.306,6.21-4.984,9.3a25.942,25.942,0,0,1-5.437,6.969,3.723,3.723,0,0,1-2.075,1.024,1.773,1.773,0,0,1-1.8-.9.9.9,0,0,1,.416-1.385c.462-.245.95-.441,1.4-.7,3.7-2.1,6.05-5.407,7.948-9.084a4.233,4.233,0,0,0,.394-2.523,2.119,2.119,0,0,0-2.168-2.007,4.136,4.136,0,0,0-2.744.784,18.46,18.46,0,0,0-7.556,9.629,6,6,0,0,1-.911,1.913c-1.272,1.574-2.527,3.163-3.8,4.74a8.48,8.48,0,0,1-2.412,2,1.2,1.2,0,0,1-1.465,0c-.441-.351-.319-.825-.213-1.247a26.777,26.777,0,0,1,2.624-7.257c.531-.9,1.017-1.834,1.487-2.771a1.365,1.365,0,0,0-.176-1.577,1.5,1.5,0,0,0-1.518-.5,2.712,2.712,0,0,0-1.943,1.546c-1.448,2.622-2.961,5.207-4.6,7.715a29.533,29.533,0,0,1-4.868,5.87,5.255,5.255,0,0,1-1.075.806c-1.147.593-1.817.235-1.886-1.043-.036-.673.034-1.352-.012-2.024a2.515,2.515,0,0,1,1.228-2.465,12.2,12.2,0,0,0,2.909-2.792c1.854-2.4,3.739-4.785,5.552-7.219a7.542,7.542,0,0,0,1.338-2.266,1.99,1.99,0,0,0,.817-.716c.514-.737,1.049-1.46,1.549-2.208a97.506,97.506,0,0,0,5.98-10.925,50.575,50.575,0,0,0,3.691-9.384A8.486,8.486,0,0,0,260.009,55a1.993,1.993,0,0,0-2.749-1.9,6.045,6.045,0,0,0-1.973,1.042,31.071,31.071,0,0,0-5.6,5.181,74.506,74.506,0,0,0-11.706,19.851,42.757,42.757,0,0,0-2.431,6.749c-.545,2.485-1.114,4.964-1.665,7.448-.068.305-.125.629-.494.659-1.091.09-1.565.895-2.082,1.692a19.81,19.81,0,0,1-6.529,6.236c-1.364.819-2.311.35-2.374-1.212-.073-1.795-.007-3.595.013-5.394a1.2,1.2,0,0,1,.66-1.107,9.928,9.928,0,0,0,3.77-3.607c1.812-2.667,3.73-5.256,5.649-7.844a79.621,79.621,0,0,0,8.264-13.742,34.928,34.928,0,0,0,2.244-5.861,7.721,7.721,0,0,0,.142-4.323,2.222,2.222,0,0,0-3.237-1.388,5.136,5.136,0,0,0-1.273.911,33.175,33.175,0,0,0-5.19,5.895c-1.718,2.5-3.282,5.1-4.83,7.71a85.72,85.72,0,0,0-7.445,15.69,35.418,35.418,0,0,0-1.886,13.486A4,4,0,0,0,223.382,105.209ZM277.3,98.187a6.1,6.1,0,0,1-4.363,4,3.03,3.03,0,0,1-.889.083c-.843-.057-1.189-.423-1.216-1.3a9.555,9.555,0,0,1,1.109-4.981,40.515,40.515,0,0,1,4.984-6.772,2.175,2.175,0,0,1,.435-.25,29.923,29.923,0,0,1,.5,5.917A9.279,9.279,0,0,1,277.3,98.187Zm-10.842-17.14a20.9,20.9,0,0,1-5.418,6.659C260.91,85.775,263.864,82.094,266.458,81.047Zm-18.834.06h.018l-.022.022,0-.021a1.565,1.565,0,0,0-.868.253,3.392,3.392,0,0,1-.124.879.419.419,0,0,1-.666.155c-.189-.143-.045-.335.085-.471.2-.213.418-.416.628-.624a2.1,2.1,0,0,1,.871-1.054C247.81,80.518,247.671,80.819,247.624,81.107Zm-8.855,4.715a67.228,67.228,0,0,1,5.8-13.482,68.082,68.082,0,0,1,6.422-9.881,26.36,26.36,0,0,1,4.2-4.369,4.2,4.2,0,0,1,1.258-.8,7.188,7.188,0,0,1-.616,2.75,64.654,64.654,0,0,1-4.577,9.864,104.448,104.448,0,0,1-10.709,16.323c-.618.752-1.31,1.443-1.972,2.158a.261.261,0,0,1-.353.085A10.845,10.845,0,0,1,238.769,85.822Zm-13.732.011a85.265,85.265,0,0,1,6.725-13.307,70.9,70.9,0,0,1,6.021-8.8,11.727,11.727,0,0,1,2.374-2.354,3.983,3.983,0,0,1-.39,2.144A60.749,60.749,0,0,1,232.3,77.8c-2.508,3.548-5.059,7.067-7.591,10.6-.106.149-.185.331-.454.337A10.46,10.46,0,0,1,225.037,85.833Z" fill="#fff"/>
    <path id="Trazado_159" data-name="Trazado 159" d="M319.549,109.772c-1.932,2.193-3.987,4.278-5.971,6.426a6.341,6.341,0,0,1-3.314,1.983,2.464,2.464,0,0,1-1.537-.156,1.341,1.341,0,0,1-.8-1.988c.113-.276.256-.541.393-.806q2.863-5.535,5.727-11.068c.929-1.794,1.809-3.616,2.794-5.379,1-1.787,1.736-3.7,2.883-5.419a86.17,86.17,0,0,1,5.885-8.492,4.076,4.076,0,0,0,.661-1.037,1.188,1.188,0,0,0-.305-1.43,1.45,1.45,0,0,0-2.032-.049,9.378,9.378,0,0,0-1.363,1.492,74.551,74.551,0,0,0-8.3,13.325q-2.9,5.7-5.841,11.384a6.778,6.778,0,0,1-1.191,1.833c-.145-.407-.24-.716-.364-1.013a2.872,2.872,0,0,0-3.635-1.808,5.229,5.229,0,0,0-1.341.553,16.862,16.862,0,0,0-3.05,2.289,15.639,15.639,0,0,0-3.938,6.073c-.212.587-.451,1.222-1.117,1.269-.8.056-1.068.558-1.365,1.135a20.771,20.771,0,0,1-3.48,4.671,2.131,2.131,0,0,1-1.4.852,1.678,1.678,0,0,1,.125-1.115c.354-.985.687-1.978,1.037-2.965a51.647,51.647,0,0,0,2.035-6.532,7.079,7.079,0,0,0,.137-3.664,2.708,2.708,0,0,0-2.64-2.033,5.056,5.056,0,0,0-3.354,1.054c-.447.333-.887.676-1.346,1.026-.1-.218-.187-.384-.263-.553a1.487,1.487,0,0,0-1.5-.967,1.518,1.518,0,0,0-1.406,1.117c-.126.351-.219.714-.332,1.071a79.214,79.214,0,0,1-4.744,12.223A12.937,12.937,0,0,1,271,127.893a4.95,4.95,0,0,1-1.187.618,2.259,2.259,0,0,1-2.221-.4c-.468-.369-.487-.71-.067-1.129a4.474,4.474,0,0,1,.716-.539c.844-.557,1.709-1.083,2.538-1.66a13.371,13.371,0,0,0,4.629-5.251,5.234,5.234,0,0,0,.549-2.046,2.09,2.09,0,0,0-2.127-2.371,5.908,5.908,0,0,0-2.837.542,12.477,12.477,0,0,0-6.934,11.771,4.25,4.25,0,0,0,2.216,3.448,5.425,5.425,0,0,0,5.856-.12,15.059,15.059,0,0,0,5.322-5.38,25.01,25.01,0,0,0,2.1-4.342c1.283-3.86,4.006-6.616,6.875-9.279a2.424,2.424,0,0,1,.641-.449c.586-.26.964-.006.925.626a6.624,6.624,0,0,1-.2,1.1,77.66,77.66,0,0,1-2.772,8.651,9.026,9.026,0,0,0-.683,3.394,2.681,2.681,0,0,0,2.677,2.758,3.518,3.518,0,0,0,1.915-.548,11.417,11.417,0,0,0,3.217-2.771c.7-.874,1.4-1.745,2.114-2.634a5.807,5.807,0,0,0,8.731.83,17.932,17.932,0,0,0,2.128-2.159c.618-.782.629-.773,1.534-.251a6.279,6.279,0,0,0,4.543.71,8.508,8.508,0,0,0,4.228-2.411c1.92-1.847,3.694-3.83,5.44-5.842a48.358,48.358,0,0,1,14.977-11.66,74.165,74.165,0,0,1,13.579-4.869,6.014,6.014,0,0,0,.957-.3,1.4,1.4,0,0,0,.8-1.768,1.325,1.325,0,0,0-1.521-1.031,6.447,6.447,0,0,0-1.212.23c-1.549.419-3.109.808-4.638,1.294C334.449,97.636,326.131,102.3,319.549,109.772Zm-47.089,8.64a8.076,8.076,0,0,1-4.038,4.081A6.626,6.626,0,0,1,272.46,118.412Zm28.28-1.325a1.372,1.372,0,0,0,1.206.866,7.725,7.725,0,0,0,1.12-.048,6.691,6.691,0,0,1-3.218,3.217,2.339,2.339,0,0,1-1.431.12c-.925-.184-1.335-.637-1.178-1.561a11.986,11.986,0,0,1,6.351-8.976,1.6,1.6,0,0,1,.366-.056A5.938,5.938,0,0,1,301.807,115a6.623,6.623,0,0,0-.761.659A1.208,1.208,0,0,0,300.74,117.087Z" fill="#fff"/>
    <path id="Trazado_160" data-name="Trazado 160" d="M191.426,122.1a38.786,38.786,0,0,1,2.24-4,20.327,20.327,0,0,0,2.522-12.328,13.618,13.618,0,0,0-4.91-9.625c-.192-.164-.439-.29-.5-.664.462-.085.675.217.922.417a13.407,13.407,0,0,1,4.194,6,18.4,18.4,0,0,1,.768,8.318c-.1.926-.226,1.848-.356,2.9a6.107,6.107,0,0,0,.952-2.83,21.734,21.734,0,0,0-.014-5.273,12.621,12.621,0,0,0-7.334-10.791c-.168-.081-.337-.161-.508-.233a.726.726,0,0,1-.455-1,11.892,11.892,0,0,0,.5-2.641,9.842,9.842,0,0,0-2.857-8.3,5.251,5.251,0,0,0-4.032-1.649,10.846,10.846,0,0,0-2.762.428,12.2,12.2,0,0,0-6.691,5.015,37.274,37.274,0,0,0-4.377,8.452c-2.765,7.316-4.309,14.942-5.645,22.615a10.467,10.467,0,0,0-.114,3.25,1.5,1.5,0,0,0,1.332,1.434,1.48,1.48,0,0,0,1.511-.941,7.366,7.366,0,0,0,.39-1.049c.459-1.463.924-2.924,1.481-4.354,1.927-4.948,4.115-9.792,5.862-14.813.724-2.083,1.589-4.117,2.346-6.189a1.478,1.478,0,0,0-.648-2.02,1.548,1.548,0,0,0-2.039.9,15.281,15.281,0,0,0-.714,1.644c-.759,1.952-1.4,3.95-2.248,5.867-.091.205-.174.414-.279.612a4.71,4.71,0,0,1-.276.418,41.323,41.323,0,0,1,3.271-9.556,28.57,28.57,0,0,1,2.968-5.019,8.962,8.962,0,0,1,4.638-3.378c2.619-.75,4.342.069,5.376,2.595a7.618,7.618,0,0,1,.3.964,9.629,9.629,0,0,1-.127,4.671c-.246,1.074-.468,1.24-1.619,1.329a8.22,8.22,0,0,0-2.5.585,16.424,16.424,0,0,0-7.81,6.5,6.918,6.918,0,0,0-1.046,4.613,2.254,2.254,0,0,0,2.992,2.135,9.756,9.756,0,0,0,3.069-1.336,23.756,23.756,0,0,0,7.181-7.176c.289-.437.546-.9.845-1.327.472-.682.552-.706,1.28-.393a8.561,8.561,0,0,1,4.469,4.078,14.309,14.309,0,0,1,.528,12.082,27.967,27.967,0,0,1-11.075,13.508,27.47,27.47,0,0,1-13.774,4.234,12.907,12.907,0,0,1-5.5-.913,12.211,12.211,0,0,1-5.948-5.264,9.314,9.314,0,0,0-1.133-1.67,1.308,1.308,0,0,0-1.985-.09c-.611.537-.674,1.106-.2,2.024,2.949,5.772,7.7,8.7,14.147,8.877a27.7,27.7,0,0,0,9.165-1.414,33.315,33.315,0,0,0,12.3-7.63A7.785,7.785,0,0,0,191.426,122.1Zm-15.068-18.323c-.2-2.542,4.342-6.853,7.585-7.108A17.239,17.239,0,0,1,176.358,103.781Z" fill="#fff"/>
    <path id="Trazado_161" data-name="Trazado 161" d="M243.829,142.425a1.356,1.356,0,0,0,.926,1.168,1.3,1.3,0,0,0,1.449-.309,2.5,2.5,0,0,0,.716-1.376c.638-3.024,1.995-5.794,3.026-8.679.312-.873.519-.92,1.444-.676,3.717.984,7.347,2.285,11.106,3.11,2.517.552,5.055,1.008,7.584,1.5a7.908,7.908,0,0,0,1.214.195,1.428,1.428,0,0,0,.873-2.6,3.138,3.138,0,0,0-1.229-.524c-.77-.153-1.534-.341-2.309-.456a84.119,84.119,0,0,1-14-3.507c-.909-.3-.929-.386-.277-1.049.1-.107.218-.206.326-.31,2.353-2.268,4.351-4.856,6.539-7.273a1.477,1.477,0,0,0,.026-2.124,1.5,1.5,0,0,0-2.122.03,14.179,14.179,0,0,0-1.391,1.465c-1.463,1.708-2.9,3.436-4.491,5.033-.214.215-.373.543-.84.567.2-.447.35-.818.518-1.184a87.222,87.222,0,0,0,4.319-10.711,39.356,39.356,0,0,1,1.859-4.928q.566-1.222,1.087-2.464a2.893,2.893,0,0,0,.294-1.3,1.42,1.42,0,0,0-2.112-1.2,1.883,1.883,0,0,0-.782.931,76.5,76.5,0,0,0-3.284,8.1,67.2,67.2,0,0,1-3.234,8.363,74.6,74.6,0,0,0-3.6,8.705,2.184,2.184,0,0,1-.474.882,21.346,21.346,0,0,1-5.71,4.5,2.528,2.528,0,0,1-2.85-.161c.5-.394.942-.736,1.378-1.087a29.041,29.041,0,0,0,4.67-4.694,7.381,7.381,0,0,0,1.836-4.6,2.585,2.585,0,0,0-3.345-2.709,7.924,7.924,0,0,0-3.571,1.8,12.064,12.064,0,0,0-3.673,5.419,12.228,12.228,0,0,0-.709,3.738,3.789,3.789,0,0,1-1.369,2.945c-1.368,1.225-2.705,2.485-4.143,3.63a11.636,11.636,0,0,1-4.2,2.3,4.87,4.87,0,0,1-3.332-.205c.114-.525.515-.613.833-.78A23.544,23.544,0,0,0,231,134.36a4.672,4.672,0,0,0,.883-3.18,2.424,2.424,0,0,0-2.274-2.358,5.378,5.378,0,0,0-3.642.819c-4.659,2.861-6.778,7.237-7.366,12.479a3.109,3.109,0,0,0,2.1,3.368,7.861,7.861,0,0,0,4.5.526,13.178,13.178,0,0,0,5.08-2.266,37.038,37.038,0,0,0,5.058-4.28,1.458,1.458,0,0,1,1.887-.362,6.17,6.17,0,0,0,6.289-.561,3.655,3.655,0,0,1,1.338-.7c-.315,1.2-.581,2.287-.887,3.358A3.354,3.354,0,0,0,243.829,142.425Zm-.772-16.1c-.034,1.263-1.7,3.439-4.373,5.683C238.5,130.175,240.631,127.137,243.057,126.326Zm-14.379,5.724a17.33,17.33,0,0,1-5.7,6.11A8.1,8.1,0,0,1,228.678,132.05Z" fill="#fff"/>
    <path id="Trazado_162" data-name="Trazado 162" d="M206.7,149.355c3.407-6.325,6.478-12.821,9.861-19.158a158.984,158.984,0,0,1,9.941-16.663,1.533,1.533,0,0,1,.306-.322c1.035-.8,1.686-1.957,2.662-2.812a2.5,2.5,0,0,0,.465-.631,1.446,1.446,0,0,0-.235-1.844,1.339,1.339,0,0,0-1.838-.113,7.039,7.039,0,0,0-.965.935,69.909,69.909,0,0,0-10.05,14.574c-4.144,7.584-8.059,15.287-11.96,23-.861,1.7-1.779,3.376-2.717,5.037a13.153,13.153,0,0,1-3.908,4.283c-.412.291-.814.4-1.216.035a1.128,1.128,0,0,1-.4-1.3,3.492,3.492,0,0,1,.32-.592,39.705,39.705,0,0,0,4.69-11.123,17.079,17.079,0,0,0,.488-5.235,1.822,1.822,0,0,0-1.17-1.641,1.693,1.693,0,0,0-1.884.245,4.391,4.391,0,0,0-1.228,1.443c-.6,1.119-1.234,2.225-1.815,3.356a21.132,21.132,0,0,0-2.582,10.461,6.078,6.078,0,0,1-1.717,4.648c-.433.467-.851.947-1.289,1.409a4.629,4.629,0,0,1-.6.514c-.815.6-1.211.575-1.974-.1a3.091,3.091,0,0,1-.989-2.418,31.069,31.069,0,0,1,.994-8.565,21.561,21.561,0,0,0,.708-6.675,8.015,8.015,0,0,0-.372-2.77,1.951,1.951,0,0,0-2.9-1.165,4.168,4.168,0,0,0-1.625,1.35,36.058,36.058,0,0,0-4.366,7.7,4.8,4.8,0,0,0-.446,2.181,1.331,1.331,0,0,0,1.148,1.329,1.379,1.379,0,0,0,1.5-.724,2.2,2.2,0,0,0,.219-.513,27.612,27.612,0,0,1,3.113-6.325c.144-.236.243-.545.685-.494a10.638,10.638,0,0,1,.082,1.337,17.518,17.518,0,0,1-.63,3.873,32.653,32.653,0,0,0-1.05,10.239,5.709,5.709,0,0,0,1.218,3.321,4.358,4.358,0,0,0,4.237,1.781,5.323,5.323,0,0,0,2.945-1.519c.709-.665,1.425-1.322,2.167-2.01a16.6,16.6,0,0,0,1.377.929,2.879,2.879,0,0,0,2.995.164,13.782,13.782,0,0,0,5.423-5.086C205.113,152.238,205.923,150.8,206.7,149.355Z" fill="#fff"/>
    <path id="Trazado_163" data-name="Trazado 163" d="M366.47,153.172a2.871,2.871,0,0,0-.767.132c-3.543.911-7.09,1.81-10.627,2.745a708.916,708.916,0,0,0-70.959,22.769c-10.539,4.009-20.981,8.256-31.2,13.036a5.369,5.369,0,0,0-.885.475,1.192,1.192,0,0,0-.509,1.377.981.981,0,0,0,1.185.618,2.815,2.815,0,0,0,1.495-.381c3.1-1.4,6.187-2.819,9.312-4.156a678.007,678.007,0,0,1,89.989-30.8c4.11-1.111,8.241-2.139,12.359-3.219a3.292,3.292,0,0,0,1.247-.477,1.223,1.223,0,0,0,.492-1.385A1.043,1.043,0,0,0,366.47,153.172Z" fill="#fff"/>
    <path id="Trazado_164" data-name="Trazado 164" d="M345.478,139.248c-.277.247-.519.182-.541-.178a11.139,11.139,0,0,1-.031-2.467c.331-1.99.776-3.961,1.192-5.936.286-1.355.613-2.7.9-4.055a1.778,1.778,0,0,0-1.139-2.253c-1.044-.265-1.745.221-2.108,1.47-.093.323-.169.652-.238.981q-.81,3.845-1.611,7.692c-.07.332-.111.667-.466.844a10.585,10.585,0,0,0-3.593,3.486,32.413,32.413,0,0,1-3.254,3.721,7.216,7.216,0,0,1-2.108,1.47,1.618,1.618,0,0,1-1.847-.437c-.421-.4-.738-.859-.248-1.443a.664.664,0,0,0,.07-.325,17.588,17.588,0,0,1,1.217-4.191c.376-.977.743-1.958,1.121-2.934a2.878,2.878,0,0,0,.141-1.44,1.458,1.458,0,0,0-1.437-1.318,1.615,1.615,0,0,0-1.815,1.337c-.516,1.6-1.17,3.154-1.73,4.739a17.593,17.593,0,0,0-.958,4.491,4.242,4.242,0,0,0,1.486,3.712,5.054,5.054,0,0,0,5.761.708,11.955,11.955,0,0,0,2.643-1.89A25.09,25.09,0,0,0,340,141.493a8.1,8.1,0,0,1,1.527-1.754c.238.578.389,1.041.612,1.466a3.2,3.2,0,0,0,3.691,1.654,4.086,4.086,0,0,0,1.933-1.079,11.265,11.265,0,0,0,2.249-3.068c2.052-4.04,4.262-7.99,6.669-11.83a10.426,10.426,0,0,0,1.155-2.3,1.292,1.292,0,0,1,.537-.677c1.873-1.368,3.166-3.288,4.69-4.983a1.625,1.625,0,0,0-.563-2.557,1.674,1.674,0,0,0-2.1.584,54.086,54.086,0,0,0-8.391,11.078c-1.662,3.056-3.483,6.026-4.984,9.171A6.449,6.449,0,0,1,345.478,139.248Z" fill="#fff"/>
    <path id="Trazado_165" data-name="Trazado 165" d="M397.106,115.6a2.29,2.29,0,0,0-.974-.238,18.278,18.278,0,0,0-4.024.324,23.751,23.751,0,0,0-10.714,5.36c-1.7,1.418-3.242,3.008-4.793,4.585-1.971,2-3.808,4.144-5.967,5.957a15.548,15.548,0,0,1-5.376,3.171,4.387,4.387,0,0,1-2.97-.093,1.4,1.4,0,0,1-1.019-1.286,7.1,7.1,0,0,0,3.739-.547,16.672,16.672,0,0,0,5.241-3.611,8.519,8.519,0,0,0,2.234-4.453A2.39,2.39,0,0,0,370.9,121.9a4.069,4.069,0,0,0-3.369.2,20.052,20.052,0,0,0-8.267,6.9,8.341,8.341,0,0,0-1.287,3.089,4.869,4.869,0,0,0,3.773,5.961,8.834,8.834,0,0,0,5.917-.557,21.862,21.862,0,0,0,3.648-2.2,32.512,32.512,0,0,0,4.867-4.325c.295-.318.623-.7.335-1.08-.4-.523-.018-.7.252-.991a34.747,34.747,0,0,0,3.418-3.562c.144-.207.324-.306.554-.106.454.395.817.157,1.182-.158a14.53,14.53,0,0,0,1.284-1.09,14.113,14.113,0,0,1,2.662-2.068,17.4,17.4,0,0,1,9.984-3.2,2.7,2.7,0,0,0,1.3-.3,1.431,1.431,0,0,0,.838-1.354A1.54,1.54,0,0,0,397.106,115.6Zm-28.584,9.785a.944.944,0,0,1-.3.835c-.6.806-1.239,1.591-1.858,2.387-.312.4-.567.861-1.222.5-.225-.125-.5.1-.722.233a5.611,5.611,0,0,1-1.677.672A15.892,15.892,0,0,1,368.522,125.389Z" fill="#fff"/>
    <path id="Trazado_166" data-name="Trazado 166" d="M204.706,114.382l.585-.088a7.076,7.076,0,0,0,3.18-1.578,43.289,43.289,0,0,0,8.78-9.421,2.363,2.363,0,0,0,.233-.382,1.438,1.438,0,0,0-.295-1.842,1.361,1.361,0,0,0-1.843-.026,5.706,5.706,0,0,0-1.584,1.731,30.879,30.879,0,0,1-7.411,7.765,4.136,4.136,0,0,1-1.247.739c-.888.294-1.3.043-1.347-.867a3.213,3.213,0,0,1,.083-1.226c.782-2.159,1.086-4.456,2.169-6.544a39.939,39.939,0,0,0,2.434-5.653,23.016,23.016,0,0,1,2.036-4.47,1.208,1.208,0,0,0-.005-1.553,1.525,1.525,0,0,0-1.733-.415,2.516,2.516,0,0,0-1.5,1.572c-1.6,3.789-3.226,7.565-4.751,11.383a25.243,25.243,0,0,0-1.818,6.463A3.73,3.73,0,0,0,204.706,114.382Zm.238-11.534a53.739,53.739,0,0,1,4.155-9.78c.115-.192.205-.4.337-.581s.279-.47.51-.284c.283.229-.06.31-.189.465a4.642,4.642,0,0,0-.517.859,77.023,77.023,0,0,0-3.876,9.18c-.1.267-.2.534-.31.834A.558.558,0,0,1,204.944,102.848Z" fill="#fff"/>
    <path id="Trazado_167" data-name="Trazado 167" d="M272.019,77.757a1.169,1.169,0,0,0,1.089-.959,11.477,11.477,0,0,0,.454-3.2c0-.373.029-.749-.007-1.119a1.066,1.066,0,0,0-1.324-.994,1.218,1.218,0,0,0-1.11,1.212q-.228,1.942-.348,3.9C270.721,77.428,271.192,77.822,272.019,77.757Z" fill="#fff"/>
    <path id="Trazado_168" data-name="Trazado 168" d="M211.877,88.24a1.859,1.859,0,1,0-1.838-1.848A1.843,1.843,0,0,0,211.877,88.24Z" fill="#fff"/>
    <path id="Trazado_169" data-name="Trazado 169" d="M335.066,128.413a1.487,1.487,0,0,0-1.634-1.473,1.6,1.6,0,0,0-1.6,1.548,1.69,1.69,0,0,0,1.723,1.692A1.667,1.667,0,0,0,335.066,128.413Z" fill="#fff"/>
    <path id="Trazado_170" data-name="Trazado 170" d="M330.511,54.55A1.553,1.553,0,0,0,332,53.029a1.529,1.529,0,0,0-1.393-1.483,1.5,1.5,0,0,0-1.531,1.447A1.546,1.546,0,0,0,330.511,54.55Z" fill="#fff"/>
    <path id="Trazado_171" data-name="Trazado 171" d="M355.99,93.916a1.525,1.525,0,0,0-.053-3.044,1.536,1.536,0,0,0-1.453,1.545A1.556,1.556,0,0,0,355.99,93.916Z" fill="#fff"/>
    <path id="Trazado_172" data-name="Trazado 172" d="M251.575,80.783a1.343,1.343,0,0,0,1.375,1.32,1.408,1.408,0,0,0,1.409-1.417,1.45,1.45,0,0,0-1.391-1.34A1.406,1.406,0,0,0,251.575,80.783Z" fill="#fff"/>
    <path id="Trazado_173" data-name="Trazado 173" d="M246.742,81.35a1,1,0,0,0-.227.463,1.9,1.9,0,0,1,.246-.481Z" fill="#fff"/>
    <path id="Trazado_174" data-name="Trazado 174" d="M246.918,81.131a.486.486,0,0,1,.65-.07C247.242,80.655,247.08,80.893,246.918,81.131Z" fill="#fff"/>
  </g>
</svg>
