<?xml version="1.0" standalone="no"?>
<!DOCTYPE svg PUBLIC "-//W3C//DTD SVG 1.1//EN" "http://www.w3.org/Graphics/SVG/1.1/DTD/svg11.dtd" >
<svg xmlns="http://www.w3.org/2000/svg" xmlns:xlink="http://www.w3.org/1999/xlink" version="1.1">
<metadata>
Created by FontForge 20170731 at Fri Oct 21 13:11:37 2022
 By Aleksey,,,
Copyright (c) 2021 by Letterhend Studio. All rights reserved
</metadata>
<defs>
<font id="Haystack-Regular" horiz-adv-x="667" >
  <font-face 
    font-family="Haystack"
    font-weight="400"
    font-stretch="normal"
    units-per-em="2048"
    panose-1="0 0 0 0 0 0 0 0 0 0"
    ascent="1638"
    descent="-410"
    x-height="696"
    cap-height="1382"
    bbox="-3277.53 -971 2821.33 1839.75"
    underline-thickness="102"
    underline-position="-358"
    unicode-range="U+000D-FB02"
  />
<missing-glyph horiz-adv-x="1024" 
 />
    <glyph glyph-name="fi" unicode="fi" horiz-adv-x="884" 
d="M844 567q17 17 33 17q17 0 26.5 -17t5 -41t-23.5 -41q-84 -73 -199.5 -148t-181.5 -75q-62 0 -95.5 45t-33.5 109q-80 -41 -164 -41q-102 0 -178 65l8 -24q45 -142 -33 -285q-21 -39 -59 -89.5t-85.5 -102t-102 -86.5t-97.5 -35q-27 0 -49 14q-49 29 -43 88q6 36 25 76
q33 72 94 170q105 162 198 299q12 18 29 35q-19 25 -29 43q-8 15 5 28q6 18 32 9q4 -2 8.5 -5t11.5 -8t11 -8q2 4 6 8l17 17q1 1 3 4t3 4q77 112 216 276t220 219q17 17 45.5 31.5t50.5 14.5q34 0 56 -25.5t18 -63.5q0 -35 -19 -67q-65 -144 -200 -264.5t-293 -196.5
q-8 -8 -14 -12q60 -43 133 -43q123 0 241 106q20 28 59.5 74t57.5 57q16 19 29 19q11 0 26 -12q20 -15 26 -36t-5 -34q-20 -25 -41 -53q-82 -99 -111 -150q-26 -54 -18 -70q3 -8 18 -8q48 0 177.5 81.5t185.5 131.5zM481 1012q-23 -20 -45 -40t-46 -46t-39.5 -42t-42.5 -49
t-36.5 -44.5t-41 -50.5t-37.5 -46q77 44 176.5 154t111.5 164zM680 741q-43 27 -37 82q6 45 58.5 90t99.5 45q44 0 65 -31.5t2 -72.5q-14 -33 -63.5 -79t-83.5 -46q-20 0 -41 12zM-31 338q4 30 -4 51q-2 -2 -6 -5.5t-7 -6t-6 -6t-5 -6.5q-74 -109 -158 -242
q-85 -135 -107 -191q0 -12 -4 -24q7 6 20 12.5t19 11.5q136 112 223 271q26 62 35 135z" />
    <glyph glyph-name="fl" unicode="fl" horiz-adv-x="999" 
d="M958 567q25 25 50 25q20 0 28 -16t-1 -42t-36 -49q-26 -22 -99.5 -91t-111 -99.5t-104 -68.5t-131.5 -52q-57 -12 -115 12q-94 46 -88 152q5 29 19 74q-86 -35 -158 -35q-107 0 -178 63l8 -24q45 -142 -33 -285q-21 -39 -59 -89.5t-85.5 -102t-102 -86.5t-97.5 -35
q-27 0 -49 14q-49 29 -43 88q6 36 25 76q33 72 94 170q105 162 198 299q12 18 29 35q-19 25 -29 43q-8 15 5 28q6 18 32 9q4 -2 8.5 -5t11.5 -8t11 -8q2 4 6 8l17 17q1 1 3 4t3 4q77 112 216 276t220 219q17 17 45.5 31.5t50.5 14.5q34 0 56 -25.5t18 -63.5q0 -35 -19 -67
q-65 -144 -200 -264.5t-293 -196.5q-8 -8 -14 -12q60 -43 133 -43q123 0 237 102q257 413 570 629q6 3 40 20.5t56 22.5q21 6 39 6q43 0 71.5 -30.5t28.5 -77.5q0 -24 -16 -60q-38 -101 -134 -211.5t-212 -194.5t-217 -118q-76 -25 -109 -21q-23 0 -27 -12q-8 -15 -16 -29.5
t-24.5 -47t-25.5 -59.5t-15.5 -56t0 -48.5t26.5 -25.5q119 -36 487 317zM604 639q-1 -2 -3 -5.5t-3 -5t-1.5 -5.5t1.5 -7q41 17 47 19q292 141 479 440q9 13 21.5 38.5t19.5 37.5q-16 -4 -32 -4q-4 -2 -16 -8.5t-19 -10.5q-13 -8 -34.5 -22t-38.5 -25.5t-32 -23.5
q-193 -156 -389 -418zM481 1012q-23 -20 -45 -40t-46 -46t-39.5 -42t-42.5 -49t-36.5 -44.5t-41 -50.5t-37.5 -46q77 44 176.5 154t111.5 164zM-31 338q4 30 -4 51q-2 -2 -6 -5.5t-7 -6t-6 -6t-5 -6.5q-74 -109 -158 -242q-85 -135 -107 -191q0 -12 -4 -24q7 6 20 12.5
t19 11.5q136 112 223 271q26 62 35 135z" />
    <glyph glyph-name=".notdef" horiz-adv-x="1024" 
 />
    <glyph glyph-name="uni0000" horiz-adv-x="0" 
 />
    <glyph glyph-name="uni0000" horiz-adv-x="0" 
 />
    <glyph glyph-name="uni000D" unicode="&#xd;" horiz-adv-x="512" 
 />
    <glyph glyph-name="space" unicode=" " horiz-adv-x="532" 
 />
    <glyph glyph-name="exclam" unicode="!" horiz-adv-x="628" 
d="M205 307q-32 0 -51.5 24t-3.5 56q7 15 17.5 43.5t16.5 40.5q269 562 506 901q16 24 27 35q13 16 37 16q39 0 51 -34q5 -11 -4 -29q-5 -15 -21 -35q-14 -14 -27.5 -32.5t-20.5 -29.5t-22 -36t-20 -33q-217 -360 -426 -782q-21 -45 -26 -80q0 -25 -33 -25zM121 96
q-41 7 -68 41q-13 15 -4 39q30 74 80 74q19 0 36 -9t23 -24l5 -4q-5 -11 -3 -46t-12 -46q-21 -25 -57 -25z" />
    <glyph glyph-name="quotedbl" unicode="&#x22;" horiz-adv-x="575" 
d="M135 1157q28 11 51 8q24 -3 37.5 -16.5t12.5 -34.5q-2 -52 -19.5 -149t-21.5 -131q-3 -23 -45 -27q-26 -1 -34.5 9t-13.5 40q-21 129 -6 242q1 4 2 11t1 9.5t1 7.5t2 7t2.5 6t3.5 5.5t4.5 3.5t5.5 3.5t7.5 3t9.5 2.5zM377 1157q28 11 51 8q52 -7 49 -51
q-2 -52 -19.5 -149t-21.5 -131q-3 -23 -45 -27q-26 -1 -34 8.5t-13 40.5q-21 129 -6 242q1 4 2 11t1 9.5t1 7.5t2 7t2.5 6t3.5 5.5t4.5 3.5t5.5 3.5t7.5 3t9.5 2.5z" />
    <glyph glyph-name="numbersign" unicode="#" horiz-adv-x="1435" 
d="M262 -43q-37 -43 -61 -43q-13 0 -33 16q-26 26 -12 58q5 11 14.5 37.5t17.5 42.5q66 140 97 202q-14 0 -44.5 1t-47.5 1q-143 -7 -177 42q-19 29 9 54q24 21 63 21q45 0 128.5 1t123.5 1q41 88 102 209q-21 0 -70.5 1t-78.5 1q-141 -8 -176 40q-19 28 9 54q23 21 62 21
q108 0 312 4q17 35 52 106.5t54 108.5q30 73 61.5 106t59.5 33q27 0 37 -29.5t-8 -66.5q-114 -242 -121 -258q119 0 174 -2q88 180 106 217q30 72 61.5 105.5t57.5 33.5q27 0 37.5 -29.5t-6.5 -66.5q-20 -43 -61 -129t-64 -135q96 -3 193 -6q2 -1 9 1t15 1q50 -12 61 -29.5
t3 -42.5q-12 -37 -45 -37q-14 0 -42 -1t-44 -1q-42 0 -109.5 -1t-93.5 -1q-28 -60 -103 -211q133 -3 248 -6q2 -1 9.5 1t15.5 1q34 -8 50 -20.5t16 -25.5t-3 -28q-9 -35 -45 -35q-62 -4 -86 -4q-57 0 -144.5 -1t-121.5 -1l-76 -143q-14 -27 -36.5 -75.5t-32.5 -69.5
q-1 -1 -1.5 -3.5t-2.5 -8t-5 -11.5q-37 -43 -61 -43q-13 0 -33 16q-26 26 -12 58q5 11 15 37.5t18 42.5q16 34 48 100.5t48 99.5h-176q-1 -3 -76 -143q-10 -20 -33.5 -68.5t-38.5 -76.5q-1 -1 -1 -3.5t-1 -8t-4 -11.5zM477 391h172q4 9 25 51l51 105q4 8 12.5 25.5
t12.5 25.5h-170q-39 -82 -103 -207z" />
    <glyph glyph-name="dollar" unicode="$" horiz-adv-x="1048" 
d="M1020 899q-4 -47 -31 -69.5t-55 -22.5q-11 0 -17.5 4t-3.5 10q26 66 11 97.5t-64 33.5q-70 -105 -102 -161l-113 -195q89 -14 151 -50.5t95 -113.5q27 -62 15 -116.5t-47.5 -100.5t-94 -85t-123 -69t-135.5 -52.5t-131.5 -36t-110.5 -19.5l-4 -4q-13 -20 -26.5 -41.5
t-29.5 -48.5t-26 -43q0 -8 -8 -21q-31 -31 -49 -31q-19 0 -31 27q-18 34 0 64q5 9 18.5 34.5t22.5 40.5q2 4 7 11.5t7 11.5q-122 12 -172 86q-44 62 -20 127q28 85 149 130q74 28 115 22q25 -4 -5 -20q-4 -3 -9 -5q-112 -54 -156 -126q-40 -66 9 -100q42 -29 143 -20h4
q167 264 293 481q-21 2 -67.5 5.5t-70.5 5.5q-55 0 -63 43q-8 48 71.5 151t190.5 187q127 95 252 118q67 105 113 164q14 17 26 17q26 0 35.5 -31t-14.5 -72q-7 -12 -23.5 -37t-25.5 -39q52 -11 79 -47.5t21 -93.5zM545 608q10 16 44 72.5t54 87.5q38 69 90 152
q-48 -21 -110 -66q-107 -78 -153 -150q-51 -80 24 -90q24 -3 51 -6zM600 516l-57 -98q-93 -161 -205 -346q109 24 215 67q23 9 60.5 32t81 57t73.5 71t37.5 73.5t-27.5 65.5q-69 58 -178 78z" />
    <glyph glyph-name="percent" unicode="%" horiz-adv-x="958" 
d="M412 1036q48 0 71.5 -32.5t22 -78.5t-11 -88.5t-23.5 -70.5q-2 -4 -12 -25t-12.5 -26.5t-11.5 -22.5t-14.5 -24.5t-15 -20t-19.5 -21.5t-21 -18q-39 -26 -89 -26q-56 0 -97.5 38t-41.5 97q-3 51 27 106q118 213 248 213zM162 -14q-45 -37 -70 -37q-18 0 -29 18
q-20 26 3 60q11 14 27.5 39.5t25.5 37.5q72 94 214 288t259 344t233 274q17 20 43 20q28 0 36 -25t-21 -65q-100 -126 -296.5 -392.5t-303.5 -400.5q-19 -25 -54.5 -71t-52.5 -68q-1 -1 -2.5 -4t-4.5 -8t-7 -10zM379 936q-50 0 -107.5 -77.5t-48.5 -135.5q6 -32 33 -41
q14 -4 39 0q16 2 39 16q36 25 67 113q7 18 11 38t4.5 40.5t-9 33.5t-28.5 13zM752 444q48 0 71.5 -32.5t22 -78.5t-11 -88.5t-23.5 -70.5q-2 -4 -12 -25t-12.5 -26.5t-11.5 -22.5t-14.5 -24.5t-15 -20t-19.5 -21.5t-21 -18q-39 -26 -89 -26q-56 0 -97.5 38t-41.5 97
q-3 51 27 106q118 213 248 213zM719 344q-50 0 -107.5 -77.5t-48.5 -135.5q6 -32 33 -41q14 -4 39 0q16 2 39 16q36 25 67 113q7 18 11 38t4.5 40.5t-9 33.5t-28.5 13z" />
    <glyph glyph-name="ampersand" unicode="&#x26;" horiz-adv-x="1611" 
d="M975 473q3 -4 5.5 -9t4.5 -7q82 -82 53 -211q-37 -149 -176 -230q-170 -101 -344 -84q-112 9 -192 67t-119 161q-42 111 -4 250q60 171 214 296t343 179q23 7 63 15t47 9q27 9 37 9q-3 4 -6.5 9t-5.5 8t-4 7q-31 35 -45 64q-40 81 -10 170q71 221 297 258q100 18 186 -43
q87 -66 63 -168q-13 -63 -67.5 -127t-114.5 -90q-12 -9 -29 -9q-19 0 -36.5 11t-22.5 24q-6 24 8 29q7 1 13 2.5t12.5 5t10.5 6t10 8t8.5 8l9.5 9.5l8 8q42 34 71 85t29 101q3 25 -10.5 41t-38.5 19q-51 0 -74 -4q-96 -17 -165.5 -91t-81.5 -172q-12 -89 63 -145
q18 -13 57 -29q27 -16 43 -34q9 -19 2 -30t-26 -11h-4q-30 6 -60 6q-53 0 -139 -23q-146 -35 -275.5 -116t-211.5 -197q-101 -154 -80 -297q12 -85 62 -139.5t132 -67.5q152 -11 295 68q120 73 154 207q14 55 4 94q-7 48 -43 67q-34 17 -49 13q-84 -17 -123 -21
q-67 -11 -115 -59q-30 -35 -39 -47q-17 -21 -37 -21t-43 17q-37 24 -20 67q15 36 55 64q96 58 195 75q63 14 108 4q14 -1 19 -0.5t20.5 4.5t20.5 5q101 19 182 59q91 39 160 123q57 74 39 131q-7 27 24 27q24 3 45.5 -13t30.5 -43q16 -68 -20 -123q-50 -80 -137 -134
t-189 -79q-7 -2 -22 -8t-25 -8z" />
    <glyph glyph-name="quotesingle" unicode="'" horiz-adv-x="333" 
d="M135 1157q28 11 51 8q24 -3 37.5 -16.5t12.5 -34.5q-2 -52 -19.5 -149t-21.5 -131q-3 -23 -45 -27q-26 -1 -34.5 9t-13.5 40q-21 129 -6 242q1 4 2 11t1 9.5t1 7.5t2 7t2.5 6t3.5 5.5t4.5 3.5t5.5 3.5t7.5 3t9.5 2.5z" />
    <glyph glyph-name="parenleft" unicode="(" horiz-adv-x="700" 
d="M1022 1337q-144 -43 -354 -272q-101 -111 -214.5 -290t-201.5 -386.5t-88 -341.5q0 -47 -4 -72q0 -1 -0.5 -8t0 -9t2 -7t5 -7t9.5 -3l4 -4q1 -1 8 -7.5t10 -13t1 -14.5q-3 -14 -17 -23.5t-30 -9.5q-56 12 -80 63q-9 27 -9 43q-24 210 37 359q175 446 432 745
q81 96 179.5 181.5t189.5 121.5q55 17 72 19q34 6 60.5 -12t35.5 -52q0 -14 -4 -18q-2 -2 -5 -2t-8 1t-8 1q-8 4 -22 18z" />
    <glyph glyph-name="parenright" unicode=")" horiz-adv-x="700" 
d="M-322 -66q144 43 355 273q101 111 214.5 290t201.5 386.5t88 341.5q0 46 4 71v6v8.5t-1 6.5t-2.5 6.5t-5 4t-8.5 3.5l-4 4l-7.5 7.5t-9.5 13t-1 14.5q3 14 17 23.5t30 9.5q56 -11 80 -64q8 -24 8 -43q24 -209 -37 -358q-175 -446 -432 -745q-82 -97 -180.5 -182.5
t-188.5 -121.5q-51 -16 -71 -18q-34 -6 -61 11.5t-36 51.5q0 15 4 19q2 2 5 2t8 -1t8 -1q6 -3 22 -19z" />
    <glyph glyph-name="asterisk" unicode="*" horiz-adv-x="702" 
d="M479 1051q11 -11 31 -27q78 -70 108 -100q27 -23 15 -52q-15 -36 -43 -41q-22 -3 -35 13q-19 19 -55 54.5t-54 53.5q-17 17 -22 23q-6 -17 -8 -31q-6 -26 -19.5 -74.5t-17.5 -64.5q-9 -31 -27 -31q-11 0 -24 10q-33 27 -25 64q4 19 14.5 60t14.5 63q-16 -5 -29 -15
q-177 -118 -203 -118q-23 0 -26 39q0 23 20 43l23 16q33 23 98.5 64.5t73.5 46.5q5 3 14.5 11.5t15.5 12.5q-6 5 -16.5 14.5t-17.5 12.5q-11 7 -40 25t-48.5 31t-38.5 28q-40 28 -13 59q15 20 43 41q3 3 10.5 3t10.5 -3q10 -3 31 -20q5 -4 14 -12.5t14 -12.5l56 -47
q15 -12 28 -25q3 -2 7 -5t7 -4.5t6.5 -5t6.5 -7.5q2 6 6.5 14t5.5 12q29 88 43 172q2 2 4 6t4 5q10 24 33 12q20 -10 28.5 -30t2.5 -42q-3 -9 -10 -40t-13 -46l-8 -32q6 4 13.5 7t9.5 5q96 75 108 84q2 2 7.5 5t8 5t3.5 6q14 7 28 0q26 -14 33 -41t-12 -47q-46 -49 -99 -82
l-47 -31q-10 -5 -22 -14q-14 -7 -27 -20z" />
    <glyph glyph-name="plus" unicode="+" horiz-adv-x="952" 
d="M496 543h206q9 0 29.5 -2t30.5 -2q26 -5 39 -37q0 -1 1.5 -8t2 -8.5t1.5 -8t0 -9.5t-2 -8t-4 -9.5t-7 -8.5q-12 -12 -23 -12h-53q-109 8 -246 8q-6 -95 -6 -190q-4 -62 -2 -94q2 -50 -55 -58q-28 -3 -33 31q-10 62 -10 80q-2 79 2 231q-96 -4 -142 -8q-47 0 -94 -6
q-53 -5 -61 51q-7 29 28 35q27 9 80 16q13 1 40 3t40 3l115 7q9 130 14 192q1 8 4 28.5t4 31.5q8 27 41 36q39 9 58 -12q12 -15 10 -24q1 -12 -4 -54q-20 -154 -23 -192h4l11 2h4v-4z" />
    <glyph glyph-name="comma" unicode="," horiz-adv-x="610" 
d="M147 373q31 0 52 -13q36 -19 26 -63q-14 -64 -61 -128t-105 -106l-28 -18q-1 -1 -11 -6q-27 -13 -53 4q-47 28 -10 68q91 91 133 221q7 28 19 36t38 5z" />
    <glyph glyph-name="hyphen" unicode="-" horiz-adv-x="960" 
d="M496 551h206q9 0 29.5 -2t30.5 -2q30 -6 39 -37q13 -38 -8 -59q-13 -13 -23 -13h-53q-147 11 -246 11q-96 0 -246 -11q-47 0 -94 -6q-53 -5 -61 51q-6 27 28 35q67 16 80 17q59 6 167.5 11.5t150.5 8.5v-4z" />
    <glyph glyph-name="period" unicode="." horiz-adv-x="589" 
d="M238 240q-2 -3 -6 -12.5t-7 -16.5q-27 -63 -106 -90q-42 -14 -80 24q-32 29 -16 78q32 84 108 101q35 9 69.5 -18.5t37.5 -65.5z" />
    <glyph glyph-name="slash" unicode="/" horiz-adv-x="632" 
d="M2 -55q-41 -41 -68 -41q-16 0 -36 20q-29 32 -9 64q2 3 6.5 10t6.5 10l20 43q2 3 6 10.5t6 10.5q29 47 126.5 201.5t146.5 238.5q58 92 161 262t150 246q153 261 270 414q19 22 41 22q31 0 44 -27.5t-11 -70.5q-14 -22 -84.5 -129t-105.5 -164q-222 -377 -246 -418
q-149 -259 -322 -528q-8 -13 -40.5 -67t-51.5 -85q-1 -1 -1.5 -4t-3 -8t-5.5 -10z" />
    <glyph glyph-name="zero" unicode="0" horiz-adv-x="1003" 
d="M715 1079q71 0 120.5 -29.5t74 -77.5t34.5 -110.5t4.5 -128.5t-18.5 -131.5t-30.5 -118.5t-35.5 -90q-9 -18 -36 -73t-38 -76.5t-36.5 -65.5t-45.5 -68.5t-50 -55t-64 -54.5q-109 -72 -225 -72q-91 0 -170.5 41.5t-130 120.5t-50.5 178q-6 141 68 275q294 536 629 536z
M705 987q-72 0 -160.5 -55t-168 -145t-144 -194.5t-97.5 -214t-20 -192.5q12 -78 67 -122t135 -44q56 0 107 16.5t90 42.5t75.5 67t62 80.5t52 94t43.5 95.5t37 96q20 52 35 110.5t21.5 124.5t-2 118.5t-42 87t-91.5 34.5z" />
    <glyph glyph-name="one" unicode="1" horiz-adv-x="575" 
d="M516 965h-22q-10 -6 -27.5 -12.5t-30.5 -13.5t-22 -17q-4 -4 -21 -4t-33.5 20t-13.5 39q0 4 12 22q26 17 35 21q28 12 82 32.5t70 26.5q45 15 76 -16q35 -32 12 -82q-14 -34 -45 -84q-21 -32 -40.5 -68t-47.5 -75q-129 -177 -430 -643q-13 -23 -60 -86q-16 -33 -18 -50
q0 -17 -19.5 -26t-38.5 0q-30 12 -39.5 36.5t5.5 53.5q32 59 63 100q23 36 84.5 132t85.5 132.5t75 114.5t84 127t81 117.5t96 134.5q9 11 24.5 34.5t22.5 33.5z" />
    <glyph glyph-name="two" unicode="2" horiz-adv-x="1124" 
d="M68 102q5 1 98 13q100 15 207.5 22t184 8.5t208.5 1.5h10l19 -4h8q37 -6 54 -43.5t-7 -79.5q-4 -8 -16 -20q-28 -14 -39 8q-10 29 -13 35q-42 0 -125.5 2t-124.5 2q-300 -10 -532 -51q-8 -1 -23 -4.5t-27.5 -5.5t-25.5 -2q-29 -6 -39 20q-21 31 0 55q70 112 217 199
q208 108 398 191q370 164 493 350q27 32 35 98q0 49 -35 64q-9 4 -22.5 12t-24 13t-20.5 7q-60 17 -105 17q-85 0 -178.5 -41.5t-159.5 -102.5q-52 -56 -69 -100q-27 -65 10 -107q6 -9 25 -28q2 -3 12 -23q0 -16 -4 -20q-17 -8 -25 -4q-10 0 -22 8q-22 23 -33 36t-24 35
t-19 44q-15 47 4 100q17 73 89.5 138.5t157 102.5t160.5 48q111 19 211 -27q89 -41 122 -113.5t5 -164.5q-15 -57 -65.5 -117.5t-113 -108t-142 -94.5t-141 -77.5t-121.5 -55.5q-53 -25 -314 -156q-16 -6 -32 -15.5t-37 -23.5t-31 -20q-3 -6 -18 -21z" />
    <glyph glyph-name="three" unicode="3" horiz-adv-x="1048" 
d="M883 948q-67 17 -140 17q-1 3 -93 1.5t-93 -1.5q-25 3 -40.5 17t-18.5 34q-8 41 26 41q211 8 314 0q15 -2 43 -8.5t41 -8.5q51 -10 70 -61t-23 -94q-28 -28 -82 -68q-61 -42 -250 -141q-14 -9 -41.5 -23.5t-38.5 -21.5l14 -3.5t13 -4.5h6l16 -5h6q93 -15 169.5 -61.5
t109.5 -124.5q42 -97 -17 -186q-57 -85 -155 -146.5t-207 -91.5q-120 -42 -258 -55q-108 -7 -178 14t-103 72q-44 62 -20 127q18 57 55 84q28 28 55 43q115 76 304 104q27 6 50 -8t29 -43q3 -13 0 -33q-6 -25 -36 -16q-18 9 -31 4q-157 -34 -248 -90q-28 -19 -63 -51
q-20 -17 -35 -54q-6 -20 -2 -28.5t24 -14.5q64 -23 144 -16q189 25 354 92q69 26 161 95.5t109 125.5q23 53 -16 84q-48 38 -76 48q-90 44 -227 51l-66 4q-25 0 -40 2t-31.5 12.5t-24.5 30.5q-22 44 20 67q40 20 48 23l92 49q4 1 47 23q37 21 242 131q29 19 67 45
q3 2 10.5 8.5t14.5 9.5z" />
    <glyph glyph-name="four" unicode="4" horiz-adv-x="911" 
d="M561 465q11 0 30 2t27 2q14 0 38.5 2t35.5 2q24 0 41.5 -15t22.5 -36q6 -37 -23 -37q-58 -8 -88 -8l-110 -12q-46 0 -68 -39q-33 -57 -174 -287q-4 -5 -21 -39q-6 -15 -13.5 -20t-22.5 -5q-30 6 -45 32t-3 52q7 22 21 39q15 24 29 52l61 100q7 16 29 51q14 21 24 41
q-74 -8 -92 -8q-51 -4 -147 -4q-65 0 -107 51q-36 48 -8 100q36 42 37 43q152 197 317 365q3 4 15 18.5t18 25.5t6 23q30 30 51 54q8 4 25 -4q23 -9 33 -35t-2 -49q-29 -42 -47 -64q-119 -136 -187 -219q-123 -153 -155 -190q-4 -9 -19 -27q14 -4 47 -4q143 10 262 26
q27 5 39 29q25 37 52 78t60.5 93t51.5 79q47 69 139 207q13 13 15 18q0 8 2.5 16t5 13t10 13t9.5 10.5t11.5 10.5t10.5 9q17 17 39 0q21 -10 26.5 -32t-6.5 -44q-9 -15 -25 -39.5t-22 -34.5q-49 -74 -137 -214t-111 -175z" />
    <glyph glyph-name="five" unicode="5" horiz-adv-x="995" 
d="M365 754q90 15 202 8q138 -13 232 -72q71 -44 107 -109.5t35 -130.5t-26 -124.5t-69 -98.5q-111 -99 -267.5 -163t-320.5 -89q-124 -14 -215 9q-47 12 -78 47.5t-37 83.5q0 79 58 146t145 108t174 65.5t160 30.5q23 0 35 -4q27 0 44 -27.5t11 -56.5q-10 -31 -31 -31
q-4 0 -20 8q-20 10 -31 6q-231 -32 -371 -131q-43 -31 -64.5 -56t-29.5 -67q-11 -19 15 -26q56 -18 112 -12q397 27 664 245q64 55 73 144q6 59 -38 106q-42 45 -115 72q-105 39 -215 33q-75 0 -178 -21q-1 0 -3.5 -1t-3.5 -1l-12 -4q-4 0 -6 -2q-37 -8 -51 16
q-31 39 -17 72q2 5 9 13t8 10q21 30 160 215q32 51 102 51q63 -4 186 -4h174q38 0 58 -2q17 -6 27.5 -24.5t7.5 -37.5q0 -13 -8.5 -21.5t-22.5 -8.5q-31 0 -91 -2.5t-89 -2.5h-254q-19 0 -27 -16q-31 -32 -108 -143z" />
    <glyph glyph-name="six" unicode="6" horiz-adv-x="972" 
d="M276 600q145 71 267 76q93 0 162 -25q89 -31 135.5 -111t19.5 -182q-20 -84 -65.5 -166t-109 -149t-147.5 -108t-173 -41q-91 0 -170.5 41t-130 120t-50.5 178q-5 132 68 275q191 340 520 498q57 25 90 31.5t96 6.5q35 -6 59.5 -34.5t24.5 -65.5q0 -14 -12 -26
q-19 -5 -35 8q-2 4 -6 8l-12 18q-1 1 -3 4.5t-3 4.5q-14 3 -64 -13q-114 -30 -237 -125.5t-215 -206.5q-5 -6 -9 -16zM154 414q-63 -150 -43 -262q10 -78 66.5 -123t135.5 -45t156 38t136 99.5t103 135.5t64 149q8 46 8 71q0 66 -63 86q-2 2 -9 4t-10 4q-72 13 -98 13
q-36 0 -70 -9q-141 -23 -274 -110q-14 -12 -18 -16t-9.5 -16.5t-3.5 -26.5q0 -12 -10 -17.5t-22 0.5q-6 2 -18.5 11.5t-20.5 13.5z" />
    <glyph glyph-name="seven" unicode="7" horiz-adv-x="763" 
d="M735 881h-35q-53 4 -155 4q-116 0 -338 8q-31 0 -47 4q-53 12 -47 68q6 24 30 24q59 4 187 4q119 4 358 4q26 0 76 -8q51 -9 72 -44.5t6 -86.5q-38 -75 -127 -164q-32 -31 -94 -92.5t-93 -93.5q-314 -304 -499 -559q-16 -24 -25 -33q-21 -31 -51 -4q-34 42 -12 84
q9 13 46.5 73t61.5 91q97 121 332 364q32 31 91 86.5t106.5 101.5t89.5 87q11 10 22.5 21.5t26 26.5t22.5 23q0 9 -4 11z" />
    <glyph glyph-name="eight" unicode="8" horiz-adv-x="843" 
d="M612 1042q51 3 109 -16q59 -21 85.5 -73t4.5 -119q-28 -84 -84.5 -158t-132.5 -123q-13 -9 -29 -16q60 -29 86 -86.5t2 -128.5q-51 -141 -176.5 -250t-267.5 -109q-76 0 -140.5 32t-100.5 93t-25 137q8 55 32 102.5t58 82.5t78 63t90 46t96 30q-43 30 -64 77.5t-14 104.5
q10 73 52 133t99.5 97t120 58t121.5 23zM360 856q-52 -99 -47 -172q3 -68 74 -92q27 -10 82 -2q85 14 158 93t104 169q10 35 10 43q3 31 -34 49q-37 19 -93 19q-54 0 -107 -17.5t-83 -44.5q-21 -21 -21 -49q0 -7 -6 -10t-12 0q-3 1 -11 6.5t-14 7.5zM94 369
q-61 -112 -49 -189q0 -81 90 -108q54 -15 109 -4q100 18 194 108t131 189q9 31 11 51q1 23 -8.5 36t-36.5 25q-47 23 -115 23q-71 0 -140.5 -22.5t-107.5 -55.5q-28 -25 -25 -57q0 -8 -8.5 -11.5t-17.5 0.5q-6 2 -15 8t-12 7z" />
    <glyph glyph-name="nine" unicode="9" horiz-adv-x="872" 
d="M578 338q-145 -71 -267 -76q-92 0 -161 25q-89 31 -136 111t-20 182q20 84 65.5 166t109 149t147.5 108t173 41q91 0 170.5 -41t130 -120t50.5 -178q5 -132 -68 -275q-191 -340 -520 -498q-57 -25 -90 -31.5t-96 -6.5q-35 6 -59.5 34.5t-24.5 65.5q0 14 12 26q19 5 35 -8
q1 -1 3 -4t3 -4l12 -18q1 -1 3 -4.5t3 -4.5q14 -3 64 13q114 30 237 125.5t215 206.5q5 6 9 16zM700 524q63 150 43 262q-10 77 -66.5 122.5t-133.5 45.5q-80 0 -157.5 -38t-136.5 -99.5t-103 -135.5t-64 -149q-8 -46 -8 -71q0 -66 63 -86q2 -2 9 -4t10 -4q72 -13 98 -13
q39 0 70 8q139 23 274 111q14 12 18 16t9.5 16.5t3.5 26.5q0 12 10.5 17.5t22.5 -0.5q6 -2 18 -11.5t20 -13.5z" />
    <glyph glyph-name="colon" unicode=":" horiz-adv-x="655" 
d="M430 668q-2 -4 -5.5 -13t-6.5 -16q-27 -63 -107 -90q-42 -14 -80 24q-32 29 -16 78q32 84 109 101q35 9 69 -18.5t37 -65.5zM258 256q-2 -4 -5.5 -13.5t-6.5 -15.5q-27 -63 -107 -90q-41 -14 -80 25q-32 29 -16 78q31 83 109 100q35 9 69 -18.5t37 -65.5z" />
    <glyph glyph-name="semicolon" unicode=";" horiz-adv-x="655" 
d="M430 668q-2 -4 -5.5 -13t-6.5 -16q-27 -63 -107 -90q-42 -14 -80 24q-32 29 -16 78q32 84 109 101q35 9 69 -18.5t37 -65.5zM162 340q32 0 51 -12q37 -19 27 -64q-14 -64 -61 -127t-105 -106l-29 -19q-2 -2 -10 -6q-27 -13 -53 4q-48 28 -11 68q91 91 133 221
q7 27 19 35.5t39 5.5z" />
    <glyph glyph-name="less" unicode="&#x3c;" horiz-adv-x="747" 
d="M135 408q2 -1 8 -7l17 -12q1 -1 4 -3t4 -3q119 -78 215 -143q4 -3 16 -9.5t19 -13.5q28 -28 28 -63q0 -31 -22 -31q-15 0 -90.5 50t-134 92.5t-95.5 70.5q-40 32 -51 59q-30 70 31 111q81 54 271.5 146.5t248.5 99.5h21q24 -12 24 -47q0 -23 -12.5 -34t-36.5 -18
q-210 -88 -444 -229q-9 0 -17 -8q0 -4 -4 -8z" />
    <glyph glyph-name="equal" unicode="=" horiz-adv-x="974" 
d="M459 508h-338q-24 0 -37.5 18t-9.5 45q3 23 30 23q281 20 680 20q30 0 44.5 -32t-5.5 -60q-7 -10 -26 -10h-168h-43l-84 -4h-43zM459 293h-338q-23 0 -37 18.5t-10 44.5q3 25 30 25q25 2 53.5 3t62 1.5t52.5 1.5q70 2 209.5 6t208.5 6h94q29 0 43.5 -32t-4.5 -58
q-9 -12 -26 -12h-168h-43l-84 -4h-43z" />
    <glyph glyph-name="greater" unicode="&#x3e;" horiz-adv-x="747" 
d="M555 461q-9 5 -21.5 12.5t-19.5 11.5q-48 26 -137 81.5t-125 76.5q-44 29 -68 29q-6 0 -14 8q-9 8 -11 24t7 35q13 29 47 19q5 -1 24.5 -5t30.5 -10q105 -51 322 -180q21 -14 33 -26q36 -38 18 -93q-21 -58 -119 -100q-91 -39 -264 -115t-201 -88q-3 -1 -9 -3.5t-11 -4.5
l-10 -4q-13 -3 -23 4t-10 21q-6 42 33 67q9 6 30 15q246 117 498 225z" />
    <glyph glyph-name="question" unicode="?" horiz-adv-x="864" 
d="M793 1425q-91 -7 -140 -24q-110 -37 -205.5 -103.5t-136.5 -154.5q-16 -40 -16 -60q-4 -18 4 -47q11 -46 59 -37q103 23 164 84q19 19 39 19q19 0 37 -15q20 -14 4 -40q-8 -10 -33 -35q-39 -32 -94.5 -57t-99.5 -25q-49 0 -94 26q-50 27 -72 77.5t-8 105.5q11 37 20 55
q33 75 126.5 148t200 117t185.5 44q162 18 273 -90q65 -65 80 -149.5t-23 -167.5q-66 -119 -223 -228q-36 -26 -102.5 -72t-96.5 -67q-109 -72 -135 -111q-10 -5 -25 -20q-86 -69 -149 -170q-5 -12 -14 -31t-11 -24q-4 -12 -4 -37q3 -20 -10.5 -31.5t-36.5 -7.5
q-33 8 -51.5 35t-11.5 59q23 91 78 161t145 146q108 87 207 156l112 80q144 99 201 172q42 51 55 127q11 70 -23 119.5t-104 64.5q-12 2 -35.5 4t-35.5 4zM170 248q27 0 51 -21q20 -20 25 -45q0 -5 2 -13t2 -15.5t-4 -14.5q-15 -29 -32.5 -37t-47.5 -2q-30 5 -64 39
q-16 16 -8 37q7 20 33 55q11 17 43 17z" />
    <glyph glyph-name="at" unicode="@" horiz-adv-x="1538" 
d="M1300 741q0 -66 -19 -132t-56 -124t-86 -103.5t-114.5 -72t-137.5 -26.5q-54 0 -86.5 34.5t-32.5 88.5q0 26 4 40q-39 -43 -124.5 -104t-125.5 -61q-37 0 -65.5 27t-28.5 63q0 77 48.5 162t127.5 143.5t158 58.5q37 0 58 -10t48 -37l13 4q24 19 37 19q19 0 35 -19t16 -39
q0 -14 -56.5 -120.5t-56.5 -145.5q0 -22 21 -22q125 0 204.5 93t79.5 212q0 157 -103 249.5t-276 92.5q-91 0 -171 -31.5t-138 -84t-103 -121.5t-70.5 -142t-35.5 -148q-11 -81 11 -154.5t65 -125.5t100 -90t117 -57t115 -19q143 0 205 33q19 10 43.5 38t50.5 47t61 19
l15 -8q-3 -23 -37 -57q-82 -83 -200.5 -122.5t-248.5 -39.5q-74 0 -153 35t-145.5 96.5t-105.5 156t-32 201.5q10 145 65.5 269t147 214t221 140.5t281.5 50.5q97 0 184.5 -33t146.5 -86t94 -119t35 -133zM530 383q46 23 92.5 61.5t100.5 93t82 78.5q3 8 20 25v8
q-21 13 -41 13q-38 0 -97.5 -54.5t-105.5 -120.5t-55 -104h4z" />
    <glyph glyph-name="A" unicode="A" horiz-adv-x="1890" 
d="M1688 651q-28 -4 -35 -18q-8 -17 -26.5 -55.5t-29.5 -61t-27.5 -54t-31.5 -56.5q-92 -156 -248 -406q-12 -18 -24 -18t-27 12q-40 34 -12 82q11 17 30.5 50.5t36.5 60t33 49.5q7 12 36.5 59.5t40 64.5t35 57.5t38 65t32 59t33.5 66.5q2 4 10 21.5t13 25.5q-12 4 -27 4
q-54 0 -148 -4.5t-130 -5.5q-179 -19 -347 -45q-41 -6 -115.5 -20.5t-97.5 -18.5q-26 0 -41 -24q-13 -22 -41.5 -66.5t-42.5 -68.5q-136 -223 -200 -357q-19 -38 -41 -100q-10 -20 -12 -23q-8 -16 -19 -16q-25 -5 -53 16q-19 19 -10 43q21 65 22 68q65 140 164 305
q14 28 94 160q3 9 17 30q-173 -35 -428 -102q-1 0 -5 -4q-30 -9 -46.5 4t-16.5 43q0 34 31 45q191 58 512 127q33 8 49 31q118 172 198 270q55 67 118 134.5t141 141t162 130.5t155 82q110 53 213 45q93 -8 140.5 -78.5t54.5 -171.5q5 -115 -35 -258q-27 -101 -64 -195
q0 -4 -2 -11t-2 -13q250 -36 293 -64q34 -22 16 -54t-59 -20q-38 11 -138 25.5t-136 11.5zM756 676q470 91 858 80q45 96 81 213t46 211q8 64 -8 139q-15 66 -84 72q-98 0 -206 -48.5t-199.5 -120t-186.5 -170t-161 -181t-128 -171.5q-7 -10 -12 -24z" />
    <glyph glyph-name="B" unicode="B" horiz-adv-x="1515" 
d="M592 465q75 124 96 166l-4 6q0 2 -2 2q-12 28 -7.5 39.5t32.5 23.5q18 9 20 9q23 10 43 37q228 337 258 380q91 129 115 166q5 5 16.5 20t20.5 23q-4 0 -10.5 1t-10.5 1t-8 -2q-144 -2 -304 -39t-314 -114t-240 -178q-17 -22 -31 -58q-17 -43 31 -55q61 -13 104 -8
q11 2 44.5 6.5t57 9.5t44.5 12q4 2 15.5 4.5t16.5 4.5q24 3 47 -11t29 -37q7 -22 -12 -28q-10 -2 -44.5 -9.5t-47.5 -10.5t-42 -8.5t-47 -7t-42.5 -3t-46.5 -0.5q-20 0 -60 8q-56 14 -100 64q-54 68 -19 133q11 28 31 61q9 11 19.5 22t19 19.5t22.5 20t21 17.5t23 18
t21.5 16t24 17.5t21.5 15.5q142 91 323 144t367 67q171 14 283 -21q99 -30 139 -106q41 -77 2 -160q-44 -117 -241 -258q-41 -29 -258 -154q-19 -9 -27 -16q21 -6 35 -13q105 -38 160 -118q10 -14 21 -16.5t34 -0.5q121 13 209 2q57 -7 73 -53q11 -31 -6 -45q-10 -9 -26 0
q-22 14 -97 14q-63 0 -145 -12q0 -9 2 -24t2 -21q21 -124 -63 -221q-152 -170 -453 -219q-122 -23 -252 -17h-18q-33 0 -21 -30q16 -17 4 -29q-14 -18 -32 -18q-32 -3 -53 17t-21 54v23q-38 12 -72 24q-83 30 -123 76q-28 36 -29 77t29 77q39 42 90 71q56 38 152.5 73.5
t173.5 49.5q30 15 37 29zM928 811q16 0 16 4q130 63 253 143.5t192 165.5q28 31 55 82q18 40 9 63t-48 42q-4 1 -35.5 9t-48.5 15q-25 3 -39 -16q-5 -9 -12.5 -18t-16.5 -20t-14 -17q-85 -127 -266 -390q-22 -36 -45 -63zM1118 555q-40 49 -98 68q-84 28 -182 16
q-23 -6 -33 -21q-10 -17 -22 -36.5t-26.5 -43.5t-23.5 -38q-1 -1 -10 -19q206 36 395 74zM483 55q5 0 8 -2t5 -2q6 2 18 2l35 4q167 0 364 82q72 30 123 71t103 107q34 51 28 119q0 15 -4.5 20t-19.5 5q-277 -49 -461 -88q-38 -11 -55 -39q-5 -12 -16.5 -33t-16.5 -33
l-70 -127q-5 -11 -16 -32t-16 -33q-2 -2 -5 -10t-4 -11zM504 317h-25q-6 -3 -19.5 -9t-19.5 -9l-80 -31q-3 -1 -16 -7.5t-16.5 -8t-15 -7t-16.5 -8.5t-14.5 -8.5t-15.5 -9.5t-13.5 -9.5t-14.5 -11.5t-13 -12q-3 -4 -13 -15t-13 -19q-18 -29 14 -46q58 -26 131 -38
q13 -4 21 -2.5t10.5 5t9.5 17.5q16 30 47 91.5t47 90.5z" />
    <glyph glyph-name="C" unicode="C" horiz-adv-x="1179" 
d="M1180 485q-221 -190 -369 -294q-321 -227 -492 -224q-83 0 -139 53q-104 93 -104 254q0 137 67 285q190 420 478 668q81 75 186 123q77 39 156 45q62 3 112.5 -28t81.5 -89q34 -68 4 -170q-35 -119 -110 -219q-63 -90 -215 -250q-28 -24 -62 -13.5t-43 46.5q-5 16 8 30
q26 35 41 46q157 164 221 280q45 73 68 152q8 40 8 63q6 31 -24 39q-36 8 -56 4q-43 0 -123 -35q-96 -47 -165 -108q-176 -151 -310 -361q-119 -179 -176 -329q-14 -37 -39 -136q-5 -31 -6.5 -79t16 -97.5t50.5 -60.5q73 -23 180.5 9.5t206 90t210.5 141t176.5 138.5
t121.5 108q44 41 73 26q26 -13 12 -50q-11 -29 -44 -58z" />
    <glyph glyph-name="D" unicode="D" horiz-adv-x="2027" 
d="M1739 645q3 0 70.5 3t120 3.5t120.5 -4.5q52 -6 72 -45q9 -14 1.5 -34t-26.5 -17q-83 12 -201 12q-112 0 -200 -12q-19 0 -37 -25q-190 -240 -442.5 -416.5t-534.5 -254.5q-143 -38 -268 -27q-75 7 -125 31q-8 5 -22.5 16t-16.5 12q-91 76 -27 174q92 151 463 330
q23 9 45 41q214 319 285 420q31 46 68 94.5t84.5 110.5t70.5 92q3 4 6.5 11t5.5 9q23 32 52 9q48 -35 12 -84q-282 -383 -418 -596q-1 0 -16 -23q12 4 28 8q356 125 690 150q29 7 37 24q43 76 86 160q23 56 29 119q18 153 -106 242q-78 57 -203 71q-160 20 -385 -39
q-113 -29 -234.5 -80.5t-243 -121.5t-222 -164.5t-150.5 -194.5q-8 -20 -8 -59q0 -18 6.5 -24.5t23.5 -6.5q76 7 177 55q51 24 126.5 68t154.5 106t91 103q8 8 17 8q31 5 55 -31q17 -28 -4 -51q-8 -8 -31.5 -34.5t-36.5 -37.5q-255 -215 -473 -262q-89 -17 -147.5 42.5
t-38.5 148.5q10 56 55 114q97 133 265.5 248t346 186t347.5 103q112 25 258 18q165 -10 280 -102q181 -149 152 -369q-12 -97 -66 -194l-12 -21zM1528 530q-1 0 -2 1q-4 2 -4 -1q-372 -50 -713 -190q-22 -9 -35 -29q-145 -244 -151 -254t-16.5 -34t-14.5 -33q16 -24 16 -27
q4 -8 4 -33q302 82 598 295q90 68 192.5 166t125.5 139zM608 233q-108 -50 -187 -107.5t-128 -139.5q-15 -26 -10 -40t34 -24q61 -14 105 -14q51 0 123 10q-1 1 -21 16q-24 17 -29 35.5t5 48.5q0 18 8 31q13 23 36.5 68t30.5 59q6 12 33 57z" />
    <glyph glyph-name="E" unicode="E" horiz-adv-x="1210" 
d="M774 879q-29 24 -33 30q-38 41 -46.5 94.5t16.5 104.5q18 50 73 98q147 134 320 156q106 13 170 -51q69 -75 39 -168q-25 -69 -86.5 -132t-126.5 -63q-34 5 -53 37q-10 26 16 31q5 0 12 2t8 2q51 22 100 87t54 116q3 26 -4.5 37t-34.5 14q-29 7 -98 -6
q-137 -36 -244 -135q-42 -47 -51 -64q-20 -27 -23 -53q-18 -63 39 -94q70 -36 127 -41q33 0 60 -27q12 -24 12 -29q3 -8 -2 -15t-14 -7q-3 0 -8 -1t-9 -1t-8 2q-14 4 -29.5 4t-35 -2t-29.5 -2q-237 -24 -418 -160q-99 -77 -185.5 -191t-115.5 -223q-23 -71 -0.5 -122.5
t66.5 -81t96 -33.5q103 -11 202 28q220 88 347 293q32 53 32 105q0 38 -21 60t-59 22q-86 0 -159 -51q-45 -29 -65 -50t-42 -65q15 -10 31 -29q12 -13 8 -26q-6 -17 -22 -17q-53 -6 -93 29q-35 25 -20 82q29 80 106.5 132.5t167.5 65.5q98 17 187 -39q102 -70 71 -194
q-7 -22 -30 -68q-98 -149 -248.5 -249.5t-314.5 -100.5q-84 0 -162.5 31.5t-132.5 91.5q-77 97 -48 207q6 30 27 80q87 202 266 355t385 181q1 1 4.5 2t4.5 2l16 7q1 0 4 1t4 1z" />
    <glyph glyph-name="F" unicode="F" horiz-adv-x="1202" 
d="M1085 1206q-17 2 -41 9t-30 8q-40 4 -113 14t-106 14q-195 15 -314 -28q-234 -85 -301 -344q-13 -74 8 -131q1 -11 23 -54q17 -26 51 -26q41 0 100 18q89 38 154 109q108 98 160 254q3 14 10 19t23 5q23 -3 36.5 -23t10.5 -44q-4 -19 -21 -62q-89 -215 -278 -313
q-44 -25 -103 -39q-134 -24 -211 84q-77 101 -51 237q32 164 154.5 280.5t285.5 141.5q67 6 136 6q52 0 108 -6q101 -12 389 -57q183 -21 262 -14q138 6 259 77q25 20 34 29q6 6 8 8.5t5 8t5 12.5t3 18q-43 7 -51 41q0 3 -1 10t-1 12t2 9q0 12 14 19.5t27 7.5q43 0 65 -39
q27 -37 19 -105t-48 -98q-28 -22 -77 -51q-98 -40 -199 -52q-89 -5 -215 9q-12 4 -43 4q0 -1 -1 -3t-1 -3l-4 -17q0 -4 -2 -6q-13 -29 -41 -18q-28 12 -47 -13q-32 -40 -56 -67q-60 -78 -202 -309q-7 -7 -13 -25q4 0 10.5 1t10.5 1t8 -2h123q15 0 39 -8q21 -9 30 -29.5
t3 -42.5q0 -16 -29 -16q-78 8 -115 8q-22 0 -63 -4t-60 -4q-20 0 -28 -19q-108 -200 -242 -401q-55 -95 -142.5 -169.5t-183.5 -88.5q-38 -12 -71 8q-26 5 -39 31q-7 28 4 47q16 20 39 12q26 -9 35 -14q14 -14 41 0q47 29 75 51q13 10 25.5 21t27 26t21.5 23t24 28t21 25
q95 136 234 381v8h-13q-12 -5 -40 -12.5t-47 -16t-36 -22.5q-13 -7 -26 0q-24 15 -26.5 45t26.5 45q59 31 145 55q11 2 33.5 8.5t30.5 8.5q25 0 37 24q92 154 278 412q7 8 27.5 29t31.5 34z" />
    <glyph glyph-name="G" unicode="G" horiz-adv-x="1519" 
d="M1079 465l-96 -37q-125 -43 -254 -55q-62 -6 -127 8q-81 21 -126.5 82.5t-39.5 148.5q5 64 47 150q4 8 12.5 24.5t12.5 24.5q-90 46 -127 102q-64 84 -45 199q1 6 8 27q93 237 299 358q61 35 119 35q68 7 98 -43q0 -1 2 -6t2 -10q8 -17 -4 -27q-11 -11 -26 -4
q-35 17 -68 4q-88 -22 -168 -96q-57 -50 -117.5 -146.5t-64.5 -163.5q-8 -107 88 -151q23 -11 43 -19q7 6 16.5 19t11.5 16q251 303 603 422q99 32 184 27q102 -7 139 -80q31 -61 10 -115q-19 -86 -102 -162q-167 -159 -428 -215q-124 -26 -287 -12q-17 0 -67 8
q-17 0 -29 -12q-64 -109 -74 -195q-2 -19 2 -59q6 -44 54 -51q48 -15 118 -8q237 27 496 178q7 5 18.5 19.5t14.5 17.5q25 29 74.5 82.5t68.5 74.5q53 58 92 58q30 0 45 -21q43 -49 9 -88q-52 -59 -94 -96t-113 -86q-7 -4 -13.5 -10t-14.5 -15t-11 -12q-131 -189 -207 -305
q-4 0 -4 -8q29 -7 85.5 -18.5t61.5 -12.5q87 -20 135.5 -43.5t114.5 -75.5q21 -21 21 -49q-3 -11 -12.5 -18.5t-20.5 -4.5q-24 7 -39 27q-24 57 -254 100q-30 6 -131 15q-25 3 -37 -15q-93 -120 -269 -206.5t-341 -106.5q-151 -13 -254 78q-31 28 -33.5 61.5t25.5 65.5
q34 42 126 81.5t166 57.5q232 72 502 72q37 0 51 24q16 23 29 45l62 89q10 19 28 45q4 4 4 12zM666 850q134 -7 227 8q265 44 436 207q39 29 71 73.5t44 88.5q5 22 -14 33h-7l-12 4h-6q-43 7 -119 -9q-101 -23 -225 -88t-232.5 -151t-162.5 -166zM174 -51q18 -18 54.5 -27.5
t68.5 -9.5q83 0 209 46t215 97q34 19 121 88l4 4l6 11l4 4q-87 5 -186 -15q-52 -8 -118 -22.5t-149 -39t-146.5 -61t-82.5 -75.5z" />
    <glyph glyph-name="H" unicode="H" horiz-adv-x="1892" 
d="M1464 545q-30 0 -80 -4q-100 -13 -231 -23q-23 0 -31 -16q-4 -9 -9.5 -17.5t-12.5 -18.5t-10 -15q-36 -53 -121.5 -180t-132.5 -195q-95 -132 -127 -174q-13 -16 -23.5 -18.5t-32.5 5.5q-9 3 -16 8t-14 14t-10 13.5t-10 17t-9 15.5q-3 3 -1 10t5 10q2 6 16 27
q6 11 28.5 45t31.5 55q107 180 63 365q0 6 -2 16.5t-2 16.5q0 35 31 51q15 7 49 16q36 6 106.5 15.5t106.5 15.5q32 0 45 21q23 35 86.5 127.5t106 159t77.5 132.5q56 107 86 189q18 69 21 94q6 37 -29 47q-8 2 -28 8t-31 8q-61 4 -186 -12q-458 -77 -814 -393
q-96 -83 -159 -178q-54 -81 -64 -144q-8 -35 -4 -51q0 -21 8.5 -30t30.5 -9q49 0 109 13q219 42 389 141q137 77 254 164q22 17 59 50t51 44q4 3 15 13.5t18 15.5q9 6 21.5 3t21.5 -12q21 -21 4 -43q-50 -66 -80 -92q-276 -251 -606 -346q-93 -26 -172 -26q-32 0 -86 8
q-27 7 -45 22q-109 62 -80 189q21 84 88 178q81 110 203 211q316 259 706 340q132 33 242 33q91 -6 160 -52q51 -34 73.5 -85.5t10.5 -112.5q-13 -71 -60 -160q-78 -172 -231 -393q-4 -6 -12.5 -17.5t-12.5 -17.5v-12q4 0 11.5 -1t14 -1t11.5 2q31 2 95 8t96 8q33 8 47 4
q40 0 63 39q35 57 215 334q120 181 301 405q6 7 20 21t21 22q16 16 39 4q22 -12 27.5 -32t-6.5 -39q-34 -50 -88 -123q-39 -54 -77 -110.5t-81 -123t-70 -109t-78 -124t-71 -113.5q-12 -24 -16 -28q9 -4 17.5 -5t21.5 0t16 1q59 4 180 4q29 0 47 -15.5t21 -40.5
q0 -20 -17 -20q-12 -4 -41 -4q-149 -18 -245 -23q-48 -3 -60 -10t-35 -45q-40 -70 -119.5 -209t-119.5 -209q-55 -98 -103 -198q-1 -1 -3 -5.5t-3 -6t-2.5 -5.5t-2 -5.5t-1.5 -5.5t-1 -5.5t-0.5 -5t0.5 -6t2 -5.5t3 -6q3 -3 1 -9.5t-5 -6.5q-18 -12 -35 -12q-33 0 -50 23
t-9 56q29 141 98 263q41 73 199 354q18 27 24 39zM979 498q-15 0 -47 -4q-8 -2 -39.5 -7t-48.5 -10q-26 -6 -32 -15t-3 -36q14 -50 14 -135v-25q33 39 91.5 126t64.5 106z" />
    <glyph glyph-name="I" unicode="I" horiz-adv-x="849" 
d="M334 115q11 -2 23 -2t25 1t19 1q27 0 43.5 -18t16.5 -46q0 -22 -19 -22q-27 -9 -28 -9q-86 -8 -131 -8q-97 0 -199 -24q-26 -6 -40 0.5t-24 31.5q-17 46 25 52q42 13 123 28q19 3 28.5 9.5t18.5 21.5q76 125 160 252.5t136 202t163.5 231.5t161.5 227q39 57 170 236
q-73 -5 -158 -25q-4 -4 -17 -4q-24 -6 -37 2.5t-22 34.5q-7 13 -0.5 28.5t23.5 18.5q65 22 146 33t134 12.5t150 1.5q6 0 15.5 -2t14.5 -2q31 -3 49 -26t15 -54q-3 -35 -39 -18q-16 8 -20 8h-119q-7 0 -11.5 -3t-9 -11t-6.5 -10q-496 -703 -717 -1041q-26 -42 -55 -84
q-2 -4 -3 -7t-2.5 -8t-2.5 -9z" />
    <glyph glyph-name="J" unicode="J" horiz-adv-x="1372" 
d="M1346 1219q-89 0 -281 -82q-25 -13 -25 -29q0 -21 -24 -29q-18 0 -31 17q-37 47 -4 88q26 26 47 39q78 50 263.5 87.5t293.5 37.5q35 0 82 -7q39 -5 53 -10q26 -10 37.5 -35.5t5.5 -52.5q-7 -41 -39 -12q-16 16 -41 16q-131 0 -194 -4h-21q-9 -6 -14 -16
q-28 -61 -45 -111q-8 -16 -8 -20q-31 -85 -47 -119q-14 -28 -166 -334q-11 -11 -17 -31q137 20 191 27q6 2 20 4t19 4q19 0 37 -11t24 -28q10 -32 -16 -41q-16 -4 -25 -4q-54 -8 -278 -47q-37 -6 -60 -43q-108 -178 -229 -334q-66 -85 -161 -179t-218.5 -179.5
t-216.5 -102.5q-118 -20 -203 33q-122 75 -71 209q17 44 42.5 83t63.5 75.5t66 59.5t77 61q329 245 711 358q62 15 76 27q14 11 45 67q41 71 178 326q2 4 17.5 39.5t34.5 75.5t32 63q10 10 10 29q9 27 9 35zM938 449h-12q-27 -9 -33 -9q-306 -104 -584 -309
q-186 -137 -229 -246q-1 -3 -5 -12t-5 -12t-4 -11.5t-2.5 -11.5t-1 -12t0.5 -12q6 -47 48 -60q42 -12 79 -4q71 12 160 72q158 105 287 243t256 320q8 14 25 36.5t20 27.5z" />
    <glyph glyph-name="K" unicode="K" horiz-adv-x="1646" 
d="M1243 614q26 -60 35 -86q22 -58 61.5 -145t93 -192t110.5 -184t97 -91q15 -4 18.5 -14.5t-5.5 -20.5q-26 -33 -60 -33q-32 0 -72.5 35t-62.5 68q-177 263 -274 553l-6 12l-9 27l-6 12q-6 -2 -10 -5.5t-7.5 -9.5t-4.5 -8q-22 -30 -136 -188.5t-180 -237.5
q-13 -16 -153 -178q-25 -31 -64 -37q-22 0 -41.5 15t-25.5 39q-3 11 4.5 25t17.5 14q9 0 16.5 3t10.5 6t9.5 10t8.5 9q108 113 242 293q24 33 72 98.5t71 96.5q3 5 10 13.5t11 14.5h-29q-66 -8 -92 -8q-17 0 -32.5 16t-18.5 35q-3 12 2.5 20.5t17.5 8.5q97 0 225 51
q19 9 25 19q48 77 75.5 126t63 122.5t52 142.5t16.5 137q-6 109 -111 127q-55 11 -139 4q-320 -45 -592 -233q-53 -37 -103.5 -81t-102 -100.5t-83.5 -121t-32 -123.5q3 -39 22 -59t58 -23q77 -7 131 12q94 31 131 47q101 43 238.5 130t176.5 155q18 18 37 8
q24 -11 30.5 -34.5t-11.5 -47.5q-27 -37 -64 -67q-243 -200 -487 -271q-86 -24 -152 -16q-88 8 -155 88q-57 73 -27 186q20 69 47 103q77 131 214.5 240.5t286.5 176.5t306 103q120 27 190 20q111 -8 174 -60t89 -163q21 -110 -29 -254q-37 -88 -80 -170q-1 -2 -5 -14
t-9 -19q9 3 30 13q172 104 346.5 262t274.5 309q-17 26 -21 37q-12 30 21 47q16 8 31 8q17 0 32 -12q39 -27 31 -72q-1 -8 -7.5 -26t-8.5 -25q-95 -218 -531 -532q-28 -21 -188 -115q-21 -14 -35 -21z" />
    <glyph glyph-name="L" unicode="L" horiz-adv-x="1153" 
d="M459 117q37 5 84 12q153 18 207 21q55 8 165 16q1 0 49 1.5t48 -1.5q35 -3 54 -27t13 -57q0 -22 -11 -27.5t-30 6.5q-16 9 -39 9q-46 -4 -134.5 -10.5t-131.5 -10.5q-173 -14 -217 -22q-54 -9 -153 -30.5t-121 -25.5q-11 -1 -35 -4.5t-44 -5.5t-38 -2q-24 0 -39.5 15.5
t-15.5 39.5q0 22 15.5 33.5t37.5 5.5q28 -8 43 -4q17 4 49.5 12.5t59 14.5t49.5 10q7 1 12.5 4.5t8 6.5t6 8.5t5.5 7.5q1 3 14 49.5t21 70.5q51 156 176 345q48 75 51 79q-7 2 -17.5 5.5t-14.5 3.5q-95 26 -154 79q-101 90 -88 226q11 111 76 219q50 83 133.5 155t167.5 91
q29 6 49.5 -18.5t17.5 -53.5q0 -14 -7 -19t-19 1q-18 11 -41 0q-235 -143 -285 -375q-10 -50 -4 -99q0 -26 11 -47.5t27 -35t41 -24.5t44.5 -16.5t46.5 -11.5h16q40 -5 47 -2.5t33 41.5q54 75 111 147t138 163.5t157.5 163t163.5 131.5t162 83q6 1 29 7t36 6q45 -3 74.5 -35
t34.5 -78q2 -35 -13 -86q-50 -147 -179.5 -282t-289 -221.5t-313.5 -112.5q-59 0 -80 -29q-132 -197 -178 -289q-19 -39 -47.5 -111.5t-36.5 -91.5zM817 762q4 -4 5.5 -5t2.5 1q7 0 19 4q391 118 629 471q14 20 29.5 57.5t17.5 42.5q8 28 8 47q-34 7 -55 -4
q-73 -31 -105 -51q-71 -41 -144 -104t-147 -145.5t-122 -141t-117 -146.5q-14 -20 -21 -26z" />
    <glyph glyph-name="M" unicode="M" horiz-adv-x="2357" 
d="M1495 905q5 7 16 20t13 15q213 277 377 418q16 16 43.5 29.5t48.5 13.5q34 0 58 -33.5t24 -69.5q0 -110 -127 -358l-31 -61q-2 -3 -7.5 -15t-8.5 -18q-9 -18 -9 -25q16 8 21 13q208 208 299 208q29 0 53 -18q55 -40 45 -102q-4 -20 -16 -56q-29 -91 -111 -243
q-151 -288 -227 -437q-20 -40 -72 -159q-9 -16 -8.5 -32t16.5 -28q19 -19 4 -39q-13 -20 -38 -16q-35 8 -57.5 29.5t-22.5 50.5q0 19 4 43q19 86 67 180q35 67 238 453q16 30 32.5 63.5t37 75t32.5 65.5q9 18 25 58q-7 0 -10.5 1t-8 -1.5t-6.5 -3.5t-5.5 -4t-4.5 -4
q-243 -167 -528 -558q-4 -6 -19.5 -25t-25 -33t-15.5 -28q-14 -17 -37 -59q-5 -8 -11.5 -23.5t-10.5 -21.5q-11 -14 -29 -8q-27 7 -44 34t-3 54q5 14 15 35.5t12 27.5q64 112 311 549q124 226 170 348q2 6 7.5 17.5t8.5 18.5t4.5 18t0.5 22q-7 -6 -19.5 -14t-21 -15
t-13.5 -14q-80 -74 -217 -235q-51 -61 -109 -135t-98 -128t-104.5 -142.5t-97.5 -133.5q-131 -190 -385 -498q-24 -27 -56 -59q-18 -18 -37 -18q-17 0 -34 14q-43 32 -17 76q4 6 12.5 18t12.5 18q45 63 156 213.5t169 235.5q169 242 277 496q47 90 53 174q4 18 0 53
q-9 66 -80 74q-62 7 -114 -4q-119 -23 -244 -82q-72 -34 -166 -88t-204.5 -128.5t-207 -151.5t-173 -163t-103.5 -157q-16 -38 -5.5 -55t58.5 -13q18 1 35 6t40 14.5t32 12.5q28 12 60.5 29.5t51 28.5t58 35t49.5 30q198 123 301 211l71 71q16 14 31 43q12 27 39 27
q14 0 27 -10q25 -17 27.5 -42t-17.5 -51q-70 -87 -170 -165q-85 -64 -172 -123.5t-209 -125.5t-195 -77q-109 -18 -178 63q-38 47 -32 107q5 39 34 92q60 108 206 238t313.5 238t340.5 189t289 101q50 6 99 0q151 -23 186 -186q10 -77 -14 -176q-2 -8 -7 -23l-16 -49
q-1 -3 -6 -23q4 0 4 -4z" />
    <glyph glyph-name="N" unicode="N" horiz-adv-x="1787" 
d="M1163 879q5 8 11.5 14.5t13 12t8.5 7.5q33 42 79 93.5t108.5 112.5t124 111.5t126 87.5t113.5 44q48 6 86.5 -21t44.5 -73q4 -30 -4 -84q-19 -69 -47 -123q-23 -53 -50 -103.5t-74 -130.5t-58 -100q-59 -102 -179 -306.5t-180 -305.5q-6 -11 -35 -72q-1 -3 -6 -13.5
t-6.5 -13.5t-4 -13.5t0.5 -14.5q0 -12 -8.5 -19.5t-20.5 -7.5q-32 0 -53 27t-14 59l6 12l8 25q49 100 141 258l279 475q17 29 70.5 123t82.5 143q11 22 21.5 46t22.5 54t18 44q3 9 5.5 25.5t4.5 21.5q-19 3 -63 -10q-62 -33 -136 -84q-206 -166 -360 -363q-45 -55 -96 -123
t-84.5 -114t-94 -130t-87.5 -120q-181 -251 -261 -363q-7 -6 -19 -20.5t-17 -18.5q-25 -24 -52 -8q-20 7 -32 25q-14 21 0 43q2 4 8.5 15.5t11.5 16.5q91 126 182 242q53 71 114 165t128.5 211.5t111.5 231.5t44 187q0 39 -4 59q-4 28 -39 43q-47 17 -105 17
q-100 -10 -229 -56q-91 -34 -191 -92.5t-194 -144.5t-131 -168q-41 -75 -41 -123q3 -32 17 -47t46 -21q49 -4 129 17q95 20 191 77q25 15 69 42t80 49t68 41q17 14 33 14q15 0 34 -16q15 -18 14.5 -30.5t-18.5 -27.5q-3 -3 -11 -10t-14.5 -12t-13.5 -9q-87 -60 -143.5 -95.5
t-144.5 -74t-164 -49.5q-116 -14 -187 49q-87 63 -67 175q6 63 49 133.5t96 120.5q227 227 520 313q124 34 220 29q103 -13 163 -76q47 -56 52 -119q6 -76 -13 -156q0 -16 -4 -30z" />
    <glyph glyph-name="O" unicode="O" horiz-adv-x="1658" 
d="M887 1366q-27 23 -71 35t-76 14t-81 2q-263 0 -440 -166q-28 -24 -22 -59q0 -23 18 -31q17 0 33 -33q5 -16 -8 -16q-25 0 -39 4q-33 25 -41 45q-47 65 -23 142q13 65 183 151l8 4q86 34 202 47q80 6 166 0q161 -21 246 -106q6 -9 17 -12.5t20 -0.5q86 18 119 21
q119 7 194 -12q207 -51 258 -246q51 -187 -12 -377q-58 -196 -190 -362q-74 -91 -169.5 -182.5t-211.5 -180t-244 -144t-238 -55.5q-109 0 -198 66t-123 170q-17 68 -4 139q5 120 71 254q10 25 0 47q-30 50 -30 140q0 108 47 186q73 171 244 306.5t364 199.5q26 6 31 10z
M1022 1294q4 -12 15 -31t14 -28q31 -81 26 -145q-7 -111 -55 -185q-43 -75 -93 -145t-113 -141t-137.5 -123.5t-148.5 -73.5q-52 -19 -100 -19q-28 0 -59 7q-32 16 -47 16q-53 -94 -64 -190q-22 -95 -8 -156q9 -64 44 -106t91 -52q21 -8 49 -8q236 0 590 334
q323 286 432 618q49 148 33 275q-7 39 -23 68.5t-36.5 47.5t-51 30.5t-59.5 18t-68 9.5q-106 5 -231 -21zM350 473q64 0 101 16q96 34 200.5 121.5t184.5 184.5q6 8 23 26.5t24 28.5q91 152 96 287q5 48 -16 123q-6 15 -10.5 16.5t-24.5 -4.5q-2 -2 -11.5 -4t-13.5 -4
q-287 -91 -469 -306q-77 -98 -112 -173t-35 -175l4 -8v-6q12 12 16 20q68 117 193 220l41 30q22 11 34 11q34 0 58 -35q8 -27 -8 -51h-4l-9 -5h-4q-16 9 -30 -12q-136 -127 -224 -280q-4 -4 -4 -21z" />
    <glyph glyph-name="P" unicode="P" horiz-adv-x="1708" 
d="M352 297l-16 8q-100 27 -199 109q-23 16 -35 47q-3 9 2.5 14t14.5 2q21 -7 31 -12q137 -65 239 -84q15 0 23 12q93 141 139 211q0 4 -4 4q-53 8 -84 10q-50 6 -98 35.5t-85 74.5t-54.5 109t-4.5 132q20 88 70 162.5t114 126.5t147.5 94t163.5 67t169 43q132 21 270 15
q99 -6 187 -37t160 -84.5t118 -136t55 -183.5q7 -90 -4 -162q-20 -96 -81.5 -182.5t-143.5 -149.5t-184 -114t-198.5 -82.5t-191.5 -48.5q-201 -33 -342 -23q-8 0 -10 5q-26 0 -45 -25q-27 -44 -29 -47l-61 -92q-1 -3 -29 -47q-4 -6 -12 -17.5t-12 -17.5l-49 -70
q-4 -6 -12.5 -17.5t-12.5 -17.5q-12 -14 -21.5 -16.5t-27.5 4.5q-13 7 -14 8q-22 15 -26 28.5t5 39.5q49 113 178 305zM555 373h29q178 14 335.5 56t312 129t265.5 212q76 96 98 199q25 98 -8 180.5t-119 136.5q-126 92 -364 92q-159 0 -342 -51q-159 -54 -266.5 -129.5
t-167.5 -204.5q-38 -85 -27 -168q3 -47 33 -78t78 -40q81 -13 206 16q16 0 29 20q24 30 39 56q138 199 246 329q33 33 41 39q13 9 26 9q29 0 48 -35q4 -6 4.5 -12t-1 -10t-5.5 -11.5t-5 -11.5l-4 -4q-102 -146 -190 -277q-5 -5 -17 -29q13 4 30 11.5t22 9.5q135 61 147 67
q20 6 34 2t25 -22q19 -25 -4 -39q-31 -23 -47 -37q-112 -70 -274 -127q-35 -14 -47 -35q-13 -20 -61.5 -91.5t-73.5 -110.5q-4 -6 -25 -41z" />
    <glyph glyph-name="Q" unicode="Q" horiz-adv-x="1550" 
d="M1044 956q-77 3 -184.5 -69.5t-142.5 -151.5q-34 3 -48.5 22.5t-4.5 49.5q10 20 12 22q53 85 137 147t172 62q72 0 118.5 -51t49.5 -121q0 -108 -61 -217t-154.5 -189t-208 -130.5t-217.5 -50.5q-118 0 -205 67q-149 113 -119 297q16 108 80.5 222t154.5 207.5t195 168
t205 113.5q147 59 287 45q136 -15 226.5 -91t125.5 -208q34 -127 -16 -289q-85 -278 -318 -485q-199 -170 -376 -250q-1 0 -17 -8q75 -21 76 -21q191 -51 207 -55q43 -15 72 -28t61.5 -34t54 -51t31.5 -69q5 -33 -8 -72q-7 -14 -21 -21q-6 -6 -15.5 -3t-12.5 12q-6 18 -6 41
q2 17 -17 30q-266 148 -565 187q-5 0 -19 2t-20 2q-31 0 -51 -4q-121 -18 -174 -23q-58 -7 -199 14q-29 6 -48.5 36t-19.5 61q0 16 15 24q3 1 15.5 3.5t17.5 2.5q138 14 237 4q107 -8 168 -10q27 0 51 6q191 72 349 186.5t276.5 278t169.5 355.5q27 109 10 219
q-4 50 -31.5 85.5t-70 54t-86.5 26.5t-92 8q-209 -9 -414 -157t-318 -343q-56 -109 -75 -192q-17 -60 -4 -131q9 -59 51 -96t104 -38q72 -6 152 27q276 101 415 369q14 31 41 116q9 40 2 86z" />
    <glyph glyph-name="R" unicode="R" horiz-adv-x="1552" 
d="M434 432q-17 5 -72 23q-27 6 -38 27t-2 48q7 21 24 21q14 0 39 -2t37 -2q9 -2 59 -12q17 -6 27 8q44 63 59 88q-20 12 -43 4q-248 0 -352 153q-75 117 -29 248q14 47 60 107q157 211 557 301q224 49 407 33q195 -10 326 -105q95 -67 132 -165t11 -212
q-21 -96 -87.5 -183.5t-157.5 -151t-188.5 -108.5t-192.5 -69q-27 -9 -58 -16t-52 -10.5t-59 -8.5t-55 -8q-4 -4 -20 -4q21 -14 33 -20q43 -22 119 -65t104 -58q94 -51 182 -139q84 -84 60 -203q0 -19 -13 -39q-7 -16 -16 -19.5t-27 -3.5l-12 7l-4 4q-13 18 -12.5 43
t16.5 41q11 13 11.5 16.5t-7.5 13.5q-4 4 -12 12.5t-12 12.5l-48 43l-24 24q-17 15 -51 35q-235 147 -461 236h-6l-13 4h-6l-22 -33q-9 -14 -57 -86t-74 -108q-12 -16 -25.5 -33t-30 -36.5t-24.5 -29.5q-42 -49 -64 -84q-8 -12 -14 -14.5t-20 2.5q-26 13 -29 16
q-18 17 -20.5 30t8.5 34q6 13 23.5 48.5t26 51.5t24.5 46.5t28 50.5t28.5 45t32.5 47q14 17 38 52t38 52zM680 530q9 2 24 3t19 2q7 2 22.5 5t22.5 5l88 16q105 22 213.5 66t211.5 108.5t181 155.5t107 192q27 103 -51 170q-141 112 -390 119q-210 9 -426 -55
q-66 -19 -129 -44t-130 -64.5t-118 -85t-86 -108t-40 -130.5q0 -72 67 -111q10 -6 43 -16q79 -17 105 -17q67 -4 215 25q16 4 26 7t21 11t20 21q209 288 344 440q17 17 41 49q9 11 27 11q27 -4 40.5 -31t4.5 -51q-9 -22 -41 -68q-77 -107 -207 -299h8q12 5 44.5 18
t46.5 18.5t41.5 17.5t44.5 20.5t39.5 20.5t41.5 24q30 18 50 -2q15 -15 14.5 -34.5t-14.5 -37.5q-4 -5 -9 -10t-12.5 -10.5t-11.5 -8.5q-58 -49 -179 -105.5t-210 -84.5q-23 0 -33 -16q-56 -76 -86 -123v-13z" />
    <glyph glyph-name="S" unicode="S" horiz-adv-x="1419" 
d="M1520 575q-82 -7 -225 -54t-263 -113q14 -7 19 -15q4 -4 16 -12.5t18 -15.5q33 -43 34 -78t-29 -80q-44 -63 -134.5 -127.5t-194 -114.5t-204 -87t-178.5 -54q-69 -16 -105 -12q-59 5 -102 61q-14 39 0 61q22 39 45 62q232 205 543 381l16 12l4 4q-79 8 -116 10
q-37 3 -106.5 5.5t-94.5 3.5q-153 12 -221 71q-94 85 -66 199q22 89 96 199q144 211 372 375t474 235q158 44 275 39q50 0 104 -21q65 -25 104.5 -74t50 -102.5t-0.5 -109.5q-14 -47 -45 -113q-85 -171 -273 -311.5t-372 -163.5q-122 -6 -189 72q-40 49 -24 116
q17 84 101 174.5t173 147.5q2 2 6 2l12 6q1 0 3.5 1t3.5 1q24 10 45.5 0t29.5 -33q5 -11 -4 -18q-90 -67 -168.5 -159.5t-101.5 -180.5v-19q-3 -15 1 -19.5t21 -4.5q95 0 217 63.5t226 156.5t180.5 204.5t87.5 200.5q0 43 -36 63.5t-83 20.5q-134 8 -284 -39
q-472 -147 -791 -553q-43 -57 -85 -139t-42 -134q0 -25 6.5 -35.5t28.5 -17.5q37 -17 96 -20q34 -3 97.5 -5t86.5 -4q179 -7 291 -28q27 -7 52 6q136 69 249.5 105t276.5 67q61 12 82 -16q13 -20 -6 -42zM242 -119h18q5 2 17.5 5t17.5 5l72 19q153 41 314 130t280 198
q23 18 49 57q19 25 16 47q-9 5 -25.5 10.5t-21.5 7.5q-26 12 -51 -4q-31 -18 -94 -51t-93 -51q-52 -30 -116 -69.5t-153 -98t-153 -114.5t-77 -91z" />
    <glyph glyph-name="T" unicode="T" horiz-adv-x="1341" 
d="M1403 1264q-4 1 -16 4.5t-17 5.5q-242 67 -436 67q-185 0 -346.5 -68.5t-280.5 -203.5q-101 -131 -114 -252q-13 -62 4 -119q5 -31 27 -54.5t63 -27.5q55 -9 147 11q165 54 310 171t231 267q1 3 12.5 30t18.5 42q6 20 32 10q21 -8 35 -34.5t8 -51.5q-26 -131 -137 -259.5
t-260 -208t-281 -79.5q-49 0 -92 14q-165 45 -211 226q-27 98 13 207q45 148 168 263t276.5 173.5t308.5 58.5q66 0 144 -10q169 -24 426 -92q28 -7 80.5 -23.5t95.5 -28t82 -16.5q89 -14 159 -14q259 0 316 127q-9 6 -23 18t-20 17q-18 9 -33 4q-19 -8 -43 16l-4 8
q-1 3 -4 10.5t-4.5 12t-0.5 10.5t5 10q24 24 47 17q56 -26 93.5 -55.5t58.5 -75.5q36 -77 -27 -140q-33 -39 -84 -55q-66 -26 -164 -33q-139 -5 -336 43q-53 14 -88 25q-19 3 -23.5 1.5t-13.5 -13.5q-3 -5 -27.5 -45t-39.5 -58q-94 -143 -192.5 -295t-235.5 -367t-191 -298
q-52 -88 -92 -140q-18 -45 -18 -55q0 -19 -16.5 -28.5t-37.5 -0.5q-8 3 -34 29q-26 16 -13 43q3 9 13 29q76 176 131 264q368 596 630 938q8 16 21 29z" />
    <glyph glyph-name="U" unicode="U" horiz-adv-x="1841" 
d="M1425 512q-2 -4 -10 -12l-20 -23q-2 -2 -5.5 -6t-5.5 -6q-26 -28 -130.5 -143.5t-161.5 -174.5q-231 -231 -328 -231q-33 0 -58.5 22.5t-35.5 61.5q-10 42 4 102q39 161 194 363q141 202 207 293q133 177 187 303q55 105 71 207q9 55 -9 80.5t-75 37.5q-30 9 -63 9
q-23 0 -90 -13q-168 -39 -356.5 -161.5t-338.5 -286.5t-211 -318q-23 -62 -16 -163v-9q9 -41 26 -53t58 -6q13 1 26.5 4t29 8t25 9t28.5 11.5t26 10.5q221 112 369 320q92 133 127 213l4 6v2q10 14 29 8q33 -17 39 -59q0 -16 -9 -39q-5 -32 -20 -62q-139 -316 -432 -463
q-117 -57 -224 -57q-25 0 -43 12q-126 58 -143 187q-4 25 4 71q22 130 82 236t164 221q71 77 163 154t201 149.5t227.5 118t217.5 45.5q35 0 65 -6q159 -40 195 -199q23 -67 -4 -145q-29 -132 -99 -254t-184 -275q-40 -59 -118 -165t-111 -154q-21 -29 -51 -76l-49 -78
q-18 -37 -43 -110q-5 -10 -5 -33q47 19 56 24q83 54 112 82q29 25 57.5 51.5t63.5 62t51.5 52t60.5 63t52 54.5q58 64 120.5 138t138 168t116.5 143q106 131 328 385l36 36q16 16 35 0q28 -15 34 -45.5t-13 -58.5q-182 -254 -406 -614q-110 -177 -233 -441q-1 -4 -8 -20
t-9 -25q-18 -40 0 -67l4 -4q0 -4 1 -11t1 -10.5t-2 -5.5q-17 -17 -34 -4q-30 12 -41 47q-12 29 -4 88q26 123 67 213q13 28 28.5 59.5t36 71t31.5 61.5q0 1 9 19q-5 0 -9 4z" />
    <glyph glyph-name="V" unicode="V" horiz-adv-x="1632" 
d="M1065 504q15 10 33 28t55 51.5t55 51.5l219 205q396 371 771 626q16 12 26 17l57 37q42 25 61 35t49.5 18.5t72.5 11.5q27 6 58 -13t40 -50q14 -49 -12 -72q-10 -15 -19 -15.5t-24 11.5q-4 4 -12 14t-11 13q-1 0 -3 -1.5t-3 -1.5l-16 -6q-4 0 -6 -2q-389 -233 -770 -565
q-407 -352 -977 -885q-33 -25 -88 -80q-20 -20 -58 -20q-27 0 -52 14t-38 39q-2 3 -2 7.5t1 10.5t1 9q4 5 10.5 15t12 17t10.5 11q271 292 536 700q120 195 162 344q18 49 33 140q7 33 0 63q0 45 -80 45q-102 6 -207 -33q-212 -62 -436 -215q-95 -66 -190 -159.5
t-131 -176.5q-4 -9 -10.5 -29t-10.5 -30q-7 -33 29 -33q17 2 90 13q137 32 314 126t261 187q11 11 33 4q27 -16 33.5 -42t-12.5 -54q-62 -90 -199.5 -170.5t-265.5 -122.5q-10 -2 -42 -12.5t-51 -12.5q-70 -8 -106 -4q-106 6 -164 105q-26 50 -12 94q23 57 24 59
q108 181 287 316q152 114 349.5 203.5t353.5 89.5q7 -1 22.5 -3t28.5 -4t24 -6q137 -43 170 -207q9 -68 -12 -166q-44 -182 -182 -403l-60 -96q-4 -6 -12 -18.5t-12 -18.5q4 0 4 -4z" />
    <glyph glyph-name="W" unicode="W" horiz-adv-x="2164" 
d="M971 297q414 473 686 790q32 34 80 89q23 26 47 26q25 0 47 -31q44 -51 20 -98q-21 -53 -28 -63q-15 -34 -39 -80l-76 -160q-6 -13 -19.5 -39.5t-19.5 -40.5q-92 -186 -184 -377q-27 -61 -31 -75q-5 -9 0 -23q4 6 25 27q300 351 508 587q205 237 419 445q36 35 181 156
q27 29 82 47q43 17 55 24q12 10 31 10q15 0 36 -14q19 -19 25 -39q8 -25 4 -32.5t-29 -16.5q-6 0 -10 -8q-123 -61 -180 -111q-41 -39 -149 -135.5t-164 -153.5q-141 -149 -410 -448q-78 -91 -227 -256.5t-197 -220.5q-18 -13 -37 -47q-23 -27 -51 -21q-74 13 -80 88
q0 73 12.5 125t44.5 117l58 127q5 10 14.5 31.5t14.5 31.5q17 35 70.5 138t80.5 159q6 9 16 29l-8 8q-16 -24 -20 -28q-109 -127 -373 -424q-268 -310 -512 -549q-19 -19 -39 -19q-26 0 -61 35q-27 24 -15 60q20 48 74 126q154 229 268 426.5t209 415.5q54 125 60 242
q2 11 2 23.5t-1 26.5t-1 22q-6 43 -43 59q-22 9 -64 16q-72 10 -182 -20q-156 -38 -316 -149.5t-266 -245.5q-53 -66 -73.5 -108.5t-45.5 -127.5q-4 -8 -4 -20q3 -24 10 -31t31 -4q6 1 29.5 5.5t38.5 6.5q101 29 162 64q134 66 299 174q1 1 43 32q1 1 4.5 3.5t4.5 4.5t3 5.5
t0 5.5q0 11 5 17.5t17 13t13 6.5q18 12 37 0q24 -9 36 -34.5t3 -49.5q-9 -18 -21 -27q-60 -85 -212.5 -172t-278.5 -127q-79 -27 -144 -16q-65 3 -113.5 47t-60.5 108q-6 49 12 93q12 43 48 102q76 135 216.5 261t312.5 207t320 81q120 -12 195 -83t88 -192q9 -149 -57 -303
q-92 -236 -199 -411q-24 -50 -61 -109z" />
    <glyph glyph-name="X" unicode="X" horiz-adv-x="1579" 
d="M1094 1430q74 0 128.5 -14t87.5 -37t50.5 -60.5t21.5 -77.5t-4.5 -95t-22.5 -105.5t-36 -116.5l4 4l12 10q276 247 510 414q4 3 8 5.5t9.5 5.5t9.5 5l57 37q57 34 92 47.5t90 17.5q27 6 58.5 -13t40.5 -50q12 -45 -12 -72q-12 -14 -20.5 -15t-23.5 11q-3 3 -11.5 13.5
t-12.5 13.5l-2 -2h-2l-17 -6q-4 0 -6 -2q-218 -129 -425.5 -293t-446.5 -381q-30 -90 -48 -159t-28 -150.5t-0.5 -143.5t44 -121t95.5 -100q53 -37 133 -37q76 0 157.5 32.5t136.5 79.5t63 91q17 3 44.5 -16t41.5 -47.5t-4 -59.5q-58 -85 -157.5 -133.5t-213.5 -48.5
q-104 0 -202 43t-175 131q-145 165 -61 481q-217 -196 -547 -504q-33 -25 -88 -80q-20 -20 -57 -20q-28 0 -53 14t-38 39q-2 3 -2 7.5t1 10.5t1 9q26 34 33 43q3 3 9.5 9t9.5 9l524 441q23 12 49 38q10 8 29 27l55 49q4 4 8.5 9t10 10t8.5 8l133 125q18 44 55 128
q88 202 104 277q29 128 -55 156q-27 8 -63 8q-139 0 -234 -35q-212 -62 -436 -215q-95 -66 -190 -159.5t-131 -176.5q-4 -9 -10.5 -29t-10.5 -30q-7 -33 29 -33q17 2 90 13q137 32 314 126t261 187q11 11 33 4q27 -16 33.5 -42t-12.5 -54q-62 -90 -199.5 -170.5
t-265.5 -122.5q-10 -2 -42 -12.5t-51 -12.5q-70 -8 -106 -4q-106 6 -164 105q-26 50 -12 94q23 57 24 59q108 181 287 316q152 114 349.5 203.5t353.5 89.5z" />
    <glyph glyph-name="Y" unicode="Y" horiz-adv-x="1794" 
d="M1485 690q-19 -14 -27 -26q-168 -152 -250 -228q-66 -48 -71 -51q-42 -29 -93 -35q-63 -12 -107.5 24.5t-47.5 102.5q0 43 16 76q41 80 60 119q61 91 84 123q117 180 139 217q47 93 59 192q0 47 -4 70q0 34 -35 57q-51 22 -96 27q-79 10 -194 -12q-277 -43 -492 -175
q-249 -147 -283 -337q-13 -58 4 -103q12 -43 52 -51q67 -11 155 6q131 36 273 119.5t243 179.5q16 16 33 16q26 0 43 -32q7 -29 0 -43q-3 -4 -9 -16t-11 -17q-6 -7 -21 -23t-22 -24q-190 -178 -389 -246q-101 -44 -203 -33q-101 12 -172 92q-101 118 -60 275q34 100 93 162
q107 130 285.5 218.5t373.5 131.5q129 33 250 22q223 -19 262 -229q23 -139 -37 -287q-6 -15 -20 -42t-17 -33l-41 -78q-5 -8 -15 -23.5t-15 -23.5l-68 -93q-67 -100 -104 -170q-5 -6 -25 -57q16 0 18.5 -0.5t16.5 3.5t16 5q17 5 33 13.5t38 21.5t30 17l165 147
q63 53 134 127.5t110 120t119 141.5q63 77 183 215t157 182q2 2 6 6.5t6 6.5q18 18 33 18q16 0 31 -18q36 -42 12 -92q-7 -13 -23 -41.5t-20 -34.5q-176 -254 -262 -385q-28 -41 -100.5 -149.5t-109.5 -164.5t-95.5 -145t-107.5 -166.5t-95 -153.5q-91 -143 -240 -432
q-8 -16 -16 -28q-15 -26 -43 -15q-56 13 -68 68q-11 20 4 43q20 35 43 84q33 52 91 153t81 140q99 176 338 532q8 17 23 35q1 1 2 3t2 3l8 13q4 4 4 6h-4q-11 -11 -16 -21z" />
    <glyph glyph-name="Z" unicode="Z" horiz-adv-x="1189" 
d="M684 438q174 -56 193 -215q8 -4 34 -4q18 -2 57.5 -4t57.5 -4q54 -5 97.5 -29t95.5 -67q37 -32 28 -80q0 -5 -12 -23q-5 0 -16 11q-24 36 -93 57.5t-127 27t-114 5.5q-23 0 -39 -25q-44 -76 -140 -145.5t-197 -112t-192 -59.5q-53 -11 -84 -11q-58 0 -98 16.5t-61 63.5
q-25 57 18 103q92 102 291.5 172.5t374.5 91.5q21 3 31 10t14 27q8 37 -25 57q-29 19 -61 29q-108 29 -197 24q-27 0 -59 -12q-131 -50 -254 -61q-30 -4 -53 28t-15 60q1 4 19 22q7 2 21.5 9t17.5 8q101 34 198 43q63 9 78 14q76 36 134.5 65.5t142.5 76.5t148 94.5
t127.5 104t106 121t60.5 130.5q8 30 0 45t-35 31q-63 28 -145 28q-247 13 -451 -90q-244 -125 -313 -260q-17 -25 -25 -49q24 -8 29 -8q9 1 27 2.5t31 3.5t24 6q128 26 277 82.5t247 120.5q14 11 10 26q0 19 21 19q33 6 49 -23q23 -34 4 -65q-13 -22 -27 -31
q-107 -90 -300 -166t-322 -76q-81 4 -122.5 73t-8.5 134q45 84 86 121q116 123 275.5 195.5t334.5 87.5q126 10 221 -7q41 -10 51 -16q120 -59 132 -186q9 -103 -39 -187q-74 -127 -216.5 -235.5t-301.5 -181.5q-1 0 -3.5 -1t-3.5 -1l-8 -7q-1 -1 -3 -2t-3 -2zM127 -143
q23 -4 51 -4q26 0 66 8q219 44 432 209q2 2 7 10.5t9 15.5q-359 -68 -526 -202q-6 -4 -39 -37z" />
    <glyph glyph-name="bracketleft" unicode="[" horiz-adv-x="731" 
d="M39 -55q111 0 158 20q22 8 44 -1.5t31 -31.5q8 -16 0 -24q-23 -17 -28 -19q-62 -26 -131 -26q-123 0 -179 61q-28 31 -8 64q2 3 6.5 10t6.5 10l20 43q2 3 6 10.5t6 10.5q29 47 126.5 201.5t146.5 238.5q58 92 161 262t150 246q124 212 297 410q17 22 43 28q131 9 176 4
q10 -2 27.5 -2t27.5 -2q56 -6 68 -59q6 -25 -20 -25h-187q-31 0 -47 4q-28 6 -41 -20q-14 -22 -84.5 -129t-105.5 -164q-222 -377 -246 -418q-149 -259 -322 -528q-8 -13 -40.5 -67t-51.5 -85q-1 -1 -1.5 -4t-3 -8t-5.5 -10z" />
    <glyph glyph-name="backslash" unicode="\" horiz-adv-x="821" 
d="M631 -55q-3 5 -5.5 10t-3 8t-1.5 4q-26 41 -93 152q-165 255 -321 528q-24 41 -246 418q-35 57 -105.5 164t-84.5 129q-24 43 -11.5 70.5t43.5 27.5q22 0 41 -22q121 -158 271 -414q47 -76 150 -246t161 -262q50 -85 148 -241.5t124 -198.5q2 -3 6.5 -10.5t6.5 -10.5
l20 -43q2 -3 6 -10t6 -10q20 -33 -8 -64q-20 -20 -37 -20q-26 0 -67 41z" />
    <glyph glyph-name="bracketright" unicode="]" horiz-adv-x="681" 
d="M692 1382q-110 0 -157 -20q-22 -8 -44.5 1.5t-31.5 31.5q-8 16 0 24q23 17 28 19q62 26 131 26q123 0 179 -61q28 -31 8 -64q-2 -3 -6 -10t-6 -10l-21 -43q-6 -9 -12 -21q-29 -47 -126.5 -201.5t-146.5 -238.5q-58 -92 -161 -262t-150 -246q-122 -209 -297 -409
q-17 -23 -43 -29q-131 -9 -176 -4q-10 2 -27.5 2t-27.5 2q-56 6 -68 59q-6 25 21 25h186q31 0 47 -4q28 -6 41 20q18 28 87.5 132t103.5 161q181 308 245 418q149 259 322 528q8 13 40.5 67t51.5 85q1 1 1.5 4t3 8t5.5 10z" />
    <glyph glyph-name="asciicircum" unicode="^" horiz-adv-x="710" 
d="M444 1079q-14 -14 -22 -26q-38 -59 -111.5 -166t-91.5 -133q-19 -28 -49 -19q-18 6 -28 22t-7 34q0 6 8 22q4 11 21 37q20 29 88 135.5t108 161.5q11 18 30 33.5t36 15.5q30 0 58 -28t36 -60q15 -50 23 -111t9 -101t1 -114v-28q-7 -32 -37 -23q-18 5 -33 22.5t-18 45.5
v22l-4 49v23q-1 14 -2.5 54.5t-4.5 70.5t-10 61z" />
    <glyph glyph-name="underscore" unicode="_" horiz-adv-x="1120" 
d="M406 225h190h43l88 -4h43h51q36 0 45 -39q10 -41 -16 -67q-4 -4 -21 -4q-3 0 -13 2t-17 2h-629q-56 0 -209 -9h-12q-57 0 -51 52q3 40 47 45q62 8 94 8q211 3 367 14z" />
    <glyph glyph-name="grave" unicode="`" horiz-adv-x="327" 
d="M119 1239q31 5 47 -20q6 -8 40.5 -58t53.5 -74q21 -26 -4 -51q-26 -23 -51 -4q-55 44 -115 90q-3 3 -12 9t-12 12q-16 21 -5 47q15 32 58 49z" />
    <glyph glyph-name="a" unicode="a" 
d="M387 287q-82 -20 -128.5 30t-27.5 129q-10 -11 -51 -47q-38 -31 -106 -80q-14 -10 -64 -32q-41 -17 -83.5 12.5t-39.5 71.5q0 57 37.5 133t81.5 125q62 62 144 92q49 19 110 10q29 -4 68 -43q4 4 12 4q20 18 35 18.5t33 -14.5q32 -28 14 -71q-4 -9 -16.5 -28t-18.5 -32
q-31 -60 -55 -119q-7 -16 -10.5 -27t-6 -27t5.5 -22.5t27 -2.5q34 10 90 47q12 10 46.5 36t53 40.5t45.5 37.5t48 43q24 24 56 14q30 -10 24 -41q-5 -27 -43 -59q-16 -14 -61.5 -55.5t-70.5 -62t-67 -45.5t-82 -35zM70 434q21 20 59.5 57t71.5 68t63 57q4 8 21 25v4v4
q-22 13 -41 13q-42 -9 -103 -58q-88 -88 -139 -182q-12 -25 -16 -39h4l24 12q38 21 56 39z" />
    <glyph glyph-name="b" unicode="b" horiz-adv-x="677" 
d="M637 567q13 13 25 13q17 0 28.5 -16.5t8.5 -39.5t-21 -39q-93 -81 -233 -145t-273 -64q-109 0 -188 46q-2 2 -6.5 6t-6.5 6h-4q-12 -7 -66 -80t-69 -98q-20 -27 -37 -27q-10 0 -22 6q-22 10 -32.5 30.5t-4.5 37.5q5 15 16 37q107 200 299 475q36 50 120 170.5t130 183.5
q14 21 12 31q-5 25 15 45q16 16 22 24l47 45q4 4 11.5 12.5t11.5 12.5q14 14 26 14t33 -18q34 -29 8 -76q-11 -13 -30 -39.5t-25 -34.5q-46 -59 -93 -124.5t-105.5 -150t-88.5 -126.5q0 -8 -8 -20q14 9 30.5 22.5t20.5 15.5q16 9 43.5 29.5t40.5 28.5q30 12 58 12
q47 0 76 -33.5t26 -87.5q0 -60 -49 -145.5t-100 -108.5q55 2 154 44.5t200 125.5zM174 406q75 75 120 138.5t58 139.5q-34 -11 -84 -47q-53 -42 -153.5 -134.5t-100.5 -113.5q47 -24 74 -24q33 0 82 36z" />
    <glyph glyph-name="c" unicode="c" horiz-adv-x="671" 
d="M631 567q29 27 58 10q27 -17 16 -50q-7 -22 -33 -42q-25 -20 -130 -108.5t-185 -146t-164 -97.5q-27 -13 -93 -29q-84 -20 -160 33t-87 131q-18 137 108 299q37 48 109 99.5t127 64.5q67 17 108.5 -27.5t22.5 -109.5q-9 -38 -74.5 -113t-91.5 -75q-17 0 -33 16
q-32 40 0 72q20 20 23 24l49 43q50 54 55 84q-92 -11 -193 -120q-93 -100 -122 -200q-30 -105 41 -131q14 -4 30 -6q59 -5 149.5 36.5t184 109.5t162.5 125t123 108z" />
    <glyph glyph-name="d" unicode="d" horiz-adv-x="661" 
d="M801 1010q-170 -228 -296.5 -438.5t-225.5 -446.5l-17 -39q-4 -12 -8 -18q-7 -29 4 -48q9 -18 -0.5 -31.5t-30.5 -13.5q-30 -3 -52.5 19.5t-22.5 52.5q8 42 16 59q48 142 145 334q-4 0 -8 4q-123 -123 -246 -170q-38 -20 -79 -20q-59 0 -93 41.5t-22 101.5
q17 86 82.5 172.5t159.5 143.5t184 57q64 0 110 -43q10 -5 25 -20q10 7 25.5 24.5t21.5 22.5q65 78 266 350q18 23 60 78t67 86q21 27 23 30q19 19 35 19q17 0 28 -14q24 -21 26 -40t-17 -40q-27 -35 -54 -72zM123 422q89 67 235 205q8 9 9.5 17.5t-2 21t-3.5 14.5
q-5 16 -32 16q-51 0 -107 -28q-166 -83 -254 -262q-10 -26 -24 -72q6 1 18 3.5t17 4.5q77 23 143 80z" />
    <glyph glyph-name="e" unicode="e" horiz-adv-x="520" 
d="M481 567q45 38 75 24q27 -12 8 -51q-14 -27 -44 -55q-68 -63 -97 -88.5t-84 -66t-110 -70.5q-75 -42 -174 -59q-40 -6 -75 0q-66 13 -102.5 61.5t-33.5 114.5q0 4 2 19t2 24q33 72 72 119q6 4 16.5 14t16.5 14q97 78 199 99q59 13 102 -27q56 -47 25 -117
q-13 -29 -50 -59q-101 -76 -221 -64q-5 0 -51 13q-26 -32 -33 -84q0 -43 39 -43q30 -4 84 8q70 16 127 47q19 10 38 21.5t33.5 20t33.5 22t29 20.5t30 23t27 21.5t29.5 24.5t27 23t30 26t29.5 25zM203 586q-107 -19 -191 -103q64 -11 135 35q38 21 56 68z" />
    <glyph glyph-name="f" unicode="f" horiz-adv-x="481" 
d="M481 485q-51 -46 -123.5 -77t-146.5 -31q-104 0 -178 63l8 -24q45 -142 -33 -285q-21 -39 -59 -89.5t-85.5 -102t-102 -86.5t-97.5 -35q-27 0 -49 14q-49 29 -43 88q6 36 25 76q33 72 94 170q105 162 198 299q12 18 29 35q-19 25 -29 43q-8 15 5 28q6 18 32 9
q4 -2 8.5 -5t11.5 -8t11 -8q2 4 6 8l17 17q1 1 3 4t3 4q77 112 216 276t220 219q17 17 45.5 31.5t50.5 14.5q34 0 56 -25.5t18 -63.5q0 -35 -19 -67q-65 -144 -200 -264.5t-293 -196.5q-8 -8 -14 -12q60 -43 133 -43q123 0 241 106q15 15 33 15q19 0 30 -14.5t6.5 -38
t-28.5 -44.5zM481 1012q-23 -20 -45 -40t-46 -46t-39.5 -42t-42.5 -49t-36.5 -44.5t-41 -50.5t-37.5 -46q77 44 176.5 154t111.5 164zM-31 338q4 30 -4 51q-2 -2 -6 -5.5t-7 -6t-6 -6t-5 -6.5q-74 -109 -158 -242q-85 -135 -107 -191q0 -12 -4 -24q7 6 20 12.5t19 11.5
q136 112 223 271q26 62 35 135z" />
    <glyph glyph-name="g" unicode="g" horiz-adv-x="770" 
d="M729 567q25 21 53 21q21 0 32.5 -11t2 -35.5t-46.5 -56.5q-228 -196 -457 -297q-34 -14 -59 -45q-92 -112 -246 -245q-89 -74 -219.5 -134.5t-230.5 -60.5q-47 0 -97 16q-58 13 -92 52q-28 21 -39 47q-25 41 -18.5 83.5t41.5 71.5q62 51 126 77.5t161 49.5q57 15 231 58
t268 69q53 13 66.5 23.5t40.5 56.5q51 78 84 158q-106 -83 -170 -123q-64 -36 -123 -47q-21 -6 -41 -6q-67 0 -107 65q0 9 -8 25q-14 83 78 193t180 151q39 16 64 20q97 23 155 -63q2 -4 6.5 -12.5t6.5 -12.5q4 5 11 11l7 6l33 33q20 20 35 20q8 0 20 -6q21 -10 31 -31
t4 -39q-13 -40 -14 -41q-18 -41 -60 -136t-63 -144v-9q78 38 178.5 108.5t175.5 139.5zM-27 371q71 9 185 87t168 154q-2 2 -11.5 14t-11.5 19q-6 16 -18.5 19.5t-30.5 -0.5q-98 -14 -178 -103t-103 -190zM80 104q1 2 6 7l10 10q-8 -2 -24.5 -4t-22.5 -4q-300 -78 -450 -115
q-63 -16 -136 -64q-39 -21 -55 -53q-17 -29 -8 -51.5t37 -30.5q4 -2 13.5 -4t12.5 -4q27 -8 62 -8q28 0 78 12q82 24 145 52.5t120.5 70t100.5 80t111 106.5z" />
    <glyph glyph-name="h" unicode="h" horiz-adv-x="649" 
d="M608 567q24 22 45 -6t8 -59q-4 -10 -12 -17q-60 -58 -148.5 -121t-135.5 -71q-73 -12 -118 22t-30 101q5 21 33 80q1 5 4.5 13t5.5 15.5t2 14.5q-12 -12 -34 -29.5t-27 -22.5q-32 -29 -141.5 -130t-172.5 -156q-28 -28 -34 -31q-34 -22 -72 6q-34 27 -21 64q1 4 17 36
q17 30 49.5 84t38.5 64q8 16 10 27l481 651q2 1 21 20q7 10 26.5 34t28.5 38q20 20 47 8q25 -15 29.5 -38.5t-12.5 -45.5q-46 -58 -64 -76q-12 -13 -36.5 -43.5t-39.5 -46.5l-75 -104q-9 -9 -9 -12q-225 -317 -268 -381l-4 -9q0 -2 2 -4t2 -4q30 33 86 80q122 113 186 156
q20 15 56 31q35 22 71 -9q38 -35 21 -73q-1 -7 -29 -62q-40 -78 -65 -123q-40 -69 -6 -64q9 2 24 9q132 63 260 184z" />
    <glyph glyph-name="i" unicode="i" horiz-adv-x="403" 
d="M362 567q34 31 55 6q20 -24 6 -59q-6 -17 -20 -29q-78 -67 -173 -131t-167 -86q-54 -17 -101 9t-62 83q-6 21 -6.5 42t4.5 41.5t12 40t20 40t24.5 37.5t28.5 37.5t29.5 34.5t30.5 33q30 30 33 32q14 17 25 18.5t30 -11.5q20 -15 26 -36t-5 -34q-20 -25 -41 -53
q-82 -99 -111 -150q-26 -54 -18 -70q12 -24 95.5 17.5t166 98t118.5 89.5zM199 741q-43 27 -37 82q6 45 58 90t99 45q45 0 66 -31.5t2 -72.5q-10 -24 -43.5 -58.5t-62.5 -54.5q-41 -24 -82 0z" />
    <glyph glyph-name="j" unicode="j" horiz-adv-x="321" 
d="M150 682q-11 7 -20 19t-13.5 21.5t-11.5 26.5t-11 25q2 5 4 15t4 14q50 119 84 166q25 30 31 35q19 16 35 16q15 0 33 -12q22 -14 30 -41.5t-2 -53.5q-39 -89 -100 -159q-23 -31 -23 -56q0 -31 -36 -20zM322 485q-73 -62 -164 -105t-167.5 -69t-99.5 -41q-26 -16 -36 -34
q-59 -79 -105 -138.5t-120 -142.5t-138.5 -141t-144.5 -109t-154 -72q-89 -11 -135 25q-54 43 -33 102q18 53 76.5 118t138 124.5t144.5 103.5t127 80q150 90 292 170q40 24 109.5 127t105.5 172q9 17 22.5 20t25.5 -7q20 -13 24 -35t-8 -45l-47 -84q-2 -3 -18.5 -28.5
t-31 -48t-18.5 -26.5l24 10q24 10 30 12t30 12.5t34 15t33 15.5t36 18t33.5 18.5t34.5 20.5t30 21t29 23q28 25 49 25q19 0 24.5 -19.5t-3.5 -45t-29 -42.5zM-338 152q1 0 8 14q-35 -18 -37 -19q-253 -151 -381 -262q-40 -34 -87 -89.5t-52 -90.5q62 10 128.5 46t120.5 79.5
t115 106.5t99.5 109t85.5 106z" />
    <glyph glyph-name="k" unicode="k" horiz-adv-x="643" 
d="M602 567q30 27 47 27q11 0 17 -8.5t6.5 -21.5t-2.5 -27.5t-10 -28.5t-17 -23q-128 -117 -185 -157q-127 -89 -243 -88q-66 0 -105.5 47t-64.5 121q-47 -47 -55 -56q-28 -34 -83.5 -101t-82.5 -101q-1 -1 -3 -4.5t-3 -4.5l-8 -18q-1 -2 -3.5 -5t-3.5 -5q-12 -21 -41 -7
q-24 12 -32.5 36t2.5 51q13 32 30 63q7 12 18 31t11 20l246 383q159 219 325 385l29 23l12 12q13 10 27 10q17 0 33 -22q28 -36 8 -72q-20 -38 -41 -59q-9 -10 -114.5 -128.5t-159.5 -181.5q-21 -26 -23 -34q3 3 23 18q87 76 176 100q58 14 94.5 -29t24.5 -89
q-24 -80 -78.5 -144t-128.5 -92q-42 -16 -92 -4q-15 0 -27 4q-5 -33 27 -47q41 -17 92 -4q86 22 171.5 81t186.5 150zM375 645q-54 -6 -138.5 -64t-111.5 -106q15 -6 31 -6q32 0 64.5 16.5t63 48.5t48.5 54.5t43 56.5z" />
    <glyph glyph-name="l" unicode="l" horiz-adv-x="518" 
d="M477 567q25 25 49 25q12 0 20 -6.5t10.5 -17.5t0 -24t-12.5 -29t-26 -30q-26 -22 -99.5 -91t-111 -99.5t-104 -68.5t-131.5 -52q-57 -12 -115 12q-94 46 -88 152q4 25 20 84q70 191 263.5 419t371.5 351q6 2 40.5 20t56.5 23q21 6 38 6q43 0 72 -30.5t29 -77.5
q0 -22 -17 -60q-38 -101 -134 -211.5t-212 -194.5t-217 -118q-76 -25 -108 -21q-23 0 -27 -12q-8 -15 -16 -29.5t-24.5 -47t-25.5 -59.5t-15.5 -56t0 -48.5t26.5 -25.5q119 -36 487 317zM123 639q-1 -2 -3 -5.5t-3 -5t-1.5 -5.5t1.5 -7q41 17 47 19q292 141 479 440
q9 13 21.5 38.5t19.5 37.5q-16 -4 -33 -4q-4 -2 -16 -8.5t-19 -10.5q-12 -8 -34 -22t-38.5 -25.5t-31.5 -23.5q-193 -156 -389 -418z" />
    <glyph glyph-name="m" unicode="m" horiz-adv-x="950" 
d="M524 512q-16 -8 -24 -16q-31 -24 -95 -73.5t-96 -72.5q-42 -39 -98 -76q-39 -27 -72 9q-38 35 -16 75q30 51 76 127q1 3 4.5 9.5t5.5 12.5t2 13q-66 -50 -92 -76q-36 -30 -107.5 -89.5t-107.5 -88.5q-6 -3 -23 -20q-38 -24 -71 4q-40 26 -25 67q1 3 3.5 9t4.5 8
q160 229 203 301q2 3 5 6.5t5 6.5t2 7q0 12 5.5 19.5t9.5 9.5t16 6q33 7 51 -6q23 -23 26.5 -41.5t-14.5 -42.5q-46 -65 -55 -80q8 4 16 12q31 24 158 123q1 1 37 25q44 17 72 -8q41 -36 30 -80q-5 -9 -10.5 -25.5t-7.5 -21.5q-16 -27 -29 -64q3 2 21 15q22 16 86 63.5
t100 71.5q7 7 17 13t23.5 13t19.5 11q46 19 75 -17q41 -35 19 -80q-11 -24 -47 -94q-8 -15 -17 -29.5t-20.5 -32.5t-18.5 -30q-30 -63 -7 -61q12 1 72 38q6 4 11 7q143 98 262 198q47 40 70 16q20 -20 1 -60q-10 -21 -30 -38q-86 -75 -198 -157t-160 -90q-46 -8 -90.5 28
t-36.5 92q9 46 39 107q18 35 20 47z" />
    <glyph glyph-name="n" unicode="n" horiz-adv-x="831" 
d="M791 567q35 33 60 13q23 -19 9 -56q-8 -21 -29 -39q-15 -13 -64 -57t-73.5 -64t-67.5 -51t-84 -49t-85 -28q-77 -18 -135 43q-50 58 -19 131q6 17 14.5 33t21.5 37.5t19 33.5q11 20 29 49q20 32 15 33q-4 2 -27 -10q-72 -37 -160 -97q-45 -33 -127.5 -97t-110.5 -85
q-6 -4 -18 -14t-18 -14q-26 -17 -55 -6t-36 42l-3 21q-3 20 1 26q110 228 201 302q3 12 19 12q47 -6 59 -47q13 -26 -8 -51q-36 -51 -47 -64q24 5 37 18q77 56 153 105q53 29 109 47q53 19 90.5 -15t27.5 -91q-1 -13 -6 -27.5t-9 -23.5t-13 -26.5t-12 -23.5
q-93 -140 -74 -153q15 -10 36.5 -10.5t46.5 9t51.5 23t56 34.5t55 40.5t53.5 43.5t47.5 41t41 36.5t28.5 25.5z" />
    <glyph glyph-name="o" unicode="o" horiz-adv-x="524" 
d="M483 567q33 29 56 29q19 0 25 -19t-5 -45.5t-35 -46.5q-59 -51 -133 -51q-44 0 -82.5 19t-58.5 45q-1 -3 -17 -35q-51 -92 -121 -158t-157 -74q-51 -3 -83.5 25.5t-35.5 79.5v22q2 32 34.5 91t87.5 120t110 88q69 35 94 39q51 5 80 -34q5 -11 14 -36.5t16 -39.5
q35 -72 101 -72q52 0 110 53zM154 506q21 33 20 43.5t-29 44.5q-70 -38 -140 -120t-89 -146q20 -10 39 0q120 50 199 178z" />
    <glyph glyph-name="p" unicode="p" horiz-adv-x="579" 
d="M580 485q-143 -117 -247 -169q-124 -61 -218 -54q-30 3 -47 5.5t-40 12t-40 25.5q-11 -11 -11 -12q-81 -75 -194 -197q-46 -49 -195 -219l-37 -37q-21 -14 -32 -14q-18 0 -39 18q-34 24 -17 64l33 45q97 128 250 334l279 368q19 19 30 19q10 0 25 -15q39 -34 8 -79
q-5 -6 -24.5 -29.5t-30.5 -38.5q-2 -4 -9.5 -14t-11.5 -17q9 5 17.5 11.5t11.5 7.5q69 67 170 147q26 26 68 43q34 17 49 17q19 0 43 -17q46 -27 39 -90q-6 -55 -30 -104.5t-58 -79.5q68 24 217 151q26 23 47 23q20 0 29.5 -16t0.5 -41.5t-36 -47.5zM313 571q2 5 5 15t4 14
q-38 -19 -137 -104.5t-130 -126.5q25 -7 41 -7q18 0 39 7q33 12 80 55q60 76 98 147z" />
    <glyph glyph-name="q" unicode="q" horiz-adv-x="718" 
d="M678 567q16 13 29 13q18 0 29.5 -16t7.5 -39t-25 -40q-128 -103 -219.5 -160.5t-206.5 -95.5q2 -3 4 -10.5t4 -9.5q36 -57 4 -123q-36 -71 -47 -94q-24 -37 -59 -82t-82 -97t-97.5 -86t-89.5 -34q-25 0 -55 20q-41 29 -35 72q7 35 22 75.5t26.5 64.5t35.5 71
q22 42 68 123.5t51 89.5q8 8 16 24q-2 7 -8.5 19t-7.5 16q-6 23 12 29q14 7 27 4q4 -3 9 -1.5t7.5 1.5t7 3.5t6 5.5t5.5 6l6 6q7 12 26.5 42.5t28.5 47.5q-24 -16 -33 -19q-82 -69 -114 -92q-25 -16 -80 -35q-39 -13 -71.5 15t-26.5 67q0 17 8 41q21 52 58 112.5t85.5 119.5
t110 98t118.5 39q66 0 123 -51q4 3 11 7t12.5 7.5t9.5 7.5q5 4 18 17.5t21 19.5q27 21 55 0q48 -37 17 -88q-145 -183 -238 -330q-4 -9 -24 -35q6 0 15 2t13 2q161 47 412 250zM10 408q188 159 266 227l9 8q15 15 8 19q-8 16 -21 16q-10 0 -34 -8q-77 -17 -152.5 -103
t-122.5 -178v-12q20 8 47 31zM225 150q4 12 4 40q0 3 -4.5 9t-7.5 6q-18 8 -37.5 1.5t-29.5 -20.5q-128 -193 -191 -346q-7 -11 -18 -43q28 8 55 35q70 63 132 148t97 170z" />
    <glyph glyph-name="r" unicode="r" horiz-adv-x="663" 
d="M623 567q18 15 32 15q28 0 33.5 -33t-24.5 -64q-272 -256 -433 -292q-62 -13 -104.5 30t-30.5 105q8 34 33 75q19 28 57.5 77l49.5 63q2 2 17.5 19.5t22.5 31.5q-71 -15 -122 -10q-5 0 -13.5 2t-13 2.5t-10.5 -2t-11 -8.5q-8 -9 -55 -50t-51 -43q-20 -10 -38.5 4t-20 36
t17.5 42q68 57 90 86q-27 61 29 135q84 101 139 101q18 0 35 -17q42 -42 24 -84q-6 -22 -28 -51q-32 -43 -39 -55q24 0 76 16.5t82 34.5q12 6 24 6q20 0 37 -16t23 -37q9 -30 -13 -55q-24 -27 -68.5 -81.5t-58.5 -70.5q-89 -111 -98 -123q-50 -62 -41 -71q5 -5 45 8
q76 29 202 116t204 158z" />
    <glyph glyph-name="s" unicode="s" horiz-adv-x="442" 
d="M402 567q42 37 63 10q19 -23 2 -61q-8 -18 -24 -31q-82 -67 -172.5 -108t-160.5 -55q-14 -5 -21 -25q-11 -93 -12 -96q-7 -43 -29 -74q-21 -32 -47.5 -42.5t-51.5 -1t-46.5 29t-36.5 45.5q-51 85 -70 157q-23 83 -4 104q7 7 14 -1q19 -21 60.5 -28.5t77 -5t61.5 8.5
q4 0 10 5t6 10q0 7 1 20.5t1 24t-2 18.5q-2 12 0 35q-9 -12 -20 -21q-23 -18 -48 5q-25 24 -11 54q5 13 18 23q12 10 39 34t44 38.5t40 30.5t41 22q26 11 45 -2q27 -31 27 -55q0 -6 -5.5 -14t-11.5 -11q-46 -32 -63 -82t-21 -122q64 6 147 49.5t160 111.5zM-19 195
q32 40 32 106h-71q-40 8 -68 8q13 -65 40 -110q35 -55 67 -4z" />
    <glyph glyph-name="t" unicode="t" horiz-adv-x="405" 
d="M786 829q7 -39 -24 -51q-33 -15 -47 13q-28 53 -230 53q-93 0 -155 -8q-37 -4 -56 -16.5t-43 -43.5q-201 -261 -313 -454q-5 -9 -15 -25.5t-17 -28.5t-17.5 -29.5t-15.5 -28t-11.5 -24.5t-6 -19t2.5 -11q13 -11 65 21.5t144 110t146 125t152 136.5q4 4 6.5 6t6.5 5.5
t7 6.5q29 25 57.5 11.5t16.5 -48.5q-8 -22 -33 -45q-13 -12 -65 -62t-92.5 -88t-103.5 -90.5t-113 -87.5t-104.5 -60t-93.5 -25q-37 0 -62.5 30.5t-25.5 69.5q0 22 4.5 43t17 48t18 38t26.5 45.5t22 36.5q20 34 44.5 71.5t44 66t51 71t47.5 64t52.5 70t49.5 65.5q2 3 6.5 11
t9.5 13v4q-1 0 -4.5 1t-6.5 1t-5 -2q-150 -15 -234 -28q-22 -3 -43 15t-24 44q0 19 20 29q9 4 35.5 13.5t40.5 16.5q27 11 43 -2q6 -4 12 -6t9 -2.5t11 0t11 0.5q36 4 96 8l95 6q26 0 45 25q88 128 106 152q3 5 10.5 15t10.5 15q19 37 39 37q27 -4 47 -37q12 -25 0 -43
q-1 -1 -3.5 -4t-3.5 -4l-6 -16q-3 -3 -6 -9q-74 -92 -88 -122l12 -4q226 15 381 -25q40 -10 47 -64z" />
    <glyph glyph-name="u" unicode="u" horiz-adv-x="778" 
d="M737 567q42 35 61 6q16 -26 0 -62q-8 -16 -20 -26q-7 -6 -53 -47t-71.5 -60.5t-69.5 -51.5t-84.5 -49.5t-79.5 -24.5q-53 -8 -99.5 31.5t-39.5 95.5q4 35 8 53q-7 -6 -18.5 -15.5t-20.5 -17t-17 -12.5q-145 -122 -231 -154q-46 -18 -92.5 16.5t-46.5 82.5q0 67 45 150.5
t102 148.5q25 31 64.5 71.5t56.5 40.5t35 -18q20 -20 20.5 -37.5t-16.5 -42.5l-8 -8t-8 -10q-83 -79 -179 -244q-24 -36 -24 -68q22 4 43 21q182 122 405 321q4 4 11.5 10.5t12.5 12t9 10.5q3 2 10 8t12.5 8.5t12.5 2.5q3 -1 12 -2.5t14.5 -3t12.5 -5t12 -8.5
q22 -22 20.5 -47t-26.5 -45q-38 -33 -94 -109q-99 -135 -43 -151q10 -3 24 -2q28 2 63 18.5t75.5 46.5t69.5 54t72.5 62t57.5 50z" />
    <glyph glyph-name="v" unicode="v" horiz-adv-x="575" 
d="M535 567q33 31 59 12q23 -18 9 -54q-8 -21 -28 -40q-100 -92 -208 -92q-47 0 -95 25q-29 15 -57 -19q-44 -48 -121 -109.5t-121 -72.5q-28 -12 -45 -12q-21 0 -43 16q-51 41 -35 96q4 19 16.5 53t16.5 46l6 16q1 1 2.5 4t2.5 4q27 62 65.5 130.5t71.5 97.5l16 12l6 6
q24 24 51 4q23 -16 28 -39t-11 -45q-139 -173 -180 -297q6 4 14 7.5t10 5.5q104 68 195 165q12 12 12 33q-3 35 12.5 52t51.5 22q21 0 28 12q18 24 59 80.5t64 87.5q3 4 4.5 14t3.5 13q3 39 33 39q9 0 27 -11q52 -33 22 -88q-23 -44 -51 -82q-20 -26 -55 -74.5t-47 -64.5
q17 -28 55 -28q36 0 80.5 24t75.5 51z" />
    <glyph glyph-name="w" unicode="w" horiz-adv-x="995" 
d="M995 485q-145 -123 -276 -123q-79 0 -141 44q-4 -3 -14 -14t-17 -15q-101 -77 -156 -115q-59 -42 -110 -55q-19 -8 -39 -8q-36 0 -60.5 26t-27.5 68q0 15 2.5 28.5t9 33.5t8.5 26q7 17 14 51q-6 -5 -20.5 -14t-22.5 -17q-74 -66 -163 -139q-66 -57 -107 -57q-20 0 -35 12
q-42 34 -33 80q3 12 29 72q3 6 55 92q2 7 21 35q10 17 27 44.5t61 85t78 81.5q0 8 8 8q13 10 25 10q15 0 30 -18q30 -43 0 -80q-126 -140 -202 -258q0 -1 -1 -4t-1 -6t2 -7q3 3 51 45q13 12 39.5 34.5t40.5 33.5l157 135q14 11 40.5 33.5t39.5 34.5q26 20 33 22q20 15 43 -4
q18 -16 22.5 -36.5t-6.5 -41.5q-4 -11 -9 -22t-13 -24.5t-12 -20.5q-27 -47 -97 -156q-5 -9 -9.5 -19.5t-9.5 -24t-7 -19.5q-2 -5 -5 -15t-4 -14q4 2 9 3t8.5 2t5.5 3q66 32 68 33q23 17 85.5 66t96.5 73q19 15 16 35q-7 51 28.5 83t86.5 23q11 0 20 9q4 5 25 30.5t29 35.5
t22.5 30.5t24.5 38.5h-17q-37 6 -43 41q-9 47 31 55q36 8 61.5 -5.5t34.5 -45.5q19 -67 -16 -129q-30 -51 -55 -82q-13 -18 -51 -61.5t-50 -51.5q34 -22 80 -22q98 0 221 110q18 15 31 15q18 0 28 -16.5t5.5 -40t-23.5 -40.5z" />
    <glyph glyph-name="x" unicode="x" horiz-adv-x="724" 
d="M684 567q29 29 53 29q19 0 26.5 -17.5t-2.5 -44.5t-36 -49q-86 -74 -195 -138t-188 -64q-104 0 -158 110q-80 -54 -104 -67l-43 -33q-15 -6 -33 -6q-29 0 -51 22q-25 19 0 37q39 22 88 55q15 10 33 23t39.5 28.5t33.5 24.5q29 15 29 39q0 10 8 68q-28 11 -79 -16.5
t-105 -82.5q-16 -8 -25 -8q-34 0 -47 37q-7 24 31 53q137 123 236 131q19 2 35.5 -1.5t25 -8t27.5 -16.5q15 -15 8 -45q-3 -12 -17 -64q36 23 60 41q46 26 119 80q16 8 34 8q26 0 45 -16q31 -24 0 -49q-8 -8 -26 -15q-98 -72 -219 -147q-28 -17 -21 -47q12 -60 70 -60
q65 0 167.5 67.5t180.5 141.5z" />
    <glyph glyph-name="y" unicode="y" horiz-adv-x="733" 
d="M692 567q20 12 43.5 1t26 -33t-28.5 -50q-42 -32 -101 -65t-95.5 -49.5t-110.5 -48.5q-25 -11 -39 -39q-8 -15 -15.5 -30t-11 -22.5t-11 -19.5t-19.5 -29q-62 -100 -154.5 -194t-214.5 -164t-235 -78q-68 -6 -119 21q-35 17 -46.5 49t3.5 69q20 38 47 72q63 66 123 106
q55 40 110.5 75t121.5 69.5t106 54.5t122 58t113 53q20 10 29 33q3 8 26 57t27 65q-13 -6 -35 -28q-96 -89 -180 -131q-10 -5 -44.5 -19.5t-53.5 -23.5q-21 -7 -33 -7q-45 0 -78 39t-33 86q3 73 61.5 152.5t129.5 118.5q17 8 33 0q5 -2 9 -6t8 -10.5t5 -8.5q11 -14 10 -24.5
t-14 -26.5q-3 -3 -31.5 -35.5t-42.5 -50.5q-40 -47 -59 -88q-11 -15 -25 -55q25 0 31 4q71 24 158 91t149 134q36 39 72 68q14 20 31 20q16 0 41 -25q21 -26 14 -67q-21 -101 -23 -111q-18 -36 -36 -90q62 19 132.5 61t106.5 72zM-68 -88q81 52 181 148t127 167
q-57 -31 -153 -75.5t-168.5 -84.5t-139.5 -92q-33 -21 -76 -67q-13 -12 -49 -68q-2 -6 -2 -26q127 0 280 98z" />
    <glyph glyph-name="z" unicode="z" horiz-adv-x="628" 
d="M629 485q-5 -5 -88.5 -82.5t-159 -138.5t-156.5 -110q0 -22 -4 -62q-14 -81 -79 -154t-152 -115t-168 -42q-106 0 -193 69q-33 29 -43 52q-43 73 33 121q40 23 55 26q37 14 95 33l96 31q18 6 65.5 21.5t78.5 27t59 26.5q5 2 18 9.5t20 11.5q-16 14 -55 22q-31 5 -71 5
q-22 -3 -41 10t-27 35q-9 26 16 38h9q70 13 155 73t129 122q57 73 55 127q0 18 -10 27.5t-24 9.5q-35 0 -78 -35t-91 -87.5t-73 -70.5q-9 9 -26.5 20t-25.5 17t-7 17.5t18 27.5q26 24 67 66t63 63t58 38.5t74 17.5q56 0 98.5 -45.5t36.5 -108.5q-10 -90 -67.5 -160.5
t-149.5 -134.5q-16 -12 -24 -20q9 -4 17.5 -11t20 -17t17.5 -15q38 18 82 46.5t78.5 54.5t80.5 65t69 60t63 58.5t45 42.5q29 29 55 29q20 0 27.5 -16.5t-2.5 -43t-39 -51.5zM111 66l14 18q6 9 6 20q-5 5 -12 5q-41 -19 -87.5 -35.5t-113 -36t-90.5 -27.5q-32 -11 -107 -41
q-34 -13 -43 -22q-19 -15 -16 -32t25 -28q4 -8 14 -8q64 -28 131 -16q82 15 159.5 72t119.5 131z" />
    <glyph glyph-name="braceleft" unicode="{" horiz-adv-x="856" 
d="M492 731q10 -10 28 -37q37 -46 12 -102q-7 -23 -40 -64q-12 -16 -27 -32t-34 -34.5t-30 -29.5q-105 -98 -180 -199q-56 -97 -65 -145q-13 -65 2 -123q12 -45 57 -45q84 -7 141 17q15 6 29 6q26 0 43 -23q13 -13 -4 -22q-9 -12 -27 -21q-99 -27 -178 -16q-87 11 -143 80
q-33 31 -41 98q-7 103 41 176q48 99 135 186q4 5 13.5 14.5t13.5 14.5l53 53q4 5 13 14.5t13 14.5q58 50 80 72q23 29 35 59q8 12 8 41q6 16 -16 23q-7 0 -23 8q-2 2 -10 6l-20 12q-2 1 -5.5 3t-5.5 3q-20 17 -17.5 27.5t26.5 19.5q30 8 49 17q38 13 78 31q56 38 79 96
q19 41 39 139q2 5 4.5 17t4.5 18q40 199 239 309q54 34 127 41q35 0 51 -4q37 -6 56 -37q4 -4 4 -18q-4 -13 -25 -13q-4 0 -6 4q-15 9 -31 9q-22 0 -45 -13q-215 -81 -270 -290q-7 -25 -18 -74t-15 -66q-1 -3 -7 -25t-7 -34q-39 -98 -125 -139q-9 -3 -59 -23z" />
    <glyph glyph-name="bar" unicode="|" horiz-adv-x="612" 
d="M248 -154q-9 -38 -22.5 -56t-27.5 -17t-30 4q-37 12 -37 51q1 18 -2.5 49t-3.5 45q1 86 7 259.5t7 258.5q1 119 6.5 335.5t6.5 260.5q4 306 26 494q3 21 17.5 34t33.5 13q22 0 37.5 -19.5t14.5 -56.5q-2 -46 -10.5 -165.5t-8.5 -184.5v-483q2 -157 -12 -619
q-1 -30 -2 -88.5t-2 -89.5q-1 -2 -0.5 -3.5t1.5 -8t1 -13.5z" />
    <glyph glyph-name="braceright" unicode="}" horiz-adv-x="856" 
d="M365 580q-15 15 -29 36q-38 47 -12 103q6 20 41 63q12 17 26.5 32.5t34 35l29.5 29.5q108 100 180 198q55 96 65 146q13 65 -2 123q-12 45 -57 45q-84 7 -141 -17q-15 -6 -29 -6q-26 0 -43 23q-13 13 4 22q9 12 27 21q99 27 178 16q87 -11 143 -80q33 -31 41 -98
q7 -103 -41 -176q-49 -101 -135 -187q-4 -5 -13.5 -14t-13.5 -14l-53 -54q-4 -5 -13 -14t-13 -14q-58 -50 -80 -72q-23 -29 -35 -59q-8 -12 -8 -41q-6 -16 16 -23q7 0 23 -8q2 -1 5 -3t5 -3l20 -12q8 -4 11 -7q20 -17 17.5 -27.5t-26.5 -19.5q-34 -8 -49 -16
q-38 -13 -78 -31q-56 -38 -79 -96q-19 -41 -39 -139q-2 -5 -4.5 -17t-4.5 -18q-40 -199 -239 -309q-54 -34 -127 -41q-35 0 -51 4q-37 6 -56 37q-4 4 -4 18q4 12 25 12q4 0 6 -4q13 -8 31 -8q24 0 45 12q214 81 270 291q7 25 18 74t15 65q0 2 6.5 25t7.5 35q39 98 125 139
q15 5 60 23z" />
    <glyph glyph-name="asciitilde" unicode="~" horiz-adv-x="796" 
d="M500 504q-37 -4 -99 24q-4 2 -12 6.5t-12 6.5l-43 18q-4 2 -12.5 6t-12.5 6q-22 13 -67 13q-56 -6 -72 -52q-8 -16 -16 -24q-5 -9 -16.5 -7t-14.5 11q-4 12 -4 41q6 67 63 107.5t131 23.5q12 -2 31 -12.5t25 -12.5q70 -34 100 -43q24 -12 53 -12q28 0 49 8q37 9 39 35
q0 11 7.5 22.5t17.5 16.5q15 14 27.5 9t15.5 -23q0 -70 -46.5 -116.5t-119.5 -51.5h-12z" />
    <glyph glyph-name="exclamdown" unicode="&#xa1;" horiz-adv-x="628" 
d="M508 1423q40 -7 67 -41q14 -16 5 -39q-29 -73 -80 -73q-19 0 -36.5 9t-23.5 24l-4 4q5 11 3 46t12 46q20 24 57 24zM424 1212q32 0 51.5 -23.5t3.5 -55.5q-7 -15 -18 -43.5t-17 -40.5q-273 -570 -505 -902q-14 -21 -27 -34q-14 -17 -37 -17q-39 0 -51 35q-5 11 4 29
q6 17 20 35q11 12 21 24t20 27t16 24.5t17.5 28.5t16.5 27q217 360 426 782q21 45 26 80q0 24 33 24z" />
    <glyph glyph-name="cent" unicode="&#xa2;" horiz-adv-x="823" 
d="M563 324q37 16 64 16q41 0 41 -29q2 -43 -93 -112q-15 -10 -31 -16t-45 -11.5t-36 -7.5q-73 -17 -148 16q-6 -8 -18 -28q-22 -36 -76 -125q0 -8 -8 -19q-28 -28 -47 -28t-29 24q-16 32 0 59q64 117 96 166q-62 59 -71 133q-23 167 131 365q44 59 132 121.5t155 79.5
q43 10 75 2q39 62 97 139q13 16 26 16q23 0 32 -28t-13 -68q-17 -26 -37.5 -56.5t-28.5 -43.5q58 -51 39 -127q-30 -111 -74 -111q-27 0 -39 34.5t9 59.5q12 15 8 48q-22 -39 -88.5 -152t-102.5 -176q-20 -35 -43.5 -77.5t-39 -69t-31.5 -52.5q66 -2 194 58zM598 829l-2 -2
q-41 -10 -84.5 -37.5t-81 -66t-71 -84.5t-56.5 -94.5t-36 -93.5t-10 -84t22 -64q4 7 17.5 30.5t22.5 39.5q40 64 126 206t133 216q2 4 20 34z" />
    <glyph glyph-name="sterling" unicode="&#xa3;" horiz-adv-x="1351" 
d="M307 406q-21 11 -24 29.5t4 35.5q9 33 22 33q1 0 17 3t24 3q21 1 90 1.5t107 2.5q4 13 11 35t9 29q34 118 77 205t107 156.5t155 101.5t206 24q45 -3 75.5 -35.5t33.5 -77.5q5 -57 -26 -126t-75 -128q-8 -10 -18 -10q-15 0 -27 17.5t-10 50t25 65.5q11 16 23 52t15 67.5
t-16 36.5q-59 9 -117.5 -15t-105.5 -69t-91 -109.5t-76.5 -130.5t-59.5 -137q90 4 135 2q130 11 235 -8q12 -2 15 -23.5t-7 -42t-28 -20.5q-15 1 -57 4t-65 4t-56 0q-32 -2 -97 -7t-100 -7h-8q-29 -93 -107.5 -191.5t-183.5 -150.5q35 5 129.5 21.5t178.5 27t155 10.5
q165 0 246 -63q33 -25 37.5 -57t-17 -47.5t-55.5 -0.5q-141 62 -328 62q-174 0 -442 -58q-11 -1 -35 -4.5t-44 -5.5t-38 -2q-24 0 -39.5 15.5t-15.5 39.5q0 22 15.5 33.5t37.5 5.5q23 -7 43 -4q52 4 103 37t94 86.5t78 112t65 125.5q-18 -1 -38 -1t-44 0.5t-37 0.5h-70
q-4 -4 -10 -4z" />
    <glyph glyph-name="yen" unicode="&#xa5;" horiz-adv-x="978" 
d="M102 1063q77 12 146 -6.5t120 -60t90.5 -101t63.5 -128t33 -142.5q1 2 10 16q40 72 105.5 167.5t122.5 164.5q33 40 81 71t95 31q57 0 96 -55q26 -41 18 -62q-7 -13 -11 -14t-23 10q-12 9 -27 9q-21 0 -47 -15.5t-53.5 -44t-53 -58.5t-54 -71t-46.5 -67.5t-41 -62
t-27 -42.5q-4 -8 -10 -14l-18 -31q-2 -2 -10 -14q114 4 192 -11q12 -2 15 -23.5t-7 -42t-28 -20.5q-16 1 -54.5 4t-71.5 5t-53 0q-36 -4 -51 -4q-1 -2 -3 -5.5t-3 -5.5l-14 -20q-1 -2 -3 -5t-3 -5l-60 -101h70q130 11 235 -8q12 -2 15 -23.5t-7 -42t-28 -20.5q-15 1 -57 4
t-65 4t-56 0q-27 -2 -82 -6t-82 -6q-17 -30 -40.5 -79t-62.5 -116q-9 -10 -41 -67q-9 -19 -36 -19q-31 0 -64.5 21t-40.5 49q1 4 4.5 17.5t5.5 19.5q2 2 4.5 8t4.5 8l108 150q-85 -4 -125 -2h-69q-4 -4 -11 -4q-21 11 -24 29.5t4 35.5q9 33 22 33q1 0 17 3t24 3q17 1 92 1
t115 3h27q0 2 2 4l39 66q14 24 28 63q-117 -9 -235 -6h-70q-4 -4 -10 -4q-21 11 -24 30t4 36q8 32 22 32q1 0 17 3t24 3q11 0 89 0.5t118 4.5h86q10 102 -18.5 197t-97 160t-161.5 67q-90 3 -106 52q-10 28 9 45z" />
    <glyph glyph-name="dieresis" unicode="&#xa8;" horiz-adv-x="604" 
d="M440 1108q3 -32 -23.5 -55.5t-60.5 -20.5q-45 7 -63 47q-10 49 20 76q20 27 47 21q44 -12 72 -48q8 -16 8 -20zM147 1176q5 -2 17 -4.5t18 -4.5q32 -12 40.5 -40t-11.5 -54q-25 -45 -72 -45q-23 0 -41 12q-36 27 -30 76q7 32 25.5 43.5t53.5 11.5v5z" />
    <glyph glyph-name="degree" unicode="&#xb0;" horiz-adv-x="514" 
d="M420 1073q-2 -6 -2 -21.5t-2 -23.5q-26 -108 -127 -178q-26 -21 -43 -25q-35 -10 -65.5 1.5t-49.5 39.5q-26 35 -33 82q-9 46 13 121q25 98 104 162q7 10 30 20.5t36 10.5q21 0 41 -23q27 -27 38 -35q60 -44 60 -131zM270 1188q-8 0 -16 -8q-70 -70 -88 -174
q-11 -50 8 -101q6 -23 14.5 -27t30.5 7q55 36 83 74.5t48 105.5q3 30 0 72q-6 21 -17.5 30.5t-35.5 12.5q-3 0 -12 4t-15 4z" />
    <glyph glyph-name="plusminus" unicode="&#xb1;" horiz-adv-x="952" 
d="M496 543h206q9 0 29.5 -2t30.5 -2q26 -5 39 -37q0 -1 1.5 -8t2 -8.5t1.5 -8t0 -9.5t-2 -8t-4 -9.5t-7 -8.5q-12 -12 -23 -12h-53q-104 8 -246 8q-6 -95 -6 -190q-4 -62 -2 -94q2 -50 -55 -58q-28 -3 -33 31q-10 62 -10 80q-2 79 2 231q-96 -4 -142 -8q-47 0 -94 -6
q-53 -5 -61 51q-7 29 28 35q27 9 80 16q13 1 40 3t40 3l115 7q9 130 14 192q1 8 4 28.5t4 31.5q8 27 41 36q39 9 58 -12q12 -15 10 -24q1 -12 -4 -54q-20 -154 -23 -192h4l11 2h4v-4zM455 20h207q9 0 29 -2t30 -2q30 -6 39 -36q13 -39 -8 -60q-12 -12 -23 -12h-53
q-107 8 -246 8q-137 0 -246 -8q-48 0 -94 -6q-53 -5 -61 51q-6 27 28 35q61 15 80 16q60 6 169 12t149 9v-5z" />
    <glyph glyph-name="acute" unicode="&#xb4;" horiz-adv-x="323" 
d="M209 1225q41 -17 57 -49q12 -27 -4 -48q-3 -6 -12 -11.5t-12 -8.5q-60 -46 -115 -90q-25 -19 -51 4q-25 25 -4 51q20 24 55.5 75.5t38.5 55.5q17 25 47 21z" />
    <glyph glyph-name="cedilla" unicode="&#xb8;" horiz-adv-x="333" 
d="M182 211q2 -1 5.5 -4t5.5 -4l18 -19l10 -10q25 -26 27.5 -62.5t-19.5 -64.5q-29 -37 -77 -37q-23 0 -49.5 12t-39.5 29q-12 12 -12 29q-3 13 6.5 18.5t20.5 -0.5h6l8 -6h6q17 -10 33 -10q15 0 29 9t18 24q11 27 -16 32q-24 8 -35 17q-26 11 -32.5 32.5t11.5 45.5
q6 8 22.5 30.5t25.5 32.5q19 32 45 12q31 -27 14 -55q-2 -6 -7.5 -13t-6.5 -11q-7 -7 -17 -27z" />
    <glyph glyph-name="questiondown" unicode="&#xbf;" horiz-adv-x="864" 
d="M694 1356q-28 0 -51 20q-20 20 -25 45q0 5 -2 13t-2 15.5t4 14.5q15 29 32.5 37t47.5 2q30 -5 64 -39q16 -16 8 -37q-7 -20 -33 -55q-10 -16 -43 -16zM72 178q86 7 139 25q110 37 205.5 103.5t136.5 154.5q16 40 16 59q4 18 -4 47q-11 46 -59 37q-103 -23 -164 -84
q-18 -18 -39 -18q-20 0 -37 14q-20 15 -4 41q8 10 33 35q39 32 94.5 57t99.5 25q49 0 95 -27q51 -27 72.5 -77t7.5 -105q-10 -33 -21 -55q-34 -75 -127 -148.5t-199.5 -117.5t-185.5 -44q-161 -18 -272 90q-65 65 -80.5 150t22.5 168q65 116 224 227q37 27 103 73t95 66
q109 72 135 111q8 4 25 21q86 69 149 170q5 12 14 31t11 24q4 12 4 37q-3 20 10.5 31.5t36.5 7.5q33 -8 52 -35.5t12 -59.5q-23 -91 -78 -161t-145 -146q-98 -79 -207 -155l-113 -80q-144 -99 -201 -172q-42 -51 -55 -127q-11 -70 23 -120t104 -65q12 -2 36 -4t36 -4z" />
    <glyph glyph-name="Agrave" unicode="&#xc0;" horiz-adv-x="1890" 
d="M1583 1751q31 5 47 -20q6 -8 40.5 -58t53.5 -74q21 -26 -4 -51q-26 -23 -51 -4q-55 44 -115 90q-3 3 -12 9t-12 12q-15 20 -4 47q16 32 57 49zM1688 651q-28 -4 -35 -18q-8 -17 -26.5 -55.5t-29.5 -61t-27.5 -54t-31.5 -56.5q-92 -156 -248 -406q-12 -18 -24 -18t-27 12
q-40 34 -12 82q11 17 30.5 50.5t36.5 60t33 49.5q7 12 36.5 59.5t40 64.5t35 57.5t38 65t32 59t33.5 66.5q2 4 10 21.5t13 25.5q-12 4 -27 4q-54 0 -148 -4.5t-130 -5.5q-179 -19 -347 -45q-41 -6 -115.5 -20.5t-97.5 -18.5q-26 0 -41 -24q-13 -22 -41.5 -66.5t-42.5 -68.5
q-136 -223 -200 -357q-19 -38 -41 -100q-10 -20 -12 -23q-8 -16 -19 -16q-25 -5 -53 16q-19 19 -10 43q21 65 22 68q65 140 164 305q14 28 94 160q3 9 17 30q-173 -35 -428 -102q-1 0 -5 -4q-30 -9 -46.5 4t-16.5 43q0 34 31 45q191 58 512 127q33 8 49 31q118 172 198 270
q55 67 118 134.5t141 141t162 130.5t155 82q110 53 213 45q93 -8 140.5 -78.5t54.5 -171.5q5 -115 -35 -258q-27 -101 -64 -195q0 -4 -2 -11t-2 -13q250 -36 293 -64q34 -22 16 -54t-59 -20q-38 11 -138 25.5t-136 11.5zM756 676q470 91 858 80q45 96 81 213t46 211
q8 64 -8 139q-15 66 -84 72q-98 0 -206 -48.5t-199.5 -120t-186.5 -170t-161 -181t-128 -171.5q-7 -10 -12 -24z" />
    <glyph glyph-name="Aacute" unicode="&#xc1;" horiz-adv-x="1890" 
d="M1712 1753q41 -17 57 -49q11 -27 -4 -47q-3 -6 -12 -12t-12 -9q-60 -46 -115 -90q-25 -19 -51 4q-25 25 -4 52q20 24 55.5 75.5t38.5 55.5q16 25 47 20zM1688 651q-28 -4 -35 -18q-8 -17 -26.5 -55.5t-29.5 -61t-27.5 -54t-31.5 -56.5q-92 -156 -248 -406
q-12 -18 -24 -18t-27 12q-40 34 -12 82q11 17 30.5 50.5t36.5 60t33 49.5q7 12 36.5 59.5t40 64.5t35 57.5t38 65t32 59t33.5 66.5q2 4 10 21.5t13 25.5q-12 4 -27 4q-54 0 -148 -4.5t-130 -5.5q-179 -19 -347 -45q-41 -6 -115.5 -20.5t-97.5 -18.5q-26 0 -41 -24
q-13 -22 -41.5 -66.5t-42.5 -68.5q-136 -223 -200 -357q-19 -38 -41 -100q-10 -20 -12 -23q-8 -16 -19 -16q-25 -5 -53 16q-19 19 -10 43q21 65 22 68q65 140 164 305q14 28 94 160q3 9 17 30q-173 -35 -428 -102q-1 0 -5 -4q-30 -9 -46.5 4t-16.5 43q0 34 31 45
q191 58 512 127q33 8 49 31q118 172 198 270q55 67 118 134.5t141 141t162 130.5t155 82q110 53 213 45q93 -8 140.5 -78.5t54.5 -171.5q5 -115 -35 -258q-27 -101 -64 -195q0 -4 -2 -11t-2 -13q250 -36 293 -64q34 -22 16 -54t-59 -20q-38 11 -138 25.5t-136 11.5zM756 676
q470 91 858 80q45 96 81 213t46 211q8 64 -8 139q-15 66 -84 72q-98 0 -206 -48.5t-199.5 -120t-186.5 -170t-161 -181t-128 -171.5q-7 -10 -12 -24z" />
    <glyph glyph-name="Acircumflex" unicode="&#xc2;" horiz-adv-x="1890" 
d="M1716 1671q-2 -2 -8.5 -5.5t-11 -7.5t-8.5 -9l-93 -93q-18 -26 -47 -12q-35 22 -12 60q75 90 135 131q21 18 45 18q15 0 35 -10q50 -21 43 -78q-6 -51 -18 -100q-6 -25 -29 -17q-42 17 -35 64q2 9 5 27t5 28q0 4 -6 4zM1688 651q-28 -4 -35 -18q-8 -17 -26.5 -55.5
t-29.5 -61t-27.5 -54t-31.5 -56.5q-92 -156 -248 -406q-12 -18 -24 -18t-27 12q-40 34 -12 82q11 17 30.5 50.5t36.5 60t33 49.5q7 12 36.5 59.5t40 64.5t35 57.5t38 65t32 59t33.5 66.5q2 4 10 21.5t13 25.5q-12 4 -27 4q-54 0 -148 -4.5t-130 -5.5q-179 -19 -347 -45
q-41 -6 -115.5 -20.5t-97.5 -18.5q-26 0 -41 -24q-13 -22 -41.5 -66.5t-42.5 -68.5q-136 -223 -200 -357q-19 -38 -41 -100q-10 -20 -12 -23q-8 -16 -19 -16q-25 -5 -53 16q-19 19 -10 43q21 65 22 68q65 140 164 305q14 28 94 160q3 9 17 30q-173 -35 -428 -102q-1 0 -5 -4
q-30 -9 -46.5 4t-16.5 43q0 34 31 45q191 58 512 127q33 8 49 31q118 172 198 270q55 67 118 134.5t141 141t162 130.5t155 82q110 53 213 45q93 -8 140.5 -78.5t54.5 -171.5q5 -115 -35 -258q-27 -101 -64 -195q0 -4 -2 -11t-2 -13q250 -36 293 -64q34 -22 16 -54t-59 -20
q-38 11 -138 25.5t-136 11.5zM756 676q470 91 858 80q45 96 81 213t46 211q8 64 -8 139q-15 66 -84 72q-98 0 -206 -48.5t-199.5 -120t-186.5 -170t-161 -181t-128 -171.5q-7 -10 -12 -24z" />
    <glyph glyph-name="Atilde" unicode="&#xc3;" horiz-adv-x="1890" 
d="M1827 1610q-18 -39 -53.5 -63.5t-71.5 -24.5q-22 0 -45 13.5t-35 33.5q-13 16 -29 16q-11 0 -32 -12q-7 -4 -18 -16t-15 -15q-22 -19 -33 0q-27 38 12 74q67 57 105 57q25 0 45 -20q3 -4 9 -10.5t7 -8.5q19 -22 47 -22q32 0 62 30q3 3 10 11.5t10.5 10.5t7.5 -1
q7 -1 12 -10.5t5 -16.5q0 -3 -1 -9t-1 -10.5t2 -6.5zM1688 651q-28 -4 -35 -18q-8 -17 -26.5 -55.5t-29.5 -61t-27.5 -54t-31.5 -56.5q-92 -156 -248 -406q-12 -18 -24 -18t-27 12q-40 34 -12 82q11 17 30.5 50.5t36.5 60t33 49.5q7 12 36.5 59.5t40 64.5t35 57.5t38 65
t32 59t33.5 66.5q2 4 10 21.5t13 25.5q-12 4 -27 4q-54 0 -148 -4.5t-130 -5.5q-179 -19 -347 -45q-41 -6 -115.5 -20.5t-97.5 -18.5q-26 0 -41 -24q-13 -22 -41.5 -66.5t-42.5 -68.5q-136 -223 -200 -357q-19 -38 -41 -100q-10 -20 -12 -23q-8 -16 -19 -16q-25 -5 -53 16
q-19 19 -10 43q21 65 22 68q65 140 164 305q14 28 94 160q3 9 17 30q-173 -35 -428 -102q-1 0 -5 -4q-30 -9 -46.5 4t-16.5 43q0 34 31 45q191 58 512 127q33 8 49 31q118 172 198 270q55 67 118 134.5t141 141t162 130.5t155 82q110 53 213 45q93 -8 140.5 -78.5
t54.5 -171.5q5 -115 -35 -258q-27 -101 -64 -195q0 -4 -2 -11t-2 -13q250 -36 293 -64q34 -22 16 -54t-59 -20q-38 11 -138 25.5t-136 11.5zM756 676q470 91 858 80q45 96 81 213t46 211q8 64 -8 139q-15 66 -84 72q-98 0 -206 -48.5t-199.5 -120t-186.5 -170t-161 -181
t-128 -171.5q-7 -10 -12 -24z" />
    <glyph glyph-name="Adieresis" unicode="&#xc4;" horiz-adv-x="1890" 
d="M1845 1632q3 -32 -23.5 -55.5t-60.5 -20.5q-45 7 -63 48q-10 48 20 75q20 27 47 21q45 -12 72 -47q8 -16 8 -21zM1552 1700q5 -2 17 -4t18 -4q32 -12 40.5 -40.5t-11.5 -54.5q-25 -45 -72 -45q-22 0 -41 13q-36 27 -30 75q7 32 26 44t53 12v4zM1688 651q-28 -4 -35 -18
q-8 -17 -26.5 -55.5t-29.5 -61t-27.5 -54t-31.5 -56.5q-92 -156 -248 -406q-12 -18 -24 -18t-27 12q-40 34 -12 82q11 17 30.5 50.5t36.5 60t33 49.5q7 12 36.5 59.5t40 64.5t35 57.5t38 65t32 59t33.5 66.5q2 4 10 21.5t13 25.5q-12 4 -27 4q-54 0 -148 -4.5t-130 -5.5
q-179 -19 -347 -45q-41 -6 -115.5 -20.5t-97.5 -18.5q-26 0 -41 -24q-13 -22 -41.5 -66.5t-42.5 -68.5q-136 -223 -200 -357q-19 -38 -41 -100q-10 -20 -12 -23q-8 -16 -19 -16q-25 -5 -53 16q-19 19 -10 43q21 65 22 68q65 140 164 305q14 28 94 160q3 9 17 30
q-173 -35 -428 -102q-1 0 -5 -4q-30 -9 -46.5 4t-16.5 43q0 34 31 45q191 58 512 127q33 8 49 31q118 172 198 270q55 67 118 134.5t141 141t162 130.5t155 82q110 53 213 45q93 -8 140.5 -78.5t54.5 -171.5q5 -115 -35 -258q-27 -101 -64 -195q0 -4 -2 -11t-2 -13
q250 -36 293 -64q34 -22 16 -54t-59 -20q-38 11 -138 25.5t-136 11.5zM756 676q470 91 858 80q45 96 81 213t46 211q8 64 -8 139q-15 66 -84 72q-98 0 -206 -48.5t-199.5 -120t-186.5 -170t-161 -181t-128 -171.5q-7 -10 -12 -24z" />
    <glyph glyph-name="Aring" unicode="&#xc5;" horiz-adv-x="1890" 
d="M1798 1716v-8q-5 -48 -45.5 -95.5t-87.5 -56.5q-48 -12 -88 24t-33 87q18 88 105 131q40 18 86 4q27 -6 45 -31t18 -55zM1620 1616h16q60 32 88 115q3 9 -6 14t-18 2q-53 -30 -76 -84q-15 -26 -4 -47zM1688 651q-28 -4 -35 -18q-8 -17 -26.5 -55.5t-29.5 -61t-27.5 -54
t-31.5 -56.5q-92 -156 -248 -406q-12 -18 -24 -18t-27 12q-40 34 -12 82q11 17 30.5 50.5t36.5 60t33 49.5q7 12 36.5 59.5t40 64.5t35 57.5t38 65t32 59t33.5 66.5q2 4 10 21.5t13 25.5q-12 4 -27 4q-54 0 -148 -4.5t-130 -5.5q-179 -19 -347 -45q-41 -6 -115.5 -20.5
t-97.5 -18.5q-26 0 -41 -24q-13 -22 -41.5 -66.5t-42.5 -68.5q-136 -223 -200 -357q-19 -38 -41 -100q-10 -20 -12 -23q-8 -16 -19 -16q-25 -5 -53 16q-19 19 -10 43q21 65 22 68q65 140 164 305q14 28 94 160q3 9 17 30q-173 -35 -428 -102q-1 0 -5 -4q-30 -9 -46.5 4
t-16.5 43q0 34 31 45q191 58 512 127q33 8 49 31q118 172 198 270q55 67 118 134.5t141 141t162 130.5t155 82q110 53 213 45q93 -8 140.5 -78.5t54.5 -171.5q5 -115 -35 -258q-27 -101 -64 -195q0 -4 -2 -11t-2 -13q250 -36 293 -64q34 -22 16 -54t-59 -20
q-38 11 -138 25.5t-136 11.5zM756 676q470 91 858 80q45 96 81 213t46 211q8 64 -8 139q-15 66 -84 72q-98 0 -206 -48.5t-199.5 -120t-186.5 -170t-161 -181t-128 -171.5q-7 -10 -12 -24z" />
    <glyph glyph-name="AE" unicode="&#xc6;" horiz-adv-x="2576" 
d="M2140 879q-29 24 -33 30q-38 41 -46.5 94.5t16.5 104.5q18 50 73 98q147 134 320 156q106 13 170 -51q69 -75 39 -168q-25 -69 -86.5 -132t-126.5 -63q-34 5 -53 37q-10 26 16 31q5 0 12 2t8 2q51 22 100 87t54 116q3 26 -4.5 37t-34.5 14q-29 7 -98 -6
q-137 -36 -244 -135q-42 -47 -51 -64q-20 -27 -23 -53q-18 -63 39 -94q70 -36 127 -41q33 0 60 -27q12 -24 12 -29q3 -8 -2 -15t-14 -7q-3 0 -8 -1t-9 -1t-8 2q-14 4 -29.5 4t-35 -2t-29.5 -2q-200 -22 -360 -121.5t-269 -267.5q-24 -51 -70 -127q-8 -18 -20 -58
q-23 -71 -0.5 -122.5t66.5 -81t96 -33.5q103 -11 202 28q220 88 347 293q32 53 32 105q0 38 -21 60t-59 22q-86 0 -159 -51q-45 -29 -65 -50t-42 -65q15 -10 31 -29q12 -13 8 -26q-6 -17 -22 -17q-53 -6 -93 29q-35 25 -20 82q29 80 106.5 132.5t167.5 65.5q98 17 187 -39
q102 -70 71 -194q-7 -22 -30 -68q-98 -149 -248.5 -249.5t-314.5 -100.5q-84 0 -162.5 31.5t-132.5 91.5q-28 35 -37 59q-116 -187 -119 -192q-13 -19 -25 -19q-10 0 -26 13q-41 35 -13 82q87 140 101 159q12 18 25 39t27.5 46.5t23.5 39.5q37 126 151 275l10 20
q-12 4 -26 4q-54 0 -148.5 -4.5t-130.5 -5.5q-175 -18 -346 -45q-41 -6 -115.5 -20.5t-97.5 -18.5q-26 0 -41 -24q-13 -22 -41.5 -67t-42.5 -69q-138 -227 -200 -356q-19 -38 -41 -100q-7 -14 -13 -23q-8 -16 -18 -16q-25 -5 -53 16q-20 20 -11 43q17 53 23 68
q65 140 164 305q14 28 94 160q4 12 16 30q-173 -35 -428 -102l-4 -4q-30 -9 -46.5 4t-16.5 43q0 35 30 45q191 58 512 127q34 8 50 31q118 172 198 270q76 93 162.5 182.5t203.5 181t210 123.5q112 54 213 46q93 -8 140 -78.5t54 -171.5q5 -115 -35 -258q-24 -88 -53 -168
q163 128 350 153q8 4 9 4l16 7q2 2 8 2zM786 586q470 91 859 80q45 96 81 213t46 211q8 61 -9 139q-14 65 -84 71q-98 0 -206 -48.5t-199.5 -119.5t-186 -169.5t-160.5 -181t-128 -171.5q-9 -12 -13 -24z" />
    <glyph glyph-name="Ccedilla" unicode="&#xc7;" horiz-adv-x="1179" 
d="M1180 485q-221 -190 -369 -294q-321 -227 -492 -224q-27 0 -51 6q0 -11 -6 -20q-2 -6 -7.5 -13.5t-6.5 -11.5q-8 -8 -17 -26l11 -11l18 -18q4 -2 10 -8q25 -26 28 -62.5t-19 -64.5q-29 -37 -78 -37q-23 0 -49 12t-39 29q-13 13 -13 29q-3 13 6.5 18.5t20.5 -0.5h6l8 -6h6
q17 -10 33 -10t29.5 8.5t17.5 23.5q11 28 -16 33q-24 8 -35 17q-25 11 -31.5 32t11.5 45q7 8 22.5 31t24.5 33q0 1 1 2t1 2q-129 90 -129 274q0 137 67 285q190 420 478 668q69 64 163.5 113t178.5 55q62 3 112.5 -28t81.5 -89q34 -68 4 -170q-35 -119 -110 -219
q-63 -90 -215 -250q-19 -16 -43 -16q-22 0 -39 13t-23 36q-5 16 8 30q26 35 41 46q111 116 183.5 217t105.5 215q8 40 8 63q6 31 -24 39q-36 8 -56 4q-43 0 -123 -35q-131 -63 -266.5 -204.5t-233 -296.5t-151.5 -297q-14 -37 -39 -136q-5 -31 -6.5 -79t16 -97.5t50.5 -60.5
q33 -10 67 -10q76 0 178.5 42t192.5 98.5t190.5 133.5t157.5 126t109 97q33 29 57 29q29 0 32 -27q4 -39 -48 -84z" />
    <glyph glyph-name="Egrave" unicode="&#xc8;" horiz-adv-x="1210" 
d="M1137 1649q30 4 47 -21q3 -4 38.5 -55.5t55.5 -75.5q21 -26 -4 -51q-26 -23 -51 -4q-55 44 -115 90q-3 3 -12.5 8.5t-12.5 11.5q-15 20 -4 47q16 33 58 50zM774 879q-29 24 -33 30q-38 41 -46.5 94.5t16.5 104.5q18 50 73 98q147 134 320 156q106 13 170 -51
q69 -75 39 -168q-25 -69 -86.5 -132t-126.5 -63q-34 5 -53 37q-10 26 16 31q5 0 12 2t8 2q51 22 100 87t54 116q3 26 -4.5 37t-34.5 14q-29 7 -98 -6q-137 -36 -244 -135q-42 -47 -51 -64q-20 -27 -23 -53q-18 -63 39 -94q70 -36 127 -41q33 0 60 -27q12 -24 12 -29
q3 -8 -2 -15t-14 -7q-3 0 -8 -1t-9 -1t-8 2q-14 4 -29.5 4t-35 -2t-29.5 -2q-237 -24 -418 -160q-99 -77 -185.5 -191t-115.5 -223q-23 -71 -0.5 -122.5t66.5 -81t96 -33.5q103 -11 202 28q220 88 347 293q32 53 32 105q0 38 -21 60t-59 22q-86 0 -159 -51q-45 -29 -65 -50
t-42 -65q15 -10 31 -29q12 -13 8 -26q-6 -17 -22 -17q-53 -6 -93 29q-35 25 -20 82q29 80 106.5 132.5t167.5 65.5q98 17 187 -39q102 -70 71 -194q-7 -22 -30 -68q-98 -149 -248.5 -249.5t-314.5 -100.5q-84 0 -162.5 31.5t-132.5 91.5q-77 97 -48 207q6 30 27 80
q87 202 266 355t385 181q1 1 4.5 2t4.5 2l16 7q1 0 4 1t4 1z" />
    <glyph glyph-name="Eacute" unicode="&#xc9;" horiz-adv-x="1210" 
d="M1266 1651q41 -17 57 -49q12 -27 -4 -48q-3 -6 -12.5 -11.5t-12.5 -8.5q-26 -20 -114 -90q-26 -19 -52 4q-25 25 -4 51q15 18 30.5 40t35 50t29.5 41q17 25 47 21zM774 879q-29 24 -33 30q-38 41 -46.5 94.5t16.5 104.5q18 50 73 98q147 134 320 156q106 13 170 -51
q69 -75 39 -168q-25 -69 -86.5 -132t-126.5 -63q-34 5 -53 37q-10 26 16 31q5 0 12 2t8 2q51 22 100 87t54 116q3 26 -4.5 37t-34.5 14q-29 7 -98 -6q-137 -36 -244 -135q-42 -47 -51 -64q-20 -27 -23 -53q-18 -63 39 -94q70 -36 127 -41q33 0 60 -27q12 -24 12 -29
q3 -8 -2 -15t-14 -7q-3 0 -8 -1t-9 -1t-8 2q-14 4 -29.5 4t-35 -2t-29.5 -2q-237 -24 -418 -160q-99 -77 -185.5 -191t-115.5 -223q-23 -71 -0.5 -122.5t66.5 -81t96 -33.5q103 -11 202 28q220 88 347 293q32 53 32 105q0 38 -21 60t-59 22q-86 0 -159 -51q-45 -29 -65 -50
t-42 -65q15 -10 31 -29q12 -13 8 -26q-6 -17 -22 -17q-53 -6 -93 29q-35 25 -20 82q29 80 106.5 132.5t167.5 65.5q98 17 187 -39q102 -70 71 -194q-7 -22 -30 -68q-98 -149 -248.5 -249.5t-314.5 -100.5q-84 0 -162.5 31.5t-132.5 91.5q-77 97 -48 207q6 30 27 80
q87 202 266 355t385 181q1 1 4.5 2t4.5 2l16 7q1 0 4 1t4 1z" />
    <glyph glyph-name="Ecircumflex" unicode="&#xca;" horiz-adv-x="1210" 
d="M1270 1569q-2 -2 -8.5 -5.5t-11.5 -8t-9 -9.5l-92 -92q-18 -26 -47 -12q-34 22 -12 59q75 90 135 131q22 19 45 19q13 0 35 -11q49 -21 43 -77q-5 -45 -19 -101q-6 -24 -29 -16q-41 17 -34 63q2 9 5 27.5t5 28.5q0 4 -6 4zM774 879q-29 24 -33 30q-38 41 -46.5 94.5
t16.5 104.5q18 50 73 98q147 134 320 156q106 13 170 -51q69 -75 39 -168q-25 -69 -86.5 -132t-126.5 -63q-34 5 -53 37q-10 26 16 31q5 0 12 2t8 2q51 22 100 87t54 116q3 26 -4.5 37t-34.5 14q-29 7 -98 -6q-137 -36 -244 -135q-42 -47 -51 -64q-20 -27 -23 -53
q-18 -63 39 -94q70 -36 127 -41q33 0 60 -27q12 -24 12 -29q3 -8 -2 -15t-14 -7q-3 0 -8 -1t-9 -1t-8 2q-14 4 -29.5 4t-35 -2t-29.5 -2q-237 -24 -418 -160q-99 -77 -185.5 -191t-115.5 -223q-23 -71 -0.5 -122.5t66.5 -81t96 -33.5q103 -11 202 28q220 88 347 293
q32 53 32 105q0 38 -21 60t-59 22q-86 0 -159 -51q-45 -29 -65 -50t-42 -65q15 -10 31 -29q12 -13 8 -26q-6 -17 -22 -17q-53 -6 -93 29q-35 25 -20 82q29 80 106.5 132.5t167.5 65.5q98 17 187 -39q102 -70 71 -194q-7 -22 -30 -68q-98 -149 -248.5 -249.5t-314.5 -100.5
q-84 0 -162.5 31.5t-132.5 91.5q-77 97 -48 207q6 30 27 80q87 202 266 355t385 181q1 1 4.5 2t4.5 2l16 7q1 0 4 1t4 1z" />
    <glyph glyph-name="Edieresis" unicode="&#xcb;" horiz-adv-x="1210" 
d="M1399 1530q3 -32 -23.5 -55.5t-60.5 -20.5q-46 7 -64 47q-10 48 21 76q20 26 47 20q45 -12 72 -47q8 -16 8 -20zM1106 1597q5 -2 17 -4t18 -4q32 -12 40 -40t-12 -54q-25 -45 -71 -45q-23 0 -41 12q-37 27 -31 76q7 32 26 43.5t54 11.5v4zM774 879q-29 24 -33 30
q-38 41 -46.5 94.5t16.5 104.5q18 50 73 98q147 134 320 156q106 13 170 -51q69 -75 39 -168q-25 -69 -86.5 -132t-126.5 -63q-34 5 -53 37q-10 26 16 31q5 0 12 2t8 2q51 22 100 87t54 116q3 26 -4.5 37t-34.5 14q-29 7 -98 -6q-137 -36 -244 -135q-42 -47 -51 -64
q-20 -27 -23 -53q-18 -63 39 -94q70 -36 127 -41q33 0 60 -27q12 -24 12 -29q3 -8 -2 -15t-14 -7q-3 0 -8 -1t-9 -1t-8 2q-14 4 -29.5 4t-35 -2t-29.5 -2q-237 -24 -418 -160q-99 -77 -185.5 -191t-115.5 -223q-23 -71 -0.5 -122.5t66.5 -81t96 -33.5q103 -11 202 28
q220 88 347 293q32 53 32 105q0 38 -21 60t-59 22q-86 0 -159 -51q-45 -29 -65 -50t-42 -65q15 -10 31 -29q12 -13 8 -26q-6 -17 -22 -17q-53 -6 -93 29q-35 25 -20 82q29 80 106.5 132.5t167.5 65.5q98 17 187 -39q102 -70 71 -194q-7 -22 -30 -68q-98 -149 -248.5 -249.5
t-314.5 -100.5q-84 0 -162.5 31.5t-132.5 91.5q-77 97 -48 207q6 30 27 80q87 202 266 355t385 181q1 1 4.5 2t4.5 2l16 7q1 0 4 1t4 1z" />
    <glyph glyph-name="Igrave" unicode="&#xcc;" horiz-adv-x="849" 
d="M1067 1649q30 4 47 -21q3 -4 38.5 -55.5t55.5 -75.5q21 -26 -4 -51q-26 -23 -51 -4q-55 44 -115 90q-3 3 -12 8.5t-12 11.5q-15 20 -4 47q16 34 57 50zM334 115q11 -2 23 -2t25 1t19 1q27 0 43.5 -18t16.5 -46q0 -22 -19 -22q-27 -9 -28 -9q-86 -8 -131 -8
q-97 0 -199 -24q-26 -6 -40 0.5t-24 31.5q-17 46 25 52q42 13 123 28q19 3 28.5 9.5t18.5 21.5q76 125 160 252.5t136 202t163.5 231.5t161.5 227q39 57 170 236q-73 -5 -158 -25q-4 -4 -17 -4q-24 -6 -37 2.5t-22 34.5q-7 13 -0.5 28.5t23.5 18.5q65 22 146 33t134 12.5
t150 1.5q6 0 15.5 -2t14.5 -2q31 -3 49 -26t15 -54q-3 -35 -39 -18q-16 8 -20 8h-119q-7 0 -11.5 -3t-9 -11t-6.5 -10q-496 -703 -717 -1041q-26 -42 -55 -84q-2 -4 -3 -7t-2.5 -8t-2.5 -9z" />
    <glyph glyph-name="Iacute" unicode="&#xcd;" horiz-adv-x="849" 
d="M1196 1651q41 -17 57 -49q12 -27 -4 -48q-3 -6 -12 -11.5t-12 -8.5q-60 -46 -115 -90q-25 -19 -51 4q-25 25 -4 51q20 24 55.5 75.5t38.5 55.5q17 25 47 21zM334 115q11 -2 23 -2t25 1t19 1q27 0 43.5 -18t16.5 -46q0 -22 -19 -22q-27 -9 -28 -9q-86 -8 -131 -8
q-97 0 -199 -24q-26 -6 -40 0.5t-24 31.5q-17 46 25 52q42 13 123 28q19 3 28.5 9.5t18.5 21.5q76 125 160 252.5t136 202t163.5 231.5t161.5 227q39 57 170 236q-73 -5 -158 -25q-4 -4 -17 -4q-24 -6 -37 2.5t-22 34.5q-7 13 -0.5 28.5t23.5 18.5q65 22 146 33t134 12.5
t150 1.5q6 0 15.5 -2t14.5 -2q31 -3 49 -26t15 -54q-3 -35 -39 -18q-16 8 -20 8h-119q-7 0 -11.5 -3t-9 -11t-6.5 -10q-496 -703 -717 -1041q-26 -42 -55 -84q-2 -4 -3 -7t-2.5 -8t-2.5 -9z" />
    <glyph glyph-name="Icircumflex" unicode="&#xce;" horiz-adv-x="849" 
d="M1200 1569q-2 -2 -8.5 -5.5t-11.5 -8t-9 -9.5l-92 -92q-18 -26 -47 -12q-34 22 -12 59q75 90 135 131q22 19 45 19q13 0 35 -11q49 -21 43 -77q-6 -54 -18 -101q-6 -24 -29 -16q-42 17 -35 63q2 9 5 27.5t5 28.5q0 4 -6 4zM334 115q11 -2 23 -2t25 1t19 1q27 0 43.5 -18
t16.5 -46q0 -22 -19 -22q-27 -9 -28 -9q-86 -8 -131 -8q-97 0 -199 -24q-26 -6 -40 0.5t-24 31.5q-17 46 25 52q42 13 123 28q19 3 28.5 9.5t18.5 21.5q76 125 160 252.5t136 202t163.5 231.5t161.5 227q39 57 170 236q-73 -5 -158 -25q-4 -4 -17 -4q-24 -6 -37 2.5
t-22 34.5q-7 13 -0.5 28.5t23.5 18.5q65 22 146 33t134 12.5t150 1.5q6 0 15.5 -2t14.5 -2q31 -3 49 -26t15 -54q-3 -35 -39 -18q-16 8 -20 8h-119q-7 0 -11.5 -3t-9 -11t-6.5 -10q-496 -703 -717 -1041q-26 -42 -55 -84q-2 -4 -3 -7t-2.5 -8t-2.5 -9z" />
    <glyph glyph-name="Idieresis" unicode="&#xcf;" horiz-adv-x="849" 
d="M1329 1530q3 -32 -23.5 -55.5t-60.5 -20.5q-45 7 -63 47q-10 49 20 76q20 26 47 20q45 -12 72 -47q8 -16 8 -20zM1036 1597q5 -2 17 -4t18 -4q32 -12 40.5 -40t-11.5 -54q-25 -45 -72 -45q-23 0 -41 12q-37 27 -31 76q7 32 26 43.5t54 11.5v4zM334 115q11 -2 23 -2t25 1
t19 1q27 0 43.5 -18t16.5 -46q0 -22 -19 -22q-27 -9 -28 -9q-86 -8 -131 -8q-97 0 -199 -24q-26 -6 -40 0.5t-24 31.5q-17 46 25 52q42 13 123 28q19 3 28.5 9.5t18.5 21.5q76 125 160 252.5t136 202t163.5 231.5t161.5 227q39 57 170 236q-73 -5 -158 -25q-4 -4 -17 -4
q-24 -6 -37 2.5t-22 34.5q-7 13 -0.5 28.5t23.5 18.5q65 22 146 33t134 12.5t150 1.5q6 0 15.5 -2t14.5 -2q31 -3 49 -26t15 -54q-3 -35 -39 -18q-16 8 -20 8h-119q-7 0 -11.5 -3t-9 -11t-6.5 -10q-496 -703 -717 -1041q-26 -42 -55 -84q-2 -4 -3 -7t-2.5 -8t-2.5 -9z" />
    <glyph glyph-name="Eth" unicode="&#xd0;" horiz-adv-x="2027" 
d="M1739 645q3 0 70.5 3t120 3.5t120.5 -4.5q52 -6 72 -45q9 -14 1.5 -34t-26.5 -17q-83 12 -201 12q-112 0 -200 -12q-19 0 -37 -25q-190 -240 -442.5 -416.5t-534.5 -254.5q-143 -38 -268 -27q-75 7 -125 31q-8 5 -22.5 16t-16.5 12q-91 76 -27 174q92 151 463 330
q23 9 45 41q27 41 80 118.5t72 106.5q-100 -4 -150 -8q-28 0 -86 -4q-173 -125 -342 -162q-89 -17 -147.5 42.5t-38.5 148.5q10 56 55 114q97 133 265.5 248t346 186t347.5 103q112 25 258 18q165 -10 280 -102q181 -149 152 -369q-12 -97 -66 -194l-12 -21zM229 559
q49 5 64 10q159 62 285 140q3 14 28 20q80 58 125 98q38 34 47 64q8 8 17 8q31 5 55 -31q17 -28 -4 -51q-8 -7 -28.5 -30t-31.5 -33q27 1 83 4t85 4q1 2 62 90q31 46 68 94.5t84.5 110.5t70.5 92q3 4 6.5 11t5.5 9q23 32 52 9q48 -35 12 -84q-112 -150 -244 -332h139
q9 0 29.5 -2t30.5 -2q30 -6 39 -37q13 -37 -9 -59q-13 -13 -22 -13h-53q-99 8 -224 8q-20 -29 -56.5 -86t-47.5 -73q-1 0 -16 -23q12 4 28 8q356 125 690 150q29 7 37 24q43 76 86 160q23 56 29 119q18 153 -106 242q-78 57 -203 71q-160 20 -385 -39q-113 -29 -234.5 -80.5
t-243 -121.5t-222 -164.5t-150.5 -194.5q-8 -20 -8 -59q0 -18 6.5 -24.5t23.5 -6.5zM1528 530q-1 0 -2 1q-4 2 -4 -1q-372 -50 -713 -190q-22 -9 -35 -29q-145 -244 -151 -254t-16.5 -34t-14.5 -33q16 -24 16 -27q4 -8 4 -33q302 82 598 295q90 68 192.5 166t125.5 139z
M608 233q-108 -50 -187 -107.5t-128 -139.5q-15 -26 -10 -40t34 -24q61 -14 105 -14q51 0 123 10q-1 1 -21 16q-24 17 -29 35.5t5 48.5q0 18 8 31q13 23 36.5 68t30.5 59q6 12 33 57z" />
    <glyph glyph-name="Ntilde" unicode="&#xd1;" horiz-adv-x="1787" 
d="M1815 1507q-18 -39 -53.5 -63.5t-71.5 -24.5q-22 0 -45 13.5t-35 33.5q-14 17 -29 17q-10 0 -33 -13q-7 -4 -17.5 -15.5t-14.5 -14.5q-22 -19 -33 0q-27 37 12 73q68 58 104 58q25 0 46 -21q3 -4 9 -10t7 -8q20 -23 47 -23q30 0 61 31q3 3 7 7.5t6 7t5.5 5.5t5.5 2.5
t5 -1.5q7 -1 12 -10.5t5 -16.5q0 -3 -1 -9.5t-1 -11t2 -6.5zM1163 879q5 8 11.5 14.5t13 12t8.5 7.5q33 42 79 93.5t108.5 112.5t124 111.5t126 87.5t113.5 44q48 6 86.5 -21t44.5 -73q4 -30 -4 -84q-19 -69 -47 -123q-23 -53 -50 -103.5t-74 -130.5t-58 -100
q-59 -102 -179 -306.5t-180 -305.5q-6 -11 -35 -72q-1 -3 -6 -13.5t-6.5 -13.5t-4 -13.5t0.5 -14.5q0 -12 -8.5 -19.5t-20.5 -7.5q-32 0 -53 27t-14 59l6 12l8 25q49 100 141 258l279 475q17 29 70.5 123t82.5 143q11 22 21.5 46t22.5 54t18 44q3 9 5.5 25.5t4.5 21.5
q-19 3 -63 -10q-62 -33 -136 -84q-206 -166 -360 -363q-45 -55 -96 -123t-84.5 -114t-94 -130t-87.5 -120q-181 -251 -261 -363q-7 -6 -19 -20.5t-17 -18.5q-25 -24 -52 -8q-20 7 -32 25q-14 21 0 43q2 4 8.5 15.5t11.5 16.5q91 126 182 242q53 71 114 165t128.5 211.5
t111.5 231.5t44 187q0 39 -4 59q-4 28 -39 43q-47 17 -105 17q-100 -10 -229 -56q-91 -34 -191 -92.5t-194 -144.5t-131 -168q-41 -75 -41 -123q3 -32 17 -47t46 -21q49 -4 129 17q95 20 191 77q25 15 69 42t80 49t68 41q17 14 33 14q15 0 34 -16q15 -18 14.5 -30.5
t-18.5 -27.5q-3 -3 -11 -10t-14.5 -12t-13.5 -9q-87 -60 -143.5 -95.5t-144.5 -74t-164 -49.5q-116 -14 -187 49q-87 63 -67 175q6 63 49 133.5t96 120.5q227 227 520 313q124 34 220 29q103 -13 163 -76q47 -56 52 -119q6 -76 -13 -156q0 -16 -4 -30z" />
    <glyph glyph-name="Ograve" unicode="&#xd2;" horiz-adv-x="1658" 
d="M1200 1673q31 5 47 -20q3 -4 38.5 -55.5t55.5 -75.5q21 -27 -4 -52q-26 -23 -51 -4q-55 44 -115 90q-3 3 -12 9t-12 12q-15 20 -4 47q16 32 57 49zM887 1366q-27 23 -71 35t-76 14t-81 2q-263 0 -440 -166q-28 -24 -22 -59q0 -23 18 -31q17 0 33 -33q5 -16 -8 -16
q-25 0 -39 4q-33 25 -41 45q-47 65 -23 142q13 65 183 151l8 4q86 34 202 47q80 6 166 0q161 -21 246 -106q6 -9 17 -12.5t20 -0.5q86 18 119 21q119 7 194 -12q207 -51 258 -246q51 -187 -12 -377q-58 -196 -190 -362q-74 -91 -169.5 -182.5t-211.5 -180t-244 -144
t-238 -55.5q-109 0 -198 66t-123 170q-17 68 -4 139q5 120 71 254q10 25 0 47q-30 50 -30 140q0 108 47 186q73 171 244 306.5t364 199.5q26 6 31 10zM1022 1294q4 -12 15 -31t14 -28q31 -81 26 -145q-7 -111 -55 -185q-43 -75 -93 -145t-113 -141t-137.5 -123.5
t-148.5 -73.5q-52 -19 -100 -19q-28 0 -59 7q-32 16 -47 16q-53 -94 -64 -190q-22 -95 -8 -156q9 -64 44 -106t91 -52q21 -8 49 -8q236 0 590 334q323 286 432 618q49 148 33 275q-7 39 -23 68.5t-36.5 47.5t-51 30.5t-59.5 18t-68 9.5q-106 5 -231 -21zM350 473
q64 0 101 16q96 34 200.5 121.5t184.5 184.5q6 8 23 26.5t24 28.5q91 152 96 287q5 48 -16 123q-6 15 -10.5 16.5t-24.5 -4.5q-2 -2 -11.5 -4t-13.5 -4q-287 -91 -469 -306q-77 -98 -112 -173t-35 -175l4 -8v-6q12 12 16 20q68 117 193 220l41 30q22 11 34 11q34 0 58 -35
q8 -27 -8 -51h-4l-9 -5h-4q-16 9 -30 -12q-136 -127 -224 -280q-4 -4 -4 -21z" />
    <glyph glyph-name="Oacute" unicode="&#xd3;" horiz-adv-x="1658" 
d="M1329 1675q41 -17 57 -49q11 -27 -4 -47q-3 -6 -12 -11.5t-12 -8.5q-18 -13 -115 -91q-25 -18 -51 5q-25 25 -4 51q20 24 55.5 75.5t38.5 55.5q16 25 47 20zM887 1366q-27 23 -71 35t-76 14t-81 2q-263 0 -440 -166q-28 -24 -22 -59q0 -23 18 -31q17 0 33 -33
q5 -16 -8 -16q-25 0 -39 4q-33 25 -41 45q-47 65 -23 142q13 65 183 151l8 4q86 34 202 47q80 6 166 0q161 -21 246 -106q6 -9 17 -12.5t20 -0.5q86 18 119 21q119 7 194 -12q207 -51 258 -246q51 -187 -12 -377q-58 -196 -190 -362q-74 -91 -169.5 -182.5t-211.5 -180
t-244 -144t-238 -55.5q-109 0 -198 66t-123 170q-17 68 -4 139q5 120 71 254q10 25 0 47q-30 50 -30 140q0 108 47 186q73 171 244 306.5t364 199.5q26 6 31 10zM1022 1294q4 -12 15 -31t14 -28q31 -81 26 -145q-7 -111 -55 -185q-43 -75 -93 -145t-113 -141t-137.5 -123.5
t-148.5 -73.5q-52 -19 -100 -19q-28 0 -59 7q-32 16 -47 16q-53 -94 -64 -190q-22 -95 -8 -156q9 -64 44 -106t91 -52q21 -8 49 -8q236 0 590 334q323 286 432 618q49 148 33 275q-7 39 -23 68.5t-36.5 47.5t-51 30.5t-59.5 18t-68 9.5q-106 5 -231 -21zM350 473
q64 0 101 16q96 34 200.5 121.5t184.5 184.5q6 8 23 26.5t24 28.5q91 152 96 287q5 48 -16 123q-6 15 -10.5 16.5t-24.5 -4.5q-2 -2 -11.5 -4t-13.5 -4q-287 -91 -469 -306q-77 -98 -112 -173t-35 -175l4 -8v-6q12 12 16 20q68 117 193 220l41 30q22 11 34 11q34 0 58 -35
q8 -27 -8 -51h-4l-9 -5h-4q-16 9 -30 -12q-136 -127 -224 -280q-4 -4 -4 -21z" />
    <glyph glyph-name="Ocircumflex" unicode="&#xd4;" horiz-adv-x="1658" 
d="M1333 1593q-2 -2 -8.5 -5.5t-11 -7.5t-8.5 -9q-16 -17 -46 -46.5t-47 -45.5q-19 -27 -47 -13q-35 22 -12 60q75 90 135 131q21 18 45 18q15 0 35 -10q50 -21 43 -78q-6 -52 -18 -100q-6 -25 -29 -17q-42 17 -35 64q2 9 5 27t5 28q0 4 -6 4zM887 1366q-27 23 -71 35
t-76 14t-81 2q-263 0 -440 -166q-28 -24 -22 -59q0 -23 18 -31q17 0 33 -33q5 -16 -8 -16q-25 0 -39 4q-33 25 -41 45q-47 65 -23 142q13 65 183 151l8 4q86 34 202 47q80 6 166 0q161 -21 246 -106q6 -9 17 -12.5t20 -0.5q86 18 119 21q119 7 194 -12q207 -51 258 -246
q51 -187 -12 -377q-58 -196 -190 -362q-74 -91 -169.5 -182.5t-211.5 -180t-244 -144t-238 -55.5q-109 0 -198 66t-123 170q-17 68 -4 139q5 120 71 254q10 25 0 47q-30 50 -30 140q0 108 47 186q73 171 244 306.5t364 199.5q26 6 31 10zM1022 1294q4 -12 15 -31t14 -28
q31 -81 26 -145q-7 -111 -55 -185q-43 -75 -93 -145t-113 -141t-137.5 -123.5t-148.5 -73.5q-52 -19 -100 -19q-28 0 -59 7q-32 16 -47 16q-53 -94 -64 -190q-22 -95 -8 -156q9 -64 44 -106t91 -52q21 -8 49 -8q236 0 590 334q323 286 432 618q49 148 33 275q-7 39 -23 68.5
t-36.5 47.5t-51 30.5t-59.5 18t-68 9.5q-106 5 -231 -21zM350 473q64 0 101 16q96 34 200.5 121.5t184.5 184.5q6 8 23 26.5t24 28.5q91 152 96 287q5 48 -16 123q-6 15 -10.5 16.5t-24.5 -4.5q-2 -2 -11.5 -4t-13.5 -4q-287 -91 -469 -306q-77 -98 -112 -173t-35 -175l4 -8
v-6q12 12 16 20q68 117 193 220l41 30q22 11 34 11q34 0 58 -35q8 -27 -8 -51h-4l-9 -5h-4q-16 9 -30 -12q-136 -127 -224 -280q-4 -4 -4 -21z" />
    <glyph glyph-name="Otilde" unicode="&#xd5;" horiz-adv-x="1658" 
d="M1444 1532q-18 -39 -53.5 -63.5t-71.5 -24.5q-22 0 -45 13.5t-35 33.5q-13 16 -29 16q-11 0 -32 -12q-7 -4 -18 -16t-15 -15q-22 -19 -33 0q-27 38 12 74q67 57 105 57q25 0 45 -20q3 -4 9 -10.5t7 -8.5q19 -22 47 -22q31 0 62 31q2 2 5.5 6t5.5 6l4.5 4.5t4 3.5t4.5 1.5
t4 -1.5q7 -1 12 -10t5 -16q0 -3 -1 -9.5t-1 -11t2 -6.5zM887 1366q-27 23 -71 35t-76 14t-81 2q-263 0 -440 -166q-28 -24 -22 -59q0 -23 18 -31q17 0 33 -33q5 -16 -8 -16q-25 0 -39 4q-33 25 -41 45q-47 65 -23 142q13 65 183 151l8 4q86 34 202 47q80 6 166 0
q161 -21 246 -106q6 -9 17 -12.5t20 -0.5q86 18 119 21q119 7 194 -12q207 -51 258 -246q51 -187 -12 -377q-58 -196 -190 -362q-74 -91 -169.5 -182.5t-211.5 -180t-244 -144t-238 -55.5q-109 0 -198 66t-123 170q-17 68 -4 139q5 120 71 254q10 25 0 47q-30 50 -30 140
q0 108 47 186q73 171 244 306.5t364 199.5q26 6 31 10zM1022 1294q4 -12 15 -31t14 -28q31 -81 26 -145q-7 -111 -55 -185q-43 -75 -93 -145t-113 -141t-137.5 -123.5t-148.5 -73.5q-52 -19 -100 -19q-28 0 -59 7q-32 16 -47 16q-53 -94 -64 -190q-22 -95 -8 -156
q9 -64 44 -106t91 -52q21 -8 49 -8q236 0 590 334q323 286 432 618q49 148 33 275q-7 39 -23 68.5t-36.5 47.5t-51 30.5t-59.5 18t-68 9.5q-106 5 -231 -21zM350 473q64 0 101 16q96 34 200.5 121.5t184.5 184.5q6 8 23 26.5t24 28.5q91 152 96 287q5 48 -16 123
q-6 15 -10.5 16.5t-24.5 -4.5q-2 -2 -11.5 -4t-13.5 -4q-287 -91 -469 -306q-77 -98 -112 -173t-35 -175l4 -8v-6q12 12 16 20q68 117 193 220l41 30q22 11 34 11q34 0 58 -35q8 -27 -8 -51h-4l-9 -5h-4q-16 9 -30 -12q-136 -127 -224 -280q-4 -4 -4 -21z" />
    <glyph glyph-name="Odieresis" unicode="&#xd6;" horiz-adv-x="1658" 
d="M1462 1554q3 -32 -23.5 -55t-60.5 -20q-45 7 -63 47q-10 49 20 76q20 26 47 20q45 -12 72 -47q8 -16 8 -21zM1169 1622q5 -2 17 -4t18 -4q32 -12 40.5 -40t-11.5 -54q-25 -45 -72 -45q-23 0 -41 12q-36 27 -30 76q7 32 25.5 43.5t53.5 11.5v4zM887 1366q-27 23 -71 35
t-76 14t-81 2q-263 0 -440 -166q-28 -24 -22 -59q0 -23 18 -31q17 0 33 -33q5 -16 -8 -16q-25 0 -39 4q-33 25 -41 45q-47 65 -23 142q13 65 183 151l8 4q86 34 202 47q80 6 166 0q161 -21 246 -106q6 -9 17 -12.5t20 -0.5q86 18 119 21q119 7 194 -12q207 -51 258 -246
q51 -187 -12 -377q-58 -196 -190 -362q-74 -91 -169.5 -182.5t-211.5 -180t-244 -144t-238 -55.5q-109 0 -198 66t-123 170q-17 68 -4 139q5 120 71 254q10 25 0 47q-30 50 -30 140q0 108 47 186q73 171 244 306.5t364 199.5q26 6 31 10zM1022 1294q4 -12 15 -31t14 -28
q31 -81 26 -145q-7 -111 -55 -185q-43 -75 -93 -145t-113 -141t-137.5 -123.5t-148.5 -73.5q-52 -19 -100 -19q-28 0 -59 7q-32 16 -47 16q-53 -94 -64 -190q-22 -95 -8 -156q9 -64 44 -106t91 -52q21 -8 49 -8q236 0 590 334q323 286 432 618q49 148 33 275q-7 39 -23 68.5
t-36.5 47.5t-51 30.5t-59.5 18t-68 9.5q-106 5 -231 -21zM350 473q64 0 101 16q96 34 200.5 121.5t184.5 184.5q6 8 23 26.5t24 28.5q91 152 96 287q5 48 -16 123q-6 15 -10.5 16.5t-24.5 -4.5q-2 -2 -11.5 -4t-13.5 -4q-287 -91 -469 -306q-77 -98 -112 -173t-35 -175l4 -8
v-6q12 12 16 20q68 117 193 220l41 30q22 11 34 11q34 0 58 -35q8 -27 -8 -51h-4l-9 -5h-4q-16 9 -30 -12q-136 -127 -224 -280q-4 -4 -4 -21z" />
    <glyph glyph-name="multiply" unicode="&#xd7;" horiz-adv-x="761" 
d="M336 559q70 74 145 148q1 1 5.5 4.5t5.5 5.5l24 18l10 10q27 15 56 3q1 -1 4.5 -3.5t5.5 -3.5t5 -4t5 -4.5t4.5 -4.5t4 -6t3 -7t2 -8t0.5 -9q0 -18 -6 -24q-15 -17 -39 -37q-76 -66 -178 -168q51 -61 129 -139q38 -44 66 -68q35 -33 2 -80q-18 -21 -45 -2q-50 35 -64 49
q-59 54 -162 166q-65 -69 -94 -106q-40 -40 -63 -72q-17 -20 -41 -20q-18 0 -39 14q-24 17 -4 45q29 52 98 129l76 84q-82 94 -125 147q-8 9 -37 48q-13 24 2 55q22 35 49 33q18 0 25 -11q7 -6 13 -13t12.5 -16t9.5 -12q78 -102 121 -151l4 4l6 6l2 4z" />
    <glyph glyph-name="Oslash" unicode="&#xd8;" horiz-adv-x="1658" 
d="M887 1366q-27 23 -71 35t-76 14t-81 2q-263 0 -440 -166q-28 -24 -22 -59q0 -23 18 -31q17 0 33 -33q5 -16 -8 -16q-25 0 -39 4q-33 25 -41 45q-47 65 -23 142q13 65 183 151l8 4q86 34 202 47q80 6 166 0q161 -21 246 -106q6 -9 17 -12.5t20 -0.5q86 18 119 21
q90 7 157 -4q10 14 31 41t31 41q19 22 39 22q30 0 39.5 -34.5t-19.5 -86.5q-2 -3 -5 -8t-5 -8q142 -62 184 -221q51 -187 -12 -377q-58 -196 -190 -362q-68 -84 -153 -167.5t-185.5 -164t-212 -139t-211.5 -78.5q-87 -18 -150 -8q-6 -11 -19.5 -32.5t-15.5 -25.5
q0 -1 -2.5 -10t-7.5 -18q-41 -41 -65 -41q-21 0 -37 28q-24 40 0 78q5 6 14 25l19 37q-116 63 -158 190q-17 68 -4 139q5 120 71 254q10 25 0 47q-30 50 -30 140q0 108 47 186q73 171 244 306.5t364 199.5q26 6 31 10zM1022 1294q4 -12 15 -31t14 -28q23 -58 26 -109
q58 99 119 189q-74 0 -174 -21zM477 -82q241 38 549 330q323 286 432 618q49 148 33 275q-18 115 -123 151q-24 10 -45 13q-167 -251 -444 -732q-145 -250 -371 -606q-5 -8 -15.5 -24.5t-15.5 -24.5zM350 473q64 0 101 16q96 34 200.5 121.5t184.5 184.5q6 8 23 26.5
t24 28.5q91 152 96 287q5 48 -16 123q-6 15 -10.5 16.5t-24.5 -4.5q-2 -2 -11.5 -4t-13.5 -4q-287 -91 -469 -306q-77 -98 -112 -173t-35 -175l4 -8v-6q12 12 16 20q68 117 193 220l41 30q22 11 34 11q34 0 58 -35q8 -27 -8 -51h-4l-9 -5h-4q-16 9 -30 -12
q-136 -127 -224 -280q-4 -4 -4 -21zM346 -63q49 82 154 246t155 249q9 16 29 46.5t29 45.5q-99 -77 -183 -102q-52 -19 -100 -19q-28 0 -59 7q-32 16 -47 16q-53 -94 -64 -190q-22 -95 -8 -156q15 -104 94 -143z" />
    <glyph glyph-name="Ugrave" unicode="&#xd9;" horiz-adv-x="1841" 
d="M1608 1610q30 4 47 -21q3 -4 38.5 -55.5t55.5 -75.5q21 -26 -4 -51q-26 -23 -51 -4q-55 44 -115 90q-3 3 -12.5 8.5t-12.5 11.5q-16 21 -4 48q15 32 58 49zM1425 512q-2 -4 -10 -12l-20 -23q-2 -2 -5.5 -6t-5.5 -6q-26 -28 -130.5 -143.5t-161.5 -174.5
q-231 -231 -328 -231q-33 0 -58.5 22.5t-35.5 61.5q-10 42 4 102q39 161 194 363q141 202 207 293q133 177 187 303q55 105 71 207q9 55 -9 80.5t-75 37.5q-30 9 -63 9q-23 0 -90 -13q-168 -39 -356.5 -161.5t-338.5 -286.5t-211 -318q-23 -62 -16 -163v-9q9 -41 26 -53
t58 -6q13 1 26.5 4t29 8t25 9t28.5 11.5t26 10.5q221 112 369 320q92 133 127 213l4 6v2q10 14 29 8q33 -17 39 -59q0 -16 -9 -39q-5 -32 -20 -62q-139 -316 -432 -463q-117 -57 -224 -57q-25 0 -43 12q-126 58 -143 187q-4 25 4 71q22 130 82 236t164 221q71 77 163 154
t201 149.5t227.5 118t217.5 45.5q35 0 65 -6q159 -40 195 -199q23 -67 -4 -145q-29 -132 -99 -254t-184 -275q-40 -59 -118 -165t-111 -154q-21 -29 -51 -76l-49 -78q-18 -37 -43 -110q-5 -10 -5 -33q47 19 56 24q83 54 112 82q29 25 57.5 51.5t63.5 62t51.5 52t60.5 63
t52 54.5q58 64 120.5 138t138 168t116.5 143q106 131 328 385l36 36q16 16 35 0q28 -15 34 -45.5t-13 -58.5q-182 -254 -406 -614q-110 -177 -233 -441q-1 -4 -8 -20t-9 -25q-18 -40 0 -67l4 -4q0 -4 1 -11t1 -10.5t-2 -5.5q-17 -17 -34 -4q-30 12 -41 47q-12 29 -4 88
q26 123 67 213q13 28 28.5 59.5t36 71t31.5 61.5q0 1 9 19q-5 0 -9 4z" />
    <glyph glyph-name="Uacute" unicode="&#xda;" horiz-adv-x="1841" 
d="M1737 1612q41 -17 57 -49q11 -27 -4 -47q-3 -6 -12.5 -12t-12.5 -9q-26 -20 -114 -90q-26 -19 -52 4q-25 25 -4 51q15 18 30.5 40t35 50t29.5 41q17 25 47 21zM1425 512q-2 -4 -10 -12l-20 -23q-2 -2 -5.5 -6t-5.5 -6q-26 -28 -130.5 -143.5t-161.5 -174.5
q-231 -231 -328 -231q-33 0 -58.5 22.5t-35.5 61.5q-10 42 4 102q39 161 194 363q141 202 207 293q133 177 187 303q55 105 71 207q9 55 -9 80.5t-75 37.5q-30 9 -63 9q-23 0 -90 -13q-168 -39 -356.5 -161.5t-338.5 -286.5t-211 -318q-23 -62 -16 -163v-9q9 -41 26 -53
t58 -6q13 1 26.5 4t29 8t25 9t28.5 11.5t26 10.5q221 112 369 320q92 133 127 213l4 6v2q10 14 29 8q33 -17 39 -59q0 -16 -9 -39q-5 -32 -20 -62q-139 -316 -432 -463q-117 -57 -224 -57q-25 0 -43 12q-126 58 -143 187q-4 25 4 71q22 130 82 236t164 221q71 77 163 154
t201 149.5t227.5 118t217.5 45.5q35 0 65 -6q159 -40 195 -199q23 -67 -4 -145q-29 -132 -99 -254t-184 -275q-40 -59 -118 -165t-111 -154q-21 -29 -51 -76l-49 -78q-18 -37 -43 -110q-5 -10 -5 -33q47 19 56 24q83 54 112 82q29 25 57.5 51.5t63.5 62t51.5 52t60.5 63
t52 54.5q58 64 120.5 138t138 168t116.5 143q106 131 328 385l36 36q16 16 35 0q28 -15 34 -45.5t-13 -58.5q-182 -254 -406 -614q-110 -177 -233 -441q-1 -4 -8 -20t-9 -25q-18 -40 0 -67l4 -4q0 -4 1 -11t1 -10.5t-2 -5.5q-17 -17 -34 -4q-30 12 -41 47q-12 29 -4 88
q26 123 67 213q13 28 28.5 59.5t36 71t31.5 61.5q0 1 9 19q-5 0 -9 4z" />
    <glyph glyph-name="Ucircumflex" unicode="&#xdb;" horiz-adv-x="1841" 
d="M1741 1530q-2 -2 -8.5 -5.5t-11.5 -8t-9 -9.5l-92 -92q-18 -26 -47 -12q-34 22 -12 59q75 90 135 131q22 19 45 19q15 0 35 -10q50 -21 43 -78q-5 -45 -19 -101q-6 -23 -28 -16q-42 17 -35 63q2 9 5 27.5t5 28.5q0 4 -6 4zM1425 512q-2 -4 -10 -12l-20 -23q-2 -2 -5.5 -6
t-5.5 -6q-26 -28 -130.5 -143.5t-161.5 -174.5q-231 -231 -328 -231q-33 0 -58.5 22.5t-35.5 61.5q-10 42 4 102q39 161 194 363q141 202 207 293q133 177 187 303q55 105 71 207q9 55 -9 80.5t-75 37.5q-30 9 -63 9q-23 0 -90 -13q-168 -39 -356.5 -161.5t-338.5 -286.5
t-211 -318q-23 -62 -16 -163v-9q9 -41 26 -53t58 -6q13 1 26.5 4t29 8t25 9t28.5 11.5t26 10.5q221 112 369 320q92 133 127 213l4 6v2q10 14 29 8q33 -17 39 -59q0 -16 -9 -39q-5 -32 -20 -62q-139 -316 -432 -463q-117 -57 -224 -57q-25 0 -43 12q-126 58 -143 187
q-4 25 4 71q22 130 82 236t164 221q71 77 163 154t201 149.5t227.5 118t217.5 45.5q35 0 65 -6q159 -40 195 -199q23 -67 -4 -145q-29 -132 -99 -254t-184 -275q-40 -59 -118 -165t-111 -154q-21 -29 -51 -76l-49 -78q-18 -37 -43 -110q-5 -10 -5 -33q47 19 56 24
q83 54 112 82q29 25 57.5 51.5t63.5 62t51.5 52t60.5 63t52 54.5q58 64 120.5 138t138 168t116.5 143q106 131 328 385l36 36q16 16 35 0q28 -15 34 -45.5t-13 -58.5q-182 -254 -406 -614q-110 -177 -233 -441q-1 -4 -8 -20t-9 -25q-18 -40 0 -67l4 -4q0 -4 1 -11t1 -10.5
t-2 -5.5q-17 -17 -34 -4q-30 12 -41 47q-12 29 -4 88q26 123 67 213q13 28 28.5 59.5t36 71t31.5 61.5q0 1 9 19q-5 0 -9 4z" />
    <glyph glyph-name="Udieresis" unicode="&#xdc;" horiz-adv-x="1841" 
d="M1870 1491q3 -32 -23.5 -55.5t-60.5 -20.5q-46 7 -64 47q-10 48 21 76q20 27 47 21q44 -12 72 -48q8 -16 8 -20zM1577 1559q5 -2 17 -4.5t18 -4.5q32 -12 40 -40t-12 -54q-25 -45 -71 -45q-23 0 -41 12q-37 27 -31 76q7 32 26 43.5t54 11.5v5zM1425 512q-2 -4 -10 -12
l-20 -23q-2 -2 -5.5 -6t-5.5 -6q-26 -28 -130.5 -143.5t-161.5 -174.5q-231 -231 -328 -231q-33 0 -58.5 22.5t-35.5 61.5q-10 42 4 102q39 161 194 363q141 202 207 293q133 177 187 303q55 105 71 207q9 55 -9 80.5t-75 37.5q-30 9 -63 9q-23 0 -90 -13
q-168 -39 -356.5 -161.5t-338.5 -286.5t-211 -318q-23 -62 -16 -163v-9q9 -41 26 -53t58 -6q13 1 26.5 4t29 8t25 9t28.5 11.5t26 10.5q221 112 369 320q92 133 127 213l4 6v2q10 14 29 8q33 -17 39 -59q0 -16 -9 -39q-5 -32 -20 -62q-139 -316 -432 -463q-117 -57 -224 -57
q-25 0 -43 12q-126 58 -143 187q-4 25 4 71q22 130 82 236t164 221q71 77 163 154t201 149.5t227.5 118t217.5 45.5q35 0 65 -6q159 -40 195 -199q23 -67 -4 -145q-29 -132 -99 -254t-184 -275q-40 -59 -118 -165t-111 -154q-21 -29 -51 -76l-49 -78q-18 -37 -43 -110
q-5 -10 -5 -33q47 19 56 24q83 54 112 82q29 25 57.5 51.5t63.5 62t51.5 52t60.5 63t52 54.5q58 64 120.5 138t138 168t116.5 143q106 131 328 385l36 36q16 16 35 0q28 -15 34 -45.5t-13 -58.5q-182 -254 -406 -614q-110 -177 -233 -441q-1 -4 -8 -20t-9 -25q-18 -40 0 -67
l4 -4q0 -4 1 -11t1 -10.5t-2 -5.5q-17 -17 -34 -4q-30 12 -41 47q-12 29 -4 88q26 123 67 213q13 28 28.5 59.5t36 71t31.5 61.5q0 1 9 19q-5 0 -9 4z" />
    <glyph glyph-name="Yacute" unicode="&#xdd;" horiz-adv-x="1794" 
d="M1657 1618q41 -17 57 -49q11 -27 -4 -47q-3 -6 -12 -12t-12 -9q-60 -46 -115 -90q-25 -19 -51 4q-25 25 -4 51q20 24 55.5 75.5t38.5 55.5q17 25 47 21zM1485 690q-19 -14 -27 -26q-168 -152 -250 -228q-66 -48 -71 -51q-42 -29 -93 -35q-63 -12 -107.5 24.5t-47.5 102.5
q0 43 16 76q41 80 60 119q61 91 84 123q117 180 139 217q47 93 59 192q0 47 -4 70q0 34 -35 57q-51 22 -96 27q-79 10 -194 -12q-277 -43 -492 -175q-249 -147 -283 -337q-13 -58 4 -103q12 -43 52 -51q67 -11 155 6q131 36 273 119.5t243 179.5q16 16 33 16q26 0 43 -32
q7 -29 0 -43q-3 -4 -9 -16t-11 -17q-6 -7 -21 -23t-22 -24q-190 -178 -389 -246q-101 -44 -203 -33q-101 12 -172 92q-101 118 -60 275q34 100 93 162q107 130 285.5 218.5t373.5 131.5q129 33 250 22q223 -19 262 -229q23 -139 -37 -287q-6 -15 -20 -42t-17 -33l-41 -78
q-5 -8 -15 -23.5t-15 -23.5l-68 -93q-67 -100 -104 -170q-5 -6 -25 -57q16 0 18.5 -0.5t16.5 3.5t16 5q17 5 33 13.5t38 21.5t30 17l165 147q63 53 134 127.5t110 120t119 141.5q63 77 183 215t157 182q2 2 6 6.5t6 6.5q18 18 33 18q16 0 31 -18q36 -42 12 -92
q-7 -13 -23 -41.5t-20 -34.5q-176 -254 -262 -385q-28 -41 -100.5 -149.5t-109.5 -164.5t-95.5 -145t-107.5 -166.5t-95 -153.5q-91 -143 -240 -432q-8 -16 -16 -28q-15 -26 -43 -15q-56 13 -68 68q-11 20 4 43q20 35 43 84q33 52 91 153t81 140q99 176 338 532q8 17 23 35
q1 1 2 3t2 3l8 13q4 4 4 6h-4q-11 -11 -16 -21z" />
    <glyph glyph-name="germandbls" unicode="&#xdf;" horiz-adv-x="1239" 
d="M1069 1255q-2 0 -8.5 1t-12.5 1t-10 -2q-44 -5 -96 -32q-83 -42 -170.5 -121.5t-159.5 -167t-146 -197.5t-125 -197.5t-101 -181.5q-168 -313 -191 -354q-35 -68 -63 -106q-14 -23 -31 -23q-12 0 -29 10q-18 12 -12 31q12 36 27 64q93 207 278 544q109 190 277 413
t299 314q75 45 123 68q40 19 88 22q67 9 109.5 -38t33.5 -107q-7 -56 -29 -96q-121 -194 -329 -373q-82 -69 -107 -96q-24 -21 -39 -51q-5 -13 -3 -19t13 -16q83 -33 211 -113q85 -45 140 -137q21 -43 16 -76q-4 -12 -4 -37q5 -42 -29 -76q-48 -57 -138 -98t-179 -58.5
t-168 -17.5q-132 0 -281 56q-38 12 -55 41q-8 16 -8 22q4 12 28 12q3 -2 11 -4t12 -4q3 -4 7 -7t7 -4.5t9.5 -3t8.5 -1.5t10 -1t9 -1q6 -1 34.5 -5.5t41.5 -6.5q64 -11 100 -11q103 0 246 41q70 24 143 64q49 32 82 76q17 21 24.5 45t-0.5 51t-34 47q-30 30 -72 55
q-8 4 -135 72q-41 21 -51 29q-24 9 -41 26q-93 75 -16 170q28 31 96 92q104 84 220.5 208t156.5 214q16 29 12 51z" />
    <glyph glyph-name="agrave" unicode="&#xe0;" 
d="M244 1012q30 4 47 -21q3 -4 38.5 -55.5t55.5 -75.5q21 -26 -4 -51q-26 -23 -51 -4q-55 44 -115 90q-3 3 -12.5 8.5t-12.5 11.5q-16 21 -4 48q15 32 58 49zM387 287q-82 -20 -128.5 30t-27.5 129q-40 -43 -104.5 -89.5t-116.5 -69.5q-41 -17 -83.5 12.5t-39.5 71.5
q0 57 37.5 133t81.5 125q62 62 144 92q49 19 110 10q29 -4 68 -43q4 4 12 4q22 19 37 19q13 0 31 -15q32 -28 14 -71q-4 -9 -16.5 -28t-18.5 -32q-31 -60 -55 -119q-7 -16 -10.5 -27t-6 -27t5.5 -22.5t27 -2.5q34 10 90 47q12 10 46.5 36t53 40.5t45.5 37.5t48 43
q24 24 56 14q30 -10 24 -41q-5 -27 -43 -59q-16 -14 -61.5 -55.5t-70.5 -62t-67 -45.5t-82 -35zM70 434q21 20 59.5 57t71.5 68t63 57q4 8 21 25v8q-22 13 -41 13q-42 -9 -103 -58q-46 -46 -95 -111.5t-60 -109.5h4q56 27 80 51z" />
    <glyph glyph-name="aacute" unicode="&#xe1;" 
d="M373 1014q41 -17 57 -49q11 -27 -4 -47q-3 -6 -12.5 -12t-12.5 -9q-26 -20 -114 -90q-25 -19 -51 4q-25 25 -5 51q15 18 30.5 40t35 50t29.5 41q17 25 47 21zM387 287q-82 -20 -128.5 30t-27.5 129q-40 -43 -104.5 -89.5t-116.5 -69.5q-41 -17 -83.5 12.5t-39.5 71.5
q0 57 37.5 133t81.5 125q62 62 144 92q49 19 110 10q29 -4 68 -43q4 4 12 4q22 19 37 19q13 0 31 -15q32 -28 14 -71q-4 -9 -16.5 -28t-18.5 -32q-31 -60 -55 -119q-7 -16 -10.5 -27t-6 -27t5.5 -22.5t27 -2.5q34 10 90 47q12 10 46.5 36t53 40.5t45.5 37.5t48 43
q24 24 56 14q30 -10 24 -41q-5 -27 -43 -59q-16 -14 -61.5 -55.5t-70.5 -62t-67 -45.5t-82 -35zM70 434q21 20 59.5 57t71.5 68t63 57q4 8 21 25v8q-22 13 -41 13q-42 -9 -103 -58q-46 -46 -95 -111.5t-60 -109.5h4q56 27 80 51z" />
    <glyph glyph-name="acircumflex" unicode="&#xe2;" 
d="M377 932q-2 -2 -8.5 -5.5t-11.5 -8t-9 -9.5l-92 -92q-18 -26 -47 -12q-34 22 -12 59q75 90 135 131q22 19 45 19q15 0 35 -10q50 -21 43 -78q-5 -45 -19 -101q-6 -23 -28 -16q-42 17 -35 63q2 9 5 27.5t5 28.5q0 4 -6 4zM387 287q-82 -20 -128.5 30t-27.5 129
q-40 -43 -104.5 -89.5t-116.5 -69.5q-41 -17 -83.5 12.5t-39.5 71.5q0 57 37.5 133t81.5 125q62 62 144 92q49 19 110 10q29 -4 68 -43q4 4 12 4q22 19 37 19q13 0 31 -15q32 -28 14 -71q-4 -9 -16.5 -28t-18.5 -32q-31 -60 -55 -119q-7 -16 -10.5 -27t-6 -27t5.5 -22.5
t27 -2.5q34 10 90 47q12 10 46.5 36t53 40.5t45.5 37.5t48 43q24 24 56 14q30 -10 24 -41q-5 -27 -43 -59q-16 -14 -61.5 -55.5t-70.5 -62t-67 -45.5t-82 -35zM70 434q21 20 59.5 57t71.5 68t63 57q4 8 21 25v8q-22 13 -41 13q-42 -9 -103 -58q-46 -46 -95 -111.5
t-60 -109.5h4q56 27 80 51z" />
    <glyph glyph-name="atilde" unicode="&#xe3;" 
d="M487 870q-18 -39 -53.5 -63.5t-71.5 -24.5q-22 0 -44 13.5t-35 33.5q-14 17 -29 17q-12 0 -33 -12q-7 -4 -18 -16t-15 -15q-21 -18 -32 0q-27 38 12 74q67 57 104 57q24 0 45 -21q3 -4 9.5 -10t7.5 -8q20 -23 47 -23q30 0 61 31q3 3 7 7.5t6 7t5.5 5.5t5.5 2.5t5 -1.5
q7 -1 11.5 -10.5t4.5 -16.5q0 -3 -1 -9.5t-1 -11t2 -6.5zM387 287q-82 -20 -128.5 30t-27.5 129q-40 -43 -104.5 -89.5t-116.5 -69.5q-41 -17 -83.5 12.5t-39.5 71.5q0 57 37.5 133t81.5 125q62 62 144 92q49 19 110 10q29 -4 68 -43q4 4 12 4q22 19 37 19q13 0 31 -15
q32 -28 14 -71q-4 -9 -16.5 -28t-18.5 -32q-31 -60 -55 -119q-7 -16 -10.5 -27t-6 -27t5.5 -22.5t27 -2.5q34 10 90 47q12 10 46.5 36t53 40.5t45.5 37.5t48 43q24 24 56 14q30 -10 24 -41q-5 -27 -43 -59q-16 -14 -61.5 -55.5t-70.5 -62t-67 -45.5t-82 -35zM70 434
q21 20 59.5 57t71.5 68t63 57q4 8 21 25v8q-22 13 -41 13q-42 -9 -103 -58q-46 -46 -95 -111.5t-60 -109.5h4q56 27 80 51z" />
    <glyph glyph-name="adieresis" unicode="&#xe4;" 
d="M506 893q3 -32 -23.5 -55.5t-60.5 -20.5q-46 7 -64 47q-10 48 21 76q20 27 47 21q44 -12 72 -48q8 -16 8 -20zM213 961q5 -2 17 -4.5t18 -4.5q32 -12 40 -40t-12 -54q-25 -45 -71 -45q-23 0 -41 12q-37 27 -31 76q7 32 26 43.5t54 11.5v5zM387 287q-82 -20 -128.5 30
t-27.5 129q-40 -43 -104.5 -89.5t-116.5 -69.5q-41 -17 -83.5 12.5t-39.5 71.5q0 57 37.5 133t81.5 125q62 62 144 92q49 19 110 10q29 -4 68 -43q4 4 12 4q22 19 37 19q13 0 31 -15q32 -28 14 -71q-4 -9 -16.5 -28t-18.5 -32q-31 -60 -55 -119q-7 -16 -10.5 -27t-6 -27
t5.5 -22.5t27 -2.5q34 10 90 47q12 10 46.5 36t53 40.5t45.5 37.5t48 43q24 24 56 14q30 -10 24 -41q-5 -27 -43 -59q-16 -14 -61.5 -55.5t-70.5 -62t-67 -45.5t-82 -35zM70 434q21 20 59.5 57t71.5 68t63 57q4 8 21 25v8q-22 13 -41 13q-42 -9 -103 -58q-46 -46 -95 -111.5
t-60 -109.5h4q56 27 80 51z" />
    <glyph glyph-name="aring" unicode="&#xe5;" 
d="M459 977v-8q-5 -48 -45.5 -95.5t-87.5 -56.5q-48 -12 -88 24t-33 87q18 89 104 131q40 18 86 4q27 -6 45.5 -31t18.5 -55zM281 877h16q60 32 88 114q3 9 -6.5 14.5t-18.5 2.5q-51 -29 -75 -84q-15 -26 -4 -47zM387 287q-82 -20 -128.5 30t-27.5 129q-40 -43 -104.5 -89.5
t-116.5 -69.5q-41 -17 -83.5 12.5t-39.5 71.5q0 57 37.5 133t81.5 125q62 62 144 92q49 19 110 10q29 -4 68 -43q4 4 12 4q22 19 37 19q13 0 31 -15q32 -28 14 -71q-4 -9 -16.5 -28t-18.5 -32q-31 -60 -55 -119q-7 -16 -10.5 -27t-6 -27t5.5 -22.5t27 -2.5q34 10 90 47
q12 10 46.5 36t53 40.5t45.5 37.5t48 43q24 24 56 14q30 -10 24 -41q-5 -27 -43 -59q-16 -14 -61.5 -55.5t-70.5 -62t-67 -45.5t-82 -35zM70 434q21 20 59.5 57t71.5 68t63 57q4 8 21 25v8q-22 13 -41 13q-42 -9 -103 -58q-46 -46 -95 -111.5t-60 -109.5h4q56 27 80 51z" />
    <glyph glyph-name="ae" unicode="&#xe6;" horiz-adv-x="1187" 
d="M387 287q-82 -20 -128.5 30t-27.5 129q-40 -43 -104.5 -89.5t-116.5 -69.5q-41 -17 -83.5 12.5t-39.5 71.5q0 57 37.5 133t81.5 125q62 62 144 92q49 19 110 10q29 -4 68 -43q4 4 12 4q22 19 37 19q13 0 31 -15q32 -28 14 -71q-4 -9 -16.5 -28t-18.5 -32
q-31 -60 -55 -119q-7 -16 -10.5 -27t-6 -27t5.5 -22.5t27 -2.5q34 10 90 47q123 96 135 106q2 3 7.5 9.5t7.5 9.5q4 2 8 6l16 16q1 1 4.5 3t4.5 3q98 78 198 99q60 14 103 -27q55 -46 24 -117q-13 -30 -49 -59q-101 -76 -221 -64q-6 0 -51 13q-26 -32 -33 -84q0 -43 39 -43
q30 -4 84 8q70 16 127 47q19 10 38 21.5t33.5 20t33.5 22t29 20.5t30 23t27 21.5t29.5 24.5t27 23t30 26t29.5 25q35 27 59 27q29 0 31 -26q2 -35 -51 -83q-68 -63 -97 -88.5t-84 -66t-110 -70.5q-75 -42 -174 -59q-41 -6 -76 0q-59 12 -94.5 51.5t-40.5 97.5
q-57 -45 -125 -63zM70 434q21 20 59.5 57t71.5 68t63 57q4 8 21 25v8q-22 13 -41 13q-42 -9 -103 -58q-46 -46 -95 -111.5t-60 -109.5h4q56 27 80 51zM870 586q-105 -18 -190 -103q64 -11 135 35q37 21 55 68z" />
    <glyph glyph-name="ccedilla" unicode="&#xe7;" horiz-adv-x="671" 
d="M631 567q29 27 58 10q27 -17 16 -50q-7 -22 -33 -42q-25 -20 -130 -108.5t-185 -146t-164 -97.5q-27 -13 -93 -29q-29 -8 -65 -4q0 -10 -6 -22q-2 -6 -8 -13.5t-7 -11.5q-6 -6 -16 -26q2 -1 5 -4.5t5 -4.5l19 -20q4 -2 10 -8q25 -26 27.5 -62.5t-19.5 -64.5
q-29 -37 -78 -37q-23 0 -49 12t-39 29q-12 12 -12 29q-3 13 6.5 18.5t20.5 -0.5h6l8 -6h6q17 -10 33 -10t29.5 8.5t17.5 23.5q11 27 -17 33q-22 7 -34 17q-26 11 -32.5 32t11.5 45q7 8 22.5 31t24.5 33q-46 22 -78 62t-38 85q-18 137 108 299q37 48 109 99.5t127 64.5
q67 17 108.5 -27.5t22.5 -109.5q-9 -38 -74.5 -113t-91.5 -75q-17 0 -33 16q-32 40 0 72q20 20 23 24l49 43q50 54 55 84q-92 -11 -193 -120q-93 -100 -122 -200q-30 -105 41 -131q14 -4 30 -6q59 -5 149.5 36.5t184 109.5t162.5 125t123 108z" />
    <glyph glyph-name="egrave" unicode="&#xe8;" horiz-adv-x="520" 
d="M133 948q31 5 47 -20q3 -4 38.5 -55.5t55.5 -75.5q21 -27 -4 -52q-26 -23 -51 -4q-55 44 -115 90q-3 3 -12 9t-12 12q-15 20 -4 47q16 32 57 49zM481 567q35 27 60 27q29 0 30 -26q2 -35 -51 -83q-68 -63 -97 -88.5t-84 -66t-110 -70.5q-75 -42 -174 -59q-40 -6 -75 0
q-66 13 -102.5 61.5t-33.5 114.5q0 4 2 19t2 24q33 72 72 119q1 1 4 3t4 3l17 16q4 4 8 6q97 78 199 99q59 13 102 -27q56 -47 25 -117q-13 -29 -50 -59q-101 -76 -221 -64q-5 0 -51 13q-26 -32 -33 -84q0 -43 39 -43q30 -4 84 8q70 16 127 47q19 10 38 21.5t33.5 20
t33.5 22t29 20.5t30 23t27 21.5t29.5 24.5t27 23t30 26t29.5 25zM203 586q-107 -19 -191 -103q64 -11 135 35q38 21 56 68z" />
    <glyph glyph-name="eacute" unicode="&#xe9;" horiz-adv-x="520" 
d="M262 950q41 -17 57 -49q11 -27 -4 -47q-3 -6 -12 -11.5t-12 -8.5q-17 -14 -115 -91q-25 -18 -51 5q-25 25 -4 51q20 24 55.5 75.5t38.5 55.5q16 25 47 20zM481 567q35 27 60 27q29 0 30 -26q2 -35 -51 -83q-68 -63 -97 -88.5t-84 -66t-110 -70.5q-75 -42 -174 -59
q-40 -6 -75 0q-66 13 -102.5 61.5t-33.5 114.5q0 4 2 19t2 24q33 72 72 119q1 1 4 3t4 3l17 16q4 4 8 6q97 78 199 99q59 13 102 -27q56 -47 25 -117q-13 -29 -50 -59q-101 -76 -221 -64q-5 0 -51 13q-26 -32 -33 -84q0 -43 39 -43q30 -4 84 8q70 16 127 47q19 10 38 21.5
t33.5 20t33.5 22t29 20.5t30 23t27 21.5t29.5 24.5t27 23t30 26t29.5 25zM203 586q-107 -19 -191 -103q64 -11 135 35q38 21 56 68z" />
    <glyph glyph-name="ecircumflex" unicode="&#xea;" horiz-adv-x="520" 
d="M266 868q-2 -2 -8.5 -5.5t-11 -7.5t-8.5 -9q-17 -16 -47 -45.5t-46 -46.5q-19 -27 -47 -13q-35 22 -12 60q75 90 135 131q21 18 45 18q15 0 35 -10q50 -21 43 -78q-6 -52 -18 -100q-6 -25 -29 -17q-42 17 -35 64q2 9 5 27t5 28q0 4 -6 4zM481 567q35 27 60 27
q29 0 30 -26q2 -35 -51 -83q-68 -63 -97 -88.5t-84 -66t-110 -70.5q-75 -42 -174 -59q-40 -6 -75 0q-66 13 -102.5 61.5t-33.5 114.5q0 4 2 19t2 24q33 72 72 119q1 1 4 3t4 3l17 16q4 4 8 6q97 78 199 99q59 13 102 -27q56 -47 25 -117q-13 -29 -50 -59q-101 -76 -221 -64
q-5 0 -51 13q-26 -32 -33 -84q0 -43 39 -43q30 -4 84 8q70 16 127 47q19 10 38 21.5t33.5 20t33.5 22t29 20.5t30 23t27 21.5t29.5 24.5t27 23t30 26t29.5 25zM203 586q-107 -19 -191 -103q64 -11 135 35q38 21 56 68z" />
    <glyph glyph-name="edieresis" unicode="&#xeb;" horiz-adv-x="520" 
d="M395 829q3 -32 -23.5 -55t-60.5 -20q-45 7 -63 47q-10 49 20 76q20 26 47 20q45 -12 72 -47q8 -16 8 -21zM102 897q5 -2 17 -4t18 -4q32 -12 40.5 -40t-11.5 -54q-25 -45 -72 -45q-23 0 -41 12q-36 27 -30 76q7 32 25.5 43.5t53.5 11.5v4zM481 567q35 27 60 27
q29 0 30 -26q2 -35 -51 -83q-68 -63 -97 -88.5t-84 -66t-110 -70.5q-75 -42 -174 -59q-40 -6 -75 0q-66 13 -102.5 61.5t-33.5 114.5q0 4 2 19t2 24q33 72 72 119q1 1 4 3t4 3l17 16q4 4 8 6q97 78 199 99q59 13 102 -27q56 -47 25 -117q-13 -29 -50 -59q-101 -76 -221 -64
q-5 0 -51 13q-26 -32 -33 -84q0 -43 39 -43q30 -4 84 8q70 16 127 47q19 10 38 21.5t33.5 20t33.5 22t29 20.5t30 23t27 21.5t29.5 24.5t27 23t30 26t29.5 25zM203 586q-107 -19 -191 -103q64 -11 135 35q38 21 56 68z" />
    <glyph glyph-name="igrave" unicode="&#xec;" horiz-adv-x="403" 
d="M109 971q30 4 47 -21q3 -4 38.5 -55.5t55.5 -75.5q21 -26 -4 -51q-26 -23 -51 -4q-55 44 -115 90q-3 3 -12.5 8.5t-12.5 11.5q-16 21 -4 48q15 32 58 49zM362 567q17 17 33 17q17 0 26.5 -17t5 -41t-23.5 -41q-85 -74 -199.5 -148.5t-180.5 -74.5q-42 0 -76.5 26.5
t-46.5 71.5q-6 21 -6.5 42t4.5 41.5t12 40t20 40t24.5 37.5t28.5 37.5t29.5 34.5t30.5 33q30 30 33 32q16 19 28 19t27 -12q20 -15 26 -36t-5 -34q-20 -25 -41 -53q-82 -99 -111 -150q-26 -54 -18 -70q3 -8 18 -8q48 0 177 81.5t185 131.5z" />
    <glyph glyph-name="iacute" unicode="&#xed;" horiz-adv-x="403" 
d="M238 973q41 -17 57 -49q11 -27 -4 -47q-3 -6 -12.5 -12t-12.5 -9q-26 -20 -114 -90q-26 -19 -52 4q-25 25 -4 51q20 24 55.5 75.5t38.5 55.5q17 26 48 21zM362 567q17 17 33 17q17 0 26.5 -17t5 -41t-23.5 -41q-85 -74 -199.5 -148.5t-180.5 -74.5q-42 0 -76.5 26.5
t-46.5 71.5q-6 21 -6.5 42t4.5 41.5t12 40t20 40t24.5 37.5t28.5 37.5t29.5 34.5t30.5 33q30 30 33 32q16 19 28 19t27 -12q20 -15 26 -36t-5 -34q-20 -25 -41 -53q-82 -99 -111 -150q-26 -54 -18 -70q3 -8 18 -8q48 0 177 81.5t185 131.5z" />
    <glyph glyph-name="icircumflex" unicode="&#xee;" horiz-adv-x="403" 
d="M242 891q-2 -2 -8.5 -5.5t-11.5 -8t-9 -9.5l-92 -92q-18 -26 -47 -12q-35 23 -13 59q74 88 136 131q22 19 45 19q14 0 34 -10q50 -21 43 -78q-6 -54 -18 -101q-6 -24 -29 -16q-41 17 -34 63q2 9 5 27.5t5 28.5q0 4 -6 4zM362 567q17 17 33 17q17 0 26.5 -17t5 -41
t-23.5 -41q-85 -74 -199.5 -148.5t-180.5 -74.5q-42 0 -76.5 26.5t-46.5 71.5q-6 21 -6.5 42t4.5 41.5t12 40t20 40t24.5 37.5t28.5 37.5t29.5 34.5t30.5 33q30 30 33 32q16 19 28 19t27 -12q20 -15 26 -36t-5 -34q-20 -25 -41 -53q-82 -99 -111 -150q-26 -54 -18 -70
q3 -8 18 -8q48 0 177 81.5t185 131.5z" />
    <glyph glyph-name="idieresis" unicode="&#xef;" horiz-adv-x="403" 
d="M371 852q3 -32 -23.5 -55.5t-60.5 -20.5q-46 7 -64 47q-10 48 21 76q20 27 47 21q43 -12 71 -48q9 -18 9 -20zM78 920q5 -2 17 -4.5t18 -4.5q32 -12 40 -40t-12 -54q-25 -45 -71 -45q-23 0 -41 12q-37 27 -31 76q7 32 26 43.5t54 11.5v5zM362 567q17 17 33 17
q17 0 26.5 -17t5 -41t-23.5 -41q-85 -74 -199.5 -148.5t-180.5 -74.5q-42 0 -76.5 26.5t-46.5 71.5q-6 21 -6.5 42t4.5 41.5t12 40t20 40t24.5 37.5t28.5 37.5t29.5 34.5t30.5 33q30 30 33 32q16 19 28 19t27 -12q20 -15 26 -36t-5 -34q-20 -25 -41 -53q-82 -99 -111 -150
q-26 -54 -18 -70q3 -8 18 -8q48 0 177 81.5t185 131.5z" />
    <glyph glyph-name="ntilde" unicode="&#xf1;" horiz-adv-x="831" 
d="M526 815q-18 -39 -53.5 -63.5t-71.5 -24.5q-22 0 -44 13.5t-35 33.5q-14 17 -29 17q-10 0 -33 -13q-7 -4 -18 -15.5t-15 -14.5q-21 -18 -32 0q-27 37 12 73q68 58 104 58q24 0 45 -21q3 -4 9.5 -10t7.5 -8q20 -23 47 -23q30 0 61 31l5 5l5 5t4 4.5t4 4t4 2.5t3.5 0.5
t3.5 -1.5q7 -1 11.5 -10t4.5 -16q0 -3 -1 -9.5t-1 -11t2 -6.5zM791 567q35 33 60 13q23 -19 9 -56q-8 -21 -29 -39q-15 -13 -64 -57t-73.5 -64t-67.5 -51t-84 -49t-85 -28q-77 -18 -135 43q-50 58 -19 131q6 17 14.5 33t21.5 37.5t19 33.5q6 11 12.5 22t11.5 18.5t9.5 15
t7 12t4 8t1 5t-2.5 1.5q-19 0 -186 -107q-45 -33 -127.5 -97t-110.5 -85q-2 -1 -5 -3t-5 -3l-18 -16q-1 -1 -4 -3t-4 -3q-18 -11 -33 -11q-19 0 -35.5 13t-22.5 34l-3 21q-3 20 1 26q110 228 201 302q3 12 19 12q47 -6 59 -47q13 -26 -8 -51q-36 -51 -47 -64q24 5 37 18
q77 56 153 105q53 29 109 47q53 19 90.5 -15t27.5 -91q-1 -13 -6 -27.5t-9 -23.5t-13 -26.5t-12 -23.5q-93 -140 -74 -153q18 -11 37 -11q23 0 52.5 10.5t63 31.5t61.5 40.5t64.5 50.5t55 47t49.5 44.5t33 29.5z" />
    <glyph glyph-name="ograve" unicode="&#xf2;" horiz-adv-x="524" 
d="M133 981q31 5 47 -20q6 -8 40.5 -58t53.5 -74q21 -26 -4 -51q-26 -23 -51 -4q-55 44 -115 90q-3 3 -12 9t-12 12q-15 20 -4 47q16 32 57 49zM483 567q33 29 56 29q19 0 25 -19t-5 -45.5t-35 -46.5q-59 -51 -133 -51q-44 0 -82.5 19t-58.5 45q-1 -3 -17 -35
q-51 -92 -121 -158t-157 -74q-51 -3 -83.5 25.5t-35.5 79.5v22q2 32 34.5 91t87.5 120t110 88q69 35 94 39q51 5 80 -34q5 -11 14 -36.5t16 -39.5q35 -72 101 -72q52 0 110 53zM154 506q21 33 20 43.5t-29 44.5q-70 -38 -140 -120t-89 -146q20 -10 39 0q120 50 199 178z" />
    <glyph glyph-name="oacute" unicode="&#xf3;" horiz-adv-x="524" 
d="M262 983q41 -17 57 -49q11 -27 -4 -47q-3 -6 -12 -12t-12 -9q-60 -46 -115 -90q-25 -19 -51 4q-25 25 -4 51q19 24 53.5 74t40.5 58q16 25 47 20zM483 567q33 29 56 29q19 0 25 -19t-5 -45.5t-35 -46.5q-59 -51 -133 -51q-44 0 -82.5 19t-58.5 45q-1 -3 -17 -35
q-51 -92 -121 -158t-157 -74q-51 -3 -83.5 25.5t-35.5 79.5v22q2 32 34.5 91t87.5 120t110 88q69 35 94 39q51 5 80 -34q5 -11 14 -36.5t16 -39.5q35 -72 101 -72q52 0 110 53zM154 506q21 33 20 43.5t-29 44.5q-70 -38 -140 -120t-89 -146q20 -10 39 0q120 50 199 178z" />
    <glyph glyph-name="ocircumflex" unicode="&#xf4;" horiz-adv-x="524" 
d="M266 901q-2 -2 -8.5 -5.5t-11 -7.5t-8.5 -9l-93 -93q-18 -26 -47 -12q-35 22 -12 60q75 90 135 131q21 18 45 18q15 0 35 -10q50 -21 43 -78q-6 -52 -18 -100q-6 -25 -29 -17q-42 17 -35 64q2 9 5 27t5 28q0 4 -6 4zM483 567q33 29 56 29q19 0 25 -19t-5 -45.5t-35 -46.5
q-59 -51 -133 -51q-44 0 -82.5 19t-58.5 45q-1 -3 -17 -35q-51 -92 -121 -158t-157 -74q-51 -3 -83.5 25.5t-35.5 79.5v22q2 32 34.5 91t87.5 120t110 88q69 35 94 39q51 5 80 -34q5 -11 14 -36.5t16 -39.5q35 -72 101 -72q52 0 110 53zM154 506q21 33 20 43.5t-29 44.5
q-70 -38 -140 -120t-89 -146q20 -10 39 0q120 50 199 178z" />
    <glyph glyph-name="otilde" unicode="&#xf5;" horiz-adv-x="524" 
d="M377 840q-18 -39 -53.5 -63.5t-71.5 -24.5q-22 0 -45 13.5t-35 33.5q-13 16 -29 16q-11 0 -32 -12q-7 -4 -18 -16t-15 -15q-22 -19 -33 0q-27 38 12 74q67 57 105 57q25 0 45 -20q3 -4 9 -10.5t7 -8.5q19 -22 47 -22q32 0 62 30q3 3 10 11.5t10.5 10.5t7.5 -1
q7 -1 12 -10.5t5 -16.5q0 -3 -1 -9t-1 -10.5t2 -6.5zM483 567q33 29 56 29q19 0 25 -19t-5 -45.5t-35 -46.5q-59 -51 -133 -51q-44 0 -82.5 19t-58.5 45q-1 -3 -17 -35q-51 -92 -121 -158t-157 -74q-51 -3 -83.5 25.5t-35.5 79.5v22q2 32 34.5 91t87.5 120t110 88
q69 35 94 39q51 5 80 -34q5 -11 14 -36.5t16 -39.5q35 -72 101 -72q52 0 110 53zM154 506q21 33 20 43.5t-29 44.5q-70 -38 -140 -120t-89 -146q20 -10 39 0q120 50 199 178z" />
    <glyph glyph-name="odieresis" unicode="&#xf6;" horiz-adv-x="524" 
d="M395 862q3 -32 -23.5 -55.5t-60.5 -20.5q-45 7 -63 48q-10 48 20 75q20 27 47 21q45 -12 72 -47q8 -16 8 -21zM102 930q5 -2 17 -4t18 -4q32 -12 40.5 -40.5t-11.5 -54.5q-25 -45 -72 -45q-22 0 -41 13q-36 27 -30 75q7 32 26 44t53 12v4zM483 567q33 29 56 29
q19 0 25 -19t-5 -45.5t-35 -46.5q-59 -51 -133 -51q-44 0 -82.5 19t-58.5 45q-1 -3 -17 -35q-51 -92 -121 -158t-157 -74q-51 -3 -83.5 25.5t-35.5 79.5v22q2 32 34.5 91t87.5 120t110 88q69 35 94 39q51 5 80 -34q5 -11 14 -36.5t16 -39.5q35 -72 101 -72q52 0 110 53z
M154 506q21 33 20 43.5t-29 44.5q-70 -38 -140 -120t-89 -146q20 -10 39 0q120 50 199 178z" />
    <glyph glyph-name="oslash" unicode="&#xf8;" horiz-adv-x="524" 
d="M483 567q33 29 56 29q19 0 25 -19t-5 -45.5t-35 -46.5q-59 -51 -133 -51q-44 0 -82.5 19t-58.5 45q-1 -3 -17 -35q-51 -92 -121 -158t-157 -74q-37 -57 -76 -114q-34 -50 -59 -88q0 -7 -6 -15q-26 -26 -45 -26q-10 0 -25 10q-20 17 -8 35q7 10 17.5 28t13.5 23
q83 128 110 168q-38 27 -41 84v22q2 32 34.5 91t87.5 120t110 88q69 35 94 39q77 117 139 193q11 14 31 14q21 0 29 -15t-9 -40q-8 -11 -53 -74.5t-66 -97.5q3 -8 9 -14q5 -11 14 -36.5t16 -39.5q35 -72 101 -72q52 0 110 53zM154 506q18 25 20 35t-8 26q-2 -3 -113 -180
q54 46 101 119zM-84 328q2 -2 6 -2l12 18q19 28 57.5 88t59.5 90q-48 -45 -85.5 -98.5t-49.5 -95.5z" />
    <glyph glyph-name="ugrave" unicode="&#xf9;" horiz-adv-x="778" 
d="M276 967q31 5 48 -21q3 -4 38.5 -55.5t55.5 -75.5q21 -26 -4 -51q-26 -23 -52 -4q-88 70 -114 90q-3 3 -12.5 8.5t-12.5 11.5q-16 21 -4 48q16 32 57 49zM737 567q42 35 61 6q16 -26 0 -62q-8 -16 -20 -26q-7 -6 -53 -47t-71.5 -60.5t-69.5 -51.5t-84.5 -49.5
t-79.5 -24.5q-53 -8 -99.5 31.5t-39.5 95.5q4 35 8 53q-7 -6 -18.5 -15.5t-20.5 -17t-17 -12.5q-145 -122 -231 -154q-46 -18 -92.5 16.5t-46.5 82.5q0 67 45 150.5t102 148.5q25 31 64.5 71.5t56.5 40.5t35 -18q20 -20 20.5 -37.5t-16.5 -42.5l-8 -8t-8 -10
q-83 -79 -179 -244q-24 -36 -24 -68q22 4 43 21q182 122 405 321q4 4 11.5 10.5t12.5 12t9 10.5q3 2 10 8t12.5 8.5t12.5 2.5q3 -1 12 -2.5t14.5 -3t12.5 -5t12 -8.5q22 -22 20.5 -47t-26.5 -45q-38 -33 -94 -109q-99 -135 -43 -151q10 -3 24 -2q28 2 63 18.5t75.5 46.5
t69.5 54t72.5 62t57.5 50z" />
    <glyph glyph-name="uacute" unicode="&#xfa;" horiz-adv-x="778" 
d="M406 969q41 -17 57 -49q12 -27 -4 -48q-3 -6 -12.5 -11.5t-12.5 -8.5q-60 -46 -115 -90q-25 -19 -51 4q-25 25 -4 51q20 24 55.5 75.5t38.5 55.5q17 26 48 21zM737 567q42 35 61 6q16 -26 0 -62q-8 -16 -20 -26q-7 -6 -53 -47t-71.5 -60.5t-69.5 -51.5t-84.5 -49.5
t-79.5 -24.5q-53 -8 -99.5 31.5t-39.5 95.5q4 35 8 53q-7 -6 -18.5 -15.5t-20.5 -17t-17 -12.5q-145 -122 -231 -154q-46 -18 -92.5 16.5t-46.5 82.5q0 67 45 150.5t102 148.5q25 31 64.5 71.5t56.5 40.5t35 -18q20 -20 20.5 -37.5t-16.5 -42.5l-8 -8t-8 -10
q-83 -79 -179 -244q-24 -36 -24 -68q22 4 43 21q182 122 405 321q4 4 11.5 10.5t12.5 12t9 10.5q3 2 10 8t12.5 8.5t12.5 2.5q3 -1 12 -2.5t14.5 -3t12.5 -5t12 -8.5q22 -22 20.5 -47t-26.5 -45q-38 -33 -94 -109q-99 -135 -43 -151q10 -3 24 -2q28 2 63 18.5t75.5 46.5
t69.5 54t72.5 62t57.5 50z" />
    <glyph glyph-name="ucircumflex" unicode="&#xfb;" horiz-adv-x="778" 
d="M410 887q-2 -2 -8.5 -5.5t-11.5 -8t-9 -9.5l-92 -92q-18 -26 -47 -12q-35 23 -13 59q74 88 136 131q22 19 45 19q12 0 34 -11q49 -21 43 -77q-6 -54 -18 -101q-6 -24 -29 -16q-41 17 -34 63q2 9 5 27.5t5 28.5q0 4 -6 4zM737 567q42 35 61 6q16 -26 0 -62q-8 -16 -20 -26
q-7 -6 -53 -47t-71.5 -60.5t-69.5 -51.5t-84.5 -49.5t-79.5 -24.5q-53 -8 -99.5 31.5t-39.5 95.5q4 35 8 53q-7 -6 -18.5 -15.5t-20.5 -17t-17 -12.5q-145 -122 -231 -154q-46 -18 -92.5 16.5t-46.5 82.5q0 67 45 150.5t102 148.5q25 31 64.5 71.5t56.5 40.5t35 -18
q20 -20 20.5 -37.5t-16.5 -42.5l-8 -8t-8 -10q-83 -79 -179 -244q-24 -36 -24 -68q22 4 43 21q182 122 405 321q4 4 11.5 10.5t12.5 12t9 10.5q3 2 10 8t12.5 8.5t12.5 2.5q3 -1 12 -2.5t14.5 -3t12.5 -5t12 -8.5q22 -22 20.5 -47t-26.5 -45q-38 -33 -94 -109
q-99 -135 -43 -151q10 -3 24 -2q28 2 63 18.5t75.5 46.5t69.5 54t72.5 62t57.5 50z" />
    <glyph glyph-name="udieresis" unicode="&#xfc;" horiz-adv-x="778" 
d="M539 848q3 -32 -23.5 -55.5t-60.5 -20.5q-46 7 -64 47q-10 48 21 76q20 26 47 20q44 -12 71 -47q9 -18 9 -20zM246 915q5 -2 17 -4t18 -4q32 -12 40 -40t-12 -54q-25 -45 -71 -45q-23 0 -41 12q-37 27 -31 76q7 32 26 43.5t54 11.5v4zM737 567q42 35 61 6q16 -26 0 -62
q-8 -16 -20 -26q-7 -6 -53 -47t-71.5 -60.5t-69.5 -51.5t-84.5 -49.5t-79.5 -24.5q-53 -8 -99.5 31.5t-39.5 95.5q4 35 8 53q-7 -6 -18.5 -15.5t-20.5 -17t-17 -12.5q-145 -122 -231 -154q-46 -18 -92.5 16.5t-46.5 82.5q0 67 45 150.5t102 148.5q25 31 64.5 71.5t56.5 40.5
t35 -18q20 -20 20.5 -37.5t-16.5 -42.5l-8 -8t-8 -10q-83 -79 -179 -244q-24 -36 -24 -68q22 4 43 21q182 122 405 321q4 4 11.5 10.5t12.5 12t9 10.5q3 2 10 8t12.5 8.5t12.5 2.5q3 -1 12 -2.5t14.5 -3t12.5 -5t12 -8.5q22 -22 20.5 -47t-26.5 -45q-38 -33 -94 -109
q-99 -135 -43 -151q10 -3 24 -2q28 2 63 18.5t75.5 46.5t69.5 54t72.5 62t57.5 50z" />
    <glyph glyph-name="yacute" unicode="&#xfd;" horiz-adv-x="733" 
d="M373 969q41 -17 57 -49q12 -27 -4 -48q-3 -6 -12.5 -11.5t-12.5 -8.5q-26 -20 -114 -90q-25 -19 -51 4q-25 25 -5 51q15 18 30.5 40t35 50t29.5 41q17 25 47 21zM692 567q20 12 43.5 1t26 -33t-28.5 -50q-42 -32 -101 -65t-95.5 -49.5t-110.5 -48.5q-25 -11 -39 -39
q-8 -15 -15.5 -30t-11 -22.5t-11 -19.5t-19.5 -29q-62 -100 -154.5 -194t-214.5 -164t-235 -78q-68 -6 -119 21q-35 17 -46.5 49t3.5 69q20 38 47 72q63 66 123 106q55 40 110.5 75t121.5 69.5t106 54.5t122 58t113 53q20 10 29 33q3 8 26 57t27 65q-13 -6 -35 -28
q-96 -89 -180 -131q-10 -5 -44.5 -19.5t-53.5 -23.5q-21 -7 -33 -7q-45 0 -78 39t-33 86q3 73 61.5 152.5t129.5 118.5q17 8 33 0q5 -2 9 -6t8 -10.5t5 -8.5q11 -14 10 -24.5t-14 -26.5q-3 -3 -31.5 -35.5t-42.5 -50.5q-40 -47 -59 -88q-11 -15 -25 -55q25 0 31 4
q71 24 158 91t149 134q36 39 72 68q14 20 31 20q16 0 41 -25q21 -26 14 -67q-21 -101 -23 -111q-18 -36 -36 -90q62 19 132.5 61t106.5 72zM-68 -88q81 52 181 148t127 167q-57 -31 -153 -75.5t-168.5 -84.5t-139.5 -92q-33 -21 -76 -67q-13 -12 -49 -68q-2 -6 -2 -26
q127 0 280 98z" />
    <glyph glyph-name="ydieresis" unicode="&#xff;" horiz-adv-x="733" 
d="M506 848q3 -32 -23.5 -55.5t-60.5 -20.5q-46 7 -64 47q-10 48 21 76q20 26 47 20q45 -12 72 -47q8 -16 8 -20zM213 915q5 -2 17 -4t18 -4q32 -12 40 -40t-12 -54q-25 -45 -71 -45q-23 0 -41 12q-37 27 -31 76q7 32 26 43.5t54 11.5v4zM692 567q20 12 43.5 1t26 -33
t-28.5 -50q-42 -32 -101 -65t-95.5 -49.5t-110.5 -48.5q-25 -11 -39 -39q-8 -15 -15.5 -30t-11 -22.5t-11 -19.5t-19.5 -29q-62 -100 -154.5 -194t-214.5 -164t-235 -78q-68 -6 -119 21q-35 17 -46.5 49t3.5 69q20 38 47 72q63 66 123 106q55 40 110.5 75t121.5 69.5
t106 54.5t122 58t113 53q20 10 29 33q3 8 26 57t27 65q-13 -6 -35 -28q-96 -89 -180 -131q-10 -5 -44.5 -19.5t-53.5 -23.5q-21 -7 -33 -7q-45 0 -78 39t-33 86q3 73 61.5 152.5t129.5 118.5q17 8 33 0q5 -2 9 -6t8 -10.5t5 -8.5q11 -14 10 -24.5t-14 -26.5
q-3 -3 -31.5 -35.5t-42.5 -50.5q-40 -47 -59 -88q-11 -15 -25 -55q25 0 31 4q71 24 158 91t149 134q36 39 72 68q14 20 31 20q16 0 41 -25q21 -26 14 -67q-21 -101 -23 -111q-18 -36 -36 -90q62 19 132.5 61t106.5 72zM-68 -88q81 52 181 148t127 167q-57 -31 -153 -75.5
t-168.5 -84.5t-139.5 -92q-33 -21 -76 -67q-13 -12 -49 -68q-2 -6 -2 -26q127 0 280 98z" />
    <glyph glyph-name="Dcroat" unicode="&#x110;" horiz-adv-x="2027" 
d="M1739 645q3 0 70.5 3t120 3.5t120.5 -4.5q52 -6 72 -45q9 -14 1.5 -34t-26.5 -17q-83 12 -201 12q-112 0 -200 -12q-19 0 -37 -25q-190 -240 -442.5 -416.5t-534.5 -254.5q-143 -38 -268 -27q-75 7 -125 31q-8 5 -22.5 16t-16.5 12q-91 76 -27 174q92 151 463 330
q23 9 45 41q27 41 80 118.5t72 106.5q-100 -4 -150 -8q-28 0 -86 -4q-173 -125 -342 -162q-89 -17 -147.5 42.5t-38.5 148.5q10 56 55 114q97 133 265.5 248t346 186t347.5 103q112 25 258 18q165 -10 280 -102q181 -149 152 -369q-12 -97 -66 -194l-12 -21zM229 559
q49 5 64 10q159 62 285 140q3 14 28 20q80 58 125 98q38 34 47 64q8 8 17 8q31 5 55 -31q17 -28 -4 -51q-8 -7 -28.5 -30t-31.5 -33q27 1 83 4t85 4q1 2 62 90q31 46 68 94.5t84.5 110.5t70.5 92q3 4 6.5 11t5.5 9q23 32 52 9q48 -35 12 -84q-112 -150 -244 -332h139
q9 0 29.5 -2t30.5 -2q30 -6 39 -37q13 -37 -9 -59q-13 -13 -22 -13h-53q-99 8 -224 8q-20 -29 -56.5 -86t-47.5 -73q-1 0 -16 -23q12 4 28 8q356 125 690 150q29 7 37 24q43 76 86 160q23 56 29 119q18 153 -106 242q-78 57 -203 71q-160 20 -385 -39q-113 -29 -234.5 -80.5
t-243 -121.5t-222 -164.5t-150.5 -194.5q-8 -20 -8 -59q0 -18 6.5 -24.5t23.5 -6.5zM1528 530q-1 0 -2 1q-4 2 -4 -1q-372 -50 -713 -190q-22 -9 -35 -29q-145 -244 -151 -254t-16.5 -34t-14.5 -33q16 -24 16 -27q4 -8 4 -33q302 82 598 295q90 68 192.5 166t125.5 139z
M608 233q-108 -50 -187 -107.5t-128 -139.5q-15 -26 -10 -40t34 -24q61 -14 105 -14q51 0 123 10q-1 1 -21 16q-24 17 -29 35.5t5 48.5q0 18 8 31q13 23 36.5 68t30.5 59q6 12 33 57z" />
    <glyph glyph-name="dcroat" unicode="&#x111;" horiz-adv-x="661" 
d="M727 911q-268 -361 -448 -786l-17 -39q-4 -12 -8 -18q-7 -29 4 -48q9 -18 -0.5 -31.5t-30.5 -13.5q-30 -3 -52.5 19.5t-22.5 52.5q8 42 16 59q48 142 145 334q-4 0 -8 4q-123 -123 -246 -170q-38 -20 -79 -20q-59 0 -93 41.5t-22 101.5q17 86 82.5 172.5t159.5 143.5
t184 57q64 0 110 -43q10 -5 25 -20q10 7 25.5 24.5t21.5 22.5q43 51 125 157q-65 0 -201 -8q-47 0 -94 -6q-53 -5 -61 51q-6 27 28 35q61 15 80 16q60 6 169 12t149 9v-4h6q83 113 192 252q21 27 23 30q19 19 35 19q17 0 28 -14q24 -21 26 -40t-17 -40q-27 -35 -54 -72
l-102 -135h69q9 0 29.5 -2t30.5 -2q30 -6 39 -37q13 -39 -8 -60q-12 -12 -23 -12q-9 -1 -18 -1t-19.5 0.5t-15.5 0.5q-54 4 -162 8zM123 422q89 67 235 205q8 9 9.5 17.5t-2 21t-3.5 14.5q-5 16 -32 16q-51 0 -107 -28q-166 -83 -254 -262q-10 -26 -24 -72q6 1 18 3.5
t17 4.5q77 23 143 80z" />
    <glyph glyph-name="dotlessi" unicode="&#x131;" horiz-adv-x="403" 
d="M362 567q17 17 33 17q17 0 26.5 -17t5 -41t-23.5 -41q-85 -74 -199.5 -148.5t-180.5 -74.5q-42 0 -76.5 26.5t-46.5 71.5q-6 21 -6.5 42t4.5 41.5t12 40t20 40t24.5 37.5t28.5 37.5t29.5 34.5t30.5 33q30 30 33 32q16 19 28 19t27 -12q20 -15 26 -36t-5 -34
q-20 -25 -41 -53q-82 -99 -111 -150q-26 -54 -18 -70q3 -8 18 -8q48 0 177 81.5t185 131.5z" />
    <glyph glyph-name="Lslash" unicode="&#x141;" horiz-adv-x="1153" 
d="M459 117q37 5 84 12q153 18 207 21q55 8 165 16q1 0 49 1.5t48 -1.5q35 -3 54 -27t13 -57q0 -22 -11 -27.5t-30 6.5q-16 9 -39 9q-46 -4 -134.5 -10.5t-131.5 -10.5q-173 -14 -217 -22q-54 -9 -153 -30.5t-121 -25.5q-11 -1 -35 -4.5t-44 -5.5t-38 -2q-24 0 -39.5 15.5
t-15.5 39.5q0 22 15.5 33.5t37.5 5.5q28 -8 43 -4q17 4 49.5 12.5t59 14.5t49.5 10q7 1 12.5 4.5t8 6.5t6 8.5t5.5 7.5q1 3 14 49.5t21 70.5q2 6 6 17.5t6 17.5q-24 -16 -34 -24q-33 -17 -80 -51q-19 -13 -33 -13q-26 0 -45 27q-19 19 6 45q48 43 64 53q13 9 200 133
q52 91 86 140q48 75 51 79q-7 2 -17.5 5.5t-14.5 3.5q-95 26 -154 79q-101 90 -88 226q11 111 76 219q50 83 133.5 155t167.5 91q29 6 49.5 -18.5t17.5 -53.5q0 -14 -7 -19t-19 1q-18 11 -41 0q-235 -143 -285 -375q-10 -50 -4 -99q0 -26 11 -47.5t27 -35t41 -24.5
t44.5 -16.5t46.5 -11.5h16q40 -5 47 -2.5t33 41.5q54 75 111 147t138 163.5t157.5 163t163.5 131.5t162 83q6 1 29 7t36 6q45 -3 74.5 -35t34.5 -78q2 -35 -13 -86q-50 -147 -179.5 -282t-289 -221.5t-313.5 -112.5q-59 0 -80 -29q-59 -85 -61 -88q38 19 59 33q9 5 30 13.5
t25 10.5q28 12 52 -12q31 -26 22 -55q-6 -19 -14 -23q-7 -5 -45 -27q-114 -53 -236 -120q-2 -3 -5 -10.5t-5 -10.5q-19 -39 -47.5 -111.5t-36.5 -91.5zM817 762q4 -4 5.5 -5t2.5 1q7 0 19 4q391 118 629 471q14 20 29.5 57.5t17.5 42.5q8 28 8 47q-34 7 -55 -4
q-73 -31 -105 -51q-71 -41 -144 -104t-147 -145.5t-122 -141t-117 -146.5q-14 -20 -21 -26z" />
    <glyph glyph-name="lslash" unicode="&#x142;" horiz-adv-x="518" 
d="M477 567q27 27 49 27q17 0 25.5 -13t5.5 -32q8 -2 27 -2q30 -6 39 -37q13 -38 -9 -59q-13 -13 -22 -13h-53q-46 4 -68 4q-8 -7 -50.5 -47t-55 -50.5l-50 -42t-58 -44.5t-54.5 -33t-65.5 -31.5t-65.5 -19.5q-57 -12 -115 12q-94 46 -88 152q4 25 20 84q12 30 13 33
q-7 10 -11 28q-6 27 29 35q2 0 6 1t6 1q15 36 54 92q100 159 247.5 320t290.5 260q6 2 40.5 20t56.5 23q21 6 38 6q43 0 72 -30.5t29 -77.5q0 -22 -17 -60q-37 -99 -135 -212.5t-218 -200t-218 -113.5q94 4 145 8v-4q93 0 144 2q6 4 16 14zM123 639q-1 -2 -3 -5.5t-3 -5
t-1.5 -5.5t1.5 -7q41 17 47 19q292 141 479 440q9 13 21.5 38.5t19.5 37.5q-16 -4 -33 -4q-4 -2 -16 -8.5t-19 -10.5q-12 -8 -34 -22t-38.5 -25.5t-31.5 -23.5q-193 -156 -389 -418zM2 436q-77 -167 -12 -186q94 -29 356 196q-159 3 -299 -8q-29 0 -45 -2z" />
    <glyph glyph-name="OE" unicode="&#x152;" horiz-adv-x="2226" 
d="M831 1378q-63 52 -227 52q-263 0 -440 -166q-29 -25 -23 -60q0 -22 19 -30q16 0 33 -33q6 -17 -9 -17q-25 0 -39 4q-32 24 -41 46q-46 64 -22 141q5 24 25.5 47.5t57.5 47t54.5 33t52.5 27.5q89 35 203 48q80 6 166 0q160 -21 246 -107q13 -20 37 -12q77 16 118 20
q120 7 195 -12q207 -51 258 -246q51 -187 -12 -377q-4 -16 -8 -24q135 86 282 106l8 4l17 7q1 0 4 1t4 1q-29 24 -33 30q-39 42 -47 95t16 104q18 49 74 98q147 134 320 156q106 13 170 -51q69 -75 39 -168q-25 -69 -86.5 -132t-126.5 -63q-35 6 -54 37q-10 26 17 31
q5 0 12 2t8 2q51 22 100 87t54 116q3 26 -4.5 37t-34.5 14q-29 7 -98 -6q-137 -36 -244 -135q-42 -47 -51 -64q-20 -27 -23 -53q-18 -63 39 -94q70 -36 127 -41q32 0 59 -27q13 -26 13 -29q3 -8 -2.5 -15t-14.5 -7l-12 -1q-12 -2 -12 1q-14 4 -29.5 4t-35 -2t-29.5 -2
q-315 -31 -519 -250q-58 -97 -147 -199q-2 -2 -2 -4q-37 -68 -51 -121q-23 -71 -1 -122.5t66 -81t96 -33.5q103 -11 203 28q218 88 346 293q33 54 33 105q0 38 -21 60t-59 22q-86 0 -159 -51q-45 -29 -65 -50t-42 -65q15 -10 31 -29q12 -13 8 -26q-6 -17 -23 -17
q-52 -6 -92 29q-35 25 -20 82q29 80 106.5 132.5t167.5 65.5q98 17 187 -39q102 -70 71 -194q-7 -22 -30 -68q-98 -149 -249 -249.5t-315 -100.5q-81 0 -159 29t-134.5 92.5t-56.5 146.5q-370 -327 -641 -327q-109 0 -198 65.5t-123 169.5q-18 70 -5 140q5 116 72 253
q10 25 0 48q-31 52 -31 139q0 106 48 186q73 171 244 306.5t364 199.5q24 6 30 10zM967 1307q4 -13 14.5 -32.5t13.5 -27.5q32 -83 27 -145q-7 -110 -55 -184q-43 -75 -93 -145.5t-113 -141.5t-137.5 -123.5t-148.5 -73.5q-49 -18 -100 -18q-33 0 -60 6q-32 16 -47 16
q-51 -92 -63 -190q-22 -95 -8 -156q9 -64 44 -106t91 -52q21 -8 49 -8q236 0 590 334q323 285 432 619q49 148 33 274q-7 39 -23 68.5t-36.5 47.5t-51 30.5t-59.5 18t-68 9.5q-110 5 -231 -20zM295 485q61 0 100 17q96 34 200.5 121t184.5 184q6 8 23 26.5t24 28.5
q92 154 97 287q5 45 -17 123q-6 15 -10.5 16.5t-24.5 -4.5q-2 -2 -11 -4t-13 -4q-288 -91 -469 -305q-77 -99 -112.5 -173.5t-35.5 -174.5l5 -9v-6q11 11 16 21q68 117 192 219l41 31q20 10 35 10q34 0 58 -35q3 -10 0 -26t-9 -25h-4l-8 -4h-4q-16 9 -31 -13
q-134 -125 -223 -280q-4 -4 -4 -21z" />
    <glyph glyph-name="oe" unicode="&#x153;" horiz-adv-x="1044" 
d="M1006 567q34 27 59 27q29 0 30 -26q1 -36 -51 -83q-127 -117 -183 -158q-52 -37 -107 -67q-75 -42 -174 -59q-41 -6 -76 0q-65 13 -101.5 61t-33.5 115q0 4 2 19t2 24q2 6 8 16q-41 1 -76 18.5t-55 43.5q-1 -3 -17 -35q-51 -92 -121 -158t-157 -74q-51 -3 -83.5 25.5
t-35.5 79.5v22q2 32 34.5 91t87.5 120t110 88q69 35 94 39q51 5 80 -34q5 -11 14 -36.5t16 -39.5q35 -72 101 -72q32 0 71 23q2 2 5 4.5t4 3.5l16 16q1 1 4 3t4 3q97 78 199 99q59 13 102 -27q56 -47 25 -117q-13 -30 -49 -59q-101 -76 -222 -64q-6 0 -51 13
q-25 -31 -32 -84q0 -43 38 -43q30 -4 84 8q70 16 127 47q46 25 84.5 49.5t83.5 60.5t63 51t77 66zM154 506q21 33 20 43.5t-29 44.5q-70 -38 -140 -120t-89 -146q20 -10 39 0q120 50 199 178zM727 586q-105 -18 -190 -103q64 -11 135 35q37 21 55 68z" />
    <glyph glyph-name="Scaron" unicode="&#x160;" horiz-adv-x="1454" 
d="M1386 1706q2 2 12 10t15 15q4 4 12.5 11t12.5 11l43 45q4 4 12 11.5t12 11.5q12 15 22 18t25 -6q36 -23 13 -59q-71 -86 -135 -132q-21 -18 -46 -18q-14 0 -34 10q-49 25 -43 80q4 37 20 101q6 21 27 14q43 -18 37 -64q-1 -7 -6 -25.5t-7 -29.5q0 -4 8 -4zM1520 575
q-82 -7 -225 -54t-263 -113q14 -7 19 -15q4 -4 16 -12.5t18 -15.5q33 -43 34 -78t-29 -80q-44 -63 -134.5 -127.5t-194 -114.5t-204 -87t-178.5 -54q-69 -16 -105 -12q-59 5 -102 61q-14 39 0 61q22 39 45 62q232 205 543 381l16 12l4 4q-79 8 -116 10q-37 3 -106.5 5.5
t-94.5 3.5q-153 12 -221 71q-94 85 -66 199q22 89 96 199q144 211 372 375t474 235q158 44 275 39q50 0 104 -21q65 -25 104.5 -74t50 -102.5t-0.5 -109.5q-14 -47 -45 -113q-85 -171 -273 -311.5t-372 -163.5q-122 -6 -189 72q-40 49 -24 116q17 84 101 174.5t173 147.5
q2 2 6 2l12 6q1 0 3.5 1t3.5 1q24 10 45.5 0t29.5 -33q5 -11 -4 -18q-90 -67 -168.5 -159.5t-101.5 -180.5v-19q-3 -15 1 -19.5t21 -4.5q95 0 217 63.5t226 156.5t180.5 204.5t87.5 200.5q0 43 -36 63.5t-83 20.5q-134 8 -284 -39q-472 -147 -791 -553q-43 -57 -85 -139
t-42 -134q0 -25 6.5 -35.5t28.5 -17.5q37 -17 96 -20q34 -3 97.5 -5t86.5 -4q179 -7 291 -28q27 -7 52 6q136 69 249.5 105t276.5 67q61 12 82 -16q13 -20 -6 -42zM242 -119h18q5 2 17.5 5t17.5 5l72 19q153 41 314 130t280 198q23 18 49 57q19 25 16 47q-9 5 -25.5 10.5
t-21.5 7.5q-26 12 -51 -4q-31 -18 -94 -51t-93 -51q-52 -30 -116 -69.5t-153 -98t-153 -114.5t-77 -91z" />
    <glyph glyph-name="scaron" unicode="&#x161;" horiz-adv-x="442" 
d="M173 829q2 2 12 10t15 15q4 4 12 11.5t12 11.5l43 45q4 4 12.5 11t12.5 11q12 15 22 18t25 -6q35 -23 12 -59q-69 -83 -135 -131q-21 -18 -45 -18q-15 0 -35 10q-49 25 -43 80q3 27 21 100q6 21 26 14q43 -18 37 -63q-10 -45 -12 -55q0 -5 8 -5zM402 567q42 37 63 10
q19 -23 2 -61q-8 -18 -24 -31q-82 -67 -172.5 -108t-160.5 -55q-14 -5 -21 -25q-11 -93 -12 -96q-7 -45 -34.5 -83t-68.5 -38q-32 0 -63 25.5t-53.5 65t-37.5 76t-24 68.5q-23 83 -4 104q7 7 14 -1q28 -33 115 -33q48 0 84 8q4 0 10 5t6 10q0 7 1 20.5t1 24t-2 18.5
q-2 12 0 35q-22 -27 -40 -27q-28 0 -39.5 30t18.5 58q12 10 39 34t44 38.5t40 30.5t41 22q26 11 45 -2q27 -31 27 -55q0 -6 -5.5 -14t-11.5 -11q-46 -32 -63 -82t-21 -122q64 6 147 49.5t160 111.5zM-19 195q32 40 32 106h-71q-40 8 -68 8q6 -35 28 -87t48 -52q15 0 31 25z
" />
    <glyph glyph-name="Ydieresis" unicode="&#x178;" horiz-adv-x="1794" 
d="M1790 1497q3 -32 -23.5 -55.5t-60.5 -20.5q-46 7 -64 47q-10 48 21 76q20 27 47 21q45 -12 72 -47q8 -16 8 -21zM1497 1565q5 -2 17 -4.5t18 -4.5q32 -12 40.5 -40t-11.5 -54q-25 -45 -72 -45q-21 0 -41 13q-37 27 -31 75q7 32 26 44t54 12v4zM1485 690q-19 -14 -27 -26
q-168 -152 -250 -228q-66 -48 -71 -51q-42 -29 -93 -35q-63 -12 -107.5 24.5t-47.5 102.5q0 43 16 76q41 80 60 119q61 91 84 123q117 180 139 217q47 93 59 192q0 47 -4 70q0 34 -35 57q-51 22 -96 27q-79 10 -194 -12q-277 -43 -492 -175q-249 -147 -283 -337
q-13 -58 4 -103q12 -43 52 -51q67 -11 155 6q131 36 273 119.5t243 179.5q16 16 33 16q26 0 43 -32q7 -29 0 -43q-3 -4 -9 -16t-11 -17q-6 -7 -21 -23t-22 -24q-190 -178 -389 -246q-101 -44 -203 -33q-101 12 -172 92q-101 118 -60 275q34 100 93 162q107 130 285.5 218.5
t373.5 131.5q129 33 250 22q223 -19 262 -229q23 -139 -37 -287q-6 -15 -20 -42t-17 -33l-41 -78q-5 -8 -15 -23.5t-15 -23.5l-68 -93q-67 -100 -104 -170q-5 -6 -25 -57q16 0 18.5 -0.5t16.5 3.5t16 5q17 5 33 13.5t38 21.5t30 17l165 147q63 53 134 127.5t110 120
t119 141.5q63 77 183 215t157 182q2 2 6 6.5t6 6.5q18 18 33 18q16 0 31 -18q36 -42 12 -92q-7 -13 -23 -41.5t-20 -34.5q-176 -254 -262 -385q-28 -41 -100.5 -149.5t-109.5 -164.5t-95.5 -145t-107.5 -166.5t-95 -153.5q-91 -143 -240 -432q-8 -16 -16 -28
q-15 -26 -43 -15q-56 13 -68 68q-11 20 4 43q20 35 43 84q33 52 91 153t81 140q99 176 338 532q8 17 23 35q1 1 2 3t2 3l8 13q4 4 4 6h-4q-11 -11 -16 -21z" />
    <glyph glyph-name="Zcaron" unicode="&#x17d;" horiz-adv-x="1189" 
d="M1057 1456q1 1 11 9.5t15 15.5q4 4 12.5 11t12.5 11l43 45q4 4 12.5 11.5t12.5 11.5q12 15 22 18t25 -6q35 -23 12 -59q-69 -83 -135 -131q-22 -19 -45 -19q-15 0 -35 10q-49 25 -43 80q4 37 20 101q6 21 27 14q43 -18 37 -63q-8 -36 -12 -56q0 -4 8 -4zM684 438
q174 -56 193 -215q8 -4 34 -4q18 -2 57.5 -4t57.5 -4q54 -5 97.5 -29t95.5 -67q37 -32 28 -80q0 -5 -12 -23q-5 0 -16 11q-24 36 -93 57.5t-127 27t-114 5.5q-23 0 -39 -25q-44 -76 -140 -145.5t-197 -112t-192 -59.5q-53 -11 -84 -11q-58 0 -98 16.5t-61 63.5
q-25 57 18 103q92 102 291.5 172.5t374.5 91.5q21 3 31 10t14 27q8 37 -25 57q-29 19 -61 29q-108 29 -197 24q-27 0 -59 -12q-131 -50 -254 -61q-30 -4 -53 28t-15 60q1 4 19 22q7 2 21.5 9t17.5 8q101 34 198 43q63 9 78 14q76 36 134.5 65.5t142.5 76.5t148 94.5
t127.5 104t106 121t60.5 130.5q8 30 0 45t-35 31q-63 28 -145 28q-247 13 -451 -90q-244 -125 -313 -260q-17 -25 -25 -49q24 -8 29 -8q9 1 27 2.5t31 3.5t24 6q128 26 277 82.5t247 120.5q14 11 10 26q0 19 21 19q33 6 49 -23q23 -34 4 -65q-13 -22 -27 -31
q-107 -90 -300 -166t-322 -76q-81 4 -122.5 73t-8.5 134q45 84 86 121q116 123 275.5 195.5t334.5 87.5q126 10 221 -7q41 -10 51 -16q120 -59 132 -186q9 -103 -39 -187q-74 -127 -216.5 -235.5t-301.5 -181.5q-1 0 -3.5 -1t-3.5 -1l-8 -7q-1 -1 -3 -2t-3 -2zM127 -143
q23 -4 51 -4q26 0 66 8q219 44 432 209q2 2 7 10.5t9 15.5q-359 -68 -526 -202q-6 -4 -39 -37z" />
    <glyph glyph-name="zcaron" unicode="&#x17e;" horiz-adv-x="628" 
d="M252 885q2 2 12 9.5t15 14.5q4 4 12 11.5t12 11.5l43 45q4 4 12.5 11t12.5 11q22 28 47 13q36 -23 12 -60q-69 -83 -135 -131q-21 -18 -45 -18q-15 0 -35 10q-49 25 -43 80q3 27 21 100q6 22 26 15q43 -18 37 -64q-10 -45 -12 -55q0 -4 8 -4zM629 485q-5 -5 -88.5 -82.5
t-159 -138.5t-156.5 -110q0 -22 -4 -62q-14 -81 -79 -154t-152 -115t-168 -42q-106 0 -193 69q-33 29 -43 52q-43 73 33 121q40 23 55 26q37 14 95 33l96 31q18 6 65.5 21.5t78.5 27t59 26.5q5 2 18 9.5t20 11.5q-16 14 -55 22q-31 5 -71 5q-22 -3 -41 10t-27 35
q-9 26 16 38h9q70 13 155 73t129 122q57 73 55 127q0 18 -10 27.5t-24 9.5q-35 0 -78 -35t-91 -87.5t-73 -70.5q-9 9 -26.5 20t-25.5 17t-7 17.5t18 27.5q26 24 67 66t63 63t58 38.5t74 17.5q56 0 98.5 -45.5t36.5 -108.5q-10 -90 -67.5 -160.5t-149.5 -134.5
q-16 -12 -24 -20q9 -4 17.5 -11t20 -17t17.5 -15q38 18 82 46.5t78.5 54.5t80.5 65t69 60t63 58.5t45 42.5q29 29 55 29q20 0 27.5 -16.5t-2.5 -43t-39 -51.5zM111 66l14 18q6 9 6 20q-5 5 -12 5q-41 -19 -87.5 -35.5t-113 -36t-90.5 -27.5q-32 -11 -107 -41
q-34 -13 -43 -22q-19 -15 -16 -32t25 -28q4 -8 14 -8q64 -28 131 -16q82 15 159.5 72t119.5 131z" />
    <glyph glyph-name="florin" unicode="&#x192;" horiz-adv-x="860" 
d="M430 590q-16 2 -44.5 4t-43.5 4q-31 0 -47 4q-30 5 -47 43q-9 24 10 29q24 8 37 8q23 2 48.5 3t55.5 1.5t47 1.5q23 0 27.5 -0.5t15 3t10.5 5t9 13.5t16 20q40 53 140 178q57 71 139 127q68 50 168 43q17 -3 30 -10q24 -16 33 -25q30 -27 36 -56.5t-9 -70.5
q-13 -33 -46 -69.5t-63 -36.5q-15 0 -28.5 10t-16.5 25q0 12 6 24q4 9 37 64q19 28 25 67q-35 0 -53 -12q-80 -53 -137 -115t-126 -159q-2 -2 -4.5 -8t-3.5 -9h37q5 0 15 -1t14 -1l61 -6q19 0 29 -2q27 -1 45 -21t18 -47q0 -20 -16 -20q-18 -2 -51 -6t-51 -6q-93 0 -140 4
q-20 0 -32 -5.5t-23 -23.5q-14 -26 -44 -74.5t-40 -66.5q-50 -88 -162 -299q-23 -43 -42 -75t-49 -77.5t-60 -78t-66.5 -63.5t-77.5 -47t-84 -16q-51 0 -106 19q-36 17 -55 49l-13 27q0 9 6 14t15 2q2 -1 14 -4t17 -8q24 -28 67 -13q110 44 160 117q50 58 80 103
q17 25 44 72.5t34 58.5l104 176q104 170 107 174q21 35 24 39z" />
    <glyph glyph-name="circumflex" unicode="&#x2c6;" horiz-adv-x="446" 
d="M252 1147q-2 -2 -8.5 -5.5t-11.5 -8t-9 -9.5l-92 -92q-18 -26 -47 -12q-34 22 -12 59q75 90 135 131q22 19 45 19q15 0 35 -10q50 -21 43 -78q-5 -45 -19 -101q-6 -23 -28 -16q-42 17 -35 63q2 9 5 27.5t5 28.5q0 4 -6 4z" />
    <glyph glyph-name="caron" unicode="&#x2c7;" horiz-adv-x="442" 
d="M199 1096q2 2 11.5 9.5t14.5 14.5q4 4 12.5 11.5t12.5 11.5l43 45q4 4 12 11t12 11q12 15 22.5 18.5t25.5 -5.5q36 -23 12 -60q-69 -83 -135 -131q-21 -18 -45 -18q-15 0 -35 10q-49 25 -43 80q4 35 20 100q6 22 27 15q43 -18 37 -64q-1 -7 -6 -25.5t-7 -29.5q0 -4 9 -4z
" />
    <glyph glyph-name="breve" unicode="&#x2d8;" horiz-adv-x="440" 
d="M170 1016q-76 7 -100 57q-29 69 12 127q14 24 39 10q36 -14 29 -47q-17 -34 -17 -47q-6 -25 3 -33t34 0q40 12 59 58q4 6 7 15t6.5 20t5.5 16q13 28 41 14q39 -14 26 -55q-2 -10 -7 -27.5t-7 -23.5q-41 -78 -131 -84z" />
    <glyph glyph-name="dotaccent" unicode="&#x2d9;" horiz-adv-x="378" 
d="M211 1108q3 -32 -23 -55.5t-59 -20.5q-48 7 -66 47q-10 48 21 76q20 27 47 21q44 -12 72 -48q8 -16 8 -20z" />
    <glyph glyph-name="ring" unicode="&#x2da;" horiz-adv-x="436" 
d="M346 1204v-8q-5 -48 -45.5 -95.5t-87.5 -56.5q-48 -12 -88 24t-33 87q18 88 105 131q40 18 86 4q27 -6 45 -31t18 -55zM168 1104h16q60 32 88 115q3 9 -6 14t-18 2q-53 -30 -76 -84q-15 -26 -4 -47z" />
    <glyph glyph-name="tilde" unicode="&#x2dc;" horiz-adv-x="532" 
d="M401 1098q-18 -39 -53.5 -63.5t-71.5 -24.5q-22 0 -44 13.5t-35 33.5q-13 16 -29 16q-12 0 -33 -12q-7 -4 -18 -16t-15 -15q-21 -18 -32 0q-27 38 12 74q67 57 104 57q25 0 45 -20q3 -4 9.5 -10.5t7.5 -8.5q19 -22 47 -22q31 0 61 30q3 3 7 7.5t6 7t5.5 5.5t5.5 2.5
t5 -1.5q7 -1 11.5 -10.5t4.5 -16.5q0 -3 -1 -9t-1 -10.5t2 -6.5z" />
    <glyph glyph-name="endash" unicode="&#x2013;" horiz-adv-x="960" 
d="M496 551h206q9 0 29.5 -2t30.5 -2q30 -6 39 -37q13 -38 -8 -59q-13 -13 -23 -13h-53q-147 11 -246 11q-96 0 -246 -11q-47 0 -94 -6q-53 -5 -61 51q-6 27 28 35q67 16 80 17q59 6 167.5 11.5t150.5 8.5v-4z" />
    <glyph glyph-name="quoteleft" unicode="&#x2018;" horiz-adv-x="333" 
d="M135 1157q28 11 51 8q24 -3 37.5 -16.5t12.5 -34.5q-2 -52 -19.5 -149t-21.5 -131q-3 -23 -45 -27q-26 -1 -34.5 9t-13.5 40q-21 129 -6 242q1 4 2 11t1 9.5t1 7.5t2 7t2.5 6t3.5 5.5t4.5 3.5t5.5 3.5t7.5 3t9.5 2.5z" />
    <glyph glyph-name="quoteright" unicode="&#x2019;" horiz-adv-x="333" 
d="M135 1157q28 11 51 8q24 -3 37.5 -16.5t12.5 -34.5q-2 -52 -19.5 -149t-21.5 -131q-3 -23 -45 -27q-26 -1 -34.5 9t-13.5 40q-21 129 -6 242q1 4 2 11t1 9.5t1 7.5t2 7t2.5 6t3.5 5.5t4.5 3.5t5.5 3.5t7.5 3t9.5 2.5z" />
    <glyph glyph-name="quotedblleft" unicode="&#x201c;" horiz-adv-x="575" 
d="M135 1157q28 11 51 8q24 -3 37.5 -16.5t12.5 -34.5q-2 -52 -19.5 -149t-21.5 -131q-3 -23 -45 -27q-26 -1 -34.5 9t-13.5 40q-21 129 -6 242q1 4 2 11t1 9.5t1 7.5t2 7t2.5 6t3.5 5.5t4.5 3.5t5.5 3.5t7.5 3t9.5 2.5zM377 1157q28 11 51 8q52 -7 49 -51
q-2 -52 -19.5 -149t-21.5 -131q-3 -23 -45 -27q-26 -1 -34 8.5t-13 40.5q-21 129 -6 242q1 4 2 11t1 9.5t1 7.5t2 7t2.5 6t3.5 5.5t4.5 3.5t5.5 3.5t7.5 3t9.5 2.5z" />
    <glyph glyph-name="quotedblright" unicode="&#x201d;" horiz-adv-x="575" 
d="M135 1157q28 11 51 8q24 -3 37.5 -16.5t12.5 -34.5q-2 -52 -19.5 -149t-21.5 -131q-3 -23 -45 -27q-26 -1 -34.5 9t-13.5 40q-21 129 -6 242q1 4 2 11t1 9.5t1 7.5t2 7t2.5 6t3.5 5.5t4.5 3.5t5.5 3.5t7.5 3t9.5 2.5zM377 1157q28 11 51 8q52 -7 49 -51
q-2 -52 -19.5 -149t-21.5 -131q-3 -23 -45 -27q-26 -1 -34 8.5t-13 40.5q-21 129 -6 242q1 4 2 11t1 9.5t1 7.5t2 7t2.5 6t3.5 5.5t4.5 3.5t5.5 3.5t7.5 3t9.5 2.5z" />
    <glyph glyph-name="ellipsis" unicode="&#x2026;" horiz-adv-x="1482" 
d="M238 240q-2 -3 -6 -12.5t-7 -16.5q-27 -63 -106 -90q-42 -14 -80 24q-32 29 -16 78q32 84 108 101q35 9 69.5 -18.5t37.5 -65.5zM684 240q-2 -3 -5.5 -12.5t-6.5 -16.5q-27 -63 -107 -90q-42 -14 -80 24q-32 29 -16 78q32 84 109 101q35 9 69 -18.5t37 -65.5zM1130 240
q-2 -3 -5.5 -12.5t-6.5 -16.5q-27 -63 -106 -90q-42 -14 -80 24q-33 30 -17 78q32 84 109 101q35 9 69 -18.5t37 -65.5z" />
    <glyph glyph-name="fraction" unicode="&#x2044;" horiz-adv-x="632" 
d="M2 -55q-41 -41 -68 -41q-16 0 -36 20q-29 32 -9 64q2 3 6.5 10t6.5 10l20 43q2 3 6 10.5t6 10.5q29 47 126.5 201.5t146.5 238.5q58 92 161 262t150 246q153 261 270 414q19 22 41 22q31 0 44 -27.5t-11 -70.5q-14 -22 -84.5 -129t-105.5 -164q-222 -377 -246 -418
q-149 -259 -322 -528q-8 -13 -40.5 -67t-51.5 -85q-1 -1 -1.5 -4t-3 -8t-5.5 -10z" />
    <glyph glyph-name="Euro" unicode="&#x20ac;" horiz-adv-x="1128" 
d="M782 135q27 15 43 15q28 0 28 -29q0 -39 -41 -72q-8 -7 -17 -12q-81 -49 -173 -63.5t-165 -6.5q-124 13 -193 99t-69 200q0 66 12 127h-113q-4 -2 -10 -2q-45 15 -27 60q12 30 31 30q36 4 51 4h94q23 63 50 111h-158q-4 -2 -10 -2q-45 15 -27 59q12 31 31 31q36 4 51 4
h172q57 76 152.5 160t216 148.5t211.5 64.5q122 0 180 -117q22 -42 23.5 -87t-19.5 -83q-15 -26 -34.5 -40.5t-37.5 -14.5q-16 0 -26 12.5t-9.5 42t15.5 72.5q27 91 -17 102q-81 18 -178 -30q-160 -75 -295 -230q185 5 238 2q56 4 91 -26q26 -24 5 -40q-14 -11 -49 -12
l-258 -12q-66 -4 -98 -4q-46 -63 -72 -111h33q47 -1 153.5 1.5t163.5 0.5q57 4 91 -27q27 -23 4 -39q-14 -10 -48 -11q-43 -2 -129 -6.5t-129 -6.5q-122 -4 -182 -4q-47 -113 -37.5 -202t80.5 -111q68 -21 133 -21q136 0 268 76z" />
    <glyph glyph-name="minus" unicode="&#x2212;" horiz-adv-x="960" 
d="M496 551h206q9 0 29.5 -2t30.5 -2q30 -6 39 -37q13 -38 -8 -59q-13 -13 -23 -13h-53q-147 11 -246 11q-96 0 -246 -11q-47 0 -94 -6q-53 -5 -61 51q-6 27 28 35q67 16 80 17q59 6 167.5 11.5t150.5 8.5v-4z" />
    <glyph glyph-name="a.ss01" horiz-adv-x="1259" 
d="M1184 676q58 -120 -131 -256q-90 -68 -255 -118t-313 -50q-117 0 -188 31q-29 12 -50 36t-28.5 57t12.5 70q-40 -43 -104.5 -89.5t-116.5 -69.5q-41 -17 -83.5 12.5t-39.5 71.5q0 57 37.5 133t81.5 125q62 62 144 92q49 19 110 10q29 -4 68 -43q4 4 12 4q22 19 37 19
q13 0 31 -15q32 -28 14 -71q-4 -9 -16.5 -28t-18.5 -32q-6 -12 -18 -34q-17 -31 -24.5 -46.5t-18.5 -40t-12 -38t1 -28.5t14 -23.5t33 -12.5q58 -10 117 -10q182 0 368 71t247 177q19 40 16.5 63t-11.5 42.5t-7 23.5q10 23 49 10q25 -10 43 -43zM70 434q21 20 59.5 57
t71.5 68t63 57q4 8 21 25v8q-22 13 -41 13q-42 -9 -103 -58q-46 -46 -95 -111.5t-60 -109.5h4q56 27 80 51z" />
    <glyph glyph-name="b.ss01" horiz-adv-x="1175" 
d="M432 651q0 -80 -65.5 -170.5t-141.5 -138.5q130 -5 276.5 22t270.5 85t166 131q19 40 16.5 63t-11.5 42.5t-7 23.5q10 23 49 10q25 -10 43 -43q58 -120 -131 -256q-89 -67 -275.5 -114.5t-359.5 -47.5q-71 0 -150.5 13t-115.5 44q-2 1 -6 3.5t-6 3.5q-2 2 -6.5 6t-6.5 6
h-4q-12 -7 -66 -80t-69 -98q-20 -27 -37 -27q-10 0 -22 6q-22 10 -32.5 30.5t-4.5 37.5q5 15 16 37q107 200 299 475q36 50 120 170.5t130 183.5q14 21 12 31q-5 25 15 45l6 6l10 12l6 6l47 45q1 1 3 3.5t3 3.5l11 12l6 6q14 14 26 14t33 -18q34 -29 8 -76
q-11 -13 -30 -39.5t-25 -34.5q-46 -59 -93 -124.5t-105.5 -150t-88.5 -126.5q0 -8 -8 -20q14 9 30.5 22.5t20.5 15.5q16 9 43.5 29.5t40.5 28.5q30 12 58 12q47 0 76 -33.5t26 -87.5zM174 406q75 75 120 138.5t58 139.5q-34 -11 -84 -47q-53 -42 -153.5 -134.5
t-100.5 -113.5q18 -10 41 -18q7 0 13 -2l2 -2h2q47 -7 98 34z" />
    <glyph glyph-name="c.ss01" horiz-adv-x="903" 
d="M256 645q-92 -11 -186 -114q-87 -95 -108 -190q-23 -101 54 -127q25 -8 60 -7q119 4 262 56.5t260 143t143 187.5q9 44 1 65.5t-22 38.5t-13 21q3 26 45 22q23 -2 51 -30q22 -26 28 -57.5t0.5 -58.5t-22.5 -60.5t-31.5 -55t-36.5 -49.5q-85 -106 -277.5 -204.5
t-359.5 -121.5q-89 -12 -165 37t-86 127q-18 137 108 299q37 48 109 99.5t127 64.5q67 17 108.5 -27.5t22.5 -109.5q-9 -38 -74.5 -113t-91.5 -75q-17 0 -33 16q-32 40 0 72l6 6l10 12q1 1 3.5 3t3.5 3l49 43l6 6l10 13l6 6q29 34 33 59z" />
    <glyph glyph-name="d.ss01" horiz-adv-x="1273" 
d="M371 356q-15 -33 -23.5 -60.5t-11.5 -47t2 -35t10 -25.5t18.5 -17t22.5 -10t27 -5t27 -2h27h9q132 0 268 53t235 142.5t126 189.5q9 44 0.5 65.5t-22.5 38.5t-13 21q3 26 45 22q22 -2 51 -31q28 -32 32.5 -69.5t-13 -78t-35 -68.5t-45.5 -64q-46 -56 -115.5 -112
t-158 -106t-198 -80.5t-216.5 -29.5q-50 1 -90 16.5t-68.5 49t-30 87t24.5 130.5q2 6 6 15l10 25q-1 -8 0 -8q3 0 23 39q3 5 8.5 17.5t9.5 21.5q-4 0 -8 4q-123 -123 -246 -170q-38 -20 -79 -20q-59 0 -93 41.5t-22 101.5q17 86 82.5 172.5t159.5 143.5t184 57q64 0 110 -43
q10 -5 25 -20q10 7 25.5 24.5t21.5 22.5q65 78 266 350q18 23 60 78t67 86q21 27 23 30q19 19 35 19q17 0 28 -14q24 -21 26 -40t-17 -40q-27 -35 -54 -72l-106 -141q-9 -12 -26.5 -35.5t-26.5 -36.5q-29 -38 -95.5 -124.5t-84.5 -111.5t-59.5 -87.5t-70.5 -119.5t-67 -139z
M123 422q89 67 235 205q8 9 9.5 17.5t-2 21t-3.5 14.5q-5 16 -32 16q-51 0 -107 -28q-166 -83 -254 -262q-10 -26 -24 -72q6 1 18 3.5t17 4.5q77 23 143 80z" />
    <glyph glyph-name="e.ss01" horiz-adv-x="888" 
d="M774 743q28 -32 32.5 -69.5t-13 -78t-35 -68.5t-45.5 -64q-62 -78 -181 -156t-262 -128.5t-252 -41.5q-65 5 -107.5 31t-58 64.5t-18 87.5t13.5 100q33 72 74 121l4 2l2 2l17 16q4 4 8 6q97 78 199 99q59 13 102 -27q56 -47 25 -117q-13 -29 -50 -59q-101 -76 -221 -64
q-5 0 -51 13q-26 -32 -33 -84q1 -53 33 -82t78 -29q117 0 266 59.5t268 157t144 193.5q9 44 0.5 65.5t-22.5 38.5t-13 21q3 26 45 22q22 -2 51 -31zM203 586q-107 -19 -191 -103q64 -11 135 35q38 21 56 68z" />
    <glyph glyph-name="f.ss01" horiz-adv-x="1329" 
d="M1231 633q-15 -103 -74.5 -182t-148 -125.5t-192 -69.5t-216.5 -23q-185 0 -343.5 56.5t-223.5 150.5l8 -24q45 -142 -33 -285q-21 -39 -59 -89.5t-85.5 -102t-102 -86.5t-97.5 -35q-27 0 -49 14q-49 29 -43 88q6 36 25 76q33 72 94 170q105 162 198 299q12 18 29 35
q-19 25 -29 43q-8 15 5 28q6 18 32 9q4 -2 8.5 -5t11.5 -8t11 -8q2 4 6 8l17 17q1 1 3 4t3 4q77 112 216 276t220 219q17 17 45.5 31.5t50.5 14.5q34 0 56 -25.5t18 -63.5q0 -35 -19 -67q-65 -144 -200 -264.5t-293 -196.5q-8 -8 -14 -12q58 -85 199.5 -137t305.5 -52
q101 0 193 22.5t171 67.5t132 122t66 178q3 30 30 30q26 0 50 -30.5t18 -71.5zM481 1012q-23 -20 -45 -40t-46 -46t-39.5 -42t-42.5 -49t-36.5 -44.5t-41 -50.5t-37.5 -46q77 44 176.5 154t111.5 164zM-31 338q4 30 -4 51q-2 -2 -6 -5.5t-7 -6t-6 -6t-5 -6.5
q-74 -109 -158 -242q-85 -135 -107 -191q0 -12 -4 -24q7 6 20 12.5t19 11.5q136 112 223 271q26 62 35 135z" />
    <glyph glyph-name="g.ss01" horiz-adv-x="1005" 
d="M682 1077q193 -75 211 -286q6 -89 -33 -175q-69 -149 -248 -291t-344 -194q-32 -10 -59 -43q-105 -124 -246 -246q-86 -73 -216 -132.5t-230 -59.5q-72 0 -136.5 28t-97.5 84q-23 41 -16 84t41 72q91 82 291 127q73 19 239.5 61t255.5 66q52 13 66.5 23.5t44.5 56.5
q51 80 80 158q-119 -93 -170 -123q-49 -30 -123 -47q-47 -10 -80 0q-47 17 -64 59q-2 4 -6 12.5t-6 12.5q-1 9 -0.5 26t22.5 69t66 105q0 5 8 13q108 128 226 151q97 23 155 -63q7 -15 15 -25q2 4 5 6.5t6.5 5.5t4.5 4l33 33q23 23 37 23q11 0 22 -8q17 -9 27 -31t4 -41
q-10 -35 -12 -39q-77 -181 -127 -287v-4q22 7 24 12q220 127 350 283q5 8 18 17t17 14q16 16 40 60.5t32 70.5q29 72 0 164q-17 62 -99 95.5t-157 33.5q-110 0 -217 -66q-9 -6 -27 -21t-28 -22q5 -15 12 -29q0 -4 2 -14.5t2 -15.5q0 -6 -6 -11.5t-15 -5.5l-16 4
q-38 11 -54.5 51.5t3.5 75.5q67 100 246 144q120 16 227 -25zM-72 315q70 7 184.5 85.5t172.5 156.5q-4 6 -14 16t-13 15q-5 17 -18 21t-31 -1q-61 -9 -143 -76q-45 -26 -103 -122l-4 -4q-25 -56 -31 -91zM35 49q8 8 16 14q-42 -4 -49 -6q-206 -56 -448 -116
q-44 -12 -110 -47.5t-81 -67.5q-13 -29 -4.5 -52t33.5 -32q54 -16 90 -16q26 0 80 12q139 38 242.5 111t230.5 200z" />
    <glyph glyph-name="h.ss01" horiz-adv-x="1177" 
d="M358 330q59 -3 157 25t197.5 75t180.5 117.5t100 142.5q9 44 0.5 65.5t-22.5 37.5t-13 20q6 28 46 23q28 -2 53 -31q28 -35 29.5 -84t-17 -94t-49.5 -84q-58 -72 -172 -141t-247.5 -114.5t-244.5 -51.5q-70 -4 -112 52.5t-27 127.5q5 21 33 80q1 5 4.5 13t5.5 15.5
t2 14.5q-12 -12 -34 -29.5t-27 -22.5q-32 -29 -141.5 -130t-172.5 -156q-28 -28 -34 -31q-17 -10 -31 -10q-19 0 -41 16q-34 27 -21 64q1 4 17 36q17 30 49.5 84t38.5 64q8 16 10 27l481 651q2 1 21 20q7 10 26.5 34t28.5 38q20 20 47 8q25 -15 29.5 -38.5t-12.5 -45.5
q-46 -58 -64 -76q-12 -13 -36.5 -43.5t-39.5 -46.5l-75 -104q-9 -9 -9 -12q-225 -317 -268 -381q-4 -4 -4 -11l4 -4q32 32 86 78q122 113 186 156q20 15 56 31q17 10 30 10q22 0 41 -19q38 -35 21 -73q-1 -7 -29 -62q-40 -78 -65 -123q-12 -20 -14.5 -44.5t8 -43.5t34.5 -20
z" />
    <glyph glyph-name="i.ss01" horiz-adv-x="946" 
d="M199 741q-43 27 -37 82q6 45 58 90t99 45q45 0 66 -31.5t2 -72.5q-14 -33 -63.5 -79t-83.5 -46q-20 0 -41 12zM-18 362q23 -61 151 -61q104 0 241.5 39t252.5 103t151 128q19 40 16.5 63t-11.5 42.5t-7 23.5q11 24 49 11q25 -10 43 -43q58 -120 -131 -256
q-77 -58 -266 -124.5t-338 -66.5q-199 0 -233 139q-8 21 -4.5 48t7 47t17 45.5t25 44.5t30.5 42.5t33.5 40.5t34.5 38q30 30 33 32q16 19 28 19t27 -12q20 -15 26 -36t-5 -34q-20 -25 -41 -53q-82 -99 -111 -150q-24 -51 -18 -70z" />
    <glyph glyph-name="j.ss01" horiz-adv-x="321" 
d="M227 1286q115 31 205 31q168 0 265 -84t91 -209q-4 -78 -42.5 -155t-98.5 -140.5t-138 -124t-157.5 -107t-159.5 -88t-142 -68.5t-107 -46.5t-52 -24.5q-26 -16 -36 -34q-59 -79 -105 -138.5t-120 -142.5t-138.5 -141t-144.5 -109t-154 -72q-89 -11 -135 25
q-54 43 -33 102q18 53 76.5 118t138 124.5t144.5 103.5t127 80q150 90 292 170q40 24 109.5 127t105.5 172q9 17 22.5 20t25.5 -7q20 -13 24 -35t-8 -45l-47 -84q-2 -3 -18.5 -28.5t-31 -48t-18.5 -26.5q20 8 54.5 22.5t102 47.5t132.5 70t138 89t127.5 104.5t92 117.5
t39.5 127q5 113 -67 178.5t-201 65.5q-58 0 -139 -19q-3 -1 -5.5 -17.5t-10 -32t-23.5 -15.5q-19 0 -47 22q-39 34 -13.5 72t80.5 53zM150 682q-11 7 -20 19t-13.5 21.5t-11.5 26.5t-11 25q2 5 4 15t4 14q50 119 84 166q25 30 31 35q19 16 35 16q15 0 33 -12
q22 -14 30 -41.5t-2 -53.5q-39 -89 -100 -159q-23 -31 -23 -56q0 -31 -36 -20zM-338 152q1 0 8 14q-35 -18 -37 -19q-253 -151 -381 -262q-40 -34 -87 -89.5t-52 -90.5q62 10 128.5 46t120.5 79.5t115 106.5t99.5 109t85.5 106z" />
    <glyph glyph-name="k.ss01" horiz-adv-x="1189" 
d="M125 387q6 -32 33 -54.5t66 -33.5t73.5 -15.5t67.5 -4.5q174 0 361 81.5t249 188.5q19 40 16.5 63t-11.5 42.5t-7 23.5q10 23 49 10q25 -10 43 -43q17 -30 13 -63t-15.5 -60t-35 -55t-45.5 -47.5t-48 -38.5q-103 -77 -266 -138t-312 -61q-69 0 -137 19q-76 22 -126.5 77
t-47.5 130q-47 -47 -55 -56q-28 -34 -83.5 -101t-82.5 -101q-3 -3 -6 -9l-8 -18q-4 -4 -7 -10q-12 -21 -41 -7q-24 12 -32.5 36t2.5 51q13 32 30 63q7 12 18 31t11 20l246 383q159 219 325 385l29 23l12 12q13 10 27 10q17 0 33 -22q28 -36 8 -72q-20 -38 -41 -59
q-9 -10 -114.5 -128.5t-159.5 -181.5q-21 -26 -23 -34q3 3 23 18q87 76 176 100q58 14 94.5 -29t24.5 -89q-24 -80 -78.5 -144t-128.5 -92q-42 -16 -92 -4q-15 0 -27 4zM375 645q-54 -6 -138.5 -64t-111.5 -106q15 -6 31 -6q32 0 64.5 16.5t63 48.5t48.5 54.5t43 56.5z" />
    <glyph glyph-name="l.ss01" horiz-adv-x="1003" 
d="M-10 250q77 -25 184 -25q118 0 241.5 27.5t227.5 83t145 125.5q19 40 16.5 63t-11.5 42.5t-7 23.5q10 23 50 10q25 -10 43 -43q58 -120 -131 -256q-90 -68 -254 -115t-318 -47q-101 0 -184 25q-56 23 -91 69.5t-32 104.5q4 25 20 84q70 191 263.5 419t371.5 351
q6 2 40.5 20t56.5 23q21 6 38 6q43 0 72 -30.5t29 -77.5q0 -22 -17 -60q-38 -101 -134 -211.5t-212 -194.5t-217 -118q-76 -25 -108 -21q-23 0 -27 -12q-15 -26 -28.5 -53t-35.5 -78t-20.5 -88t29.5 -47zM123 639q-1 -2 -3 -5.5t-3 -5t-1.5 -5.5t1.5 -7q41 17 47 19
q292 141 479 440q9 13 21.5 38.5t19.5 37.5q-16 -4 -33 -4q-4 -2 -16 -8.5t-19 -10.5q-12 -8 -34 -22t-38.5 -25.5t-31.5 -23.5q-193 -156 -389 -418z" />
    <glyph glyph-name="m.ss01" horiz-adv-x="1513" 
d="M524 512q-16 -8 -24 -16q-2 -1 -6.5 -4.5t-6.5 -4.5l-22 -18q-2 -2 -6 -5t-6 -5l-97 -72q-2 -1 -6 -4t-6 -4l-22 -19q-27 -27 -76 -62.5t-68 -35.5q-21 0 -39 21q-38 35 -16 75q30 51 76 127q1 3 4.5 9.5t5.5 12.5t2 13q-66 -50 -92 -76q-36 -30 -107.5 -89.5
t-107.5 -88.5q-6 -3 -23 -20q-19 -13 -35 -13t-36 17q-40 26 -25 67q1 3 3.5 9t4.5 8q160 229 203 301q2 3 5 6.5t5 6.5t2 7q0 12 5.5 19.5t9.5 9.5t16 6q33 7 51 -6q23 -23 26.5 -41.5t-14.5 -42.5q-46 -65 -55 -80q8 4 16 12q31 24 158 123q1 1 37 25q15 6 33 6
q22 0 39 -14q41 -36 30 -80q-5 -9 -10.5 -25.5t-7.5 -21.5q-16 -27 -29 -64q3 2 21 15q22 16 86 63.5t100 71.5q7 7 17 13t23.5 13t19.5 11q15 6 30 6q28 0 45 -23q41 -35 19 -80q-11 -24 -47 -94q-22 -39 -33 -65.5t-15 -49.5t7 -35t37 -16q49 -6 102 -6q182 0 365 67
t245 171q19 40 16.5 63t-11.5 42.5t-7 23.5q10 23 49 10q25 -10 43 -43q58 -120 -131 -256q-91 -68 -257.5 -114t-323.5 -46q-70 0 -140 13q-47 9 -81 41t-27 81q9 46 39 107q18 35 20 47z" />
    <glyph glyph-name="n.ss01" horiz-adv-x="1337" 
d="M1264 633q58 -120 -131 -256q-90 -68 -254 -115t-318 -47q-101 0 -184 25q-52 17 -74 68t0 102q6 17 14.5 33t21.5 37.5t19 33.5q6 11 12.5 22t11.5 18.5t9.5 15t7 12t4 8t1 5t-2.5 1.5q-19 0 -186 -107q-45 -33 -127.5 -97t-110.5 -85q-8 -4 -10 -6l-18 -16q-4 -2 -8 -6
q-18 -11 -33 -11q-19 0 -35.5 13t-22.5 34l-3 21q-3 20 1 26q110 228 201 302q3 12 19 12q47 -6 59 -47q13 -26 -8 -51q-36 -51 -47 -64q24 5 37 18q77 56 153 105q53 29 109 47q53 19 90.5 -15t27.5 -91q-1 -13 -6 -27.5t-9 -23.5t-13 -26.5t-12 -23.5q-18 -27 -44 -82
t-16 -67q26 -33 133 -33q106 0 239.5 29.5t253 87.5t159.5 125q19 40 16 63t-12 42.5t-7 23.5q10 23 50 10q25 -10 43 -43z" />
    <glyph glyph-name="o.ss01" horiz-adv-x="1144" 
d="M272 586q9 -18 15 -33q109 -115 288 -115q108 0 211.5 41.5t165.5 108.5q26 27 31 55.5t-0.5 48.5t-3.5 23q15 20 51 -2q24 -16 31 -51q16 -71 -55 -145t-193.5 -121.5t-247.5 -47.5q-209 0 -321 135q-4 -6 -11 -20q-51 -92 -121 -158t-157 -74q-51 -3 -83.5 25.5
t-35.5 79.5v22q2 32 34.5 91t87.5 120t110 88q69 35 94 39q51 5 80 -34q5 -11 14 -36.5t16 -39.5zM154 506q21 33 20 43.5t-29 44.5q-70 -38 -140 -120t-89 -146q20 -10 39 0q120 50 199 178z" />
    <glyph glyph-name="p.ss01" horiz-adv-x="1083" 
d="M410 600q-7 -60 -59 -143t-105 -131q120 -4 250 23t239.5 84t151.5 130q19 40 16.5 63t-11.5 42.5t-7 23.5q10 23 49 10q25 -10 43 -43q58 -120 -131 -256q-90 -68 -253.5 -114.5t-318.5 -46.5q-106 0 -176 22q-74 7 -110 41q-11 -11 -11 -12q-81 -75 -194 -197
q-46 -49 -195 -219l-37 -37q-21 -14 -32 -14q-18 0 -39 18q-34 24 -17 64l33 45q97 128 250 334l279 368q19 19 30 19q10 0 25 -15q39 -34 8 -79q-5 -6 -24.5 -29.5t-30.5 -38.5q-2 -4 -9.5 -14t-11.5 -17q9 5 17.5 11.5t11.5 7.5q69 67 170 147q26 26 68 43q34 17 49 17
q19 0 43 -17q46 -27 39 -90zM313 571q2 5 5 15t4 14q-38 -19 -137 -104.5t-130 -126.5q25 -7 41 -7q18 0 39 7q33 12 80 55q60 76 98 147z" />
    <glyph glyph-name="q.ss01" horiz-adv-x="1157" 
d="M238 313l10 -16q46 -10 125 -10q184 0 369 66.5t247 170.5q19 40 16.5 63t-11.5 42.5t-7 23.5q11 24 49 11q25 -10 43 -43q58 -120 -131 -256q-102 -77 -293 -125t-352 -33q33 -57 2 -121q-36 -71 -47 -94q-24 -37 -59 -82t-82 -97t-97.5 -86t-89.5 -34q-25 0 -55 20
q-41 29 -35 72q7 35 22 75.5t26.5 64.5t35.5 71q22 42 68 123.5t51 89.5q8 8 16 24q-2 7 -8.5 19t-7.5 16q-6 23 12 29q14 7 27 4q4 -3 9 -1.5t7.5 1.5t7 3.5t6 5.5t5.5 6l6 6q7 12 26.5 42.5t28.5 47.5q-24 -16 -33 -19q-82 -69 -114 -92q-25 -16 -80 -35q-39 -13 -71.5 15
t-26.5 67q0 17 8 41q21 52 58 112.5t85.5 119.5t110 98t118.5 39q66 0 123 -51q4 3 11 7t12.5 7.5t9.5 7.5q5 4 18 17.5t21 19.5q27 21 55 0q48 -37 17 -88q-145 -183 -238 -330q-4 -9 -24 -35zM10 408q188 159 266 227l9 8q15 15 8 19q-8 16 -21 16q-10 0 -34 -8
q-77 -17 -152.5 -103t-122.5 -178v-12q20 8 47 31zM225 150q4 12 4 40q0 3 -4.5 9t-7.5 6q-18 8 -37.5 1.5t-29.5 -20.5q-128 -193 -191 -346q-7 -11 -18 -43q28 8 55 35q70 63 132 148t97 170z" />
    <glyph glyph-name="r.ss01" horiz-adv-x="1159" 
d="M213 356q-10 -12 -16 -22.5t-9 -18.5t-1 -14.5t3.5 -11t8.5 -8.5l10.5 -6t13 -4t13 -2.5t13.5 -1.5t11 -1q119 -15 263 10t266.5 85t168.5 139q19 40 16.5 63t-11.5 42.5t-7 23.5q10 23 50 10q25 -10 43 -43q58 -120 -131 -256q-90 -69 -259.5 -112.5t-332.5 -43.5
q-60 0 -113 6q-62 9 -91.5 42.5t-26 78.5t33.5 92q19 28 57.5 77l49.5 63q2 2 17.5 19.5t22.5 31.5q-71 -15 -122 -10q-5 0 -13.5 2t-13 2.5t-10.5 -2t-11 -8.5q-8 -9 -55 -50t-51 -43q-20 -10 -38.5 4t-20 36t17.5 42q68 57 90 86q-27 61 29 135q84 101 139 101
q18 0 35 -17q42 -42 24 -84q-6 -22 -28 -51q-32 -43 -39 -55q24 0 76 16.5t82 34.5q12 6 24 6q20 0 37 -16t23 -37q9 -30 -13 -55q-24 -27 -68.5 -81.5t-58.5 -70.5q-89 -111 -98 -123z" />
    <glyph glyph-name="s.ss01" horiz-adv-x="882" 
d="M95 406l4 -19q88 2 170.5 14.5t166.5 36.5t149.5 67.5t99.5 102.5q19 40 16.5 63t-11.5 42.5t-7 23.5q11 24 49 11q25 -10 43 -43q58 -120 -131 -256q-179 -133 -553 -148l-2 -2q-10 -92 -12 -98q-7 -45 -34.5 -83t-68.5 -38q-32 0 -63 25.5t-53.5 65t-37.5 76t-24 68.5
q-23 83 -4 104q7 7 14 -1q28 -33 115 -33q48 0 84 8q4 0 10 5t6 10q0 7 1 20.5t1 24t-2 18.5q-2 12 0 35q-22 -27 -40 -27q-28 0 -39.5 30t18.5 58q12 10 39 34t44 38.5t40 30.5t41 22q26 11 45 -2q27 -31 27 -55q0 -6 -5.5 -14t-11.5 -11q-46 -32 -63 -82t-21 -122z
M-19 195q32 40 32 106h-71q-40 8 -68 8q6 -35 28 -87t48 -52q15 0 31 25z" />
    <glyph glyph-name="t.ss01" horiz-adv-x="819" 
d="M786 829q7 -39 -24 -51q-33 -15 -47 13q-28 53 -230 53q-93 0 -155 -8q-37 -4 -56 -16.5t-43 -43.5q-201 -261 -313 -454q-24 -41 -36.5 -67t-19.5 -48.5t-1 -35.5t21 -22t44 -14q43 -6 94 -6q177 0 367 67.5t250 170.5q19 40 16.5 63t-11.5 42.5t-7 23.5q10 23 49 10
q25 -10 43 -43q58 -120 -131 -256q-91 -68 -256.5 -113t-323.5 -45q-270 0 -270 123q0 22 4.5 43t17 48t18 38t26.5 45.5t22 36.5q20 34 44.5 71.5t44 66t51 71t47.5 64t52.5 70t49.5 65.5q2 3 6.5 11t9.5 13v4q-1 0 -4.5 1t-6.5 1t-5 -2q-150 -15 -234 -28q-22 -3 -43 15
t-24 44q0 19 20 29q9 4 35.5 13.5t40.5 16.5q27 11 43 -2q6 -4 12 -6t9 -2.5t11 0t11 0.5q32 4 96 8l95 6q26 0 45 25q88 128 106 152q3 5 10.5 15t10.5 15q19 37 39 37q27 -4 47 -37q12 -25 0 -43q0 -2 -2 -2l-2 -4l-3 -2l-6 -16q-3 -3 -6 -9q-74 -92 -88 -122l12 -4
q226 15 381 -25q40 -10 47 -64z" />
    <glyph glyph-name="u.ss01" horiz-adv-x="1325" 
d="M512 598q-15 -12 -37 -36.5t-47 -59t-41.5 -67t-14.5 -62t29 -43.5q64 -31 154 -31q107 0 230 35t224 95t140 126q19 40 16.5 63t-11.5 42.5t-7 23.5q10 23 49 10q25 -10 43 -43q58 -120 -131 -256q-92 -69 -260.5 -124.5t-310.5 -55.5q-115 0 -185 43q-87 54 -63 174
q-7 -6 -18.5 -15.5t-20.5 -17t-17 -12.5q-145 -122 -231 -154q-46 -18 -92.5 16.5t-46.5 82.5q0 67 45 150.5t102 148.5q25 31 64.5 71.5t56.5 40.5t35 -18q20 -20 20.5 -37.5t-16.5 -42.5l-8 -8t-8 -10q-83 -79 -179 -244q-24 -36 -24 -68q22 4 43 21q182 122 405 321
q4 4 11.5 10.5t12.5 12t9 10.5q3 2 10 8t12.5 8.5t12.5 2.5q3 -1 12 -2.5t14.5 -3t12.5 -5t12 -8.5q22 -22 20.5 -47t-26.5 -45z" />
    <glyph glyph-name="v.ss01" horiz-adv-x="1243" 
d="M350 510q167 -66 371 -66q112 0 205.5 25t144.5 74q27 25 33 53.5t2.5 48.5t-0.5 23q15 17 49 -4q22 -17 29 -54q6 -34 -5 -64t-30 -50.5t-49.5 -40t-55.5 -31t-57 -23.5q-101 -39 -272 -39q-244 0 -414 74q-39 17 -65 -12l-21 -25q-44 -48 -121 -109.5t-121 -72.5
q-28 -12 -45 -12q-21 0 -43 16q-51 41 -35 96q5 18 16.5 49.5t14.5 41.5q0 6 2 8l6 16q0 3 5 8q63 154 137 228l16 12l6 6q24 24 51 4q23 -16 28 -39t-11 -45q-139 -173 -180 -297q6 4 14 7.5t10 5.5q104 68 195 165q12 12 12 33q-3 35 12.5 52t51.5 22q21 0 28 12
q18 24 59 80.5t64 87.5q3 4 4.5 14t3.5 13q3 39 33 39q9 0 27 -11q52 -33 22 -88q-23 -44 -51 -82q-17 -22 -49.5 -66.5t-36.5 -49.5q-16 -23 10 -33z" />
    <glyph glyph-name="w.ss01" horiz-adv-x="1644" 
d="M653 479q42 -50 153.5 -79t244.5 -29q128 0 238 30.5t169 90.5q25 27 30.5 55t1 47t-2.5 22q17 19 51 -2q24 -16 31 -51q10 -41 -4.5 -77t-49.5 -62.5t-65 -43t-72 -34.5q-155 -63 -342 -63q-138 0 -261.5 34.5t-196.5 88.5q-4 -3 -14 -14t-17 -15q-101 -77 -156 -115
q-59 -42 -110 -55q-19 -8 -39 -8q-36 0 -60.5 26t-27.5 68q0 15 2.5 28.5t9 33.5t8.5 26q7 17 14 51q-6 -5 -20.5 -14t-22.5 -17q-74 -66 -163 -139q-66 -57 -107 -57q-20 0 -35 12q-42 34 -33 80q3 12 29 72q3 6 55 92q2 7 21 35q10 17 27 44.5t61 85t78 81.5q0 8 8 8
q13 10 25 10q15 0 30 -18q30 -43 0 -80q-126 -140 -202 -258q0 -1 -1 -4t-1 -6t2 -7q3 3 51 45q13 12 39.5 34.5t40.5 33.5l157 135q14 11 40.5 33.5t39.5 34.5q26 20 33 22q20 15 43 -4q18 -16 22.5 -36.5t-6.5 -41.5q-4 -11 -9 -22t-13 -24.5t-12 -20.5q-27 -47 -97 -156
q-5 -9 -9.5 -19.5t-9.5 -24t-7 -19.5q-2 -5 -5 -15t-4 -14q4 2 9 3t8.5 2t5.5 3q66 32 68 33q23 17 85.5 66t96.5 73q19 15 16 35q-7 51 28.5 83t86.5 23q11 0 20 9q4 5 25 30.5t29 35.5t22.5 30.5t24.5 38.5h-17q-37 6 -43 41q-9 47 31 55q36 8 61.5 -5.5t34.5 -45.5
q19 -67 -16 -129q-30 -51 -55 -82q-13 -18 -51 -61.5t-50 -51.5z" />
    <glyph glyph-name="x.ss01" horiz-adv-x="1284" 
d="M266 418q6 -29 36.5 -50.5t72.5 -32t78 -15.5t63 -5q167 0 336.5 77t232.5 192q19 40 16.5 63t-11.5 42.5t-7 23.5q10 23 50 10q25 -10 43 -43q12 -24 13 -49t-7 -46t-22 -43t-31 -39.5t-37 -36t-36 -32.5q-8 -7 -12 -10q-89 -79 -235.5 -129.5t-292.5 -50.5
q-49 0 -95 6.5t-95.5 21.5t-87 46t-54.5 75q-80 -54 -104 -67l-43 -33q-15 -6 -33 -6q-29 0 -51 22q-25 19 0 37q39 22 88 55q15 10 33 23t39.5 28.5t33.5 24.5q29 15 29 39q0 10 8 68q-28 11 -79 -16.5t-105 -82.5q-16 -8 -25 -8q-34 0 -47 37q-7 24 31 53q137 123 236 131
q19 2 35.5 -1.5t25 -8t27.5 -16.5q15 -15 8 -45q-3 -12 -17 -64q36 23 60 41q46 26 119 80q16 8 34 8q26 0 45 -16q31 -24 0 -49q-8 -8 -26 -15q-98 -72 -219 -147q-28 -17 -21 -47z" />
    <glyph glyph-name="y.ss01" horiz-adv-x="997" 
d="M772 1104q175 -109 154 -322q-8 -82 -66 -166q-40 -55 -88.5 -99t-109 -80t-111 -60t-125.5 -55q-25 -11 -39 -39q-8 -15 -15.5 -30t-11 -22.5t-11 -19.5t-19.5 -29q-156 -255 -432 -389q-84 -41 -172 -47q-68 -6 -119 21q-35 17 -46.5 49t3.5 69q20 38 47 72
q63 66 123 106q55 40 110.5 75t121.5 69.5t106 54.5t122 58t113 53q20 10 29 33q3 8 26 57t27 65q-13 -6 -35 -28q-96 -89 -180 -131q-10 -5 -44.5 -19.5t-53.5 -23.5q-54 -21 -99 20t-45 98q0 5 1 13t8.5 33.5t19.5 51t38 61.5t60 69q26 23 64 43q17 8 33 0q5 -2 9 -6
t8 -10.5t5 -8.5q11 -14 10 -24.5t-14 -26.5q-3 -3 -31.5 -35.5t-42.5 -50.5q-40 -47 -59 -88q-11 -15 -25 -55q25 0 31 4q58 20 139 78q108 83 168 147q36 39 72 68q18 21 33.5 19.5t38.5 -24.5q21 -26 14 -67q-21 -101 -23 -111q-18 -36 -36 -90q85 23 204.5 116.5
t171.5 176.5q42 67 31 162q-3 40 -39 76q-43 45 -102 71q-152 65 -311 2q-11 -4 -32.5 -14.5t-31.5 -15.5q4 -21 6 -31v-31q0 -6 -7.5 -10t-16.5 -2q-2 0 -7.5 2.5t-7.5 3.5q-37 19 -44.5 61.5t18.5 73.5q25 28 57 45q89 46 211 49q124 -7 219 -65zM-68 -88q81 52 181 148
t127 167q-57 -31 -153 -75.5t-168.5 -84.5t-139.5 -92q-33 -21 -76 -67q-13 -12 -49 -68q-2 -6 -2 -26q43 0 63 4q101 21 217 94z" />
    <glyph glyph-name="z.ss01" horiz-adv-x="811" 
d="M752 782q-4 -92 -52 -188t-123.5 -177.5t-166 -149t-185.5 -113.5q0 -22 -4 -62q-14 -81 -79 -154t-152 -115t-168 -42q-106 0 -193 69q-33 29 -43 52q-43 73 33 121q40 23 55 26q50 19 95 33l96 31q18 6 65.5 21.5t78.5 27t59 26.5q5 2 18 9.5t20 11.5q-16 14 -55 22
q-31 5 -71 5q-22 -3 -41 10t-27 35q-9 26 16 38h9q70 13 155 73t129 122q57 73 55 127q0 18 -10 27.5t-24 9.5q-35 0 -78 -35t-91 -87.5t-73 -70.5q-9 9 -26.5 20t-25.5 17t-7 17.5t18 27.5q26 24 67 66t63 63t58 38.5t74 17.5q56 0 98.5 -45.5t36.5 -108.5
q-10 -90 -67.5 -160.5t-149.5 -134.5q-16 -12 -24 -20q9 -4 17.5 -11t20 -17t17.5 -15q77 32 154.5 82t147.5 116t121.5 138t77.5 154.5t15 158.5q-3 40 -39 76q-48 51 -117 77.5t-141 26.5q-74 0 -156 -31q-11 -4 -31.5 -14.5t-31.5 -15.5q4 -21 6 -31v-31q0 -6 -7.5 -10
t-16.5 -2q-2 0 -7.5 2.5t-7.5 3.5q-37 19 -44.5 61.5t18.5 73.5q42 48 116 70t152 24q124 -7 219 -65q164 -102 154 -322zM111 66l14 18q6 9 6 20q-5 5 -12 5q-41 -19 -87.5 -35.5t-113 -36t-90.5 -27.5q-32 -11 -107 -41q-34 -13 -43 -22q-19 -15 -16 -32t25 -28
q4 -8 14 -8q64 -28 131 -16q82 15 159.5 72t119.5 131z" />
    <glyph glyph-name="a.ss02" horiz-adv-x="1136" 
d="M639 399l4 -14v-2l2 -4q0 -29 -33 -29q-21 0 -40 21.5t-19 42.5q0 53 37.5 127t92.5 139.5t123.5 111.5t123.5 46q59 0 95 -42t36 -102q0 -98 -64 -213t-159 -208t-211.5 -155.5t-214.5 -62.5q-100 0 -149.5 77.5t-49.5 182.5q0 65 14 117q0 2 4 14q-40 -43 -104.5 -89.5
t-116.5 -69.5q-41 -17 -83.5 12.5t-39.5 71.5q0 57 37.5 133t81.5 125q62 62 144 92q49 19 110 10q29 -4 68 -43q4 4 12 4q22 19 37 19q13 0 31 -15q32 -28 14 -71q-4 -9 -16.5 -28t-18.5 -32q-38 -68 -68 -154t-30 -147q0 -49 18.5 -85t63.5 -36q85 0 173 38.5t160.5 102
t131 136.5t98.5 149q40 79 45 123q7 26 4.5 42t-29.5 16q-51 0 -128.5 -67t-133 -150t-55.5 -127l2 -5v-2zM70 434q21 20 59.5 57t71.5 68t63 57q4 8 21 25v8q-22 13 -41 13q-42 -9 -103 -58q-46 -46 -95 -111.5t-60 -109.5h4q56 27 80 51z" />
    <glyph glyph-name="d.ss02" horiz-adv-x="1247" 
d="M748 938q-64 -85 -107.5 -146.5t-109.5 -166t-102 -197.5t-36 -164q0 -49 18.5 -85t63.5 -36q85 0 173 38.5t160.5 102t131 136.5t98.5 149q40 79 45 123q1 6 2.5 16t2 15t0 11t-3.5 9t-9 5t-16 2q-51 0 -128.5 -67t-133.5 -150t-56 -127l2 -5v-2l5 -14v-2l2 -4
q0 -29 -33 -29q-21 0 -40.5 21.5t-19.5 42.5q0 53 37.5 127t92.5 139.5t123.5 111.5t123.5 46q59 0 95 -42t36 -102q0 -98 -64 -213t-159 -208t-211.5 -155.5t-214.5 -62.5q-78 0 -141.5 54.5t-83 140.5t21.5 190q-4 0 -8 4q-123 -123 -246 -170q-38 -20 -79 -20
q-59 0 -93 41.5t-22 101.5q17 86 82.5 172.5t159.5 143.5t184 57q64 0 110 -43q10 -5 25 -20q10 7 25.5 24.5t21.5 22.5q65 78 266 350q18 23 60 78t67 86q21 27 23 30q19 19 35 19q17 0 28 -14q24 -21 26 -40t-17 -40q-27 -35 -54 -72l-106 -141q-9 -12 -26.5 -35.5
t-26.5 -36.5zM123 422q89 67 235 205q8 9 9.5 17.5t-2 21t-3.5 14.5q-5 16 -32 16q-51 0 -107 -28q-166 -83 -254 -262q-10 -26 -24 -72q6 1 18 3.5t17 4.5q77 23 143 80z" />
    <glyph glyph-name="f.ss02" horiz-adv-x="1112" 
d="M66 504l-7 -12q27 -17 55 -47t51.5 -58t50.5 -56t62 -48.5t76 -28.5t88 -8q149 0 261.5 89.5t187.5 233.5q40 79 45 123q7 26 4.5 42t-29.5 16q-39 0 -95.5 -41t-104.5 -96.5t-82.5 -114t-34.5 -90.5q0 -5 2 -9l4 -14q2 -2 2 -8q0 -27 -33 -27q-21 0 -40 21.5t-19 42.5
q0 53 37.5 127t92.5 139.5t123.5 111.5t123.5 46q59 0 95 -42t36 -102q0 -66 -26 -136t-70 -132t-105.5 -115.5t-129.5 -89.5t-144.5 -51.5t-147.5 -3.5q-52 9 -95.5 25t-72.5 33t-58 42.5t-45 44.5t-40.5 48t-38.5 44q37 -137 -37 -272q-21 -39 -59 -89.5t-85.5 -102
t-102 -86.5t-97.5 -35q-27 0 -49 14q-49 29 -43 88q6 36 25 76q33 72 94 170q105 162 198 299q12 18 29 35q-19 25 -29 43q-8 15 5 28q6 18 32 9q4 -2 8.5 -5t11.5 -8t11 -8q2 4 6 8l17 17q1 1 3 4t3 4q77 112 216 276t220 219q17 17 45.5 31.5t50.5 14.5q34 0 56 -25.5
t18 -63.5q0 -35 -19 -67q-65 -144 -200 -264.5t-293 -196.5q-8 -8 -14 -12zM481 1012q-23 -20 -45 -40t-46 -46t-39.5 -42t-42.5 -49t-36.5 -44.5t-41 -50.5t-37.5 -46q77 44 176.5 154t111.5 164zM-31 338q4 30 -4 51q-2 -2 -6 -5.5t-7 -6t-6 -6t-5 -6.5
q-74 -109 -158 -242q-85 -135 -107 -191q0 -12 -4 -24q7 6 20 12.5t19 11.5q136 112 223 271q26 62 35 135z" />
    <glyph glyph-name="g.ss02" horiz-adv-x="546" 
d="M246 475q-6 -8 -43 -45l-47 -43q-72 -68 -119 -86q-29 -15 -60 -20q-36 -9 -68 6t-40 41q-21 63 28.5 151.5t129.5 151.5t141 63q53 0 78 -45q1 -1 6 -7.5t10 -10.5q1 1 3 2t3 2l8 6q4 4 7 4q23 17 43 0q26 -17 32 -51q0 -17 -4 -23q-25 -140 -51 -262q-7 -34 -26.5 -94
t-22.5 -70q-8 -16 -10 -28q10 -2 30 -2q17 -1 59.5 -4t66 -5t59 -5.5t66 -8t59.5 -10.5l88 -25q79 -26 114 -110q9 -35 5 -51q-12 -31 -39 -37q-26 -5 -41 24q-19 28 4 68q-18 26 -64 33q-67 17 -114 22q-25 3 -275 25q-6 2 -20.5 2t-22.5 2q-21 0 -39 -21
q-122 -189 -345 -312.5t-470 -168.5q-141 -28 -270 -22q-198 0 -338 102q-29 33 -47 59q-39 77 8 144q18 32 68 67q56 39 136 72t151.5 53t171 38.5t159 27t152.5 20.5q19 4 42 6t50.5 3.5t42.5 2.5q200 10 241 11q85 6 177 0q31 0 47 33q64 126 88 262q2 25 10 55zM-63 356
q53 14 100 52q140 130 162 151q17 17 20 23q-9 18 -15.5 25t-15.5 7q-4 0 -28 -8q-4 -2 -12.5 -6t-12.5 -6q-107 -75 -178 -191q-2 -5 -9 -19.5t-11 -27.5zM80 35h-47q-13 0 -36 -1t-36 -1l-143 -4q-148 -4 -332.5 -26t-382 -76.5t-270.5 -127.5q-31 -22 -47 -55
q-25 -54 20 -90q27 -32 92.5 -50t124.5 -22q164 -12 326 23q352 79 592 286q77 59 139 144z" />
    <glyph glyph-name="h.ss02" horiz-adv-x="1171" 
d="M-125 451l481 651q2 1 21 20q7 10 26.5 34t28.5 38q20 20 47 8q25 -15 29.5 -38.5t-12.5 -45.5q-46 -58 -64 -76q-12 -13 -36.5 -43.5t-39.5 -46.5l-75 -104q-9 -9 -9 -12q-225 -317 -268 -381q-4 -4 -4 -11l4 -4q32 32 86 78q122 113 186 156q20 15 56 31q17 10 30 10
q22 0 41 -19q38 -35 21 -73q-1 -7 -29 -62q-5 -10 -23.5 -46t-25 -50t-20.5 -46t-19.5 -52.5t-10.5 -49t-5 -55.5q0 -49 18.5 -85t63.5 -36q85 0 173 38.5t160.5 102t131 136.5t98.5 149q40 79 45 123q7 26 4.5 42t-29.5 16q-51 0 -128.5 -67.5t-133 -150.5t-55.5 -127l2 -4
v-2l4 -14v-2l2 -4q0 -29 -33 -29q-21 0 -40 21.5t-19 42.5q0 53 37.5 127t92.5 139.5t123.5 111.5t123.5 46q59 0 95 -42t36 -102q0 -98 -64 -213t-159 -208t-211.5 -155.5t-214.5 -62.5q-100 0 -149.5 77.5t-49.5 182.5q0 111 47 226q-12 -12 -34 -29.5t-27 -22.5
q-32 -29 -141.5 -130t-172.5 -156q-28 -28 -34 -31q-17 -10 -31 -10q-19 0 -41 16q-34 27 -21 64q1 4 17 36q17 30 49.5 84t38.5 64q8 16 10 27z" />
    <glyph glyph-name="i.ss02" horiz-adv-x="806" 
d="M203 741q-43 27 -37 82q6 45 58.5 90t99.5 45q44 0 65 -31.5t2 -72.5q-14 -33 -63.5 -79t-83.5 -46q-20 0 -41 12zM115 582q-69 -83 -105.5 -156.5t-36.5 -163.5q0 -30 6 -55t25.5 -45t50.5 -21q111 -3 234.5 64t218 164t147.5 198q40 79 45 123q1 6 2.5 16t2 15t0 11
t-3.5 9t-9 5t-16 2q-51 0 -128.5 -67.5t-133.5 -150.5t-56 -127l2 -4v-2l5 -14v-2l2 -4q0 -29 -33 -29q-21 0 -40.5 21.5t-19.5 42.5q0 53 37.5 127t92.5 139.5t123.5 111.5t123.5 46q59 0 95 -42t36 -102q0 -98 -70.5 -214t-172.5 -209.5t-224 -155.5t-219 -60
q-52 1 -91.5 24.5t-62 61.5t-33.5 82t-11 92q0 118 45 221t137 164q16 19 29 19q11 0 26 -12q20 -15 26 -36t-5 -34q-20 -25 -41 -53z" />
    <glyph glyph-name="j.ss02" horiz-adv-x="258" 
d="M328 936q-26 -59 -72.5 -125t-83.5 -66q-36 0 -63 52q2 5 4 14.5t4 13.5q50 119 84 166q27 33 30 35q19 16 35 16q15 0 33 -12q22 -14 30.5 -41t-1.5 -53zM-344 143q34 34 68.5 78.5t83 115.5t59.5 87q131 188 166 254q18 34 47 12q20 -13 24 -35t-8 -45l-47 -84
q-174 -256 -272 -389h20q235 -18 309 -33l89 -24q78 -26 114 -111q8 -33 4 -51q-12 -31 -39 -37q-26 -5 -41 25q-19 26 5 67q-18 26 -64 33q-73 19 -115 23q-4 1 -274 24q-6 2 -20.5 2t-22.5 2q-22 0 -39 -20q-122 -189 -345 -312.5t-470 -168.5q-145 -28 -270 -23
q-198 0 -338 102q-26 29 -47 60q-39 76 8 143q19 35 67 68q56 39 136 72t151.5 53t171 38.5t159 27t152.5 20.5q26 5 79 8.5t57 3.5q161 8 241 10q85 6 176 0q21 0 25 4zM-397 57h-47h-19l-35 -2h-18l-143 -4q-95 0 -233.5 -14.5t-288.5 -41.5t-280 -73t-184 -100
q-31 -22 -47 -55q-25 -55 21 -91q27 -32 92 -49.5t125 -21.5q168 -12 326 22q350 78 591 287q81 62 140 143z" />
    <glyph glyph-name="k.ss02" horiz-adv-x="1095" 
d="M125 387l-8 -2q-3 -55 13.5 -109.5t56.5 -94.5t94 -40q86 0 181.5 39t177 101t149 137t106.5 149q40 79 45 123q7 26 4.5 42t-29.5 16q-39 0 -95.5 -41t-104.5 -96.5t-82.5 -114t-34.5 -90.5q0 -1 1 -4.5t1 -4.5l4 -14q0 -1 1 -4t1 -4q0 -27 -33 -27q-21 0 -40 21.5
t-19 42.5q0 53 37.5 127t92.5 139.5t123.5 111.5t123.5 46q59 0 95 -42t36 -102q0 -97 -72 -213t-176.5 -208.5t-229 -155t-222.5 -62.5q-132 0 -214 98t-69 250q-6 -6 -16.5 -16t-18.5 -18t-14 -15q-28 -34 -83.5 -101t-82.5 -101q-3 -3 -6 -9l-8 -18q-4 -4 -7 -10
q-12 -21 -41 -7q-24 12 -32.5 36t2.5 51q13 32 30 63q7 12 18 31t11 20l246 383q159 219 325 385l29 23l12 12q36 25 60 -12q28 -36 8 -72q-20 -38 -41 -59q-9 -10 -114.5 -128.5t-159.5 -181.5q-21 -26 -23 -34q3 3 23 18q50 44 100 68q45 23 76 32q58 14 94.5 -29
t24.5 -89q-12 -41 -25 -64q-38 -68 -94 -121q-34 -31 -88 -51q-42 -16 -92 -4q-15 0 -27 4zM375 645q-54 -6 -138.5 -64t-111.5 -106q34 -15 88 8q47 22 82.5 60.5t79.5 101.5z" />
    <glyph glyph-name="l.ss02" horiz-adv-x="786" 
d="M549 1120q-3 -6 -25 -39q-214 -280 -393 -440l-25 -25q-61 -69 -117 -222q-68 -187 -45 -284q15 -65 74 -65q85 0 173 38.5t161 101.5t131.5 136.5t98.5 149.5q40 79 45 123q7 26 4.5 41.5t-29.5 15.5q-51 0 -128.5 -67t-133 -150t-55.5 -127l2 -4v-2l4 -14v-2l2 -4
q0 -29 -33 -29q-21 0 -40 21t-19 42q0 53 37.5 127t92.5 139.5t123.5 111.5t123.5 46q59 0 95 -42t36 -101q0 -98 -64 -213t-159 -208t-212 -155.5t-215 -62.5q-52 0 -91.5 23t-62 61.5t-33.5 82.5t-11 93q0 72 23.5 151.5t27.5 98.5q71 131 147 250q5 10 13 18
q124 188 258 330q19 20 42 41t51 45.5t42 36.5l20 20q15 11 27 11q17 0 33 -23q24 -40 4 -76z" />
    <glyph glyph-name="m.ss02" horiz-adv-x="1384" 
d="M524 512q-16 -8 -24 -16q-2 -1 -6.5 -4.5t-6.5 -4.5l-22 -18q-2 -2 -6 -5t-6 -5l-97 -72q-2 -1 -6 -4t-6 -4l-22 -19q-27 -27 -76 -62.5t-68 -35.5q-21 0 -39 21q-38 35 -16 75q30 51 76 127q1 3 4.5 9.5t5.5 12.5t2 13q-66 -50 -92 -76q-36 -30 -107.5 -89.5
t-107.5 -88.5q-6 -3 -23 -20q-19 -13 -35 -13t-36 17q-40 26 -25 67q1 3 3.5 9t4.5 8q160 229 203 301q2 3 5 6.5t5 6.5t2 7q0 12 5.5 19.5t9.5 9.5t16 6q33 7 51 -6q23 -23 26.5 -41.5t-14.5 -42.5q-46 -65 -55 -80q8 4 16 12q31 24 158 123q1 1 37 25q15 6 33 6
q22 0 39 -14q41 -36 30 -80q-5 -9 -10.5 -25.5t-7.5 -21.5q-16 -27 -29 -64q3 2 21 15q22 16 86 63.5t100 71.5q7 7 17 13t23.5 13t19.5 11q15 6 30 6q28 0 45 -23q41 -35 19 -80q-11 -24 -47 -94q-3 -5 -22 -40t-23.5 -44.5t-19.5 -39.5t-19.5 -45.5t-13 -41.5t-11 -49
t-2.5 -47q0 -49 18.5 -85t63.5 -36q85 0 173 38.5t160.5 102t131 136.5t98.5 149q40 79 45 123q1 6 2.5 16t2 14.5t0 11t-3.5 9t-9 4.5t-16 2q-51 0 -128.5 -67t-133.5 -150t-56 -127l2 -4v-2l4 -14v-2l2 -4q0 -29 -32 -29q-21 0 -40.5 21t-19.5 42q0 53 37.5 127
t92.5 139.5t123.5 111.5t123.5 46q59 0 95 -42t36 -101q0 -98 -64 -213t-159 -208t-211.5 -155.5t-214.5 -62.5q-100 0 -149.5 77.5t-49.5 182.5q0 44 21 123t43 121q18 35 20 47z" />
    <glyph glyph-name="n.ss02" horiz-adv-x="1267" 
d="M449 477q-3 -5 -21 -40.5t-22 -45t-16.5 -39t-16.5 -46.5t-8.5 -42.5t-4.5 -50.5q0 -49 18.5 -85t63.5 -36q85 0 173 38.5t161 101.5t131.5 136.5t98.5 149.5q40 79 45 123q7 26 4.5 41.5t-29.5 15.5q-51 0 -128.5 -67t-133 -150t-55.5 -127l2 -4v-2l4 -14v-2l2 -4
q0 -29 -33 -29q-21 0 -40 21t-19 42q0 71 61 172t151.5 176.5t163.5 75.5q59 0 95.5 -42t36.5 -101q0 -98 -64 -213t-159 -208t-212 -155.5t-215 -62.5q-64 0 -108 27t-62.5 72t-23.5 100t4.5 112.5t26 108.5t38.5 90q6 11 12.5 22t11.5 18.5t9.5 15t7 12t4 8t1 5t-2.5 1.5
q-19 0 -186 -107q-45 -33 -127.5 -97t-110.5 -85q-8 -4 -10 -6l-18 -16q-4 -2 -8 -6q-18 -11 -33 -11q-19 0 -35.5 13t-22.5 34l-3 21q-3 20 1 26q110 228 201 302q3 12 19 12q47 -6 59 -47q13 -26 -8 -51q-36 -51 -47 -64q24 5 37 18q77 56 153 105q53 29 109 47
q53 19 90.5 -15t27.5 -91q-1 -13 -6 -27.5t-9 -23.5t-13 -26.5t-12 -23.5z" />
    <glyph glyph-name="o.ss02" horiz-adv-x="1134" 
d="M272 586l-22 -88q-1 -3 -17 -35q-51 -92 -121 -158t-157 -74q-51 -3 -83.5 25.5t-35.5 79.5v22q2 32 34.5 91t87.5 120t110 88q69 35 94 39q51 5 80 -34q5 -11 14 -36.5t16 -39.5zM154 506q21 33 20 43.5t-29 44.5q-70 -38 -140 -120t-89 -146q20 -10 39 0
q120 50 199 178zM182 647l76 -51q0 -99 67.5 -157t168.5 -58q123 0 244.5 88t193.5 260q4 11 16 37t19.5 47.5t9.5 38.5q7 26 4.5 41.5t-29.5 15.5q-39 0 -95.5 -41t-104.5 -96.5t-82.5 -114t-34.5 -90.5q0 -5 4 -15t4 -15q0 -27 -33 -27q-21 0 -40 21t-19 42q0 53 37.5 127
t92.5 139.5t123.5 111.5t123.5 46q61 0 100.5 -43t30.5 -100q-21 -129 -79.5 -236t-137 -173.5t-167 -103t-175.5 -36.5q-138 0 -228 88t-90 254z" />
    <glyph glyph-name="q.ss02" horiz-adv-x="1212" 
d="M711 348l4 -14v-2l2 -4q0 -29 -33 -29q-21 0 -40 21t-19 42q0 71 61 172t151.5 176.5t163.5 75.5q59 0 95.5 -42t36.5 -101q0 -98 -64 -213t-159 -208t-212 -155.5t-215 -62.5q-56 0 -95 26t-75 74q0 -1 -1 -2t-1 -2l-4 -10q-2 -2 -2 -4q-36 -71 -47 -94q-24 -37 -59 -82
t-82 -97t-97.5 -86t-89.5 -34q-25 0 -55 20q-41 29 -35 72q7 35 22 75.5t26.5 64.5t35.5 71q22 42 68 123.5t51 89.5q8 8 16 24q-2 7 -8.5 19t-7.5 16q-6 23 12 29q14 7 27 4q4 -3 9 -1.5t7.5 1.5t7 3.5t6 5.5t5.5 6l6 6q7 12 26.5 42.5t28.5 47.5q-24 -16 -33 -19
q-82 -69 -114 -92q-25 -16 -80 -35q-39 -13 -71.5 15t-26.5 67q0 17 8 41q21 52 58 112.5t85.5 119.5t110 98t118.5 39q66 0 123 -51q4 3 11 7t12.5 7.5t9.5 7.5q5 4 18 17.5t21 19.5q27 21 55 0q48 -37 17 -88q-145 -183 -238 -330q-1 -1 -2.5 -4t-4.5 -8.5t-5 -9.5
q22 -15 41 -56.5t31.5 -79.5t43 -68t76.5 -30q85 0 173 38.5t161 101.5t131.5 136.5t98.5 149.5q40 79 45 123q7 26 4.5 41.5t-29.5 15.5q-51 0 -128.5 -67t-133 -150t-55.5 -127l2 -4v-2zM10 408q188 159 266 227l9 8q15 15 8 19q-8 16 -21 16q-10 0 -34 -8
q-77 -17 -152.5 -103t-122.5 -178v-12q20 8 47 31zM225 150q4 12 4 40q0 3 -4.5 9t-7.5 6q-18 8 -37.5 1.5t-29.5 -20.5q-128 -193 -191 -346q-7 -11 -18 -43q28 8 55 35q70 63 132 148t97 170z" />
    <glyph glyph-name="r.ss02" horiz-adv-x="1048" 
d="M315 4q-94 0 -149 40.5t-67 103.5t1.5 136t50.5 142t85 117q28 28 40 51q-71 -15 -122 -10q-5 0 -13.5 2t-13 2.5t-10.5 -2t-11 -8.5q-8 -9 -55 -50t-51 -43q-20 -10 -38.5 4t-20 36t17.5 42q68 57 90 86q-27 61 29 135q84 101 139 101q18 0 35 -17q42 -42 24 -84
q-6 -22 -28 -51q-32 -43 -39 -55q24 0 76 16.5t82 34.5q12 6 24 6q20 0 37 -16t23 -37q9 -30 -13 -55q-24 -27 -68.5 -81.5t-58.5 -70.5q-40 -48 -83 -144q-81 -181 -12 -228q22 -15 58 -15q85 0 173 38.5t161 101.5t131.5 136.5t98.5 149.5q40 79 45 123q7 26 4.5 41.5
t-29.5 15.5q-51 0 -128.5 -67t-133 -150t-55.5 -127l2 -4v-2l4 -14v-2l2 -4q0 -29 -33 -29q-21 0 -40 21t-19 42q0 53 37.5 127t92.5 139.5t123.5 111.5t123.5 46q59 0 95 -42t36 -101q0 -98 -64 -213t-159 -208t-212 -155.5t-215 -62.5z" />
    <glyph glyph-name="s.ss02" horiz-adv-x="1292" 
d="M4 686q14 22 42.5 49t47.5 27q18 0 38 -19.5t20 -37.5q0 -46 -33 -46q-29 0 -52.5 -89t-23.5 -132q0 -104 45 -344q3 -17 7 -20.5t20 -5.5q128 -13 178 -13q105 0 204.5 16.5t196.5 55t173.5 96t131.5 145t74 195.5q4 12 4 21q0 139 -172 139q-54 0 -122.5 -20.5
t-132 -55.5t-107 -89t-43.5 -114q0 -36 25 -47.5t67 -11.5q59 0 107 21t75.5 50.5t47 59.5t33.5 51t24 21q22 0 39.5 -22t17.5 -44q0 -18 -10 -35q-51 -85 -128 -139.5t-167 -54.5q-88 0 -147.5 52t-59.5 140q0 70 46.5 134t116 105.5t147 66t143.5 24.5q121 0 195.5 -71.5
t74.5 -192.5q0 -96 -35.5 -181t-96 -147.5t-139.5 -112t-168.5 -80.5t-179.5 -47t-176 -16q-80 0 -268 25q0 -1 -1 -3t-1 -3l-4 -13q0 -1 -1 -3t-1 -3q-25 -80 -88.5 -149t-144 -113t-170.5 -69t-173 -25q-53 0 -112.5 13.5t-116 40t-93 73t-36.5 104.5q0 57 37 106.5
t93.5 82t125.5 56t131.5 34t112.5 10.5q129 0 358 -45q8 8 8 23q0 61 -20.5 180t-20.5 180q0 55 1 79.5t9.5 67t26.5 70.5zM-12 8q-7 0 -19 3.5t-16 4.5q-103 25 -268 25q-49 0 -74 -2q-49 -2 -111 -18t-124.5 -43t-105 -72t-42.5 -99q0 -33 27.5 -57.5t69.5 -36t79 -17
t68 -5.5q94 0 201.5 39t197.5 114t117 164z" />
    <glyph glyph-name="t.ss02" horiz-adv-x="841" 
d="M786 829q7 -39 -24 -51q-33 -15 -47 13q-28 53 -230 53q-93 0 -155 -8q-37 -4 -56 -16.5t-43 -43.5q-10 -13 -56 -72t-67.5 -88.5t-63.5 -89t-65 -101t-49.5 -95t-38.5 -101t-12 -90.5q0 -49 18.5 -85t63.5 -36q85 0 173 38.5t160.5 102t131 136.5t98.5 149q40 79 45 123
q1 6 2.5 16t2 15t0 11t-3.5 9t-9 5t-16 2q-51 0 -128.5 -67t-133.5 -150t-56 -127l2 -5v-2l4 -14v-2l3 -4q0 -29 -33 -29q-21 0 -40.5 21.5t-19.5 42.5q0 53 37.5 127t92.5 139.5t123.5 111.5t123.5 46q59 0 95 -42t36 -102q0 -98 -64 -213t-159 -208t-211.5 -155.5
t-214.5 -62.5q-60 0 -105 22t-70 59t-37 84t-9.5 97.5t16 100t37.5 90.5q20 34 44.5 71.5t44 66t51 71t47.5 64t52.5 70t49.5 65.5q2 3 6.5 11t9.5 13v4q-1 0 -4.5 1t-6.5 1t-5 -2q-150 -15 -234 -28q-22 -3 -43 15t-24 44q0 19 20 29q9 4 35.5 13.5t40.5 16.5q27 11 43 -2
q6 -4 12 -6t9 -2.5t11 0t11 0.5q32 4 96 8l95 6q26 0 45 25q88 128 106 152q3 5 10.5 15t10.5 15q19 37 39 37q27 -4 47 -37q12 -25 0 -43q0 -2 -2 -2l-2 -4l-3 -2l-6 -16q-3 -3 -6 -9q-74 -92 -88 -122l12 -4q226 15 381 -25q40 -10 47 -64z" />
    </font>
</defs>
</svg>
