<svg xmlns="http://www.w3.org/2000/svg" width="60" height="68.571" viewBox="0 0 60 68.571">
  <path id="Trazado_288" data-name="Trazado 288" d="M52.971,0H7.029A7.046,7.046,0,0,0,0,7.063V53.417A7.046,7.046,0,0,0,7.029,60.48h38.88l-1.817-6.343,4.389,4.08,4.149,3.84L60,68.571V7.063A7.046,7.046,0,0,0,52.971,0ZM39.737,44.777S38.5,43.3,37.474,42a10.819,10.819,0,0,0,6.206-4.08,19.62,19.62,0,0,1-3.943,2.023,22.566,22.566,0,0,1-4.971,1.474,24.018,24.018,0,0,1-8.88-.034,28.781,28.781,0,0,1-5.04-1.474,20.092,20.092,0,0,1-2.5-1.166c-.1-.069-.206-.1-.309-.171a.473.473,0,0,1-.137-.1c-.617-.343-.96-.583-.96-.583a10.663,10.663,0,0,0,6,4.046c-1.029,1.3-2.3,2.846-2.3,2.846-7.577-.24-10.457-5.211-10.457-5.211A45.914,45.914,0,0,1,15.12,19.577a16.954,16.954,0,0,1,9.634-3.6l.343.411c-6.171,1.783-9.017,4.491-9.017,4.491s.754-.411,2.023-.994a25.747,25.747,0,0,1,7.783-2.16,3.378,3.378,0,0,1,.583-.069,29.01,29.01,0,0,1,6.926-.069,27.949,27.949,0,0,1,10.32,3.291s-2.709-2.571-8.537-4.354l.48-.549a16.954,16.954,0,0,1,9.634,3.6,45.914,45.914,0,0,1,4.937,19.989S47.314,44.537,39.737,44.777ZM23.794,28.766a3.819,3.819,0,0,0,0,7.611,3.653,3.653,0,0,0,3.5-3.806,3.631,3.631,0,0,0-3.5-3.806m12.514,0a3.819,3.819,0,1,0,3.5,3.806,3.653,3.653,0,0,0-3.5-3.806" transform="translate(0 0)" fill="#fff"/>
</svg>
