<svg xmlns="http://www.w3.org/2000/svg" width="59.462" height="59.499" viewBox="0 0 59.462 59.499">
  <g id="Grupo_105" data-name="Grupo 105" transform="translate(-717.235 -11067.088)">
    <path id="Trazado_186" data-name="Trazado 186" d="M746.968,11081.614a15.221,15.221,0,0,0-.047,30.441h.011a15.221,15.221,0,1,0,.036-30.441Z" fill="#fff"/>
    <path id="Trazado_187" data-name="Trazado 187" d="M762.808,11077.073a3.658,3.658,0,0,0-3.627,3.689v.013a3.653,3.653,0,0,0,3.69,3.614h0a3.658,3.658,0,1,0-.064-7.316Z" fill="#fff"/>
    <path id="Trazado_188" data-name="Trazado 188" d="M776.565,11081.992a16.925,16.925,0,0,0-17.024-14.9q-12.564-.013-25.127,0a16.982,16.982,0,0,0-17.177,16.784c0,.129,0,.259,0,.388v25.205a16.921,16.921,0,0,0,16.74,17.1c.1,0,.2,0,.3,0q12.7.025,25.4,0a16.323,16.323,0,0,0,2.517-.185,16.89,16.89,0,0,0,14.487-16.881c.022-4.222,0-8.423,0-12.64v-12.424A19.51,19.51,0,0,0,776.565,11081.992Zm-4.987,2.344v24.992a11.789,11.789,0,0,1-11.438,12.129c-.217.006-.435.007-.653,0H734.43a11.8,11.8,0,0,1-12.1-11.491c-.006-.212-.005-.423,0-.635v-25.206a11.8,11.8,0,0,1,10.074-11.787,13.151,13.151,0,0,1,2.027-.129q6.289-.009,12.567,0h12.492a11.79,11.79,0,0,1,12.094,11.48C771.585,11083.9,771.584,11084.12,771.578,11084.336Z" fill="#fff"/>
  </g>
</svg>
