<svg xmlns="http://www.w3.org/2000/svg" width="66.038" height="54.167" viewBox="0 0 66.038 54.167">
  <path id="Trazado_45" data-name="Trazado 45" d="M988.18,11080.347c-.878.929-1.848,1.773-2.814,2.613a1.166,1.166,0,0,0-.446.97,40.7,40.7,0,0,1-22.839,36.809,36.4,36.4,0,0,1-17.474,3.121,40.065,40.065,0,0,1-10.93-1.84c-2.3-.787-4.481-1.942-6.712-2.942a18.634,18.634,0,0,1-1.654-.862,28.161,28.161,0,0,0,19.392-5.624,16.441,16.441,0,0,1-12.713-9.578,13.119,13.119,0,0,0,5.78-.538,15.4,15.4,0,0,1-9.332-7.943,12.5,12.5,0,0,1-1.079-5.423,16.95,16.95,0,0,0,5.916,1.657c-5.958-5.138-6.83-11.283-4.243-18.288a40.25,40.25,0,0,0,28.422,14.282c0-.367.02-.668,0-.968a17.35,17.35,0,0,1,1.068-7.88,13.033,13.033,0,0,1,16.979-7.17q.389.157.767.341a33.2,33.2,0,0,1,4.349,2.8,1.067,1.067,0,0,0,1.032.212,36.846,36.846,0,0,0,7.852-3.089,14.315,14.315,0,0,1-5.53,7.346l.2.276,7.178-1.916c-1.1,1.257-2.09,2.489-3.181,3.635Z" transform="translate(-925.311 -11069.78)" fill="#fff"/>
</svg>
