<svg xmlns="http://www.w3.org/2000/svg" xmlns:xlink="http://www.w3.org/1999/xlink" width="701.758" height="565.866" viewBox="0 0 701.758 565.866">
  <defs>
    <clipPath id="clip-path"/>
  </defs>
  <g id="Grupo_3" data-name="Grupo 3" transform="translate(-1397.981 -4167.072)" clip-path="url(#clip-path)">
    <path id="Trazado_2" data-name="Trazado 2" d="M1440,4353c-14.982-4.253-42.37,23.217-42.016,38.788s10.064,29.149,19.193,41.767,18.463,26.621,17.89,42.185c-1.04,28.237-33.89,55.506-18.68,79.319,16.936,26.514,63.972,1.029,88.031,21.3,23.516,19.815,5.317,65.978,30.118,84.161,25.019,18.342,58.432-14.191,89.245-10.58,23.706,2.779,38.853,25.623,52.731,45.042s35.361,39.428,58.349,33.008c23.28-6.5,32.881-36.552,55.464-45.167,19.734-7.528,41.447,4.07,57.9,17.316s32.618,29.263,53.522,32.282c26.861,3.88,51.18-14.883,71.823-32.5,34.544-29.481,69.669-59.63,93.479-98.3,50.465-81.964,39.855-192.962-13.642-272.979s-143.868-130.582-238.074-150.33-192.317-11.207-286.616,8.09c-49.671,10.164-106.271,30.011-121.754,78.29-10.321,32.181,3.929,70.53,32.759,88.165" fill="#f9bf15"/>
  </g>
</svg>
