<svg xmlns="http://www.w3.org/2000/svg" xmlns:xlink="http://www.w3.org/1999/xlink" width="1775" height="841" viewBox="0 0 1775 841">
  <defs>
    <clipPath id="clip-path">
      <rect id="Rectángulo_14" data-name="Rectángulo 14" width="1775" height="841" transform="translate(-4 2399)" fill="none"/>
    </clipPath>
  </defs>
  <g id="Grupo_15" data-name="Grupo 15" transform="translate(4 -2399)" clip-path="url(#clip-path)">
    <path id="Trazado_7" data-name="Trazado 7" d="M-11.453,2665.054c-22.389,115.775,66.2,241.048,182.824,258.515,59.6,8.927,125.894-5.65,176.686,26.786,42.117,26.9,61.265,79.286,100.49,110.248,45.456,35.88,108.2,36.591,165.958,40.756a999.256,999.256,0,0,1,463.573,153.683c-329.151,2.759-653,76.33-979.127,120.926s-666.591,58.865-976.327-52.545c-30.781-11.072-64.075-26.1-76.908-56.191-12.413-29.106-1.447-62.36,9.54-92.033l126.985-342.94" fill="#ea4d90"/>
  </g>
</svg>
