<svg xmlns="http://www.w3.org/2000/svg" width="731.084" height="1703.293" viewBox="0 0 731.084 1703.293">
  <g id="Grupo_239" data-name="Grupo 239" transform="translate(-990.963 -8955.863)">
    <g id="Grupo_236" data-name="Grupo 236">
      <path id="Trazado_238" data-name="Trazado 238" d="M1156.826,10586.749a227.892,227.892,0,0,1-52.988-167.352l0-.042a229.406,229.406,0,0,1,248.292-208.815l.005-.056a341.077,341.077,0,0,0,368.614-310.836l.005-.061a340.881,340.881,0,0,0-310.4-369.421l0,.045a229.4,229.4,0,0,1-208.488-248.218l0-.042a229.406,229.406,0,0,1,248.292-208.815L1447,8956c-46.561,1.034-78.427,6.742-121.929,20.869a341.166,341.166,0,0,0-234.789,295.447l-.005.063a341.166,341.166,0,0,0,310.769,369.45l0-.045a229.212,229.212,0,0,1,208.121,248.187l0,.041a229.219,229.219,0,0,1-247.926,208.848l0,.056a341.157,341.157,0,0,0-368.981,310.8l-.005.063a340.5,340.5,0,0,0,78.859,249.056S1061.663,10668.093,1156.826,10586.749Z" fill="#f2aa4d"/>
    </g>
    <g id="Grupo_238" data-name="Grupo 238">
      <path id="Trazado_239" data-name="Trazado 239" d="M1543.252,10170.461c-36.785-30.369-43.322-28.85-80.81.649,30.37-36.786,34.207-45.487,4.708-82.975,36.785,30.369,38.856,33.3,76.345,3.8-30.371,36.786-29.742,41.037-.243,78.524" fill="#fff"/>
      <path id="Trazado_240" data-name="Trazado 240" d="M1102.577,10455.746c-46.734,9.56-49.656,15.6-50.237,63.3-9.56-46.735-13.923-55.185-61.621-55.766,46.734-9.56,50.315-9.331,50.9-57.03,9.56,46.735,13.264,48.914,60.962,49.5" transform="translate(98.027 127)" fill="#fff"/>
    </g>
    <g id="Grupo_237" data-name="Grupo 237">
      <path id="Trazado_244" data-name="Trazado 244" d="M1200.843,9320.258c-47.137,7.319-50.344,13.214-53.2,60.831-7.32-47.138-11.274-55.786-58.89-58.642,47.137-7.319,50.7-6.92,53.56-54.537,7.319,47.138,10.914,49.492,58.53,52.348" fill="#fff"/>
      <path id="Trazado_245" data-name="Trazado 245" d="M1722,9818.942c-47.516,4.2-51.1,9.876-57.084,57.2-4.2-47.517-7.582-56.406-54.908-62.387,47.517-4.2,51.049-3.571,57.03-50.9,4.2,47.518,7.637,50.1,54.962,56.083" fill="#fff"/>
      <path id="Trazado_246" data-name="Trazado 246" d="M1505.015,9011.417c-47.29,6.393-50.628,12.406-54.552,61.546-6.261-48.9-10.02-57.934-57.561-62.068,47.29-6.393,50.846-5.892,54.771-55.031,6.26,48.9,9.8,51.419,57.342,55.554" fill="#fff"/>
    </g>
  </g>
</svg>
