<svg xmlns="http://www.w3.org/2000/svg" width="1015.191" height="706.197" viewBox="0 0 1015.191 706.197">
  <g id="Grupo_45" data-name="Grupo 45" transform="translate(-48.792 -2304.297)">
    <circle id="Elipse_3" data-name="Elipse 3" cx="120.425" cy="120.425" r="120.425" transform="translate(662.857 2304.297)" fill="#f2aa4d"/>
    <path id="Trazado_48" data-name="Trazado 48" d="M484.448,2904.36a150.927,150.927,0,0,0,20.046-20.856c.841-1.062,1.333-2.511,2.89-3,3.434,7.415,9.709,9.911,17.395,10.329,9.037.492,16.747-2.708,23.818-7.918a152.565,152.565,0,0,0,15.28-13.02c3.109-2.994,6.251-5.955,9.578-9.121,3.839,5.613,8.987,9.488,15.829,10.311a36.982,36.982,0,0,0,22.965-4.364c5.1-2.842,9.346-6.678,13.527-10.652,3.255-3.093,6.269-6.481,10.34-8.977.566.624,1.061,1.172,1.557,1.718,5.781,6.352,12.98,9.26,21.553,9.349,7.33.077,13.652-2.527,19.609-6.418a155.128,155.128,0,0,0,18.635-14.8,69.508,69.508,0,0,1,19.116-12.57c3.2,5.809,7.861,9.245,14.479,9.8a28.855,28.855,0,0,0,9.671-1.052c10.7-2.748,18.406-10.108,26.22-17.23,2.045-1.865,2.045-4.391.717-6.871-2.129-3.98-6.28-5.167-10.262-2.5-3.738,2.508-7.168,5.477-10.734,8.242a24.2,24.2,0,0,1-12.2,5.381c-3.028.343-4.1-.43-3.973-3.514a37.008,37.008,0,0,1,1.209-8.285,294.109,294.109,0,0,1,13.1-38.331c6.189-14.336,15.915-25.506,30.2-32.381a48.116,48.116,0,0,0,5.183-3.137c17.027-11.045,34.933-20.206,54.62-25.573a22.238,22.238,0,0,0,3.952-1.362,6.422,6.422,0,0,0,3.428-7.017,5.855,5.855,0,0,0-5.684-5.213,22.806,22.806,0,0,0-9.645,1.241c-15.3,5.242-30.2,11.331-43.977,19.967q-25.484,15.969-51.187,31.586c-15.051,9.14-30.815,16.711-48.083,20.792-8.154,1.927-15.94,2.292-23.05-3.344-2.623-2.079-5.806-1.494-8.037.744a6.907,6.907,0,0,0-.94,8.94c2.053,2.849,4.96,4.636,8.078,6.159,2.79,1.363,5.869,1.816,9.009,2.818-1.339,1.542-2.932,2.154-4.294,3.082-1.415.964-2.84,1.914-4.233,2.907-13.272,9.466-22.749,21.565-26.048,37.869a6.747,6.747,0,0,1-2.3,3.892c-6.728,6.028-13.41,12.107-20.173,18.1a30.608,30.608,0,0,1-11.7,6.559,15.421,15.421,0,0,1-10.937-.356c-2.326-1.032-3.722-2.649-3.238-5.725,4.268.032,8.429-.315,12.219-2.388,11.354-6.213,20.338-14.791,26.31-26.36a41.891,41.891,0,0,0,3.733-9.537c1.825-7.742-3.092-14.061-11.051-14.251-4.277-.1-8.462.572-11.995,3.092-10.489,7.481-20.156,15.973-25.963,27.655a81.736,81.736,0,0,1-19.038,25.088c-1.974,1.758-3.737,3.752-5.639,5.594a120.2,120.2,0,0,1-15.227,13.063c-4.34,2.988-9.037,4.784-14.416,4.328-2.8-.238-3.732-.9-3.864-3.595-.137-2.79.078-5.6.191-8.4.088-2.162,1.129-3.474,3.415-3.628a11.742,11.742,0,0,0,7.027-3.356c7.352-6.521,14.335-13.371,20.081-21.422a285.7,285.7,0,0,0,25.891-44.759,62.665,62.665,0,0,0,5.715-21.993c.609-7.847-4.874-14.347-13.314-13.587a18.214,18.214,0,0,0-8.974,3.549,39.881,39.881,0,0,0-6.136,5.724,180.418,180.418,0,0,0-34.879,54.824,203.75,203.75,0,0,0-12.221,40.049c-.223,1.2-.33,2.373-2.064,2.612-3.732.514-5.891,3.255-7.828,6.129-6.051,8.979-13.745,16.489-21.429,24a25.91,25.91,0,0,1-10.475,5.9c-5.588,1.781-9.257-.86-9.427-6.669a62.9,62.9,0,0,1,.192-7.936,28.471,28.471,0,0,1,9.787-19.523,76.841,76.841,0,0,0,6.282-6.262c11.276-12.35,20.493-26.233,29.636-40.155,2.742-4.174,4.8-8.766,4.392-13.983-.088-1.112.134-1.889,1.028-2.308,1.964-.921,1.893-2.592,1.876-4.339-.025-2.491.168-4.989.038-7.473-.277-5.278-3.688-8.488-9-8.793a13.343,13.343,0,0,0-9.758,3.712,75.088,75.088,0,0,0-12.121,12.915,211.711,211.711,0,0,0-21.349,37.679,223.6,223.6,0,0,0-10.294,28.466c-.777,2.7-1.982,4.873-4.913,5.652-2.133.566-3.212,2.357-4.416,3.97-5.849,7.835-13.288,13.957-21.186,19.562-.864.613-1.766,1.829-3.4.968.243-2.289.515-4.6.729-6.909.651-7.016.97-14.021-2.1-20.64-3.86-8.319-13.038-11.1-20.192-5.512-10.985,8.583-18.779,19.467-20.97,33.623-1.423,9.2,2.862,16.131,11.639,19.345,1.278.468,2.588.847,4.22,1.376a35.038,35.038,0,0,1-11.507,11.435c-4.869,3.085-8.89.756-9.212-5.091a30.564,30.564,0,0,1,1.17-9.226c.686-2.712,1.484-5.41,1.941-8.163a6.4,6.4,0,0,0-3.276-7.111c-2.823-1.529-5.567-1.156-8.17,1.147a20.054,20.054,0,0,0-3.406,4.426q-6.785,10.617-13.574,21.231c-8.617,13.535-17.57,26.824-28.313,38.8-7.1,7.919-14.877,15.05-24.117,20.458-4.108,2.405-8.407,3.941-13.274,3.57-5.014-.383-6.956-2.243-7.192-7.284a65.614,65.614,0,0,1,1.4-16.706c3.151-14.873,8.919-28.731,16.034-42.114A188.057,188.057,0,0,1,337.016,2860a24.788,24.788,0,0,1,5.9-3.712c1.837-.727,2.69.007,2.282,1.982a27.817,27.817,0,0,1-1.412,4.432,79.012,79.012,0,0,1-12.874,21.532,151.125,151.125,0,0,1-12.219,12.867c-2.285,2.19-4.194,4.587-4.693,7.861-.543,3.565.807,6.023,4.055,7.506,3.306,1.51,5.764.029,7.883-2.238,5.316-5.685,10.668-11.346,15.761-17.229a91.485,91.485,0,0,0,14.1-22.452,34.4,34.4,0,0,0,3.349-17.214c-.57-6.85-4.45-10.62-11.329-11.313-6.793-.684-12.492,1.759-17.733,5.726-34.249,25.924-58.587,58.941-71.582,100.071-3.447,10.909-5.505,22.013-4.915,33.524.509,9.915,5.953,16.712,15.542,18.969a31.518,31.518,0,0,0,22.17-2.765,101.088,101.088,0,0,0,24.692-18.217c11.763-11.506,21.128-24.883,30.349-38.406,2.385-3.5,4.205-6.829,3.4-11.146-.072-.391.178-.593,1.017-.545,1.5.371,2.084,2.016,2.741,3.553a12.386,12.386,0,0,0,6.388,6.525c9.648,4.437,18.8,3.955,26.849-3.355,5.78-5.246,11.236-10.787,15.36-17.492a10.708,10.708,0,0,1,5.251-4.41,105.448,105.448,0,0,0,32.149-21.192c.715-.673,1.228-1.9,2.666-1.561.08,1.228.107,2.458.25,3.675,1.284,10.952,9.551,18.344,20.517,18.268C471.28,2913.189,478.322,2909.623,484.448,2904.36Zm168.236-86.442a64.675,64.675,0,0,1,24.775-22.152c2.585-1.322,5.318-2.593,8.562-1.941-.576,2.46-2.315,4.072-3.769,5.851-2.559,3.132-5.237,6.171-7.7,9.378a5.913,5.913,0,0,0-.592,6.992,6.964,6.964,0,0,0,6.486,3.812,5.228,5.228,0,0,0,3.785-1.551c4.821-5.07,9.916-9.91,13.573-15.973a32,32,0,0,0,3.146-6.745c2.2-6.854.85-10.593-5.611-15.006,12.4-4.554,24.411-9.315,35.6-15.8a1.885,1.885,0,0,1,.016,2.057,301.407,301.407,0,0,0-12.585,38,7.863,7.863,0,0,1-5.582,6.088c-8.186,2.82-15.256,7.595-21.8,13.19-5.205,4.447-10.147,9.215-15.738,13.2a41.2,41.2,0,0,1-10.965,6.052,16.071,16.071,0,0,1-12.2-.768,6.907,6.907,0,0,1-4.358-6.548A29.682,29.682,0,0,1,652.684,2817.918Zm-40.679-4.479c-.654,6.205-11.47,18.023-19.958,21.808C594.463,2828.975,602.543,2820.146,612.005,2813.439Zm-43.406-40.49c-.11,12.518-27.585,58.479-41.752,69.846C528.82,2825.529,557.169,2777.587,568.6,2772.949Zm-77,33.017c-2.945,8.9-8.341,16.257-14.6,23.078A75.809,75.809,0,0,1,491.6,2805.966Zm-94.874,93.153c-1.806,3.43-2.407,3.723-6.278,2.982a27.806,27.806,0,0,1-3.554-1,3.246,3.246,0,0,1-2.4-3.949,28.6,28.6,0,0,1,1.18-5.426c2.734-7.227,7.2-13.222,13.967-18.853C400.7,2882.523,400.969,2891.06,396.726,2899.119Z" fill="#fff"/>
    <path id="Trazado_49" data-name="Trazado 49" d="M338.781,2640.307a22.716,22.716,0,0,0,14.5-4.163,120.65,120.65,0,0,0,24.206-21.834c.828-1,1.3-2.469,2.822-2.671,1.129,2.8,2.061,5.62,3.37,8.252,2.25,4.519,6,6.8,11.085,7.4a22.094,22.094,0,0,0,18.4-6.035c4.138-3.791,8.047-7.8,11.811-11.966,1.547-1.711,2.716-3.8,4.786-5.084a10.6,10.6,0,0,1,1.151,2.1c2.651,9.665,15.711,13.854,25.2,8.35a46.986,46.986,0,0,0,11.06-8.5c2.649-2.852,5.178-5.815,7.789-8.7,2.462-2.721,2.635-2.787,4.85.108,2.615,3.415,5.558,6.3,9.8,7.54a22.937,22.937,0,0,0,16.758-1.6,42.3,42.3,0,0,0,12.211-9.255,144.179,144.179,0,0,0,20.93-28.544c7.293-12.67,13.8-25.756,20.479-38.753.818-1.592,1.34-3.429,3.536-3.9a75.878,75.878,0,0,1-.058,8.559,85.291,85.291,0,0,0-.735,14.909,15.981,15.981,0,0,1-5.381,13.307c-10.49,9.907-18.887,21.52-26.471,33.7-6.831,10.968-8.934,23.071-7.323,35.846.533,4.219,2.747,7.352,6.693,8.836,5.924,2.226,12.095,3.07,18.3,1.31a37.052,37.052,0,0,0,24.664-21.113,54,54,0,0,0,4.606-20.814c.294-8.61-1.269-17.051-2.3-25.544-1.022-8.448.711-15.8,8.546-20.66a27.015,27.015,0,0,0,3.875-3.349,396.962,396.962,0,0,1,53.467-42.187c37.158-24.174,75.551-46.151,116.214-63.987a42.837,42.837,0,0,0,8.6-4.637c2.18-1.63,2.623-3.652,1.692-6.213-.982-2.7-2.411-3.731-5.132-3.94-2.972-.227-5.392,1.275-7.937,2.374-29.833,12.892-58.269,28.468-86.348,44.755-27.385,15.885-53.435,33.623-77.294,54.5-4.8,4.2-9.749,8.217-14.917,12.56-.44-1.889-.84-3.449-2.351-4.5-1.743-1.214-1.829-3.177-1.526-5.085,1.39-8.746,2.479-17.537,5.222-26.033,6.521-20.194,18.524-37.19,31.086-53.879.405-.537.971-.739,1.766.027-1,2.333-2.785,4.263-4.262,6.358a328.075,328.075,0,0,0-20.187,31.926c-1.756,3.221-3.113,6.558-3.05,10.384,1.068-.285,1.336-1.016,1.677-1.724,7.343-15.243,17.337-28.73,27.762-41.936a47.038,47.038,0,0,0,3.776-5.319c1.675-2.869,1.475-5.493-.277-7.33-1.953-2.047-4.834-2.5-7.746-1.348-2.122.839-3.525,2.5-5.035,4.064-21.533,22.327-39.308,47.4-54.21,74.537-7.031,12.805-13.73,25.792-20.7,38.631a107.741,107.741,0,0,1-22.581,28.946,15.471,15.471,0,0,1-8.62,4.252,7.361,7.361,0,0,1-7.475-3.72c-1.351-2.534-.82-4.407,1.726-5.754,1.92-1.015,3.948-1.832,5.833-2.9,15.372-8.742,25.127-22.456,33.013-37.726a17.6,17.6,0,0,0,1.635-10.481c-.715-5.274-3.669-7.831-9-8.334-4.278-.4-7.937.965-11.4,3.255-14.9,9.85-25.585,23.012-31.384,39.994-.957,2.8-1.874,5.581-3.782,7.944-5.283,6.539-10.494,13.136-15.764,19.686a35.252,35.252,0,0,1-10.02,8.286c-1.966,1.138-4.057,1.634-6.086.018-1.83-1.456-1.323-3.428-.884-5.181,2.6-10.413,5.378-20.765,10.9-30.141,2.207-3.749,4.224-7.616,6.174-11.506a5.663,5.663,0,0,0-.731-6.551,6.223,6.223,0,0,0-6.3-2.088c-3.871.675-6.243,3.108-8.07,6.419-6.014,10.892-12.3,21.628-19.112,32.045a122.6,122.6,0,0,1-20.22,24.379,21.631,21.631,0,0,1-4.463,3.347c-4.763,2.465-7.545.976-7.833-4.332-.152-2.794.142-5.616-.051-8.405a10.447,10.447,0,0,1,5.1-10.238,50.82,50.82,0,0,0,12.084-11.595c7.7-9.986,15.529-19.874,23.057-29.987,2.152-2.891,4.48-5.82,5.556-9.41a8.235,8.235,0,0,0,3.4-2.973c2.135-3.064,4.359-6.067,6.433-9.17,9.62-14.389,17.152-29.928,24.838-45.376,6.24-12.542,11.686-25.4,15.33-38.979a35.174,35.174,0,0,0,1.386-11.987c-.515-6.481-5.105-9.623-11.417-7.9a25.185,25.185,0,0,0-8.193,4.327,129,129,0,0,0-23.26,21.523c-20.621,24.869-36.557,52.547-48.618,82.448-3.711,9.2-7.95,18.243-10.1,28.029-2.264,10.321-4.628,20.621-6.918,30.937-.281,1.267-.52,2.613-2.053,2.738-4.531.372-6.5,3.714-8.646,7.025a82.246,82.246,0,0,1-27.118,25.9c-5.663,3.4-9.6,1.453-9.861-5.031-.3-7.455-.028-14.935.055-22.4a4.974,4.974,0,0,1,2.742-4.6c6.847-3.324,11.546-8.926,15.66-14.98,7.526-11.077,15.49-21.831,23.46-32.581a330.366,330.366,0,0,0,34.323-57.075,145.2,145.2,0,0,0,9.324-24.344c1.559-5.926,2.448-11.956.589-17.957-1.888-6.1-7.624-8.424-13.445-5.762a21.222,21.222,0,0,0-5.287,3.783,137.869,137.869,0,0,0-21.556,24.483c-7.137,10.4-13.633,21.187-20.063,32.024-12.323,20.767-23,42.286-30.922,65.165a147.091,147.091,0,0,0-7.832,56.013C322.269,2633.535,328.723,2639.829,338.781,2640.307Zm223.946-29.162c-3.331,8.431-9.057,14.387-18.125,16.589a12.364,12.364,0,0,1-3.692.345c-3.5-.236-4.938-1.756-5.048-5.383a39.673,39.673,0,0,1,4.6-20.688c5.65-10.283,13.1-19.269,20.7-28.125a8.86,8.86,0,0,1,1.809-1.038,124.64,124.64,0,0,1,2.081,24.577A38.693,38.693,0,0,1,562.727,2611.145ZM517.7,2539.952c-5.489,11.544-13.63,19.768-22.5,27.659C494.651,2559.591,506.921,2544.3,517.7,2539.952Zm-78.227.25c.025,0,.049,0,.074,0l-.09.089c0-.028.011-.057.016-.086a6.487,6.487,0,0,0-3.6,1.053,13.975,13.975,0,0,1-.517,3.649,1.738,1.738,0,0,1-2.763.645c-.785-.594-.188-1.392.351-1.957.847-.885,1.736-1.73,2.607-2.592,1.252-2.506,1.252-2.506,3.62-4.376C440.241,2537.758,439.661,2539,439.468,2540.2Zm-36.78,19.585c5.653-19.682,14.341-38.077,24.08-56a282.631,282.631,0,0,1,26.671-41.043,109.586,109.586,0,0,1,17.448-18.143,17.545,17.545,0,0,1,5.227-3.31c.2,4.185-1.3,7.8-2.558,11.422-4.956,14.292-11.755,27.747-19.011,40.97-13.041,23.766-27.2,46.812-44.48,67.8-2.568,3.121-5.44,5.993-8.189,8.963a1.088,1.088,0,0,1-1.468.354C400.508,2567.09,401.642,2563.431,402.688,2559.787Zm-57.033.045c7.367-19.4,17.338-37.5,27.931-55.271,7.573-12.7,15.6-25.116,25.008-36.564,2.836-3.45,5.717-6.9,9.862-9.779.547,3.722-.669,6.3-1.621,8.905a252.469,252.469,0,0,1-31.013,59.328c-10.42,14.736-21.013,29.35-31.528,44.019-.443.618-.769,1.372-1.888,1.4C342.734,2567.632,344.18,2563.714,345.655,2559.832Z" fill="#fff"/>
    <path id="Trazado_50" data-name="Trazado 50" d="M738.2,2659.259c-8.024,9.111-16.561,17.768-24.8,26.69a26.329,26.329,0,0,1-13.764,8.238,10.231,10.231,0,0,1-6.385-.647c-3.864-1.621-4.95-4.334-3.342-8.26.469-1.146,1.062-2.245,1.633-3.347q11.889-22.986,23.787-45.968c3.856-7.454,7.51-15.02,11.6-22.343,4.146-7.421,7.213-15.38,11.977-22.507,7.952-11.9,15.076-24.352,24.44-35.269a16.92,16.92,0,0,0,2.746-4.31,4.933,4.933,0,0,0-1.268-5.938c-2.342-2.331-5.611-2.462-8.439-.2a38.913,38.913,0,0,0-5.659,6.2c-13.8,17.008-24.55,35.908-34.452,55.345q-12.063,23.676-24.262,47.282c-1.32,2.56-2.56,5.21-4.945,7.611-.6-1.689-1-2.972-1.514-4.205-2.735-6.558-8.3-9.329-15.1-7.511a21.76,21.76,0,0,0-5.571,2.3,69.8,69.8,0,0,0-12.665,9.5,64.975,64.975,0,0,0-16.356,25.224c-.88,2.44-1.873,5.076-4.642,5.27-3.324.232-4.434,2.32-5.668,4.715-3.74,7.264-8.892,13.5-14.454,19.4-1.554,1.65-3.216,3.37-5.826,3.538a6.971,6.971,0,0,1,.517-4.63c1.47-4.094,2.857-8.218,4.309-12.318,3.165-8.936,6.49-17.832,8.45-27.128,1.054-5,2.193-10.059.572-15.217-1.664-5.294-5.42-8.176-10.968-8.447a20.988,20.988,0,0,0-13.927,4.38c-1.859,1.381-3.685,2.806-5.59,4.26-.432-.905-.781-1.594-1.093-2.3a6.18,6.18,0,0,0-6.25-4.015c-2.933.131-4.856,1.906-5.837,4.638-.523,1.461-.913,2.97-1.381,4.451-5.48,17.344-11.413,34.507-19.7,50.768a53.733,53.733,0,0,1-17.8,20.016,20.608,20.608,0,0,1-4.932,2.565,9.376,9.376,0,0,1-9.223-1.649c-1.946-1.533-2.025-2.95-.279-4.687a18.883,18.883,0,0,1,2.974-2.243c3.5-2.312,7.1-4.495,10.542-6.891,8.18-5.692,14.906-12.694,19.226-21.813a21.784,21.784,0,0,0,2.282-8.5c.228-5.889-2.959-9.365-8.836-9.847a24.523,24.523,0,0,0-11.783,2.252c-17.484,7.488-30.742,29.943-28.8,48.889a17.648,17.648,0,0,0,9.2,14.32c8.178,4.61,16.425,4.4,24.324-.5,9.122-5.65,16.769-12.923,22.1-22.348,3.291-5.816,6.611-11.707,8.713-18.033,5.328-16.03,16.637-27.478,28.553-38.539a10.052,10.052,0,0,1,2.661-1.864c2.434-1.08,4.007-.024,3.844,2.6a27.384,27.384,0,0,1-.813,4.585c-2.919,12.269-7.189,24.1-11.509,35.928-1.657,4.533-3,9.179-2.841,14.1.217,6.642,4.571,11.2,11.12,11.456a14.614,14.614,0,0,0,7.955-2.275,47.516,47.516,0,0,0,13.363-11.51c2.9-3.629,5.815-7.249,8.778-10.942,9.342,12.881,25.983,12.725,36.265,3.449a74.805,74.805,0,0,0,8.839-8.968c2.565-3.246,2.609-3.209,6.372-1.043a26.074,26.074,0,0,0,18.867,2.952c7-1.421,12.551-5.2,17.559-10.014,7.978-7.672,15.346-15.909,22.6-24.264a200.852,200.852,0,0,1,62.206-48.432c17.991-9.021,37.1-14.87,56.4-20.221a24.861,24.861,0,0,0,3.975-1.256c3.084-1.452,4.12-3.863,3.347-7.343-.634-2.854-2.957-4.52-6.317-4.28a26.847,26.847,0,0,0-5.037.954c-6.434,1.742-12.913,3.357-19.262,5.374C800.089,2608.853,765.539,2628.22,738.2,2659.259Zm-195.582,35.888c-3.662,8.356-9.554,13.3-16.77,16.95C528.721,2704.2,533.957,2698.609,542.621,2695.147Zm117.459-5.5a5.7,5.7,0,0,0,5.011,3.595,32.419,32.419,0,0,0,4.652-.2c-3.181,6.162-7.41,10.659-13.366,13.361a9.753,9.753,0,0,1-5.944.5c-3.841-.766-5.546-2.649-4.894-6.487,2.819-16.615,11.473-29.184,26.38-37.281a6.77,6.77,0,0,1,1.521-.229c-.973,7.349-2.991,13.657-8.927,18.083a27.348,27.348,0,0,0-3.16,2.735A5.025,5.025,0,0,0,660.08,2689.644Z" fill="#fff"/>
    <path id="Trazado_51" data-name="Trazado 51" d="M206.052,2710.479c2.552-5.878,6.106-11.134,9.3-16.628,9.228-15.851,12.047-32.957,10.477-51.206-1.4-16.311-8.059-29.469-20.392-39.975-.8-.681-1.824-1.206-2.1-2.76,1.919-.35,2.8.9,3.828,1.735a55.708,55.708,0,0,1,17.421,24.926c4.049,11.234,4.438,22.825,3.189,34.55-.409,3.845-.939,7.677-1.477,12.03,2.427-3.695,3.232-6.713,3.955-11.755,1.049-7.319.665-14.637-.061-21.9-2.036-20.381-11.744-35.7-30.461-44.819-.7-.339-1.4-.667-2.11-.969a3.018,3.018,0,0,1-1.888-4.155,49.286,49.286,0,0,0,2.054-10.969q2.193-20.042-11.867-34.483a21.8,21.8,0,0,0-16.746-6.851,45.017,45.017,0,0,0-11.473,1.78c-11.949,3.389-20.755,10.9-27.788,20.827a154.746,154.746,0,0,0-18.179,35.1c-11.484,30.387-17.9,62.063-23.449,93.933a43.448,43.448,0,0,0-.471,13.495c.492,3.493,2.381,5.524,5.532,5.958,2.493.343,4.863-1.057,6.275-3.91a29.942,29.942,0,0,0,1.619-4.354c1.907-6.078,3.841-12.144,6.155-18.085,8-20.552,17.091-40.67,24.344-61.524,3.009-8.651,6.6-17.1,9.744-25.706,1.427-3.907.186-7.176-2.689-8.389-3.252-1.371-6.445-.048-8.468,3.757a63.307,63.307,0,0,0-2.969,6.83c-3.151,8.106-5.8,16.4-9.335,24.365-.379.852-.724,1.722-1.157,2.545a19.576,19.576,0,0,1-1.15,1.734,171.78,171.78,0,0,1,13.588-39.689,118.463,118.463,0,0,1,12.326-20.848c5.044-6.536,11.116-11.691,19.263-14.026,10.879-3.119,18.035.284,22.331,10.776a32.169,32.169,0,0,1,1.229,4c1.714,6.514.941,12.983-.528,19.4-1.02,4.46-1.943,5.15-6.726,5.52a34.194,34.194,0,0,0-10.387,2.428,68.222,68.222,0,0,0-32.436,27.019,28.7,28.7,0,0,0-4.344,19.158c.752,7,5.558,10.413,12.424,8.871a40.629,40.629,0,0,0,12.748-5.549,98.727,98.727,0,0,0,29.827-29.806c1.2-1.817,2.269-3.722,3.506-5.511,1.961-2.834,2.295-2.931,5.317-1.635,8.144,3.493,14.576,8.954,18.564,16.938,8.179,16.373,8.853,33.339,2.194,50.181a116.162,116.162,0,0,1-46,56.106c-17.375,11.2-36.688,16.567-57.212,17.587a53.6,53.6,0,0,1-22.831-3.795c-10.82-4.355-18.757-12-24.7-21.864a38.71,38.71,0,0,0-4.705-6.933c-2.53-2.667-5.528-2.768-8.245-.375-2.536,2.232-2.8,4.595-.849,8.409,12.252,23.972,31.986,36.127,58.758,36.869,13.012.361,25.695-1.954,38.066-5.876,19.695-6.242,36.052-17.952,51.1-31.691A32.262,32.262,0,0,0,206.052,2710.479Zm-62.582-76.1c-.817-10.561,18.035-28.466,31.505-29.525C167.016,2617.97,157.213,2628.013,143.47,2634.379Z" fill="#fff"/>
    <path id="Trazado_52" data-name="Trazado 52" d="M423.706,2794.883a5.637,5.637,0,0,0,3.845,4.851,5.4,5.4,0,0,0,6.02-1.284,10.376,10.376,0,0,0,2.973-5.715c2.65-12.559,8.287-24.065,12.566-36.046,1.3-3.629,2.157-3.825,6-2.808,15.439,4.086,30.516,9.49,46.13,12.915,10.453,2.292,20.993,4.188,31.5,6.245a32.5,32.5,0,0,0,5.044.81c3.057.1,4.942-1.367,5.908-4.265a5.51,5.51,0,0,0-2.282-6.511,13.042,13.042,0,0,0-5.106-2.176c-3.2-.635-6.371-1.419-9.59-1.9-19.865-2.949-39.126-8.283-58.152-14.565-3.774-1.246-3.857-1.6-1.151-4.358.436-.444.907-.853,1.355-1.285,9.773-9.421,18.071-20.171,27.161-30.209,2.62-2.893,2.473-6.461.107-8.82s-5.9-2.428-8.813.124a59,59,0,0,0-5.779,6.083c-6.076,7.1-12.063,14.272-18.654,20.905-.886.891-1.547,2.253-3.487,2.353.811-1.856,1.454-3.4,2.152-4.914,6.694-14.543,13.212-29.165,17.938-44.489a163.111,163.111,0,0,1,7.722-20.469q2.348-5.074,4.512-10.233a12.016,12.016,0,0,0,1.22-5.411,5.892,5.892,0,0,0-8.769-4.988,7.805,7.805,0,0,0-3.248,3.865c-4.759,11.136-10.167,22.018-13.64,33.663a279.1,279.1,0,0,1-13.433,34.738c-5.356,11.9-11.109,23.63-14.943,36.153a9.1,9.1,0,0,1-1.968,3.665c-6.97,7.409-14.611,13.972-23.718,18.671-3.981,2.053-7.825,2.176-11.837-.668,2.074-1.634,3.913-3.058,5.725-4.515a120.419,120.419,0,0,0,19.394-19.5c4.4-5.607,7.631-11.742,7.626-19.126-.005-8.2-5.8-12.94-13.894-11.25a32.887,32.887,0,0,0-14.829,7.464,50.073,50.073,0,0,0-15.256,22.508,50.657,50.657,0,0,0-2.945,15.523,15.735,15.735,0,0,1-5.685,12.231c-5.684,5.088-11.238,10.321-17.21,15.078-5.261,4.189-10.889,7.793-17.451,9.549a20.213,20.213,0,0,1-13.84-.852c.475-2.182,2.141-2.545,3.459-3.238,14.118-7.423,24.924-18.453,34.031-31.3a19.413,19.413,0,0,0,3.668-13.207c-.48-5.589-3.823-9.034-9.445-9.8a22.348,22.348,0,0,0-15.13,3.4c-19.347,11.884-28.15,30.056-30.591,51.832-.732,6.532,2.634,11.505,8.712,13.988a32.7,32.7,0,0,0,18.705,2.185c7.806-1.459,14.654-4.965,21.1-9.412a154.18,154.18,0,0,0,21.009-17.776c2.41-2.4,4.571-3.018,7.837-1.5,9.061,4.2,17.82,3.061,26.122-2.33,1.54-1,2.919-2.3,5.556-2.9-1.307,5-2.41,9.5-3.681,13.95A13.847,13.847,0,0,0,423.706,2794.883Zm-3.207-66.866c-.142,5.245-7.04,14.282-18.164,23.6C401.553,2744,410.422,2731.384,420.5,2728.017Zm-59.72,23.775c-5.66,10.5-13.825,18.69-23.668,25.377C340.446,2764.483,348.036,2755.733,360.779,2751.792Z" fill="#fff"/>
    <path id="Trazado_53" data-name="Trazado 53" d="M269.511,2823.663c14.148-26.267,26.9-53.247,40.957-79.57,12.675-23.739,25.8-47.167,41.289-69.209a6.212,6.212,0,0,1,1.271-1.335c4.3-3.312,7-8.131,11.054-11.681a10.238,10.238,0,0,0,1.932-2.622,6,6,0,0,0-.974-7.657,5.558,5.558,0,0,0-7.636-.468,29.215,29.215,0,0,0-4.009,3.884c-16.943,18.085-29.924,38.9-41.741,60.528-17.213,31.5-33.473,63.5-49.675,95.522-3.575,7.068-7.386,14.023-11.284,20.919a54.622,54.622,0,0,1-16.232,17.79c-1.709,1.212-3.382,1.681-5.052.147-1.572-1.445-2.522-3.209-1.667-5.419a14.156,14.156,0,0,1,1.329-2.455c9.145-14.282,15.038-29.925,19.478-46.2a71,71,0,0,0,2.029-21.746c-.131-3.248-1.916-5.416-4.859-6.813-2.9-1.376-5.411-.8-7.827,1.018a18.223,18.223,0,0,0-5.1,5.989c-2.507,4.651-5.127,9.242-7.54,13.94-7,13.632-11.269,28.137-10.723,43.451a25.251,25.251,0,0,1-7.131,19.3c-1.8,1.94-3.535,3.935-5.355,5.853a18.9,18.9,0,0,1-2.471,2.134c-3.386,2.506-5.031,2.389-8.2-.432-3.013-2.685-4.074-6.162-4.111-10.042a129.11,129.11,0,0,1,4.13-35.574,89.528,89.528,0,0,0,2.941-27.725c-.166-3.843-.027-7.8-1.546-11.506-2.271-5.546-6.6-7.336-12.03-4.837a17.261,17.261,0,0,0-6.751,5.608,149.85,149.85,0,0,0-18.134,31.96,19.982,19.982,0,0,0-1.854,9.057,5.528,5.528,0,0,0,4.771,5.522c2.483.51,4.731-.544,6.238-3.009a9.16,9.16,0,0,0,.909-2.131c2.852-9.475,7.834-17.9,12.93-26.27.6-.978,1.008-2.263,2.846-2.049a44.651,44.651,0,0,1,.339,5.553,72.776,72.776,0,0,1-2.617,16.086c-3.9,13.935-4.955,28.146-4.36,42.526a23.707,23.707,0,0,0,5.059,13.795c4.449,5.732,10.363,8.361,17.6,7.4,4.761-.636,8.749-3.039,12.231-6.309,2.943-2.763,5.918-5.491,9-8.348,1.623,1.11,3.568,2.67,5.718,3.859,3.991,2.209,8.337,3.138,12.442.681,9.006-5.391,17.354-11.581,22.52-21.126C262.9,2835.639,266.268,2829.684,269.511,2823.663Z" fill="#fff"/>
    <path id="Trazado_54" data-name="Trazado 54" d="M933.085,2839.518a11.949,11.949,0,0,0-3.187.548c-14.717,3.785-29.447,7.52-44.138,11.4a2944.94,2944.94,0,0,0-294.721,94.571c-43.773,16.649-87.142,34.289-129.581,54.142a22.269,22.269,0,0,0-3.676,1.972,4.946,4.946,0,0,0-2.115,5.722c.833,2.325,2.7,2.8,4.919,2.565,2.262.262,4.2-.679,6.212-1.583,12.871-5.8,25.7-11.708,38.674-17.259,121.408-51.933,246.367-93.51,373.765-127.946,17.067-4.613,34.228-8.881,51.33-13.367,1.774-.466,3.628-.789,5.18-1.984a5.082,5.082,0,0,0,2.045-5.752C937.158,2840.214,935.21,2839.57,933.085,2839.518Z" fill="#fff"/>
    <path id="Trazado_55" data-name="Trazado 55" d="M845.9,2781.687c-1.153,1.025-2.157.756-2.249-.739-.208-3.414-.678-6.928-.126-10.249,1.373-8.264,3.221-16.451,4.95-24.653,1.187-5.627,2.547-11.217,3.732-16.844.964-4.573-1.043-8.42-4.728-9.355-4.336-1.1-7.251.916-8.755,6.1-.39,1.342-.7,2.708-.992,4.076q-3.362,15.971-6.691,31.946c-.287,1.382-.459,2.774-1.935,3.506-6.518,3.231-10.714,8.863-14.923,14.479a134.316,134.316,0,0,1-13.515,15.454,29.888,29.888,0,0,1-8.755,6.108c-2.935,1.3-5.522.193-7.67-1.817-1.752-1.64-3.066-3.564-1.032-5.993a2.753,2.753,0,0,0,.293-1.348c.724-6.082,2.88-11.746,5.055-17.407,1.558-4.059,3.083-8.132,4.653-12.187a11.964,11.964,0,0,0,.587-5.981,6.055,6.055,0,0,0-5.967-5.472c-3.742-.258-6.16,1.266-7.54,5.55-2.145,6.66-4.861,13.1-7.187,19.686a73.1,73.1,0,0,0-3.977,18.653,17.613,17.613,0,0,0,6.173,15.416,20.987,20.987,0,0,0,23.926,2.942,49.79,49.79,0,0,0,10.977-7.852,104.619,104.619,0,0,0,12.943-14.7c1.837-2.451,3.5-5.088,6.341-7.287.992,2.4,1.619,4.322,2.545,6.088a13.3,13.3,0,0,0,15.328,6.872,16.977,16.977,0,0,0,8.028-4.482,46.819,46.819,0,0,0,9.34-12.745c8.524-16.779,17.7-33.184,27.7-49.132a43.259,43.259,0,0,0,4.8-9.563,5.369,5.369,0,0,1,2.231-2.812c7.778-5.68,13.149-13.654,19.479-20.7,3.135-3.488,1.723-8.533-2.34-10.621-2.795-1.437-5.706-.776-8.72,2.429-13.252,14.092-25.547,28.911-34.85,46.011-6.9,12.693-14.467,25.026-20.7,38.089A26.809,26.809,0,0,1,845.9,2781.687Z" fill="#fff"/>
    <path id="Trazado_56" data-name="Trazado 56" d="M1060.33,2683.485a9.558,9.558,0,0,0-4.048-.993,75.926,75.926,0,0,0-16.712,1.347c-16.89,3.3-31.411,11.36-44.5,22.263-7.073,5.891-13.463,12.495-19.907,19.044-8.187,8.321-15.815,17.21-24.781,24.74-6.7,5.624-13.848,10.563-22.33,13.172a18.227,18.227,0,0,1-12.335-.385c-2.227-.882-4.013-2.27-4.232-5.341,7.375.257,10.719-.071,15.53-2.273a69.3,69.3,0,0,0,21.765-15,35.4,35.4,0,0,0,9.281-18.5c1.023-5.673-1.307-9.765-6.592-11.922-4.8-1.957-9.463-1.253-13.993.841a83.3,83.3,0,0,0-34.336,28.641,34.626,34.626,0,0,0-5.346,12.83c-2.437,11.829,3.943,21.875,15.671,24.759a36.693,36.693,0,0,0,24.576-2.312,90.671,90.671,0,0,0,15.151-9.134,135.075,135.075,0,0,0,20.215-17.965c1.225-1.319,2.589-2.907,1.392-4.484-1.649-2.171-.076-2.912,1.045-4.118,4.654-5.006,10.248-9.109,14.2-14.791.6-.86,1.345-1.274,2.3-.444,1.887,1.643,3.4.653,4.909-.656a60.186,60.186,0,0,0,5.334-4.526c3.215-3.524,7.134-5.93,11.055-8.59,12.62-8.564,26.226-13.3,41.467-13.3a11.221,11.221,0,0,0,5.4-1.244,5.941,5.941,0,0,0,3.477-5.625A6.383,6.383,0,0,0,1060.33,2683.485Zm-118.722,40.639c.349,1.7-.614,2.6-1.262,3.467-2.514,3.35-5.148,6.609-7.72,9.916-1.3,1.666-2.354,3.577-5.074,2.06-.934-.521-2.093.416-3,.967a23.322,23.322,0,0,1-6.967,2.793A66.032,66.032,0,0,1,941.608,2724.124Z" fill="#fff"/>
    <path id="Trazado_57" data-name="Trazado 57" d="M261.213,2678.408c.285-.043,1.356-.207,2.428-.366,5.111-.758,9.217-3.555,13.208-6.554,14.477-10.877,25.892-24.612,36.466-39.128a10.061,10.061,0,0,0,.97-1.586c1.444-3.027,1.014-5.648-1.225-7.653s-4.816-2.074-7.657-.109a23.77,23.77,0,0,0-6.58,7.19c-8,12.916-19.012,22.942-30.781,32.252a17.2,17.2,0,0,1-5.178,3.07c-3.688,1.222-5.386.179-5.593-3.6a13.294,13.294,0,0,1,.344-5.091c3.246-8.969,4.511-18.507,9.01-27.18a166.046,166.046,0,0,0,10.108-23.482,95.623,95.623,0,0,1,8.456-18.565c1.289-2.162,1.823-4.3-.02-6.448a6.333,6.333,0,0,0-7.2-1.724c-3.245,1.08-5,3.6-6.236,6.526-6.631,15.738-13.4,31.423-19.731,47.281-3.449,8.639-6.476,17.465-7.551,26.841C243.225,2670.784,249.849,2678.54,261.213,2678.408Zm.986-47.906c4.944-13.883,9.634-27.876,17.259-40.621.478-.8.851-1.668,1.4-2.414.514-.7,1.161-1.951,2.121-1.176,1.174.948-.252,1.286-.787,1.927a19.5,19.5,0,0,0-2.148,3.57c-6.379,12.28-11.363,25.151-16.1,38.126-.406,1.113-.824,2.221-1.288,3.468A2.319,2.319,0,0,1,262.2,2630.5Z" fill="#fff"/>
    <path id="Trazado_58" data-name="Trazado 58" d="M540.792,2526.288c2.535-.2,3.853-1.7,4.523-3.983a47.633,47.633,0,0,0,1.883-13.291c0-1.549.121-3.111-.026-4.646a4.431,4.431,0,0,0-5.5-4.13c-2.7.458-4.245,1.908-4.611,5.032q-.945,8.07-1.446,16.189C535.4,2524.92,537.355,2526.558,540.792,2526.288Z" fill="#fff"/>
    <path id="Trazado_59" data-name="Trazado 59" d="M290.994,2569.83a7.721,7.721,0,1,0-7.634-7.676A7.654,7.654,0,0,0,290.994,2569.83Z" fill="#fff"/>
    <path id="Trazado_60" data-name="Trazado 60" d="M802.65,2736.684c-.079-3.7-2.922-6.262-6.785-6.119a6.663,6.663,0,0,0-6.665,6.429,7.026,7.026,0,0,0,7.156,7.031C799.885,2743.931,802.733,2740.61,802.65,2736.684Z" fill="#fff"/>
    <path id="Trazado_61" data-name="Trazado 61" d="M783.732,2429.9a6.453,6.453,0,0,0,6.173-6.316,6.358,6.358,0,0,0-5.787-6.162,6.238,6.238,0,0,0-6.359,6.011A6.42,6.42,0,0,0,783.732,2429.9Z" fill="#fff"/>
    <path id="Trazado_62" data-name="Trazado 62" d="M889.556,2593.405a6.332,6.332,0,0,0-.218-12.643,6.372,6.372,0,0,0-6.035,6.417C883.379,2590.528,886.439,2593.575,889.556,2593.405Z" fill="#fff"/>
    <path id="Trazado_63" data-name="Trazado 63" d="M455.879,2538.855a5.579,5.579,0,0,0,5.708,5.484,5.844,5.844,0,0,0,5.852-5.886,6.014,6.014,0,0,0-5.775-5.563A5.835,5.835,0,0,0,455.879,2538.855Z" fill="#fff"/>
    <path id="Trazado_64" data-name="Trazado 64" d="M435.806,2541.213a4.2,4.2,0,0,0-.945,1.922,8.039,8.039,0,0,1,1.021-2C435.856,2541.163,435.832,2541.191,435.806,2541.213Z" fill="#fff"/>
    <path id="Trazado_65" data-name="Trazado 65" d="M436.535,2540.3a2.017,2.017,0,0,1,2.7-.293C437.881,2538.324,437.208,2539.314,436.535,2540.3Z" fill="#fff"/>
  </g>
</svg>
