<svg xmlns="http://www.w3.org/2000/svg" width="838.117" height="314.997" viewBox="0 0 838.117 314.997">
  <path id="Trazado_218" data-name="Trazado 218" d="M-41.709,6466.23a107.785,107.785,0,0,0,92.733,74.825h.019A107.923,107.923,0,0,0,156.12,6484.9a106.969,106.969,0,0,0,12.389-40.96h-.015a72.459,72.459,0,0,1,78.927-65.228h.013a72.462,72.462,0,0,1,65.331,78.95l.018,0a107.735,107.735,0,0,0,97.252,117.212l.019,0a107.674,107.674,0,0,0,117.466-97.114h-.015a72.461,72.461,0,0,1,78.927-65.228h.013a72.461,72.461,0,0,1,65.331,78.951l37.007-.7a120.84,120.84,0,0,0-6.285-38.565,107.762,107.762,0,0,0-92.728-74.9l-.02,0a107.763,107.763,0,0,0-117.476,97.229h.014a72.4,72.4,0,0,1-78.916,65.113l-.012,0a72.4,72.4,0,0,1-65.343-78.835H348a107.759,107.759,0,0,0-97.242-117.328l-.02,0a107.762,107.762,0,0,0-117.475,97.23h.014a72.4,72.4,0,0,1-78.916,65.112h-.013a72.045,72.045,0,0,1-49.027-25.92c-12.336-14.888-18.163-19.219-16.347-38.453l-35.672-2.812C-45.586,6457.611-46.064,6452.465-41.709,6466.23Z" transform="translate(88.016 -6301.688)" fill="#f2aa4d" opacity="0.29" style="mix-blend-mode: color-dodge;isolation: isolate"/>
</svg>
